<svg width="30" height="30" viewBox="0 0 30 30" fill="none" xmlns="http://www.w3.org/2000/svg">
<path d="M15.0021 2.5C21.8996 2.5 27.4996 8.1 27.4996 14.9975C27.4996 21.8937 21.8996 27.4938 15.0021 27.4938C8.10586 27.4938 2.50586 21.8938 2.50586 14.9975C2.50586 8.1 8.10586 2.5 15.0021 2.5ZM14.0684 14.0625L9.69336 14.0625C9.17586 14.0625 8.75586 14.4825 8.75586 15C8.75586 15.5175 9.17586 15.9375 9.69336 15.9375L14.0684 15.9375L14.0684 20.3125C14.0684 20.83 14.4884 21.25 15.0059 21.25C15.5234 21.25 15.9434 20.83 15.9434 20.3125L15.9434 15.9375L20.3184 15.9375C20.8359 15.9375 21.2559 15.5175 21.2559 15C21.2559 14.4825 20.8359 14.0625 20.3184 14.0625L15.9434 14.0625L15.9434 9.6875C15.9434 9.17 15.5234 8.75 15.0059 8.75C14.4884 8.75 14.0684 9.17 14.0684 9.6875L14.0684 14.0625Z" fill="#3B4866"/>
</svg>
