<svg width="354" height="43" viewBox="0 0 354 43" fill="none" xmlns="http://www.w3.org/2000/svg">
<path d="M18.6435 40.6306C7.86075 40.6306 1.03331 34.9035 2.11159 21.5816C3.45943 4.9292 9.65787 2.45187 13.7014 2.04571C17.745 1.63956 28.0784 3.67033 28.0784 19.1043" stroke="#727DBC" stroke-width="4" stroke-linecap="round"/>
<path d="M74.0429 40.6306C63.8277 40.6306 57.3596 34.9035 58.3811 21.5816C59.658 4.9292 65.5302 2.45187 69.3609 2.04571C73.1917 1.63956 82.9813 3.67033 82.9813 19.1043" stroke="#727DBC" stroke-width="4" stroke-linecap="round"/>
<path d="M128.446 40.6306C117.663 40.6306 110.836 34.9035 111.914 21.5816C113.262 4.9292 119.461 2.45187 123.504 2.04571C127.548 1.63956 137.881 3.67033 137.881 19.1043" stroke="#727DBC" stroke-width="4" stroke-linecap="round"/>
<path d="M182.473 40.6306C172.257 40.6306 165.789 34.9035 166.811 21.5816C168.088 4.9292 173.96 2.45187 177.791 2.04571C181.621 1.63956 191.411 3.67033 191.411 19.1043" stroke="#727DBC" stroke-width="4" stroke-linecap="round"/>
<path d="M236.002 40.6306C225.787 40.6306 219.319 34.9035 220.34 21.5816C221.617 4.9292 227.489 2.45187 231.32 2.04571C235.151 1.63956 244.94 3.67033 244.94 19.1043" stroke="#727DBC" stroke-width="4" stroke-linecap="round"/>
<path d="M289.531 40.6306C279.316 40.6306 272.848 34.9035 273.869 21.5816C275.146 4.9292 281.018 2.45187 284.849 2.04571C288.68 1.63956 298.47 3.67033 298.47 19.1043" stroke="#727DBC" stroke-width="4" stroke-linecap="round"/>
<path d="M343.061 40.6306C332.845 40.6306 326.377 34.9035 327.399 21.5816C328.676 4.9292 334.548 2.45187 338.379 2.04571C342.209 1.63956 351.999 3.67033 351.999 19.1043" stroke="#727DBC" stroke-width="4" stroke-linecap="round"/>
</svg>
