<svg width="23" height="22" viewBox="0 0 23 22" fill="none" xmlns="http://www.w3.org/2000/svg">
<path d="M5.80078 20H9.80078C9.80078 21.1 8.90078 22 7.80078 22C6.70078 22 5.80078 21.1 5.80078 20Z" fill="#727DBC"/>
<path d="M10.8008 17H4.80078C4.2485 17 3.80078 17.4477 3.80078 18C3.80078 18.5523 4.2485 19 4.80078 19H10.8008C11.3531 19 11.8008 18.5523 11.8008 18C11.8008 17.4477 11.3531 17 10.8008 17Z" fill="#727DBC"/>
<path d="M15.1992 9.5C15.1992 13.3 12.4992 15.4 11.3992 16H3.99921C2.89921 15.4 0.199219 13.3 0.199219 9.5C0.199219 5.4 3.59922 2 7.69922 2C11.7992 2 15.1992 5.4 15.1992 9.5Z" fill="#656BB0"/>
<path d="M20.1008 7.39999L18.8008 8L20.1008 8.60001L20.8008 10L21.4008 8.60001L22.8008 8L21.4008 7.39999L20.8008 6L20.1008 7.39999Z" fill="#F7CB59"/>
<path d="M17.8008 6L18.7008 3.89999L20.8008 3L18.7008 2.10001L17.8008 0L16.8008 2.10001L14.8008 3L16.8008 3.89999L17.8008 6Z" fill="#F7CB59"/>
</svg>
