<svg width="15" height="20" viewBox="0 0 15 20" fill="none" xmlns="http://www.w3.org/2000/svg">
<path d="M6.9945 14.6579C6.11131 14.4253 5.4945 13.6538 5.4945 12.7818V11.4774C5.4945 11.1172 5.18924 10.8252 4.81268 10.8252C4.43612 10.8252 4.13086 11.1172 4.13086 11.4774V12.7818C4.13086 14.2389 5.15955 15.5275 6.63256 15.9154C6.99487 16.0109 7.37078 15.8075 7.47087 15.4598C7.57084 15.1125 7.35755 14.7535 6.9945 14.6579Z" fill="#3B4866"/>
<path d="M8.18182 2.17781V1.95656C8.18182 1.59695 8.48769 1.30437 8.86364 1.30437H10.2273C10.6038 1.30437 10.9091 1.01238 10.9091 0.652187C10.9091 0.291992 10.6038 0 10.2272 0H8.8636C7.73575 0 6.81814 0.877695 6.81814 1.95656V2.17781C3.0381 2.29305 0 5.26992 0 8.91316C0 9.27336 0.30526 9.56535 0.681822 9.56535H1.36364V12.8263C1.36373 15.4534 3.21595 17.7761 5.86797 18.4748C6.02916 18.5172 6.16878 18.6137 6.26124 18.7463L6.93273 19.7099C7.20238 20.0968 7.79787 20.0966 8.06731 19.7099L8.7388 18.7464C8.8313 18.6137 8.97092 18.5172 9.13203 18.4748C11.7841 17.7761 13.6364 15.4534 13.6364 12.8263V9.56539H14.3182C14.6947 9.56539 15 9.27339 15 8.9132C15 5.26992 11.9619 2.29305 8.18182 2.17781ZM12.2728 12.8263C12.2728 14.8683 10.8324 16.6739 8.77 17.2172C8.2927 17.343 7.87873 17.6291 7.60426 18.0228L7.50004 18.1723L7.39586 18.0228C7.12152 17.6291 6.70747 17.343 6.23012 17.2172C4.16771 16.6739 2.72729 14.8683 2.72729 12.8263V9.56535H12.2728L12.2728 12.8263ZM1.40436 8.26097C1.74213 5.57043 4.14316 3.47828 7.04552 3.47828H7.9546C10.857 3.47828 13.258 5.57039 13.5957 8.26097C13.105 8.26097 1.75805 8.26097 1.40436 8.26097Z" fill="#3B4866"/>
</svg>
