<svg width="20" height="20" viewBox="0 0 20 20" fill="none" xmlns="http://www.w3.org/2000/svg">
<path d="M10.0006 12.1433C9.17548 12.1441 8.36309 11.9403 7.63602 11.5503C6.90895 11.1603 6.28987 10.5961 5.83413 9.90835L7.02413 9.11763C7.34989 9.60887 7.79217 10.0118 8.31152 10.2906C8.83086 10.5694 9.41113 10.7152 10.0006 10.7152C10.59 10.7152 11.1703 10.5694 11.6896 10.2906C12.2089 10.0118 12.6512 9.60887 12.977 9.11763L14.167 9.90835C13.7112 10.5961 13.0922 11.1603 12.3651 11.5503C11.638 11.9403 10.8256 12.1441 10.0006 12.1433ZM12.8577 4.28621C12.5752 4.28621 12.299 4.36999 12.064 4.52696C11.8291 4.68394 11.646 4.90705 11.5379 5.16809C11.4297 5.42912 11.4015 5.71636 11.4566 5.99348C11.5117 6.27059 11.6478 6.52514 11.8475 6.72493C12.0473 6.92472 12.3019 7.06078 12.579 7.1159C12.8561 7.17102 13.1434 7.14273 13.4044 7.03461C13.6654 6.92648 13.8885 6.74338 14.0455 6.50845C14.2025 6.27352 14.2863 5.99732 14.2863 5.71478C14.2882 5.52664 14.2525 5.34002 14.1814 5.16583C14.1103 4.99165 14.0051 4.8334 13.8721 4.70037C13.7391 4.56733 13.5808 4.46217 13.4066 4.39106C13.2325 4.31994 13.0458 4.2843 12.8577 4.28621ZM7.14342 4.28621C6.86087 4.28621 6.58467 4.36999 6.34974 4.52696C6.11482 4.68394 5.93171 4.90705 5.82359 5.16809C5.71546 5.42912 5.68717 5.71636 5.74229 5.99348C5.79742 6.27059 5.93347 6.52514 6.13326 6.72493C6.33305 6.92472 6.5876 7.06078 6.86472 7.1159C7.14183 7.17102 7.42907 7.14273 7.69011 7.03461C7.95114 6.92648 8.17426 6.74338 8.33123 6.50845C8.4882 6.27352 8.57199 5.99732 8.57199 5.71478C8.5739 5.52664 8.53825 5.34002 8.46713 5.16583C8.39602 4.99165 8.29086 4.8334 8.15783 4.70037C8.02479 4.56733 7.86654 4.46217 7.69236 4.39106C7.51817 4.31994 7.33155 4.2843 7.14342 4.28621Z" fill="#3B4866"/>
<path d="M11.24 20L10 19.2857L12.8571 14.2857H17.1429C17.3305 14.286 17.5164 14.2492 17.6899 14.1775C17.8633 14.1059 18.0209 14.0006 18.1536 13.8679C18.2864 13.7352 18.3916 13.5776 18.4633 13.4042C18.535 13.2307 18.5717 13.0448 18.5714 12.8571V2.85714C18.5717 2.66946 18.535 2.48357 18.4633 2.31012C18.3916 2.13667 18.2864 1.97907 18.1536 1.84636C18.0209 1.71365 17.8633 1.60843 17.6899 1.53674C17.5164 1.46505 17.3305 1.42829 17.1429 1.42857H2.85714C2.66946 1.42829 2.48357 1.46505 2.31012 1.53674C2.13667 1.60843 1.97907 1.71365 1.84636 1.84636C1.71365 1.97907 1.60843 2.13667 1.53674 2.31012C1.46505 2.48357 1.42829 2.66946 1.42857 2.85714V12.8571C1.42829 13.0448 1.46505 13.2307 1.53674 13.4042C1.60843 13.5776 1.71365 13.7352 1.84636 13.8679C1.97907 14.0006 2.13667 14.1059 2.31012 14.1775C2.48357 14.2492 2.66946 14.286 2.85714 14.2857H9.28571V15.7143H2.85714C2.09938 15.7143 1.37266 15.4133 0.836838 14.8774C0.30102 14.3416 8.93386e-08 13.6149 8.93386e-08 12.8571V2.85714C-9.37538e-05 2.48191 0.0737443 2.11034 0.217296 1.76365C0.360848 1.41696 0.5713 1.10196 0.836629 0.836629C1.10196 0.5713 1.41696 0.360848 1.76365 0.217296C2.11034 0.0737443 2.48191 -9.37538e-05 2.85714 8.93386e-08H17.1429C17.5181 -9.37538e-05 17.8897 0.0737443 18.2364 0.217296C18.583 0.360848 18.898 0.5713 19.1634 0.836629C19.4287 1.10196 19.6392 1.41696 19.7827 1.76365C19.9263 2.11034 20.0001 2.48191 20 2.85714V12.8571C20 13.6149 19.699 14.3416 19.1632 14.8774C18.6273 15.4133 17.9006 15.7143 17.1429 15.7143H13.6893L11.24 20Z" fill="#3B4866"/>
</svg>
