<svg width="24" height="18" viewBox="0 0 24 18" fill="none" xmlns="http://www.w3.org/2000/svg">
<path d="M2.4 18C1.74 18 1.1748 17.7795 0.704402 17.3385C0.234002 16.8975 -0.000797963 16.368 2.03735e-06 15.75V2.25C2.03735e-06 1.63125 0.235202 1.10138 0.705602 0.660377C1.176 0.219377 1.7408 -0.00074809 2.4 1.91002e-06H21.6C22.26 1.91002e-06 22.8252 0.220502 23.2956 0.661502C23.766 1.1025 24.0008 1.632 24 2.25V15.75C24 16.3687 23.7648 16.8986 23.2944 17.3396C22.824 17.7806 22.2592 18.0007 21.6 18H2.4ZM12 10.125L2.4 4.5V15.75H21.6V4.5L12 10.125ZM12 7.875L21.6 2.25H2.4L12 7.875ZM2.4 4.5V2.25V15.75V4.5Z" fill="#3B4866"/>
</svg>
