<svg width="20" height="20" viewBox="0 0 20 20" fill="none" xmlns="http://www.w3.org/2000/svg">
<path d="M10.0008 1.66699C14.5991 1.66699 18.3324 5.40033 18.3324 9.99866C18.3324 14.5962 14.5991 18.3295 10.0008 18.3295C5.40326 18.3295 1.66992 14.5962 1.66992 9.99866C1.66992 5.40033 5.40325 1.66699 10.0008 1.66699ZM9.37826 9.37533L6.46159 9.37533C6.11659 9.37533 5.83659 9.65533 5.83659 10.0003C5.83659 10.3453 6.11659 10.6253 6.46159 10.6253L9.37826 10.6253L9.37826 13.542C9.37826 13.887 9.65826 14.167 10.0033 14.167C10.3483 14.167 10.6283 13.887 10.6283 13.542L10.6283 10.6253L13.5449 10.6253C13.8899 10.6253 14.1699 10.3453 14.1699 10.0003C14.1699 9.65533 13.8899 9.37533 13.5449 9.37533L10.6283 9.37533L10.6283 6.45866C10.6283 6.11366 10.3483 5.83366 10.0033 5.83366C9.65826 5.83366 9.37826 6.11366 9.37826 6.45866L9.37826 9.37533Z" fill="#3B4866"/>
</svg>
