<svg width="20" height="20" viewBox="0 0 20 20" fill="none" xmlns="http://www.w3.org/2000/svg">
<g clip-path="url(#clip0_655_596)">
<path d="M19.8182 0.182443C19.9047 0.269108 19.9639 0.379285 19.9883 0.499289C20.0128 0.619293 20.0014 0.743834 19.9557 0.857443L12.682 19.0412C12.6179 19.2013 12.5108 19.3407 12.3726 19.4439C12.2344 19.5471 12.0704 19.6102 11.8987 19.6262C11.7269 19.6423 11.5541 19.6106 11.3992 19.5347C11.2443 19.4589 11.1133 19.3417 11.0207 19.1962L7.04821 12.9524L0.804458 8.97994C0.658606 8.88742 0.541148 8.75641 0.465046 8.60135C0.388943 8.4463 0.357156 8.27324 0.373189 8.10126C0.389223 7.92928 0.452456 7.76508 0.555909 7.62676C0.659363 7.48845 0.799016 7.38141 0.959458 7.31744L19.1432 0.0461926C19.2568 0.000457904 19.3814 -0.0108918 19.5014 0.0135535C19.6214 0.0379987 19.7315 0.0971615 19.8182 0.183693L19.8182 0.182443ZM8.29571 12.5874L11.747 18.0099L17.6632 3.21994L8.29571 12.5874ZM16.7795 2.33619L1.98946 8.25244L7.41321 11.7024L16.7795 2.33619Z" fill="#3B4866"/>
</g>
<defs>
<clipPath id="clip0_655_596">
<rect width="20" height="20" fill="white"/>
</clipPath>
</defs>
</svg>
