<svg width="215" height="171" viewBox="0 0 215 171" fill="none" xmlns="http://www.w3.org/2000/svg">
<path d="M191.574 100.957C170.107 96.2609 165.798 98.0218 155.299 91.8587C152.792 90.3913 152.87 85.5979 166.816 86.7718C173.789 87.3588 178.568 84.9131 178.568 81.587C178.568 79.337 174.181 76.2066 167.521 77.7718C157.963 80.0218 151.774 77.4783 150.598 74.6414C149.11 71.0218 150.755 66.9131 175.356 59.2827C205.442 49.9892 188.205 33.0653 164.544 49.011C154.046 56.0544 149.11 58.9892 142.137 61.2392C135.869 63.2936 128.348 61.1414 134.067 56.4457C136.261 54.587 140.021 53.2175 141.04 50.9675C142.529 47.837 138.219 44.8044 134.459 44.8044C130.698 44.8044 125.997 46.174 124.509 49.5979C122.315 55.8588 116.674 55.4675 114.01 53.7066C108.917 50.2827 110.798 46.2718 111.66 40.1088C112.678 32.8697 119.651 16.0436 98.2621 17.3153C87.9202 17.9023 84.8646 23.9675 88.2336 34.6305C92.386 47.9349 86.1182 57.2283 79.3803 59.1849C71.3105 61.4349 67.2364 60.5544 49.9999 53.3153C40.8333 49.4023 30.7264 52.8262 28.6894 57.424C26.8874 61.4349 31.98 66.2283 39.7364 67.7935C51.6452 70.2392 56.8945 70.7283 62.3789 72.587C67.7848 74.4457 68.4116 78.7501 63.084 82.7609C57.678 86.7718 43.8105 83.4457 23.205 82.5653C-12.3648 81 -4.37336 105.261 29.0811 98.1196C48.1979 94.0109 56.2677 94.9892 59.5583 97.4348C64.1025 100.859 60.9686 105.554 52.1153 108.783C23.6751 119.348 55.5626 132.457 67.3148 117.88C72.2507 111.717 77.8917 109.859 83.4544 111.228C87.9985 112.304 93.8746 122.185 87.2934 135.391C81.4173 147.13 81.8091 159.848 95.5983 159.848C108.526 159.848 110.563 148.011 108.291 135.098C107.507 130.304 108.056 122.772 114.167 120.913C119.103 119.446 126.702 117.685 131.952 124.337C136.731 130.402 146.994 129.522 151.068 126.196C154.046 123.75 155.534 118.174 143.782 115.337C129.758 111.913 134.929 102.62 145.584 103.598C157.336 104.576 165.406 107.217 179.352 114.652C198.782 124.728 223.853 108 191.574 100.957Z" fill="#D6D8ED"/>
<path d="M147.543 13.4998C147.543 16.8258 149.737 19.565 152.479 19.565C155.221 19.565 157.415 16.8258 157.415 13.4998C157.415 10.1737 155.221 7.43457 152.479 7.43457C149.815 7.43457 147.543 10.1737 147.543 13.4998Z" fill="#AE98C7"/>
<path d="M211.082 76.3047C208.888 76.3047 207.086 78.4569 207.086 81.0982C207.086 83.7395 208.888 85.8916 211.082 85.8916C213.275 85.8916 214.999 83.7395 214.999 81.0982C214.999 78.4569 213.275 76.3047 211.082 76.3047Z" fill="#658DC9"/>
<path d="M161.959 123.945C157.493 123.945 153.811 128.347 153.811 133.826C153.811 139.304 157.415 143.706 161.959 143.706C166.425 143.706 170.107 139.304 170.107 133.826C170.107 128.347 166.425 123.945 161.959 123.945Z" fill="#7FCACA"/>
<path d="M75.1502 171C78.5191 171 81.2613 167.772 81.2613 163.859C81.2613 159.946 78.5191 156.718 75.1502 156.718C71.7812 156.718 69.0391 159.946 69.0391 163.859C69.0391 167.772 71.7812 171 75.1502 171Z" fill="#4CB676"/>
<path d="M21.8722 142.141C20.1485 142.141 18.7383 143.902 18.7383 145.956C18.7383 148.108 20.1485 149.771 21.8722 149.771C23.5958 149.771 25.0061 148.01 25.0061 145.956C25.0061 143.902 23.5958 142.141 21.8722 142.141Z" fill="#F7CB59"/>
<path d="M29.0802 37.0762C31.3522 37.0762 33.2326 34.8263 33.2326 31.9893C33.2326 29.1524 31.3522 26.9023 29.0802 26.9023C26.8081 26.9023 24.9277 29.1524 24.9277 31.9893C24.9277 34.8263 26.7297 37.0762 29.0802 37.0762Z" fill="#F29968"/>
<path d="M69.5861 13.5C72.6417 13.5 75.1488 10.4674 75.1488 6.74999C75.1488 3.0326 72.6417 0 69.5861 0C66.5306 0 64.0234 3.0326 64.0234 6.74999C64.1018 10.4674 66.5306 13.5 69.5861 13.5Z" fill="#EC6D6E"/>
<path d="M41.2255 57.2288C44.9079 57.2288 47.8851 53.1202 47.8851 48.131C47.8851 43.0441 44.9079 39.0332 41.2255 39.0332C37.5432 39.0332 34.566 43.1419 34.566 48.131C34.4876 53.1202 37.4648 57.2288 41.2255 57.2288Z" fill="#DADCEE"/>
<path d="M41.2262 54.6852C43.8117 54.6852 45.8487 51.7504 45.8487 48.033C45.8487 44.4135 43.7333 41.3809 41.2262 41.3809C38.7191 41.3809 36.6037 44.3157 36.6037 48.033C36.5253 51.7504 38.6407 54.6852 41.2262 54.6852Z" fill="#5F65A6"/>
<path d="M38.7195 47.2496C39.2679 47.2496 39.6596 46.5648 39.6596 45.6844C39.6596 44.8039 39.1896 44.1191 38.7195 44.1191C38.171 44.1191 37.7793 44.8039 37.7793 45.6844C37.7793 46.5648 38.171 47.2496 38.7195 47.2496Z" fill="#9297C6"/>
<path d="M28.6908 57.2288C32.3731 57.2288 35.3504 53.1202 35.3504 48.131C35.3504 43.0441 32.3731 39.0332 28.6908 39.0332C25.0085 39.0332 22.0312 43.1419 22.0312 48.131C22.0312 53.1202 25.0085 57.2288 28.6908 57.2288Z" fill="#DADCEE"/>
<path d="M28.6909 54.6852C31.2763 54.6852 33.3134 51.7504 33.3134 48.033C33.3134 44.4135 31.198 41.3809 28.6909 41.3809C26.1837 41.3809 24.0684 44.3157 24.0684 48.033C24.0684 51.7504 26.1837 54.6852 28.6909 54.6852Z" fill="#5F65A6"/>
<path d="M26.2624 47.2496C26.8109 47.2496 27.2026 46.5648 27.2026 45.6844C27.2026 44.8039 26.7325 44.1191 26.2624 44.1191C25.714 44.1191 25.3223 44.8039 25.3223 45.6844C25.3223 46.5648 25.714 47.2496 26.2624 47.2496Z" fill="#9297C6"/>
<path d="M50.9409 35.2176C51.5677 35.2176 52.1944 35.4133 52.8212 35.8046C53.448 36.1959 53.683 35.022 53.0563 34.7285C51.9594 34.1415 50.8625 33.848 49.9224 34.2393C45.9266 30.7176 41.7742 29.6415 40.6773 31.9894C40.1289 33.0654 40.7557 34.0437 41.9309 35.0219L41.0691 37.272L52.0377 45.7828L52.5078 44.5111C53.7614 45.685 54.6232 46.0763 55.1717 45.0002C56.1118 42.7502 54.3098 38.6415 50.9409 35.2176Z" fill="#A18071"/>
<path d="M40.4423 104.576L40.3639 119.641C40.2856 121.695 39.8155 122.771 38.797 122.771H32.6075C31.589 122.771 31.0406 121.695 31.0406 119.641L30.8839 104.869L17.6431 105.358C16.703 105.456 16.0762 104.087 16.0762 102.228V94.2063C16.0762 92.3476 16.703 91.0759 17.6431 91.0759L53.7614 90.8802C54.7016 90.8802 55.3283 92.1519 55.3283 94.0106V100.858C55.3283 102.717 54.7016 103.891 53.7614 103.989L40.4423 104.576ZM21.6388 86.8693C18.975 86.8693 17.5648 85.3041 17.5648 82.3693L17.2514 59.2824C17.173 56.152 18.975 54.6846 21.3255 54.6846L50.7842 54.7824C52.0378 54.7824 52.8212 55.6628 52.8212 57.1302V61.4346C52.8212 62.8041 52.0378 63.7824 50.7842 63.7824H27.2799V66.6194L50.1574 66.5215C51.1759 66.5215 51.8027 67.402 51.8027 68.478V72.7824C51.8027 74.1519 51.0192 74.7389 49.844 74.7389L27.2015 74.8367V78.065L51.1759 78.1628C52.4295 78.065 52.8996 78.2606 53.1346 79.5324V83.7389C53.2913 85.0106 52.8996 85.8911 51.8811 86.0867L21.6388 86.8693Z" fill="url(#paint0_linear_633_1802)"/>
<path d="M20.3859 69.7501C20.3859 63.9784 21.2478 58.9893 20.5426 58.9893C19.8375 58.9893 19.2891 63.6849 19.2891 69.4567C19.2891 75.2284 19.8375 79.924 20.5426 79.924C21.3261 79.924 20.3859 75.6197 20.3859 69.7501Z" fill="#9297C6"/>
<path d="M18.8176 98.4134C18.8176 95.87 19.6794 93.7178 18.9743 93.7178C18.2691 93.7178 17.7207 95.7721 17.7207 98.3156C17.7207 100.859 18.2691 102.913 18.9743 102.913C19.6794 102.913 18.8176 100.957 18.8176 98.4134Z" fill="#9297C6"/>
<path d="M20.9341 84.8156C21.4042 84.8156 21.7959 84.3265 21.7959 83.6417C21.7959 83.0547 21.4042 82.4678 20.9341 82.4678C20.464 82.4678 20.0723 82.9569 20.0723 83.6417C20.0723 84.3265 20.464 84.8156 20.9341 84.8156Z" fill="#9297C6"/>
<path fill-rule="evenodd" clip-rule="evenodd" d="M87.1358 113.87C88.3893 111.424 90.5831 110.739 93.2469 111.815H93.3252C95.9107 113.381 97.321 115.533 97.6344 118.272C98.2611 124.924 91.1315 131.772 90.2697 132.555L88.9378 133.729L89.0161 131.381C89.0161 131.381 89.0945 127.37 86.9791 122.381C85.8822 119.739 85.9606 116.218 87.1358 113.87Z" fill="#404C97"/>
<path d="M85.3343 100.272C85.4909 101.837 79.7716 103.403 78.8314 103.696C72.1718 105.555 69.5864 106.044 61.7516 105.75C59.3228 105.653 57.9909 103.989 57.9909 100.566L57.5992 61.6308C57.5208 60.1635 58.0692 59.3809 59.1661 59.3809L65.7473 59.4787C66.8442 59.4787 67.2359 60.2613 67.3143 61.7287L67.706 93.7178C72.5636 94.0112 77.8912 93.4243 82.8271 92.446C84.0023 92.2504 84.4724 92.6417 84.6291 93.9134L85.3343 100.272Z" fill="url(#paint1_linear_633_1802)"/>
<path d="M61.6731 102.62C62.6916 102.62 60.968 101.152 60.968 98.9023C60.968 96.6523 62.6916 94.4023 61.6731 94.4023C60.6546 94.4023 59.8711 96.261 59.8711 98.511C59.8711 100.859 60.6546 102.62 61.6731 102.62Z" fill="#9297C6"/>
<path d="M90.7406 109.369C89.722 109.369 89.252 108.489 89.252 107.022L89.487 54.6848C89.487 53.2174 89.9571 52.4348 90.8972 52.5326L97.0084 52.8261C98.0269 52.8261 98.497 53.7065 98.4186 55.0761L97.0867 107.413C97.0867 108.88 96.5383 109.663 95.5198 109.565L90.7406 109.369Z" fill="url(#paint2_linear_633_1802)"/>
<path d="M133.988 78.8478C134.223 80.1196 133.518 80.7065 132.577 81C128.425 82.1739 124.351 82.9565 120.198 83.4456V89.413C120.198 90.7826 119.65 91.3696 118.553 91.3696H113.304C112.207 91.3696 111.737 90.587 111.737 89.2174L111.659 84.0326C109.465 84.1304 107.193 84.1304 104.921 84.1304C103.902 84.1304 103.275 83.3478 103.275 82.0761V77.5761C103.275 76.3044 103.902 75.5218 104.921 75.5218C114.557 75.6196 122.784 75.6196 131.637 73.663C132.656 73.3696 133.204 74.0544 133.361 75.3261L133.988 78.8478ZM115.576 116.315C114.166 116.315 113.147 115.043 113.147 113.185L112.99 105.163C112.912 103.402 114.009 102.13 115.498 102.033L135.711 101.543V99.8804L114.244 100.272C113.226 100.272 112.599 99.3913 112.599 98.2174V94.9891C112.599 93.6196 113.147 92.9348 114.244 92.9348L143.076 92.4457C144.643 92.3478 145.583 93.5218 145.583 95.5761L145.27 104.478C145.191 106.239 144.251 107.609 142.763 107.609L122.706 107.804V109.076L144.408 109.467C145.426 109.467 146.053 110.25 146.053 111.522L145.975 113.967C145.975 115.239 145.348 116.022 144.33 116.022L115.576 116.315ZM139.472 90.7826L127.485 90.8804C126.466 90.8804 125.84 90.0978 125.84 88.8261V85.5978C125.84 84.3261 126.466 83.5435 127.485 83.5435L136.887 83.6413L136.573 55.4674C136.573 54.0979 137.043 53.4131 138.14 53.4131H144.8C145.897 53.4131 146.445 54.0979 146.367 55.4674L145.818 88.7283C145.818 90.0978 145.27 90.7826 144.173 90.7826H139.472Z" fill="url(#paint3_linear_633_1802)"/>
<path d="M153.812 108.587C152.715 108.685 152.088 107.707 152.088 106.435V100.076C152.088 98.7065 152.793 97.924 153.812 97.924L194.082 97.8261C195.179 97.8261 195.806 98.7066 195.806 99.9783V105.554C195.806 106.924 195.101 107.707 194.082 107.707L153.812 108.587ZM159.296 87.6522C156.632 87.7501 155.222 85.8913 155.222 82.5653L154.908 58.0109C154.83 54.587 156.632 52.924 158.982 52.924L189.381 52.8262C190.635 52.8262 191.418 53.8044 191.418 55.3697V61.0435C191.418 62.6088 190.635 63.587 189.381 63.587L165.329 63.9783V76.4022L189.851 76.5001C191.105 76.5001 191.81 77.1849 191.81 78.4566V84.424C191.81 85.7935 191.262 86.3805 190.165 86.4783L159.296 87.6522Z" fill="url(#paint4_linear_633_1802)"/>
<path d="M119.416 48.0322C111.111 48.0322 104.451 53.8039 104.451 61.0431C104.451 68.2822 111.189 74.0539 119.416 74.0539C120.826 74.0539 121.923 73.0757 121.923 71.9018C121.923 71.3148 121.688 70.8257 121.296 70.4344C120.904 70.0431 120.669 69.5539 120.669 68.967C120.669 67.7931 121.766 66.8148 123.176 66.8148H126.075C130.698 66.8148 134.38 63.5865 134.38 59.5757C134.458 53.217 127.72 48.0322 119.416 48.0322ZM110.327 61.0431C108.917 61.0431 107.82 60.0648 107.82 58.8909C107.82 57.717 108.917 56.7387 110.327 56.7387C111.738 56.7387 112.834 57.717 112.834 58.8909C112.756 60.0648 111.659 61.0431 110.327 61.0431ZM115.263 55.2713C113.853 55.2713 112.756 54.2931 112.756 53.1192C112.756 51.9452 113.853 50.967 115.263 50.967C116.673 50.967 117.77 51.9452 117.77 53.1192C117.77 54.2931 116.673 55.2713 115.263 55.2713ZM123.646 55.2713C122.236 55.2713 121.139 54.2931 121.139 53.1192C121.139 51.9452 122.236 50.967 123.646 50.967C125.057 50.967 126.153 51.9452 126.153 53.1192C126.075 54.2931 124.978 55.2713 123.646 55.2713ZM128.582 61.0431C127.172 61.0431 126.075 60.0648 126.075 58.8909C126.075 57.717 127.172 56.7387 128.582 56.7387C129.993 56.7387 131.089 57.717 131.089 58.8909C131.089 60.0648 129.993 61.0431 128.582 61.0431Z" fill="url(#paint5_linear_633_1802)"/>
<path d="M157.806 71.1193C157.806 65.3475 158.668 60.3584 157.963 60.3584C157.257 60.3584 156.709 65.054 156.709 70.8258C156.709 76.5975 157.257 81.2932 157.963 81.2932C158.668 81.1953 157.806 76.891 157.806 71.1193Z" fill="#9297C6"/>
<path d="M154.202 103.207C154.202 101.544 155.064 100.076 154.359 100.076C153.654 100.076 153.105 101.446 153.105 103.109C153.105 104.772 153.654 106.141 154.359 106.141C155.064 106.141 154.202 104.87 154.202 103.207Z" fill="#9297C6"/>
<path d="M105.548 80.0212C105.548 78.2603 106.41 76.793 105.705 76.793C105 76.793 104.451 78.1625 104.451 79.9234C104.451 81.6843 105 83.0538 105.705 83.0538C106.488 83.0538 105.548 81.7821 105.548 80.0212Z" fill="#9297C6"/>
<path d="M115.577 109.76C115.577 107.217 116.439 104.967 115.734 104.967C115.029 104.967 114.48 107.021 114.48 109.565C114.48 112.108 115.029 114.162 115.734 114.162C116.518 114.26 115.577 112.304 115.577 109.76Z" fill="#9297C6"/>
<path d="M142.999 73.9567C141.902 73.8589 143.704 76.5002 143.469 80.6089C143.312 84.6198 141.275 88.5328 142.294 88.5328C143.391 88.6306 144.409 85.4024 144.566 81.3915C144.801 77.3806 144.096 74.0546 142.999 73.9567Z" fill="#9297C6"/>
<path d="M123.025 61.7385C121.967 61.5127 121.759 61.5982 121.242 61.3038C121.119 61.2334 121.121 61.0029 121.808 61.0574C122.152 61.0847 122.386 60.9703 122.386 60.8074C122.386 60.6987 122.168 60.5476 121.844 60.6227C121.375 60.7314 121.07 60.6082 121.013 60.4706C120.941 60.2966 121.023 60.0984 122.231 59.7349C123.712 59.2891 122.863 58.4777 121.7 59.2419C121.184 59.5801 120.941 59.7205 120.598 59.8292C120.29 59.9267 119.92 59.8255 120.2 59.601C120.308 59.5138 120.492 59.4469 120.543 59.3399C120.615 59.1878 120.403 59.0461 120.218 59.0461C120.033 59.0461 119.803 59.1114 119.73 59.2742C119.622 59.5734 119.345 59.5583 119.215 59.4721C118.965 59.3072 119.055 59.1151 119.098 58.8176C119.149 58.4683 119.492 57.6613 118.438 57.7209C117.929 57.7495 117.779 58.0382 117.944 58.5538C118.148 59.1938 117.839 59.6407 117.508 59.7309C117.111 59.8396 116.909 59.7985 116.063 59.4482C115.613 59.2618 115.116 59.4253 115.015 59.6437C114.925 59.8362 115.178 60.0688 115.557 60.1438C116.141 60.2599 116.4 60.2868 116.671 60.3757C116.936 60.4628 116.969 60.6738 116.705 60.8646C116.44 61.0558 115.756 60.8976 114.744 60.8542C112.996 60.7791 113.389 61.9435 115.033 61.6009C115.972 61.4051 116.37 61.4485 116.533 61.5683C116.757 61.7335 116.603 61.9566 116.165 62.1154C114.768 62.6229 116.334 63.2535 116.912 62.5502C117.154 62.2564 117.432 62.1662 117.707 62.2312C117.931 62.2844 118.218 62.7555 117.894 63.3912C117.604 63.9565 117.624 64.5656 118.303 64.5656C118.938 64.5656 119.037 63.9965 118.929 63.3767C118.889 63.1448 118.919 62.7854 119.218 62.6952C119.459 62.6229 119.836 62.5421 120.091 62.8618C120.326 63.1553 120.832 63.1119 121.031 62.949C121.176 62.8295 121.25 62.565 120.672 62.4277C119.983 62.2638 120.236 61.818 120.76 61.8617C121.338 61.9098 121.735 62.0377 122.422 62.391C123.381 62.8834 124.613 62.0777 123.025 61.7385Z" fill="url(#paint6_linear_633_1802)"/>
<path d="M123.025 61.7385C121.967 61.5127 121.759 61.5982 121.242 61.3038C121.119 61.2334 121.121 61.0029 121.808 61.0574C122.152 61.0847 122.386 60.9703 122.386 60.8074C122.386 60.6987 122.168 60.5476 121.844 60.6227C121.375 60.7314 121.07 60.6082 121.013 60.4706C120.941 60.2966 121.023 60.0984 122.231 59.7349C123.712 59.2891 122.863 58.4777 121.7 59.2419C121.184 59.5801 120.941 59.7205 120.598 59.8292C120.29 59.9267 119.92 59.8255 120.2 59.601C120.308 59.5138 120.492 59.4469 120.543 59.3399C120.615 59.1878 120.403 59.0461 120.218 59.0461C120.033 59.0461 119.803 59.1114 119.73 59.2742C119.622 59.5734 119.345 59.5583 119.215 59.4721C118.965 59.3072 119.055 59.1151 119.098 58.8176C119.149 58.4683 119.492 57.6613 118.438 57.7209C117.929 57.7495 117.779 58.0382 117.944 58.5538C118.148 59.1938 117.839 59.6407 117.508 59.7309C117.111 59.8396 116.909 59.7985 116.063 59.4482C115.613 59.2618 115.116 59.4253 115.015 59.6437C114.925 59.8362 115.178 60.0688 115.557 60.1438C116.141 60.2599 116.4 60.2868 116.671 60.3757C116.936 60.4628 116.969 60.6738 116.705 60.8646C116.44 61.0558 115.756 60.8976 114.744 60.8542C112.996 60.7791 113.389 61.9435 115.033 61.6009C115.972 61.4051 116.37 61.4485 116.533 61.5683C116.757 61.7335 116.603 61.9566 116.165 62.1154C114.768 62.6229 116.334 63.2535 116.912 62.5502C117.154 62.2564 117.432 62.1662 117.707 62.2312C117.931 62.2844 118.218 62.7555 117.894 63.3912C117.604 63.9565 117.624 64.5656 118.303 64.5656C118.938 64.5656 119.037 63.9965 118.929 63.3767C118.889 63.1448 118.919 62.7854 119.218 62.6952C119.459 62.6229 119.836 62.5421 120.091 62.8618C120.326 63.1553 120.832 63.1119 121.031 62.949C121.176 62.8295 121.25 62.565 120.672 62.4277C119.983 62.2638 120.236 61.818 120.76 61.8617C121.338 61.9098 121.735 62.0377 122.422 62.391C123.381 62.8834 124.613 62.0777 123.025 61.7385Z" fill="url(#paint7_linear_633_1802)"/>
<defs>
<linearGradient id="paint0_linear_633_1802" x1="52.7063" y1="67.4775" x2="1.25634" y2="97.5517" gradientUnits="userSpaceOnUse">
<stop stop-color="#404C97"/>
<stop offset="0.4406" stop-color="#676EB2"/>
<stop offset="1" stop-color="#404C97" stop-opacity="0.9167"/>
</linearGradient>
<linearGradient id="paint1_linear_633_1802" x1="83.931" y1="68.7588" x2="48.2953" y2="90.3651" gradientUnits="userSpaceOnUse">
<stop stop-color="#404C97"/>
<stop offset="0.4406" stop-color="#676EB2"/>
<stop offset="1" stop-color="#404C97" stop-opacity="0.9167"/>
</linearGradient>
<linearGradient id="paint2_linear_633_1802" x1="102.73" y1="76.2795" x2="80.6987" y2="83.4686" gradientUnits="userSpaceOnUse">
<stop stop-color="#404C97"/>
<stop offset="0.4406" stop-color="#676EB2"/>
<stop offset="1" stop-color="#404C97" stop-opacity="0.9167"/>
</linearGradient>
<linearGradient id="paint3_linear_633_1802" x1="151.792" y1="104.625" x2="103.622" y2="76.4677" gradientUnits="userSpaceOnUse">
<stop stop-color="#404C97"/>
<stop offset="0.4406" stop-color="#676EB2"/>
<stop offset="1" stop-color="#404C97" stop-opacity="0.9167"/>
</linearGradient>
<linearGradient id="paint4_linear_633_1802" x1="197.23" y1="103.938" x2="144.774" y2="73.275" gradientUnits="userSpaceOnUse">
<stop stop-color="#404C97"/>
<stop offset="0.4406" stop-color="#676EB2"/>
<stop offset="1" stop-color="#404C97" stop-opacity="0.9167"/>
</linearGradient>
<linearGradient id="paint5_linear_633_1802" x1="129.417" y1="69.8884" x2="105.619" y2="55.9778" gradientUnits="userSpaceOnUse">
<stop stop-color="#404C97"/>
<stop offset="0.4406" stop-color="#676EB2"/>
<stop offset="1" stop-color="#404C97" stop-opacity="0.9167"/>
</linearGradient>
<linearGradient id="paint6_linear_633_1802" x1="116.683" y1="57.1471" x2="113.298" y2="62.0164" gradientUnits="userSpaceOnUse">
<stop stop-color="#E10127"/>
<stop offset="0.474909" stop-color="#E10127"/>
<stop offset="0.810417" stop-color="#EB012A"/>
<stop offset="1" stop-color="#E10127"/>
</linearGradient>
<linearGradient id="paint7_linear_633_1802" x1="118.743" y1="58.7504" x2="122.083" y2="60.9206" gradientUnits="userSpaceOnUse">
<stop stop-color="#FE7800"/>
<stop offset="0.474909" stop-color="#FC7003" stop-opacity="0.87"/>
<stop offset="0.773958" stop-color="#EB012A"/>
<stop offset="1" stop-color="#E10127"/>
</linearGradient>
</defs>
</svg>
