<svg width="223" height="171" viewBox="0 0 223 171" fill="none" xmlns="http://www.w3.org/2000/svg">
<g filter="url(#filter0_d_333_285307)">
<path d="M202.874 96.1473C180.552 91.7347 176.152 93.4051 165.245 87.6509C162.635 86.2765 162.694 81.7718 177.192 82.8371C184.461 83.3698 189.392 81.1339 189.392 77.951C189.392 75.8269 184.798 72.8742 177.947 74.3407C168.038 76.4648 161.607 74.0579 160.409 71.3683C158.885 67.9684 160.609 64.095 186.12 56.9928C217.383 48.2793 199.455 32.4242 174.9 47.3587C164.023 53.9677 158.885 56.71 151.639 58.8341C145.137 60.7412 137.336 58.7618 143.242 54.3754C145.533 52.6722 149.419 51.3636 150.488 49.2723C152.011 46.2999 147.523 43.5313 143.626 43.5313C139.728 43.5313 134.856 44.8071 133.333 47.99C131.041 53.8362 125.207 53.5403 122.455 51.8568C117.181 48.6345 119.083 44.8794 119.986 39.0661C121.055 32.24 128.307 16.4704 106.05 17.6343C95.3138 18.1933 92.1486 23.8357 95.615 33.9104C99.9318 46.4183 93.4005 55.1514 86.4204 56.9139C78.0348 59.038 73.777 58.2357 55.9133 51.3899C46.4175 47.7467 35.9355 50.9427 33.7918 55.2106C31.9021 58.9722 37.2288 63.5163 45.2364 64.9828C57.5668 67.2516 63.0352 67.7777 68.7575 69.5138C74.3498 71.217 75.0467 75.3403 69.4661 79.069C63.8737 82.8043 49.4351 79.7135 28.0814 78.8651C-8.83302 77.3987 -0.536001 100.152 34.1757 93.4577C54.0059 89.6303 62.3915 90.4787 65.8284 92.8198C70.5704 96.0487 67.3106 100.409 58.0688 103.513C28.5833 113.43 61.6415 125.753 73.842 112.009C78.9442 106.268 84.8141 104.506 90.6132 105.775C95.3493 106.814 101.414 116.021 94.5579 128.443C88.4518 139.491 88.8711 151.394 103.203 151.394C116.603 151.394 118.699 140.273 116.414 128.16C115.563 123.629 116.195 116.606 122.52 114.843C127.604 113.43 135.553 111.851 140.95 118.099C145.911 123.833 156.588 122.985 160.786 119.802C163.851 117.467 165.41 112.298 153.21 109.615C138.671 106.413 144.009 97.6993 155.07 98.5542C167.277 99.4946 175.65 101.994 190.154 108.899C210.403 118.519 236.399 102.776 202.874 96.1473Z" fill="#D8DAF1"/>
</g>
<path d="M203.18 69.0476C203.18 72.4541 206.014 75.2095 209.493 75.2095C212.983 75.2095 215.817 72.4541 215.817 69.0476C215.817 65.6477 212.983 62.8857 209.493 62.8857C206.008 62.8857 203.18 65.6477 203.18 69.0476Z" fill="#B69BE3"/>
<path d="M204.444 121.629C201.65 121.629 199.389 123.839 199.389 126.561C199.389 129.284 201.65 131.487 204.444 131.487C207.237 131.487 209.493 129.284 209.493 126.561C209.499 123.839 207.237 121.629 204.444 121.629Z" fill="#6197FF"/>
<path d="M177.444 135.264C171.722 135.264 167.08 139.788 167.08 145.371C167.08 150.954 171.722 155.479 177.444 155.479C183.166 155.479 187.808 150.954 187.808 145.371C187.802 139.788 183.166 135.264 177.444 135.264Z" fill="#73E4DE"/>
<path d="M79.5453 170.998C83.87 170.998 87.3759 167.577 87.3759 163.356C87.3759 159.136 83.87 155.715 79.5453 155.715C75.2207 155.715 71.7148 159.136 71.7148 163.356C71.7148 167.577 75.2207 170.998 79.5453 170.998Z" fill="#35CC7B"/>
<path d="M31.9787 145.304C29.7524 145.304 27.9395 147.066 27.9395 149.249C27.9395 151.42 29.7524 153.189 31.9787 153.189C34.2109 153.189 36.018 151.426 36.018 149.249C36.018 147.06 34.2109 145.304 31.9787 145.304Z" fill="#FFD057"/>
<path d="M41.1546 37.9437C44.0836 37.9437 46.4576 35.6223 46.4576 32.7682C46.4576 29.9142 44.0836 27.5928 41.1546 27.5928C38.2255 27.5928 35.8516 29.9142 35.8516 32.7682C35.8516 35.6223 38.2255 37.9437 41.1546 37.9437Z" fill="#FF9E68"/>
<path d="M92.9261 13.7968C96.8296 13.7968 99.9948 10.706 99.9948 6.89183C99.9948 3.0908 96.8296 0 92.9261 0C89.0227 0 85.8574 3.0908 85.8574 6.89183C85.8633 10.706 89.0286 13.7968 92.9261 13.7968Z" fill="#FF7171"/>
<path d="M57.6641 57.522C62.3736 57.522 66.1914 53.3412 66.1914 48.1839C66.1914 43.0266 62.3736 38.8457 57.6641 38.8457C52.9545 38.8457 49.1367 43.0266 49.1367 48.1839C49.1367 53.3412 52.9545 57.522 57.6641 57.522Z" fill="#DBDDEF"/>
<path d="M57.6635 54.9654C60.9478 54.9654 63.6102 51.9298 63.6102 48.1853C63.6102 44.4408 60.9478 41.4053 57.6635 41.4053C54.3792 41.4053 51.7168 44.4408 51.7168 48.1853C51.7168 51.9298 54.3792 54.9654 57.6635 54.9654Z" fill="#646AB0"/>
<path d="M54.5409 47.2885C55.2225 47.2885 55.7751 46.5937 55.7751 45.7366C55.7751 44.8794 55.2225 44.1846 54.5409 44.1846C53.8592 44.1846 53.3066 44.8794 53.3066 45.7366C53.3066 46.5937 53.8592 47.2885 54.5409 47.2885Z" fill="#959BCD"/>
<path d="M41.7558 57.522C46.4654 57.522 50.2832 53.3412 50.2832 48.1839C50.2832 43.0266 46.4654 38.8457 41.7558 38.8457C37.0463 38.8457 33.2285 43.0266 33.2285 48.1839C33.2285 53.3412 37.0463 57.522 41.7558 57.522Z" fill="#DBDDEF"/>
<path d="M41.7553 54.9654C45.0396 54.9654 47.702 51.9298 47.702 48.1853C47.702 44.4408 45.0396 41.4053 41.7553 41.4053C38.471 41.4053 35.8086 44.4408 35.8086 48.1853C35.8086 51.9298 38.471 54.9654 41.7553 54.9654Z" fill="#646AB0"/>
<path d="M38.6268 47.2885C39.3084 47.2885 39.861 46.5937 39.861 45.7366C39.861 44.8794 39.3084 44.1846 38.6268 44.1846C37.9452 44.1846 37.3926 44.8794 37.3926 45.7366C37.3926 46.5937 37.9452 47.2885 38.6268 47.2885Z" fill="#959BCD"/>
<path d="M177.219 80.9744C177.497 82.5857 176.941 83.353 175.758 83.6599C167.34 85.7316 156.974 87.3429 147.79 87.1127C144.659 87.036 143.059 85.2712 142.92 81.8185L141.946 57.0352C141.807 53.1987 143.338 51.6642 146.816 51.6642L169.705 51.5107C171.166 51.5107 172.14 52.5849 172.14 54.1962V59.5672C172.14 61.1785 171.166 62.2527 169.705 62.2527L153.634 62.4829L153.704 75.7569C159.896 75.9104 167.618 75.0664 173.88 73.8387C175.341 73.5318 175.967 73.9922 176.175 75.3733L177.219 80.9744ZM192.323 117.965C191.906 119.116 190.932 119.577 189.401 119.346C183.279 118.349 177.017 115.74 171.869 110.83C167.555 115.28 161.781 118.579 155.241 119.96C153.85 120.267 152.528 119.883 151.971 118.656L150.023 113.668C149.467 112.364 149.884 110.753 151.345 110.369C160.459 107.837 166.721 100.701 167.486 93.2587C167.764 90.8801 168.669 89.8059 170.269 89.8059H177.296C179.174 89.8059 180.148 91.2637 180.009 93.2587C179.8 96.558 178.896 99.7806 177.504 102.773C182.444 105.996 187.94 107.223 193.158 108.221C194.48 108.451 194.828 110.062 194.48 111.136L192.323 117.965ZM182.653 88.4938C181.261 88.4938 180.565 87.7265 180.565 86.192L180.148 52.2013C180.148 50.6667 180.774 49.8994 182.166 49.8994H190.653C192.045 49.8994 192.74 50.6667 192.671 52.2013L192.462 62.7131H198.097C199.558 62.7131 200.532 63.7873 200.532 65.3986V71.6903C200.532 73.3016 199.558 74.3758 198.097 74.3758H192.184L191.975 86.192C191.906 87.7265 191.279 88.4938 189.888 88.4938H182.653Z" fill="url(#paint0_linear_333_285307)"/>
<path d="M145.752 69.8781C145.849 64.1217 147.271 59.1566 146.211 59.135C145.151 59.1133 144.213 63.7622 144.116 69.5186C144.02 75.275 144.801 79.9589 145.861 79.9806C146.921 80.0022 145.655 75.6344 145.752 69.8781Z" fill="#959BCD"/>
<path d="M163.783 105.057C160.185 108.921 156.094 111.336 156.862 112.077C157.631 112.819 161.171 110.287 164.769 106.423C168.366 102.559 170.66 98.8257 169.892 98.0842C169.123 97.3427 167.381 101.193 163.783 105.057Z" fill="#959BCD"/>
<path d="M188.016 83.8817C186.399 85.6177 184.027 86.1871 184.796 86.9286C185.564 87.67 187.498 86.8638 189.114 85.1277C190.731 83.3917 191.418 81.3833 190.649 80.6418C189.881 79.9004 189.632 82.1457 188.016 83.8817Z" fill="#959BCD"/>
<path d="M159.616 56.1288C165.165 56.1288 169.663 51.2507 169.663 45.2333C169.663 39.216 165.165 34.3379 159.616 34.3379C154.068 34.3379 149.57 39.216 149.57 45.2333C149.57 51.2507 154.068 56.1288 159.616 56.1288Z" fill="#DBDDEF"/>
<path d="M159.617 53.1417C163.486 53.1417 166.623 49.6 166.623 45.231C166.623 40.8621 163.486 37.3203 159.617 37.3203C155.748 37.3203 152.611 40.8621 152.611 45.231C152.611 49.6 155.748 53.1417 159.617 53.1417Z" fill="#646AB0"/>
<path d="M155.929 44.1919C156.732 44.1919 157.383 43.3812 157.383 42.3811C157.383 41.381 156.732 40.5703 155.929 40.5703C155.126 40.5703 154.475 41.381 154.475 42.3811C154.475 43.3812 155.126 44.1919 155.929 44.1919Z" fill="#959BCD"/>
<path d="M70.094 35.0057C70.8617 34.9991 71.6649 35.2424 72.4444 35.6041C73.2121 35.9592 73.4955 34.8216 72.7337 34.473C71.3814 33.8483 69.9818 33.5786 68.7122 33.9535C63.6218 30.3234 58.3424 29.2713 56.8838 31.6124C56.1869 32.7303 56.9546 33.6707 58.5018 34.7492L57.3562 37.0377L71.3637 45.7512L72.0074 44.4622C73.5605 45.6328 74.6884 46.0668 75.3971 44.9291C76.7317 42.7787 74.3872 38.5239 70.094 35.0057Z" fill="#A48172"/>
<path d="M56.6783 105.901L56.5288 121.331C56.454 123.431 55.856 124.518 54.5104 124.518H46.5867C45.2411 124.518 44.5683 123.431 44.5683 121.331L44.3441 106.191L27.45 106.698C26.2539 106.77 25.4316 105.394 25.4316 103.51V95.3248C25.4316 93.4413 26.2539 92.1374 27.45 92.1374L73.5724 91.9201C74.7684 91.9201 75.5907 93.224 75.5907 95.1075V102.134C75.5907 104.018 74.7684 105.249 73.5724 105.321L56.6783 105.901ZM32.6827 87.8635C29.3188 87.8635 27.5247 86.2698 27.5247 83.2273L27.151 59.6119C27.0762 56.4246 29.3188 54.9033 32.3089 54.9033L69.9095 54.9758C71.4793 54.9758 72.5258 55.9175 72.5258 57.3663V61.7851C72.5258 63.2339 71.4793 64.1756 69.9095 64.1756H39.9337V67.0732L69.162 66.9283C70.5075 66.9283 71.2551 67.8701 71.2551 68.9567V73.3755C71.2551 74.7519 70.2833 75.4038 68.7882 75.4038L39.9337 75.5487V78.8085L70.5075 78.8809C72.0773 78.7361 72.7501 79.0258 72.9744 80.2573V84.5312C73.1986 85.8352 72.6754 86.7044 71.4046 86.9218L32.6827 87.8635Z" fill="url(#paint1_linear_333_285307)"/>
<path d="M31.157 70.3848C31.157 64.4751 32.2937 59.3533 31.3935 59.3505C30.4934 59.3476 29.7637 64.1361 29.7637 70.0457C29.7637 75.9554 30.4934 80.7484 31.3935 80.7512C32.2937 80.7541 31.157 76.2945 31.157 70.3848Z" fill="#959BCD"/>
<path d="M29.1043 99.67C29.1043 97.093 30.241 94.8617 29.3408 94.8588C28.4406 94.856 27.7109 96.9427 27.7109 99.5196C27.7109 102.097 28.4406 104.188 29.3408 104.191C30.241 104.194 29.1043 102.247 29.1043 99.67Z" fill="#959BCD"/>
<path d="M31.8158 85.7404C32.4453 85.7404 32.9557 85.2174 32.9557 84.5723C32.9557 83.9272 32.4453 83.4043 31.8158 83.4043C31.1862 83.4043 30.6758 83.9272 30.6758 84.5723C30.6758 85.2174 31.1862 85.7404 31.8158 85.7404Z" fill="#959BCD"/>
<path fill-rule="evenodd" clip-rule="evenodd" d="M120.567 114.979C122.15 112.48 125.002 111.73 128.397 112.9L128.516 112.947C131.805 114.571 133.641 116.787 133.978 119.516C134.823 126.322 125.652 133.3 124.606 134.076L122.941 135.312L122.994 132.925C122.994 132.885 123.059 128.821 120.378 123.679C118.961 120.956 119.038 117.379 120.567 114.979Z" fill="#434FA0"/>
<path fill-rule="evenodd" clip-rule="evenodd" d="M124.527 132.739C123.924 132.423 123.501 132.046 122.92 131.717C122.92 134.637 122.907 135.315 122.92 135.338L124.068 134.48C124.258 134.368 124.781 133.956 125.542 133.352C125.17 133.144 124.886 132.925 124.527 132.739Z" fill="#C1261C"/>
<path d="M118.294 101.039C118.527 102.631 111.185 104.283 110.018 104.534C101.537 106.46 98.2202 106.902 88.2611 106.651C85.1489 106.567 83.4372 104.808 83.4372 101.374L82.8926 61.5923C82.8148 60.0848 83.515 59.3311 84.9155 59.3311L93.3185 59.4148C94.719 59.4148 95.2636 60.1686 95.3414 61.6761L95.8082 94.423C102.033 94.6743 108.802 94.088 115.104 93.1668C116.582 92.9993 117.205 93.3343 117.36 94.6743L118.294 101.039Z" fill="url(#paint2_linear_333_285307)"/>
<path d="M90.0469 62.1187C94.7564 62.1187 98.5742 57.9379 98.5742 52.7805C98.5742 47.6232 94.7564 43.4424 90.0469 43.4424C85.3373 43.4424 81.5195 47.6232 81.5195 52.7805C81.5195 57.9379 85.3373 62.1187 90.0469 62.1187Z" fill="#DBDDEF"/>
<path d="M90.0463 59.562C93.3306 59.562 95.993 56.5265 95.993 52.782C95.993 49.0375 93.3306 46.002 90.0463 46.002C86.762 46.002 84.0996 49.0375 84.0996 52.782C84.0996 56.5265 86.762 59.562 90.0463 59.562Z" fill="#646AB0"/>
<path d="M86.9178 51.8852C87.5995 51.8852 88.152 51.1904 88.152 50.3332C88.152 49.4761 87.5995 48.7812 86.9178 48.7812C86.2362 48.7812 85.6836 49.4761 85.6836 50.3332C85.6836 51.1904 86.2362 51.8852 86.9178 51.8852Z" fill="#959BCD"/>
<path d="M87.0448 103.486C88.3338 103.486 86.1113 102.024 86.1113 99.7016C86.1113 97.3793 88.3338 95.0762 87.0448 95.0762C85.7558 95.0762 84.7109 96.9587 84.7109 99.2811C84.7109 101.603 85.7558 103.486 87.0448 103.486Z" fill="#959BCD"/>
<path d="M125.135 110.328C123.855 110.31 123.195 109.466 123.234 107.94L123.573 54.4795C123.549 52.96 124.177 52.209 125.402 52.3087L133.17 52.6341C134.45 52.6517 135.11 53.4956 135 54.9532L133.254 108.409C133.278 109.929 132.587 110.687 131.299 110.594L125.135 110.328Z" fill="url(#paint3_linear_333_285307)"/>
<defs>
<filter id="filter0_d_333_285307" x="0" y="17.5732" width="223" height="141.82" filterUnits="userSpaceOnUse" color-interpolation-filters="sRGB">
<feFlood flood-opacity="0" result="BackgroundImageFix"/>
<feColorMatrix in="SourceAlpha" type="matrix" values="0 0 0 0 0 0 0 0 0 0 0 0 0 0 0 0 0 0 127 0" result="hardAlpha"/>
<feOffset dy="4"/>
<feGaussianBlur stdDeviation="2"/>
<feComposite in2="hardAlpha" operator="out"/>
<feColorMatrix type="matrix" values="0 0 0 0 0 0 0 0 0 0 0 0 0 0 0 0 0 0 0.25 0"/>
<feBlend mode="normal" in2="BackgroundImageFix" result="effect1_dropShadow_333_285307"/>
<feBlend mode="normal" in="SourceGraphic" in2="effect1_dropShadow_333_285307" result="shape"/>
</filter>
<linearGradient id="paint0_linear_333_285307" x1="191.081" y1="60.0504" x2="151.602" y2="143.284" gradientUnits="userSpaceOnUse">
<stop stop-color="#434FA0"/>
<stop offset="0.242643" stop-color="#4E58AB"/>
<stop offset="0.440625" stop-color="#6E72CB"/>
<stop offset="1" stop-color="#434FA0" stop-opacity="0.916667"/>
</linearGradient>
<linearGradient id="paint1_linear_333_285307" x1="71.634" y1="67.0143" x2="14.1492" y2="108.97" gradientUnits="userSpaceOnUse">
<stop stop-color="#434FA0"/>
<stop offset="0.440625" stop-color="#6E72CB"/>
<stop offset="1" stop-color="#434FA0" stop-opacity="0.916667"/>
</linearGradient>
<linearGradient id="paint2_linear_333_285307" x1="115.506" y1="67.5745" x2="75.9639" y2="97.5097" gradientUnits="userSpaceOnUse">
<stop stop-color="#434FA0"/>
<stop offset="0.440625" stop-color="#6E72CB"/>
<stop offset="1" stop-color="#434FA0" stop-opacity="0.916667"/>
</linearGradient>
<linearGradient id="paint3_linear_333_285307" x1="134.369" y1="61.5862" x2="107.685" y2="72.4585" gradientUnits="userSpaceOnUse">
<stop stop-color="#434FA0"/>
<stop offset="0.440625" stop-color="#6E72CB"/>
<stop offset="1" stop-color="#434FA0" stop-opacity="0.916667"/>
</linearGradient>
</defs>
</svg>
