<svg width="24" height="24" viewBox="0 0 24 24" fill="none" xmlns="http://www.w3.org/2000/svg">
<path d="M14.4 19.1923H13.9V19.6923V23.2529C11.0543 22.0717 7.83582 20.6239 5.25818 18.6063C2.4821 16.4334 0.5 13.6411 0.5 9.84615C0.5 7.36337 1.46174 4.98475 3.16978 3.23292C4.87739 1.48152 7.19067 0.5 9.6 0.5H14.4C16.8093 0.5 19.1226 1.48152 20.8302 3.23292C22.5383 4.98475 23.5 7.36337 23.5 9.84615C23.5 12.3289 22.5383 14.7076 20.8302 16.4594C19.1226 18.2108 16.8093 19.1923 14.4 19.1923Z" fill="white" stroke="#9C9FAE"/>
<path fill-rule="evenodd" clip-rule="evenodd" d="M8.19428 6.14844C7.64526 6.14844 7.2002 6.5935 7.2002 7.14252C7.2002 7.69154 7.64526 8.1366 8.19428 8.1366H10.7998V13.8638C10.7998 14.3609 11.2027 14.7638 11.6998 14.7638C12.1969 14.7638 12.5998 14.3609 12.5998 13.8638V8.1366H14.6061C15.1551 8.1366 15.6002 7.69154 15.6002 7.14252C15.6002 6.5935 15.1551 6.14844 14.6061 6.14844H8.19428Z" fill="#9C9FAE"/>
</svg>
