<svg width="24" height="24" viewBox="0 0 24 24" fill="none" xmlns="http://www.w3.org/2000/svg">
<path d="M14.4 19.1923H13.9V19.6923V23.2529C11.0543 22.0717 7.83582 20.6239 5.25818 18.6063C2.4821 16.4334 0.5 13.6411 0.5 9.84615C0.5 7.36337 1.46174 4.98475 3.16978 3.23292C4.87739 1.48152 7.19067 0.5 9.6 0.5H14.4C16.8093 0.5 19.1226 1.48152 20.8302 3.23292C22.5383 4.98475 23.5 7.36337 23.5 9.84615C23.5 12.3289 22.5383 14.7076 20.8302 16.4594C19.1226 18.2108 16.8093 19.1923 14.4 19.1923Z" fill="white" stroke="#9C9FAE"/>
<path d="M7 7C7 6.44772 7.44772 6 8 6C8.55228 6 9 6.44772 9 7V10C9 10.5523 8.55228 11 8 11C7.44772 11 7 10.5523 7 10V7Z" fill="#9C9FAE"/>
<path d="M14 7C14 6.44772 14.4477 6 15 6C15.5523 6 16 6.44772 16 7V10C16 10.5523 15.5523 11 15 11C14.4477 11 14 10.5523 14 10V7Z" fill="#9C9FAE"/>
<path d="M18.5 12.1545C18.5 12.9829 15.866 15.6562 12 15.6562C8.13401 15.6562 5 12.9829 5 12.1545C5 11.326 8.13401 14.0996 12 14.0996C15.866 14.0996 18.5 11.326 18.5 12.1545Z" fill="#9C9FAE"/>
</svg>
