<svg width="24" height="24" viewBox="0 0 24 24" fill="none" xmlns="http://www.w3.org/2000/svg">
<path d="M20.9078 10.0748L20.5559 10.43L20.9078 10.0748ZM10.5922 2.64194L10.9441 2.99708L10.5922 2.64194ZM13.4078 2.64194L13.0559 2.99708L13.4078 2.64194ZM3.44412 10.43L10.9441 2.99708L10.2402 2.2868L2.7402 9.71969L3.44412 10.43ZM3 19.0677V11.4954H2V19.0677H3ZM8 20.5677H4.5V21.5677H8V20.5677ZM10.5 19.0677V15.8822H9.5V19.0677H10.5ZM10.5 15.8822C10.5 15.6061 10.7239 15.3822 11 15.3822V14.3822C10.1716 14.3822 9.5 15.0538 9.5 15.8822H10.5ZM11 15.3822H13V14.3822H11V15.3822ZM13 15.3822C13.2761 15.3822 13.5 15.6061 13.5 15.8822H14.5C14.5 15.0538 13.8284 14.3822 13 14.3822V15.3822ZM13.5 15.8822V19.0677H14.5V15.8822H13.5ZM19.5 20.5677H16V21.5677H19.5V20.5677ZM21 11.4954V19.0677H22V11.4954H21ZM13.0559 2.99708L20.5559 10.43L21.2598 9.71969L13.7598 2.28681L13.0559 2.99708ZM22 11.4954C22 10.8284 21.7335 10.1892 21.2598 9.71969L20.5559 10.43C20.8401 10.7116 21 11.0952 21 11.4954H22ZM19.5 21.5677C20.8807 21.5677 22 20.4484 22 19.0677H21C21 19.8961 20.3284 20.5677 19.5 20.5677V21.5677ZM13.5 19.0677C13.5 20.4484 14.6193 21.5677 16 21.5677V20.5677C15.1716 20.5677 14.5 19.8961 14.5 19.0677H13.5ZM8 21.5677C9.38071 21.5677 10.5 20.4484 10.5 19.0677H9.5C9.5 19.8961 8.82843 20.5677 8 20.5677V21.5677ZM2 19.0677C2 20.4484 3.11929 21.5677 4.5 21.5677V20.5677C3.67157 20.5677 3 19.8961 3 19.0677H2ZM10.9441 2.99708C11.5288 2.41764 12.4712 2.41764 13.0559 2.99708L13.7598 2.28681C12.7853 1.32107 11.2147 1.32106 10.2402 2.2868L10.9441 2.99708ZM2.7402 9.71969C2.26649 10.1892 2 10.8284 2 11.4954H3C3 11.0952 3.15989 10.7116 3.44412 10.43L2.7402 9.71969Z" fill="#9C9FAE"/>
</svg>
