<svg width="20" height="22" viewBox="0 0 20 22" fill="none" xmlns="http://www.w3.org/2000/svg">
<path d="M19.773 16.0713C19.1948 15.0601 18.3353 12.1989 18.3353 8.4619C18.3353 6.21767 17.4572 4.06535 15.8941 2.47843C14.331 0.891519 12.211 0 10.0005 0C7.79 0 5.67002 0.891519 4.10695 2.47843C2.54387 4.06535 1.66575 6.21767 1.66575 8.4619C1.66575 12.2 0.805182 15.0601 0.226957 16.0713C0.0792965 16.3283 0.00101611 16.6204 9.82562e-06 16.918C-0.000996456 17.2156 0.0753071 17.5082 0.221225 17.7663C0.367144 18.0244 0.577517 18.2389 0.831129 18.3881C1.08474 18.5373 1.37263 18.616 1.66575 18.6162H5.91752C6.10982 19.5715 6.62121 20.43 7.3652 21.0466C8.1092 21.6632 9.04012 22 10.0005 22C10.9609 22 11.8918 21.6632 12.6358 21.0466C13.3798 20.43 13.8912 19.5715 14.0835 18.6162H18.3353C18.6283 18.6158 18.9161 18.537 19.1695 18.3877C19.423 18.2384 19.6332 18.0239 19.779 17.7658C19.9248 17.5078 20.001 17.2152 20 16.9177C19.9989 16.6202 19.9207 16.3283 19.773 16.0713ZM10.0005 20.3086C9.48358 20.3084 8.97939 20.1456 8.55735 19.8425C8.13532 19.5394 7.81618 19.111 7.64386 18.6162H12.3572C12.1849 19.111 11.8657 19.5394 11.4437 19.8425C11.0217 20.1456 10.5175 20.3084 10.0005 20.3086ZM1.66575 16.9238C2.46797 15.5234 3.3327 12.2782 3.3327 8.4619C3.3327 6.66651 4.0352 4.94466 5.28566 3.67513C6.53612 2.4056 8.23211 1.69238 10.0005 1.69238C11.7689 1.69238 13.4649 2.4056 14.7154 3.67513C15.9658 4.94466 16.6683 6.66651 16.6683 8.4619C16.6683 12.275 17.531 15.5202 18.3353 16.9238H1.66575Z" fill="#1D1D1F"/>
</svg>
