<svg width="28" height="27" viewBox="0 0 28 27" fill="none" xmlns="http://www.w3.org/2000/svg">
<path d="M5.62822 0.696374C5.50443 1.42756 4.42134 1.14144 4.35945 1.9362C4.17377 2.12694 3.95716 2.12695 3.77148 1.96799C3.77148 1.74546 3.77148 1.55472 3.77148 1.33218C4.08094 0.187726 5.00931 0.887117 5.62822 0.696374Z" fill="#F3FEF9"/>
<path d="M10.2398 0.667601C9.83748 0.667601 9.40425 0.667601 9.00195 0.667601C9.43519 -0.222534 9.83748 -0.222534 10.2398 0.667601Z" fill="#F3FEF9"/>
<path d="M27.8783 4.79919C27.8783 4.98993 27.9093 5.21246 27.9093 5.40321C27.8474 5.46679 27.8164 5.49858 27.7545 5.56216C27.5379 5.62574 27.3213 5.62574 27.1356 5.46679C26.4548 4.67203 26.0526 3.65473 25.0004 3.20966C24.8766 3.14608 24.7838 3.05071 24.691 2.92355C24.4743 2.63744 24.2577 2.31953 24.4434 1.93804C24.66 1.93804 24.8766 1.93804 25.0932 1.90625C25.805 1.90625 26.0526 2.63743 26.6405 2.85997C27.2904 3.17787 27.5689 3.84547 27.8783 4.44949C27.8783 4.60844 27.8783 4.70382 27.8783 4.79919Z" fill="#DBFBFC"/>
<path d="M0.955543 13.0702C0.49136 12.7841 0.862709 12.0847 0.36758 11.7986C0.36758 11.2582 0.367578 10.7495 0.336633 10.2091C-0.0966048 9.03282 -0.12755 7.85658 0.336633 6.71212C0.336633 6.01273 0.367578 5.31334 0.955543 4.80469C1.17216 4.99543 1.265 5.24976 1.32689 5.50408C1.38878 5.85378 1.38878 6.23526 1.38878 6.61675C1.38878 7.92016 1.38878 9.25536 1.38878 10.5588C1.32689 11.4171 1.63634 12.339 0.955543 13.0702Z" fill="#DAFEEB"/>
<path d="M0.986328 5.46927C0.986328 5.24674 0.986328 5.0242 0.986328 4.80167C1.23389 3.75258 2.10037 3.21215 2.84306 2.57634C2.96684 2.44917 3.05968 2.44917 3.18346 2.54454C3.33819 3.3711 2.47171 3.72079 2.34793 4.45197C2.1932 4.76988 1.97658 5.056 1.72902 5.27853C1.5124 5.43748 1.26484 5.66002 0.986328 5.46927Z" fill="#DAFEE7"/>
<path d="M3.15321 2.6051C3.06037 2.6051 2.93659 2.6051 2.84375 2.6051C3.02942 2.19183 3.33888 1.96929 3.77212 1.96929C3.95779 1.96929 4.17441 1.96929 4.36008 1.9375L4.42197 2.03288C4.5767 2.25541 4.51481 2.47794 4.39103 2.66869C4.26724 2.76406 4.14346 2.82763 3.98873 2.89122C3.64833 2.92301 3.36982 2.85943 3.15321 2.6051Z" fill="#E3FDF0"/>
<path d="M10.5486 1.33594C14.1383 1.33594 17.7589 1.33594 21.3486 1.33594C21.4414 1.55847 21.3795 1.71743 21.1939 1.84459C17.697 2.22607 14.2311 2.22607 10.7343 1.84459C10.5486 1.74922 10.4867 1.55847 10.5486 1.33594Z" fill="#5EE6C3"/>
<path d="M10.548 1.33771C10.548 1.43308 10.548 1.52845 10.548 1.62382C9.6506 2.41858 8.50562 1.81456 7.51537 2.22784C7.08213 2.32321 6.64889 2.35501 6.1847 2.29142C5.90619 2.22784 5.65863 2.13248 5.50391 1.87815C5.68958 1.17876 6.27754 1.30592 6.74173 1.30592C8.04144 1.30592 9.3102 1.33771 10.548 1.33771Z" fill="#71F8AD"/>
<path d="M21.3789 1.62314C21.3789 1.52776 21.3789 1.43239 21.3789 1.33702C21.7812 1.30523 22.2144 1.30523 22.6167 1.27344C22.9571 1.33702 23.2356 1.46419 23.2975 1.87746C23.1428 2.16358 22.8643 2.22715 22.5548 2.25895C22.4001 2.25895 22.2763 2.25895 22.1216 2.25895C21.9669 2.22715 21.8431 2.19537 21.7193 2.13179C21.5336 2.03641 21.4099 1.87746 21.3789 1.62314Z" fill="#67E5DB"/>
<path d="M5.56595 1.90625C5.81351 1.93804 6.03013 1.96984 6.2777 2.00163C6.37054 2.12879 6.37053 2.25595 6.30864 2.38311C6.18485 2.57385 6.03013 2.70102 5.84445 2.79639C5.44216 2.92355 5.03987 2.95534 4.60663 2.82818C4.48285 2.7646 4.39002 2.66923 4.32812 2.51028C4.35907 2.35132 4.39002 2.16058 4.42097 2.00163C4.79231 1.96984 5.16365 1.93804 5.56595 1.90625Z" fill="#42EA8A"/>
<path d="M22.3086 1.96983C22.649 1.93804 22.9585 1.93804 23.2989 1.90625C23.4845 1.93804 23.6702 1.96984 23.8559 2.00163C24.0725 2.25595 24.0416 2.47848 23.8249 2.70101C23.0822 2.98713 22.4324 3.05071 22.3086 1.96983Z" fill="#33CFCE"/>
<path d="M23.8552 2.57277C23.8552 2.38202 23.8242 2.19129 23.8242 2.00054C24.0408 2.00054 24.2265 1.96875 24.4431 1.96875C24.5669 2.25486 24.6597 2.57277 24.7835 2.85888C24.7526 2.89067 24.6907 2.95426 24.6597 2.98605C24.3193 3.01784 24.0408 2.89067 23.8552 2.57277Z" fill="#5FD8DE"/>
<path d="M8.9085 21.9388C8.13486 21.9706 8.19675 22.8608 7.70162 23.1787C7.51595 23.5602 7.23744 23.7509 6.8042 23.6555C6.64947 23.4966 6.55664 23.2741 6.55664 23.0515C6.55664 22.8926 6.55663 22.7654 6.61853 22.6065C6.83514 22.066 7.33028 21.7481 7.67068 21.303C7.82541 21.1759 8.01108 21.0805 8.19675 20.9851C8.72282 20.7944 9.00134 20.3175 9.31079 19.9043C9.55836 19.6181 9.80592 19.332 10.1773 19.1731C10.5796 19.0141 11.0128 19.0141 11.4151 19.0141C13.4884 19.0141 15.5618 18.9823 17.6351 19.0141C17.9136 19.0141 18.1612 19.0459 18.4088 19.1413C18.8111 19.3002 19.1205 19.5864 19.3062 20.0314C19.3371 20.2222 19.3062 20.3493 19.1515 20.4765C16.3354 19.5546 13.4884 20.0632 10.6414 20.1586C9.86781 20.1904 9.2489 21.0487 8.9085 21.9388Z" fill="#3E74CD"/>
<path d="M26.0529 24.8593C26.0219 25.2726 25.7434 25.3998 25.403 25.4952C24.8769 25.8449 24.3509 25.8449 23.8248 25.5269C23.4844 25.4316 23.2059 25.3362 23.2059 24.8911C23.0512 24.6686 23.0512 24.4143 23.2059 24.1917C23.701 23.7467 24.258 23.8103 24.815 23.9374C25.2483 24.0964 25.5887 24.4143 25.9291 24.7004C25.991 24.7322 26.0219 24.7958 26.0529 24.8593Z" fill="#4382E0"/>
<path d="M19.1816 20.4727C19.2126 20.3455 19.2126 20.1866 19.2435 20.0594C19.6149 19.9004 19.8005 20.2184 20.079 20.3137C20.2647 20.4091 20.4195 20.4727 20.5742 20.5998C20.8218 20.8542 21.0693 21.0767 21.224 21.3946C21.255 21.6171 21.224 21.8397 21.0384 21.9986C20.8218 22.1258 20.6361 22.1258 20.4504 21.935C19.8315 21.6489 19.3054 21.2357 19.1816 20.4727Z" fill="#2D6ECE"/>
<path d="M23.2359 24.1932C23.2359 24.4158 23.2359 24.6383 23.205 24.8926C22.1528 24.4794 21.472 23.6528 21.0078 22.6355C21.1006 22.5401 21.2244 22.4766 21.3792 22.4766C22.0909 22.8263 22.5551 23.4621 23.1431 24.0025C23.174 24.0661 23.2049 24.1297 23.2359 24.1932Z" fill="#5589DB"/>
<path d="M23.8242 25.4927C24.3503 25.4927 24.8764 25.4927 25.4024 25.4609C25.1858 26.4464 24.3812 25.9378 23.8552 26.065C23.8552 25.906 23.8552 25.7153 23.8242 25.4927Z" fill="#C1E3FE"/>
<path d="M21.3795 22.6046C21.2558 22.6046 21.132 22.6364 21.0082 22.6364C20.6059 22.6046 20.4512 22.3502 20.4512 21.9688C20.6678 21.9688 20.8535 21.9688 21.0701 21.9688C21.132 22.0005 21.1939 22.0323 21.2557 22.0641C21.4105 22.2231 21.5033 22.382 21.3795 22.6046Z" fill="#477ED5"/>
<path d="M1.60585 23.5571C1.32734 23.1121 1.04883 22.6988 1.04883 22.1265C1.07977 19.2018 1.07978 16.2453 1.11072 13.3206C1.26545 13.0663 1.45112 12.9391 1.72963 13.1616C1.9772 13.5431 2.00814 13.9882 2.00814 14.4333C2.03909 14.9737 2.03909 15.5141 2.03909 16.0546C2.00814 17.4851 2.03909 18.9157 2.03909 20.3463C2.03909 20.696 2.13193 21.0139 2.19382 21.3636C2.28665 22.0948 2.71989 22.8259 2.28665 23.5889C2.07003 23.7479 1.82247 23.7479 1.60585 23.5571Z" fill="#3E71C6"/>
<path d="M1.60547 23.5547C1.82209 23.5547 2.00776 23.5547 2.22438 23.5547C2.47194 23.6501 2.65761 23.809 2.90518 23.8726C3.83354 24.0951 4.76191 24.5084 5.69027 23.9362C5.93784 23.9362 6.12351 23.968 6.30918 24.1587C6.40202 24.413 6.40202 24.6038 6.15446 24.7627C6.06162 24.8899 5.93784 24.9853 5.845 25.1124C5.56649 25.2396 5.28799 25.3667 5.00948 25.4939C4.39057 25.9072 3.77166 25.8436 3.15275 25.4621C2.62667 24.8263 1.66736 24.572 1.60547 23.5547Z" fill="#407FDC"/>
<path d="M1.63588 13.0993C1.45021 13.1629 1.29548 13.2265 1.10981 13.3219C1.04791 13.2583 0.986024 13.1629 0.955078 13.0675C0.986024 12.241 1.01697 11.4144 1.04791 10.5561C1.38831 10.4289 1.57399 10.6197 1.75966 10.874C1.8525 11.0647 1.91439 11.2873 1.94534 11.5098C1.94534 12.0185 2.10006 12.4953 2.00722 13.004C1.91439 13.1311 1.79061 13.1629 1.63588 13.0993Z" fill="#48C0A2"/>
<path d="M3.15234 25.4609C3.77125 25.4609 4.39016 25.4927 5.00908 25.4927C5.00908 25.6835 5.00907 25.906 4.97813 26.0967C4.88529 26.0967 4.79245 26.0967 4.66867 26.0967C4.11165 26.065 3.43085 26.2239 3.15234 25.4609Z" fill="#BFDEFE"/>
<path d="M6.1543 24.7625C6.18524 24.5717 6.2162 24.381 6.27809 24.1903C6.33998 23.8406 6.52565 23.6498 6.897 23.5862C7.17551 23.4273 7.48496 23.2683 7.76347 23.1094C7.5159 23.9995 6.98983 24.54 6.1543 24.7625Z" fill="#D0E4F8"/>
<path d="M27.8783 11.5052C27.8783 15.1929 27.8474 18.9123 27.8474 22.6C27.6617 22.8226 27.476 23.0769 27.2904 23.2994C27.0428 23.1405 26.95 22.8862 26.8881 22.6C26.8262 22.3139 26.8262 22.0278 26.8262 21.7735C26.8262 20.4701 26.8262 19.1349 26.8262 17.8315C26.8262 16.1148 26.8262 14.3981 26.8262 12.6496C26.8571 12.0774 26.7952 11.5052 27.1047 10.9965C27.2904 10.7422 27.5379 10.6786 27.8164 10.8058C28.0331 10.9965 28.064 11.2508 27.8783 11.5052Z" fill="#6B99DD"/>
<path d="M27.1972 22.6049C27.2281 22.8274 27.259 23.0818 27.29 23.3043C27.2281 24.1309 26.7949 24.6395 26.0522 24.862L25.9903 24.7667C25.8356 24.6077 25.7737 24.3852 25.8046 24.1626C25.8356 24.0355 25.8665 23.8765 25.9284 23.7494C26.3616 23.3997 26.3616 22.5413 27.1972 22.6049Z" fill="#4382E0"/>
<path d="M27.7845 5.53546C27.9083 7.31573 28.0939 9.096 27.7535 10.8763C27.5988 10.8763 27.4131 10.8763 27.2584 10.9081C27.1965 10.8445 27.1346 10.7809 27.0727 10.7173C26.6086 9.70002 26.887 8.61914 26.8252 7.53826C26.918 6.87066 26.5776 6.17127 26.8561 5.50367C26.9799 5.34472 27.1346 5.34471 27.2893 5.44009C27.4441 5.47188 27.6298 5.50367 27.7845 5.53546Z" fill="#30BCDF"/>
<path d="M24.7832 2.85938C24.876 2.85938 24.9689 2.89117 25.0617 2.92296C25.2164 3.1137 25.2783 3.33624 25.2783 3.59056C25.1545 4.00384 24.8451 4.22637 24.4737 4.38532C23.7929 4.28995 23.0502 5.1483 22.4004 4.25816C22.5861 2.85938 22.617 2.82758 24.7832 3.01833V2.85938Z" fill="#09D0D2"/>
<path d="M25.0938 3.55769C25.0938 3.33515 25.0938 3.14441 25.0938 2.92188C26.2697 3.33515 26.8886 4.28886 27.2909 5.43332C27.1671 5.43332 27.0433 5.43333 26.9505 5.46512C26.5791 5.78302 26.2697 5.56049 25.9912 5.30616C25.8983 5.179 25.8364 5.05184 25.7746 4.92467C25.5579 4.44782 25.2485 4.03454 25.0938 3.55769Z" fill="#37C6D2"/>
<path d="M1.57525 10.8712C1.38958 10.7759 1.20391 10.6805 1.01824 10.5851C0.832565 9.21812 0.863509 7.81934 0.987291 6.45234C1.11107 6.22981 1.2658 6.03906 1.54431 6.03906C1.66809 6.13443 1.79187 6.2616 1.85376 6.42055C2.10133 7.40606 1.9466 8.42335 1.97754 9.44065C1.97754 9.69497 1.97755 9.9493 1.91566 10.2036C1.88471 10.4579 1.79187 10.6805 1.57525 10.8712Z" fill="#28F377"/>
<path d="M1.57399 6.0709C1.38832 6.19806 1.1717 6.29344 0.986026 6.4206C0.986026 6.1027 0.955078 5.78479 0.955078 5.46689C1.14075 5.33972 1.35737 5.21256 1.54304 5.11719C1.8525 5.4033 1.8525 5.753 1.57399 6.0709Z" fill="#74F1A1"/>
<path d="M3.15297 2.60992C3.43148 2.60992 3.70999 2.57812 3.9885 2.57812C4.3289 3.40468 3.36959 3.40468 3.18392 3.88154C3.06014 4.0087 2.93635 4.16765 2.81257 4.3266C2.68879 4.48556 2.53406 4.61272 2.34839 4.64451C2.25555 4.61272 2.19366 4.58093 2.19366 4.51735C2.19366 4.42198 2.22461 4.39019 2.25555 4.39019C1.82232 3.37289 3.02919 3.27752 3.15297 2.60992Z" fill="#AEFAC8"/>
<path d="M1.57392 6.07606C1.57392 5.75816 1.57391 5.44025 1.54297 5.12235C1.75959 4.86802 1.97621 4.6137 2.19283 4.35938C2.19283 4.42296 2.19283 4.51833 2.19283 4.58191C2.62606 5.34488 2.90458 6.07606 1.60486 6.13965L1.57392 6.07606Z" fill="#3BF180"/>
<path d="M2.75 3.85029C3.15229 3.43701 3.55459 2.99194 3.95688 2.57867C4.08067 2.57867 4.20444 2.54688 4.29728 2.54688L4.39012 2.67404C4.54485 2.86479 4.54484 3.08732 4.452 3.30985C4.26633 3.56418 4.01877 3.72313 3.77121 3.88208C3.43081 4.04103 3.0904 4.19998 2.75 3.85029Z" fill="#3EEE82"/>
<path d="M21.3806 1.62085C21.4734 1.71623 21.5972 1.8116 21.69 1.90697C20.7926 2.73352 19.6786 2.28845 18.6574 2.38382C18.0075 2.44741 17.3576 2.38382 16.7078 2.38382C16.4293 2.38382 16.1817 2.38382 15.9032 2.38382C15.47 2.38382 15.0367 2.38382 14.6035 2.38382C14.2631 2.38382 13.9227 2.38382 13.6132 2.38382C12.7158 2.38382 11.7875 2.35204 10.89 2.4792C10.2092 2.4792 9.55938 2.35203 8.87857 2.38382C8.3525 2.35203 7.82642 2.41562 7.45508 1.87518C8.44534 1.36654 9.52843 1.74802 10.5496 1.62085C14.1703 1.62085 17.7599 1.62085 21.3806 1.62085Z" fill="#4EE2BC"/>
<path d="M7.45489 1.90625C7.98097 1.93804 8.47609 1.93804 9.00217 1.96983C9.46635 3.0825 8.22853 3.36861 7.98097 4.13159C7.7953 4.4177 7.54773 4.67203 7.45489 5.02173C7.393 5.21247 7.30017 5.435 7.20733 5.62574C6.83598 6.13439 6.77409 6.96094 5.93856 7.05632C5.62911 7.08811 5.35059 7.05632 5.07208 6.92916C4.9483 6.83378 4.88641 6.70662 4.85547 6.54767C5.10303 5.97544 5.69099 5.59395 5.87667 4.95814C5.93856 4.83098 6.00045 4.70382 6.06234 4.57666C6.68125 3.84548 5.9695 3.05071 6.18612 2.28774C6.18612 2.19237 6.18612 2.097 6.21707 2.00163C6.65031 1.96984 7.0526 1.93804 7.45489 1.90625Z" fill="#1CF286"/>
<path d="M24.753 2.98659C24.4745 3.27271 24.1032 3.24091 23.7628 3.20912C22.8035 3.08196 22.525 3.59061 22.6178 4.48074C22.6797 4.57611 22.7106 4.6397 22.7106 4.73507C22.7106 4.83044 22.6797 4.89402 22.6487 4.89402C22.3393 5.24372 21.9679 5.52983 21.5038 5.6252C21.2562 5.6252 21.0396 5.56162 20.8848 5.37088C20.6682 4.48075 20.3588 3.59061 20.2969 2.63689C20.6992 1.96929 21.4419 2.25541 21.9679 1.9375C22.0608 1.9375 22.1846 1.9375 22.2774 1.9375C22.6178 2.63689 23.2367 2.57331 23.8556 2.54152C24.1651 2.73226 24.4745 2.85943 24.753 2.98659Z" fill="#0ED3CA"/>
<path d="M21.9995 1.96983C21.5662 2.38311 21.0092 2.44669 20.4522 2.57385C20.2665 2.73281 20.0499 2.89176 19.8024 2.92355C19.5548 2.98713 19.3072 2.98713 19.0597 2.98713C18.3789 2.98713 17.698 3.05071 17.0172 2.92355C16.584 2.73281 16.1508 2.57385 16.4602 1.96983C18.2241 1.93804 19.9571 1.93804 21.721 1.90625C21.7829 1.93804 21.9066 1.96983 21.9995 1.96983Z" fill="#15D5B2"/>
<path d="M6.24774 2.28906C6.68097 3.14741 7.26894 3.97396 6.24774 4.8323C5.8145 4.41903 5.87639 3.78322 5.56693 3.30636C5.47409 2.95667 5.72166 2.76592 5.93828 2.60697C6.03112 2.47981 6.12395 2.38443 6.24774 2.28906Z" fill="#1AF57E"/>
<path d="M5.90665 2.60938C5.81381 2.83191 5.69003 3.02265 5.5972 3.24519C5.44247 3.43593 5.22585 3.5313 4.97829 3.5313C4.73072 3.5313 4.5141 3.43593 4.35938 3.24519C4.35938 3.05444 4.39032 2.8637 4.39032 2.64117C4.9164 2.60938 5.41152 2.60938 5.90665 2.60938Z" fill="#2DF57D"/>
<path d="M1.91568 21.3318C1.66811 21.1728 1.63716 20.9185 1.66811 20.6642C1.76094 20.4098 1.91567 20.1873 2.19418 20.0602C3.92713 19.2654 5.81481 19.8376 7.60965 19.4243C8.13572 19.2972 8.59991 19.6469 8.72369 20.2827C8.78558 20.6642 8.63086 21.0139 8.41424 21.3318C8.22856 21.3318 8.01195 21.3636 7.82627 21.3636C5.81481 22.1265 3.86524 21.9358 1.91568 21.3318Z" fill="#1864D3"/>
<path d="M1.91406 21.3281C3.86363 21.3281 5.8132 21.3281 7.79371 21.3281C7.85561 22.0275 7.1748 22.1547 6.86535 22.5997C6.43211 23.0766 5.8132 23.1084 5.31807 22.9494C3.98741 22.5044 3.21378 23.1084 2.56392 24.1575C2.31636 24.0303 2.25447 23.8078 2.25447 23.5535C2.13068 22.8223 2.0069 22.0593 1.91406 21.3281Z" fill="#266DDA"/>
<path d="M9.9301 19.4205C9.9301 19.8338 9.71348 20.0245 9.31119 20.0563C9.28024 19.9927 9.21835 19.9291 9.18741 19.8974C9.03268 19.2933 8.56849 18.7211 8.78511 18.0217C8.87795 17.7674 9.09457 17.6084 9.34214 17.5131C12.1891 17.3859 15.0052 17.1316 17.8212 17.6402C18.0997 17.831 18.1307 18.0853 18.0378 18.4032C17.6046 18.9754 16.9547 18.9119 16.3358 18.8801C14.6957 18.7847 13.0865 19.1662 11.4464 18.9436C10.9513 18.8483 10.4252 19.1026 9.9301 19.4205Z" fill="#0F56C5"/>
<path d="M2.5332 24.1614C2.84266 22.4765 3.2759 22.2222 4.88507 22.5401C5.53492 22.6672 6.21572 22.5718 6.86558 22.6036C6.86558 22.699 6.86558 22.8262 6.86558 22.9215C6.52518 23.3984 6.18478 23.9388 5.62776 24.1932C4.57561 25.1787 3.55441 24.2885 2.5332 24.1614Z" fill="#2971E1"/>
<path d="M9.92969 19.4248C10.2701 18.7254 10.7962 18.4393 11.5389 18.4711C13.6741 18.5029 15.8093 18.4711 17.9446 18.4711C18.4397 18.6301 18.9348 18.7572 18.9039 19.4566C18.7801 19.552 18.6563 19.552 18.5325 19.4248C18.3159 19.4248 18.0993 19.393 17.9136 19.393C15.6546 19.1705 13.3956 19.1705 11.1366 19.393C10.7652 19.393 10.3629 19.4248 9.92969 19.4248Z" fill="#1559BE"/>
<path d="M11.1992 19.3889C13.4582 18.912 15.7173 18.912 17.9763 19.3889C15.7173 19.3889 13.4582 19.3889 11.1992 19.3889Z" fill="#1958B1"/>
<path d="M5.59766 24.1935C5.969 23.7484 6.09278 23.0172 6.83548 22.9219C6.83548 23.1444 6.83548 23.3669 6.86642 23.6213C6.74264 23.9074 6.58792 24.1299 6.24751 24.2253C6.0309 24.1935 5.81427 24.1935 5.59766 24.1935Z" fill="#3878D6"/>
<path d="M18.5938 19.4251C18.6866 19.4251 18.8104 19.4251 18.9032 19.4251C19.027 19.298 19.2127 19.2344 19.3674 19.2344C20.2648 19.4569 20.2339 20.0291 19.8316 20.6967C19.615 20.506 19.4293 20.2835 19.2127 20.0927C18.996 19.8384 18.8104 19.6477 18.5938 19.4251Z" fill="#2064C2"/>
<path d="M8.38281 21.3025C8.38281 20.9846 8.38281 20.6985 8.41376 20.3806C8.66132 20.1263 8.93983 19.8401 9.34213 20.0309V20.0627C9.28023 20.6985 8.90889 21.08 8.38281 21.3025Z" fill="#296AC9"/>
<path d="M26.0208 23.8737C26.0208 23.9691 26.0208 24.0645 26.0208 24.1916C25.7113 24.4459 25.4019 24.4459 25.0924 24.2234C24.4735 24.2234 23.8546 24.2234 23.2357 24.2234V24.1916C22.9881 23.9373 22.7096 23.683 22.493 23.3969C22.0597 22.7928 22.2764 22.3796 22.9262 22.2842C23.9784 22.157 25.0615 21.9345 26.0208 22.5703C26.3612 23.0154 26.3302 23.4286 26.0208 23.8737Z" fill="#2875E8"/>
<path d="M25.0938 24.1959C25.4032 24.1959 25.7127 24.1959 26.0221 24.1641C26.0221 24.3548 25.9912 24.5773 25.9912 24.7681C25.527 24.8317 25.1247 24.8317 25.0938 24.1959Z" fill="#3976CD"/>
<path d="M21.0702 21.3298C20.6679 21.3298 20.4513 21.1073 20.4513 20.694C20.3275 19.1363 21.6891 19.8039 22.308 19.3906C23.7624 19.7403 25.4025 19.1999 26.7332 20.2808C26.9189 20.6305 26.9498 20.9802 26.7332 21.3616C26.269 21.7431 25.743 21.7431 25.2169 21.5842C23.8862 20.7894 22.4627 21.1391 21.0702 21.3298Z" fill="#1C66D6"/>
<path d="M22.3074 19.7444C21.8123 20.3484 20.6673 19.5854 20.4507 20.6981C20.2341 20.6981 20.0484 20.6663 19.8318 20.6663C19.7699 20.1895 20.0175 19.5219 19.2129 19.4265C19.2748 18.5999 19.9246 18.7907 20.4198 18.6953C21.1006 18.7271 21.8123 18.5999 22.4931 18.9178C22.8954 19.2993 22.586 19.5219 22.3074 19.7444Z" fill="#1660CD"/>
<path d="M21.0703 21.3321C22.1534 20.4101 24.2268 20.4101 25.0932 21.3321C24.1339 22.1904 22.8033 21.3639 21.7821 22.095C21.5345 22.1904 21.2869 22.1268 21.0703 21.9679C21.0703 21.7453 21.0703 21.5546 21.0703 21.3321Z" fill="#1E68DA"/>
<path d="M21.0703 21.9641C21.2869 21.9641 21.4726 21.9641 21.6892 21.9641C22.9889 21.3919 24.3505 21.678 25.7121 21.7734C25.9907 21.8052 26.1144 22.0595 26.1454 22.3456C26.1144 22.441 26.0835 22.5364 26.0216 22.6317C24.8766 22.6317 23.7316 22.6317 22.5867 22.6317C22.5557 23.3629 23.3293 23.5855 23.2365 24.2213C22.3081 24.0941 21.9058 23.2993 21.3798 22.6317C21.2869 22.3774 21.1631 22.1867 21.0703 21.9641Z" fill="#2972E0"/>
<path d="M1.63672 15.925C1.63672 15.3845 1.66766 14.8759 1.66766 14.3354C1.97711 14.0175 2.34846 13.9857 2.75075 14.0175C2.90548 14.0493 3.02927 14.1129 3.184 14.1765C3.67912 14.6215 4.23614 14.9712 4.76221 15.3845C5.44301 16.1475 6.71178 15.4481 7.29975 16.4018C7.33069 16.6879 7.20691 17.0376 6.95934 16.974C5.1645 16.6879 3.55533 17.5781 1.82238 17.737C1.66766 17.1648 1.91523 16.529 1.63672 15.925Z" fill="#044CB9"/>
<path d="M1.63672 15.9297C2.13185 16.5019 1.82239 17.2013 1.91523 17.8371C2.16279 18.0279 2.34846 18.2504 2.4413 18.5683C2.56508 19.0134 2.59603 19.4902 2.41036 19.9353C2.28657 20.1578 2.06995 20.2214 1.91523 20.3804C1.82239 20.4757 1.76049 20.5711 1.66766 20.6665C1.66766 19.0769 1.63672 17.5192 1.63672 15.9297Z" fill="#1A62AF"/>
<path d="M2.90548 14.3407C2.50319 14.3407 2.10089 14.3407 1.66766 14.3725C1.66766 13.9592 1.66766 13.546 1.63672 13.1327C1.72956 13.1009 1.82239 13.0691 1.91523 13.0373C2.13185 12.8784 2.34846 12.9101 2.59602 13.0373C2.93642 13.387 3.18399 13.8003 2.90548 14.3407Z" fill="#035287"/>
<path d="M1.57422 10.8724C1.57422 10.6498 1.57422 10.4273 1.57422 10.2366C1.91462 9.82328 2.16219 9.25105 2.87393 9.41C3.49285 9.66433 3.92608 10.1094 4.04986 10.8406C4.01892 11.6353 3.67852 12.2394 2.99771 12.6208C2.19313 12.7162 2.00745 12.0168 1.66705 11.54C1.63611 11.2856 1.60516 11.0631 1.57422 10.8724Z" fill="#1DF382"/>
<path d="M1.63557 11.5087C2.28542 11.4769 2.28542 12.3352 2.81149 12.4624C2.99717 12.6531 2.99717 12.8757 2.87339 13.13C2.7496 13.2572 2.59487 13.2572 2.47109 13.13C2.28542 13.0982 2.09975 13.0664 1.91407 13.0346C1.60462 12.5578 1.57367 12.0491 1.63557 11.5087Z" fill="#22D293"/>
<path d="M27.2282 12.4964C27.2282 14.2767 27.1973 16.057 27.1973 17.8054C26.9807 18.028 26.7331 17.9962 26.5165 17.7737C26.4236 17.6147 26.3308 17.4558 26.2999 17.2968C26.1452 16.3431 26.238 15.3894 26.207 14.4357C26.207 13.9906 26.207 13.5773 26.238 13.1323C26.2689 12.8779 26.3618 12.6236 26.5165 12.4011C26.795 12.2739 27.0116 12.2421 27.2282 12.4964Z" fill="#0B53B5"/>
<path d="M26.6409 17.8365C26.8266 17.8365 27.0122 17.8047 27.1979 17.8047C27.1979 19.1717 27.167 20.5705 27.167 21.9375C27.0432 22.001 26.9194 22.001 26.8265 21.9057C26.7028 21.7467 26.6409 21.5242 26.6409 21.3334C26.6409 21.0155 26.6409 20.6976 26.6409 20.3797C26.3314 20.0618 26.2695 19.6485 26.2695 19.2353C26.2695 19.0763 26.2695 18.9174 26.2695 18.7266C26.3005 18.4087 26.3624 18.0908 26.6409 17.8365Z" fill="#2764C1"/>
<path d="M26.9186 21.965C26.9805 21.965 27.0733 21.965 27.1352 21.965C27.1352 22.1875 27.1662 22.3782 27.1662 22.6008C26.5163 22.7915 26.8258 23.8724 25.9902 23.8724C25.9902 23.4591 25.9902 23.0141 25.9902 22.6008C26.3306 22.41 26.3616 21.7742 26.9186 21.965Z" fill="#2972E0"/>
<path d="M27.2277 12.4971C27.042 12.4971 26.8564 12.4654 26.6397 12.4654C26.3612 12.211 26.3303 11.8931 26.3612 11.5434C26.485 11.0984 26.7016 10.7805 27.2277 10.844L27.2896 10.9076C27.2586 11.4163 27.2277 11.9567 27.2277 12.4971Z" fill="#30BCDF"/>
<path d="M27.2288 10.8361C27.0431 11.0587 26.8265 11.2812 26.6408 11.5037C26.0838 11.9806 25.96 12.8389 25.2792 13.1568C25.1245 13.1568 25.0007 13.0615 24.9079 12.9343C24.6603 11.5037 25.3411 9.11943 26.5789 7.30737C26.8265 7.18021 27.0431 7.18021 27.2288 7.37096C27.2288 8.51542 27.2288 9.65987 27.2288 10.8361Z" fill="#04C3EE"/>
<path d="M27.2286 7.37377C27.0429 7.37377 26.8263 7.37377 26.6406 7.37377C26.2693 6.9605 25.9908 6.45185 25.5885 6.07036C25.4647 5.62529 25.6194 5.30739 26.0217 5.14844C26.3312 5.2756 26.6406 5.37097 26.9192 5.49813C27.0429 6.10215 27.3524 6.67438 27.2286 7.37377Z" fill="#09CBE8"/>
<path d="M22.6165 4.83292C22.6165 4.73755 22.6165 4.61039 22.6165 4.51501C23.2044 4.19711 23.7614 3.78383 24.4732 4.19711C24.7826 4.35606 24.9374 4.64218 24.9993 4.99187C25.0302 5.65947 24.9374 6.32707 24.5041 6.86751C24.1328 7.12183 23.7305 7.15362 23.2973 7.15362C22.9569 7.15362 22.6165 7.09005 22.3379 6.93109C21.9047 6.61319 21.6881 6.23171 21.8428 5.69127C21.9047 5.21441 22.5236 5.27799 22.6165 4.83292Z" fill="#09D3D6"/>
<path d="M24.7841 4.83412C24.5365 4.70696 24.4746 4.45263 24.4746 4.19831C24.6912 3.97578 24.8769 3.78503 25.0935 3.5625C25.5886 3.84861 25.9909 4.16652 26.0219 4.83412C25.5886 5.02486 25.1864 5.02486 24.7841 4.83412Z" fill="#12CEDB"/>
<path d="M24.7844 4.83177C25.1867 4.54566 25.6199 4.54566 26.0222 4.83177C26.0222 4.92714 26.0222 5.02252 26.0222 5.14968C25.9293 5.46758 25.8056 5.78549 25.7127 6.10339C26.3626 7.27964 25.7437 8.32873 25.2795 9.34603C25.0629 9.82289 24.6606 9.82288 24.2892 9.4414C23.9488 8.51947 23.856 7.59755 24.4749 6.7392C24.3511 6.03981 24.6915 5.46758 24.7844 4.83177Z" fill="#07C8E3"/>
<path d="M2.84329 9.56904C2.441 9.79157 2.00776 9.98232 1.60547 10.2048C1.60547 9.98232 1.60547 9.79157 1.60547 9.56904C1.66736 7.82056 2.62667 6.29462 2.68856 4.54614C2.90518 4.03749 3.58598 4.03749 3.77166 3.52884C3.89544 3.27452 4.143 3.21094 4.39057 3.21094C4.60719 3.21094 4.79286 3.21094 5.00948 3.21094C5.84501 3.49705 5.96878 3.97391 5.38082 4.64151C4.73096 5.37269 4.08111 6.07209 4.01922 7.12118C3.95733 7.24834 3.89544 7.37549 3.8026 7.50266C2.96707 7.97951 3.43126 9.06039 2.84329 9.56904Z" fill="#1CF977"/>
<path d="M2.84329 4.51349C2.93613 5.4672 3.55504 6.45271 2.22438 7.21568C1.60547 7.59716 2.59573 8.96415 1.60547 9.56817C1.60547 8.42372 1.60547 7.24747 1.60547 6.10301C2.53383 5.88048 2.13154 5.11751 2.19343 4.54528C2.28627 4.41812 2.41005 4.29095 2.50289 4.16379C2.84329 4.06842 2.90518 4.19558 2.84329 4.51349Z" fill="#1FF772"/>
<path d="M2.84266 4.51622C2.74982 4.42084 2.62604 4.29368 2.5332 4.19831C2.62604 4.07115 2.68793 3.97577 2.78076 3.84861C3.12116 3.75324 3.43062 3.65787 3.77102 3.5625C3.74008 4.16652 3.214 4.26189 2.84266 4.51622Z" fill="#2DF57D"/>
<path d="M10.859 2.25836C11.7565 1.65434 12.7158 2.06762 13.6441 1.97225C14.6035 2.67164 14.4178 3.56177 13.6132 4.00684C12.1897 4.83339 11.5708 5.85069 12.0659 7.50379C12.0969 7.59916 12.004 7.69453 11.9731 7.78991C11.8184 8.01244 11.6017 8.04424 11.3851 7.91708C10.9209 7.37664 10.1782 7.47201 9.62122 7.12231C9.52839 6.99515 9.46649 6.86798 9.43555 6.74082C9.77595 5.69174 10.1473 4.61086 10.7043 3.65714C10.859 3.21207 10.5805 2.70343 10.859 2.25836Z" fill="#1BE69B"/>
<path d="M16.429 1.96929C16.429 2.38257 16.6456 2.57331 17.0479 2.57331C17.2026 2.76405 17.2336 2.95479 17.1717 3.17733C16.5528 3.5906 15.9029 4.03568 16.6456 4.89402C16.7694 5.27551 16.7694 5.6252 16.6146 6.00669C16.2124 6.9922 15.5006 7.81874 14.8198 8.58171C14.4794 9.02678 14.5413 10.0441 13.5201 9.47185C13.1487 8.83604 13.1797 8.16844 13.3963 7.50084C13.7058 6.99219 14.2318 6.64249 14.3866 6.03847C15.1293 5.02118 14.4175 3.71777 14.9745 2.63689C15.1293 2.25541 15.5625 2.22361 15.8101 1.9375C16.0267 1.96929 16.2124 1.96929 16.429 1.96929Z" fill="#11DFAF"/>
<path d="M11.7857 8.0084C11.7548 7.53155 11.631 7.05469 11.6929 6.60962C11.7857 5.62412 11.3525 4.38429 12.8997 4.06638C14.0138 3.81206 14.1995 2.98551 13.6424 2C13.9519 2 14.2613 2 14.5708 2C14.7565 2.19074 14.8493 2.41327 14.8803 2.69939C14.8493 2.92192 14.9421 2.66759 14.8803 2.85834C14.2304 4.76577 13.2711 6.51425 13.1473 8.67601C13.0854 9.66151 12.188 8.86674 11.8476 8.29452C11.8167 8.16735 11.7857 8.07198 11.7857 8.0084Z" fill="#10E4A5"/>
<path d="M10.8576 2.25759C11.1361 2.76624 11.198 3.30668 11.167 3.87891C10.3005 4.32398 9.46501 4.86442 8.47475 4.99158C8.13435 4.83263 7.88679 4.5783 7.76301 4.19682C7.54639 3.08415 9.09366 3.02057 9.00083 1.97148C9.65068 1.93969 10.3005 1.9079 10.8576 2.25759Z" fill="#1BED8C"/>
<path d="M14.5723 2.60402C14.5723 2.41327 14.5723 2.19074 14.5723 2C14.9746 2 15.4078 2 15.8101 2C15.8101 2.41328 15.5935 2.60402 15.1912 2.60402C15.0055 2.79476 14.7889 2.76297 14.5723 2.60402Z" fill="#16DBA6"/>
<path d="M3.77211 7.3437C3.67928 6.3582 3.80306 5.56344 4.66953 4.89584C5.07182 4.57793 6.00019 4.0057 5.00994 3.21094C5.22655 3.21094 5.41223 3.21094 5.62885 3.21094C6.6191 3.40168 6.12397 4.22823 6.24776 4.80046C5.78357 5.27732 5.47412 5.91313 5.00994 6.38999C5.00994 6.48536 5.00994 6.61252 5.00994 6.70789C4.73143 7.21654 4.45292 7.72519 3.77211 7.3437Z" fill="#1BF67B"/>
<path d="M8.38235 4.79747C9.34166 4.60672 10.1462 3.87554 11.1675 3.84375C10.1153 4.51135 10.5485 6.0055 9.62017 6.7049C9.18694 6.86385 9.06315 6.45057 8.81559 6.22804C8.44424 5.65581 7.73249 5.91013 7.26831 5.56044C7.23737 5.49685 7.20642 5.46506 7.14453 5.40148C7.14453 5.21074 7.14453 4.98821 7.14453 4.79747C7.57777 4.47956 7.98006 4.47956 8.38235 4.79747Z" fill="#1FEB95"/>
<path d="M5.9378 6.74146C6.83522 6.77325 6.30915 5.40626 7.17562 5.43805L7.20657 5.53342C7.57792 5.97849 7.57791 6.48713 7.45413 7.02757C6.959 8.01308 6.12347 8.2674 5.10227 8.17203C4.8547 8.01308 4.79281 7.79055 4.82376 7.53622C4.94754 6.90041 5.56645 6.99578 5.9378 6.74146Z" fill="#39E490"/>
<path d="M5.93733 6.74273C5.62788 6.96526 5.31842 7.15601 5.00897 7.37854C4.421 8.04614 5.19464 9.22239 4.17343 9.69924C2.93561 9.12701 3.30696 8.23688 3.77114 7.34675C4.17344 7.12421 4.60667 6.93347 5.00897 6.71094C5.31842 6.71094 5.62788 6.74273 5.93733 6.74273Z" fill="#1EEF80"/>
<path d="M5.00911 6.42546C4.97816 5.53533 5.50424 5.09026 6.24693 4.83594C6.06126 5.56712 5.93748 6.2983 5.00911 6.42546Z" fill="#1AF57E"/>
<path d="M8.38235 4.79987C7.98006 4.79987 7.54682 4.79987 7.14453 4.79987C7.14453 4.3866 7.36115 4.16406 7.76344 4.16406C8.16573 4.19585 8.38235 4.3866 8.38235 4.79987Z" fill="#1AE885"/>
<path d="M19.8316 2.60938C20.0483 2.60938 20.2339 2.60938 20.4506 2.60938C21.1314 3.43593 21.1004 4.45322 21.0695 5.47052C21.4718 6.61498 20.2649 6.39244 19.8935 6.90109C19.6769 6.99646 19.4294 7.06005 19.1818 7.06005C18.9342 7.06005 18.7176 6.99646 18.501 6.83751C18.0987 6.45602 18.0368 5.94738 18.3772 5.59768C19.2127 4.77113 19.3056 3.56309 19.8316 2.60938Z" fill="#0BD7C5"/>
<path d="M19.8321 6.70293C19.7702 5.781 21.1318 6.35323 21.0699 5.43131C21.2866 5.43131 21.4722 5.43131 21.6889 5.43131C21.7817 5.30415 21.9055 5.30415 21.9983 5.43131C21.9364 5.90817 22.0912 6.28965 22.3078 6.70293C21.9674 7.11621 21.5032 7.30695 21.039 7.49769C20.4201 7.59306 20.0797 7.24337 19.8321 6.70293Z" fill="#08D2CD"/>
<path d="M21.9989 5.47175C21.9061 5.47175 21.7823 5.47175 21.6895 5.47175C21.8751 5.05847 22.1846 4.83594 22.6178 4.83594C22.8344 4.89952 23.2058 4.89952 23.0511 5.21743C22.8344 5.6307 22.3393 5.40817 21.9989 5.47175Z" fill="#09D0D2"/>
<path d="M16.4292 6.10633C16.4292 5.69305 16.4292 5.24799 16.4292 4.83471C15.996 4.03995 16.7387 3.72204 17.0481 3.24519C17.0481 3.02265 17.0481 2.83191 17.0481 2.60938C17.7599 2.60938 18.5026 2.60938 19.2143 2.60938C19.4 4.38964 18.1622 5.24798 17.0791 6.23349C16.8625 6.29707 16.6149 6.26528 16.4292 6.10633Z" fill="#12DBB8"/>
<path d="M17.0475 6.10633C17.7593 4.93008 18.8424 4.00816 19.2137 2.60938C19.4303 2.60938 19.616 2.60938 19.8326 2.60938C19.9255 3.78562 19.8326 4.8665 18.7805 5.62947C18.4401 5.8838 18.3782 6.32886 18.6258 6.74214C18.4401 6.96467 18.1925 7.06005 17.914 7.09184C17.357 6.96468 16.7381 6.93288 17.0475 6.10633Z" fill="#0DD9BE"/>
<path d="M1.91406 20.3807C2.0069 20.2853 2.13068 20.1582 2.22352 20.0628C2.56392 19.0137 3.30661 18.5051 4.35876 18.6958C5.93698 18.9501 7.45331 18.0918 9.03154 18.5051C9.03154 19.0455 9.92896 19.3952 9.34099 20.0628C9.03154 20.19 8.72208 20.2853 8.41262 20.4125C8.35073 19.7449 7.82465 19.6813 7.39142 19.8085C5.59658 20.3807 3.67796 19.7449 1.91406 20.3807Z" fill="#145FCF"/>
<path d="M17.9748 17.8314C14.9731 17.8314 12.0023 17.8314 9.00058 17.8314C8.53639 18.1493 8.07221 18.2447 7.66992 17.7361C7.76276 16.528 8.72206 16.7823 9.40286 16.7505C12.5903 16.7188 15.7777 16.7188 18.965 16.7188C19.9862 16.8777 21.1931 16.3373 22.0286 17.4499C22.1524 18.1493 21.5026 18.2129 21.1931 18.5308C20.9765 18.6262 20.7599 18.658 20.5433 18.6262C19.6149 18.5944 18.5318 19.103 17.9748 17.8314Z" fill="#0B54C4"/>
<path d="M7.76386 17.8321C8.16615 17.8321 8.59939 17.8321 9.00168 17.8321C9.00168 18.0547 9.00168 18.2454 9.00168 18.468C7.33062 19.2945 5.56672 19.1673 3.83377 19.072C2.99824 19.0402 2.78163 19.7714 2.22461 20.0575C2.22461 19.517 2.22461 19.0084 2.22461 18.468C2.25555 18.309 2.25555 18.1501 2.34839 18.0229C2.9673 17.1963 7.05211 17.0374 7.76386 17.8321Z" fill="#0C57C5"/>
<path d="M17.9746 17.8359C18.6864 18.1538 19.3672 18.8214 20.1717 17.9949C20.2646 18.1538 20.3574 18.3128 20.4503 18.4717C20.6359 18.6943 20.6359 18.885 20.4503 19.1076C20.017 19.1393 19.5528 18.9486 19.2124 19.4255C19.1196 19.4255 18.9958 19.4255 18.903 19.4255C18.5935 19.1076 18.2841 18.7897 17.9746 18.4717C17.9746 18.281 17.9746 18.0585 17.9746 17.8359Z" fill="#145AC8"/>
<path d="M26.641 19.107C26.641 19.5203 26.641 19.9653 26.641 20.3786C25.1865 20.1561 23.763 19.9653 22.3086 19.7428C22.4014 19.5203 22.5252 19.3295 22.618 19.107C23.9487 18.4712 25.2794 18.3758 26.641 19.107Z" fill="#1662D2"/>
<path d="M26.9189 21.966C26.6095 22.1568 26.4857 22.6654 25.9906 22.6018C25.8977 21.8389 25.3098 21.966 24.8146 21.966C23.7625 21.966 22.7104 21.966 21.6582 21.966C21.8748 20.9487 22.6794 21.4256 23.2674 21.362C23.8553 21.2984 24.4742 21.3302 25.0622 21.3302C25.5883 21.3302 26.0834 21.3302 26.6095 21.3302C26.888 21.4574 26.9499 21.7117 26.9189 21.966Z" fill="#236DDD"/>
<path d="M26.6403 19.1026C25.3096 19.1026 23.948 19.1026 22.6174 19.1026C21.9056 19.1026 21.1629 19.1026 20.4512 19.1026C20.4512 18.8801 20.4512 18.6893 20.4512 18.4668C20.6678 18.4668 20.8535 18.4668 21.0701 18.4668C22.277 17.672 23.7314 18.4032 24.9692 17.7038C26.0214 17.2587 26.2999 18.0853 26.6403 18.7847C26.6403 18.9118 26.6403 19.0072 26.6403 19.1026Z" fill="#115CCC"/>
<path d="M26.6402 13.0641C26.6402 13.4774 26.6402 13.9225 26.6402 14.3357C25.8975 15.5756 24.9382 16.4975 23.3599 16.3703C22.8029 16.3385 22.3387 16.7836 21.7817 16.8472C20.8533 16.879 19.9559 16.8472 19.0276 16.8472C15.5926 16.8472 12.1886 16.8472 8.75364 16.8472C8.22757 16.8472 7.60866 17.0379 7.14447 16.5293C6.33989 15.8299 5.04018 16.6246 4.35938 15.5756C5.2568 14.8444 6.18516 15.6074 7.11353 15.4802C7.76338 15.3848 8.41324 15.4484 9.0631 15.4484C13.2098 15.4166 17.3256 15.512 21.4723 15.3848C22.1221 15.1941 22.8029 15.0669 23.4528 14.8126C23.7622 14.6854 24.0407 14.4947 24.2883 14.2722C24.3811 14.1768 24.5049 14.1132 24.6287 14.0496C25.2476 13.8589 25.5571 13.2866 26.0212 12.937C26.2688 12.8734 26.4545 12.9052 26.6402 13.0641Z" fill="#0054B6"/>
<path d="M7.17542 16.5625C11.1983 16.5625 15.2212 16.5625 19.2442 16.5625C19.4298 16.785 19.4298 16.9758 19.2442 17.1983C15.8711 17.1983 12.498 17.1983 9.15593 17.1983C8.6608 17.1983 7.98 16.944 7.82528 17.8341C7.17542 17.548 6.68028 17.0076 5.84475 17.7388C5.41152 18.1202 4.42127 17.9931 3.77141 17.8023C2.99777 17.5798 2.65736 17.9931 2.28602 18.5017C2.03845 18.3746 1.97656 18.1202 1.97656 17.8659C3.27627 16.7532 4.82356 16.5625 6.40178 16.6897C6.64934 16.6897 6.92785 16.9122 7.17542 16.5625Z" fill="#0450BB"/>
<path d="M9.00075 15.9236C7.45347 15.9871 5.90619 15.8918 4.35892 15.6056C4.04946 15.0652 3.12109 15.1606 3.12109 14.334C3.46149 13.9843 3.86379 14.0161 4.26608 14.1433C5.07067 14.6519 5.99903 14.8109 6.89645 15.0334C7.54631 15.3195 8.35089 15.0652 8.9698 15.5103C9.09358 15.6374 9.12453 15.7646 9.00075 15.9236Z" fill="#056AA7"/>
<path d="M4.32774 14.3999C3.92545 14.3682 3.52316 14.3681 3.15181 14.3364C3.05897 14.3364 2.99708 14.3046 2.90424 14.3364C2.78046 13.9231 2.62574 13.5098 2.50195 13.0965C2.62574 13.0965 2.74952 13.0647 2.8733 13.0647C3.33749 12.874 3.58505 13.2873 3.8945 13.478C4.11112 13.637 4.29679 13.7959 4.45152 14.0502C4.45152 14.1774 4.42057 14.3046 4.32774 14.3999Z" fill="#21CDA8"/>
<path d="M3.77211 7.34375C3.98873 8.07493 3.24603 9.09223 4.39102 9.56909C4.45291 9.63267 4.48386 9.69625 4.54575 9.75983C4.73142 10.1731 4.70047 10.5546 4.39102 10.8725C4.1744 10.9997 3.95778 11.0314 3.77211 10.8407C3.71022 10.2367 3.18414 9.98236 2.84374 9.56909C3.12225 8.8379 2.10105 7.5027 3.77211 7.34375Z" fill="#1BF67B"/>
<path d="M3.77242 10.8438C3.98904 10.8438 4.17471 10.8438 4.39133 10.8438C4.45322 10.9073 4.51511 10.9709 4.577 11.0345C4.88646 11.9246 4.94835 12.8148 4.51511 13.6731C4.26755 13.8638 4.05093 13.8956 3.80337 13.6731C3.49391 13.4506 3.18445 13.228 2.90594 13.0373C2.90594 12.8465 2.90595 12.624 2.875 12.4333C3.24635 11.9882 3.67958 11.5431 3.77242 10.8438Z" fill="#1AF287"/>
<path d="M21.998 16.5613C22.2147 16.4023 22.4313 16.1162 22.617 16.1162C24.288 16.2752 25.4021 15.1943 26.6399 14.3359C26.6399 15.385 26.6399 16.4659 26.6399 17.515C26.1138 17.7375 25.6187 17.4832 25.1235 17.3878C24.6903 17.1017 24.2571 16.911 23.731 16.9746C23.3596 16.9746 22.9883 16.9746 22.586 16.911C22.3694 16.8792 22.1528 16.7838 21.998 16.5613Z" fill="#064EBC"/>
<path d="M26.6399 13.0655C26.4542 13.0655 26.2685 13.0655 26.0519 13.0973C25.8972 13.2563 25.7115 13.2881 25.5258 13.2245C25.4639 13.1927 25.433 13.1291 25.3711 13.0973C25.5258 12.3662 25.6805 11.6032 26.6089 11.5078C26.6089 11.8257 26.6089 12.1436 26.6089 12.4615C26.6399 12.6523 26.6399 12.8748 26.6399 13.0655Z" fill="#0CBCF3"/>
<path d="M25.0931 17.1972C25.6192 17.1654 26.1453 17.1972 26.6404 17.5151C26.6404 17.6105 26.6404 17.7376 26.6404 17.833C26.6404 18.1509 26.6404 18.4688 26.6404 18.7867C26.0834 18.5642 25.9287 17.6105 25.0931 17.833C25.0622 17.8012 25.0003 17.7377 24.9693 17.7059C24.9074 17.5151 24.9384 17.3562 25.0931 17.1972Z" fill="#1058C7"/>
<path d="M24.4739 9.56823C25.6808 8.70988 25.557 7.34289 25.7118 6.07127C26.702 5.9759 26.6711 6.67529 26.6401 7.34289C25.8046 8.48735 26.3926 10.1405 25.2166 11.2213C24.9072 11.5075 25.1238 12.4294 25.0929 13.0334C24.8144 13.6056 24.474 14.0507 23.7622 13.6692C22.9886 12.493 24.1026 11.5074 24.0717 10.3948C24.1026 10.1405 24.1645 9.91792 24.2883 9.69539C24.3502 9.69539 24.4121 9.63181 24.4739 9.56823Z" fill="#04C6EB"/>
<path d="M23.8552 13.6983C24.2575 13.4758 24.6907 13.285 25.093 13.0625C25.1859 13.0625 25.3096 13.0625 25.4025 13.0625C25.8357 14.048 24.7836 13.9208 24.4741 14.3659C24.2575 14.5249 24.0409 14.5249 23.7933 14.3977C23.6695 14.1752 23.6695 13.9208 23.8552 13.6983Z" fill="#0CBCF3"/>
<path d="M24.4746 6.74219C24.4746 7.6959 24.4746 8.64962 24.4746 9.60333C24.258 9.79408 24.0414 9.79408 23.8248 9.66692C23.4844 9.28543 23.5153 8.80857 23.4844 8.33171C23.5153 7.88665 23.2987 7.50516 23.144 7.12368C23.113 6.96472 23.144 6.83756 23.2677 6.74219C23.6391 6.74219 24.0414 6.74219 24.4746 6.74219Z" fill="#12CEDB"/>
<path d="M23.2359 6.70854C23.2359 6.80391 23.2359 6.93107 23.2359 7.02644C23.1121 7.18539 22.9574 7.28076 22.7408 7.34435C22.3075 7.43972 21.9052 7.63047 21.472 7.75763C21.3482 7.78942 21.2244 7.75762 21.1006 7.69404C21.0388 7.63046 21.0078 7.53509 21.0078 7.47151C21.0078 7.37613 21.0388 7.34435 21.0697 7.34435C21.3173 6.77212 21.7815 6.67674 22.3075 6.70854C22.617 6.70854 22.9264 6.70854 23.2359 6.70854Z" fill="#19C9CB"/>
<path d="M9.06306 6.07031C9.24873 6.29285 9.4344 6.48359 9.65102 6.70612C9.65102 6.80149 9.65102 6.89687 9.68197 7.02403C10.2699 7.34193 11.0126 7.08761 11.5078 7.65984C11.6006 7.75521 11.7244 7.88237 11.8172 7.97774C12.1576 8.58176 12.3123 9.15399 11.7244 9.69443C11.5077 9.82159 11.2602 9.82159 11.0126 9.72622C10.8269 8.48639 9.99141 7.97774 8.93927 7.69163C8.84643 7.56447 8.78455 7.40552 8.7536 7.24656C8.66076 6.8015 8.66076 6.38822 9.06306 6.07031Z" fill="#32DFAE"/>
<path d="M11.4762 7.65925C10.8573 7.43671 10.1455 7.5003 9.65039 7.02344C10.3002 7.11881 11.1048 6.8009 11.4762 7.65925Z" fill="#2CE2A3"/>
<path d="M11.4763 9.57204C11.9715 9.12697 11.7239 8.52295 11.7858 7.98251C12.0953 8.23683 12.4047 8.52295 12.6832 8.77727C13.1165 8.65011 13.0236 8.26863 13.0236 7.98251C13.0236 6.3612 12.7761 4.70809 14.4162 3.62722C14.6018 3.50006 14.54 2.92782 14.6018 2.57812C14.8185 2.57812 15.0041 2.57812 15.2208 2.57812C15.2517 3.40468 15.0351 4.19944 15.1898 5.026C15.2826 5.47106 15.2517 5.97971 14.6018 6.04329C14.1686 6.36119 14.0758 6.96521 13.6735 7.31491C13.6735 8.04609 13.6735 8.80906 13.6735 9.54024C13.6425 9.60382 13.5806 9.63561 13.5497 9.6992C12.7761 9.92173 12.8379 10.6211 12.6832 11.2251C12.6523 11.3523 12.5594 11.4795 12.4975 11.6066C11.7858 12.465 11.4145 13.5459 10.9193 14.5314C9.71246 14.7857 9.24827 14.277 9.37205 13.069C9.12449 12.4968 10.7337 12.0835 9.52678 11.4159C9.46489 11.2887 9.403 11.1298 9.37205 10.9708C9.34111 10.3032 9.65056 9.92174 10.2695 9.82637C10.6718 9.82637 11.1359 9.95352 11.4763 9.57204Z" fill="#11E3A9"/>
<path d="M17.0463 6.10156C17.0772 6.73737 17.5414 6.73737 17.9746 6.73737C18.1294 7.15065 17.758 7.37318 17.6652 7.72288C17.3248 8.29511 17.5414 9.02629 17.1391 9.59852C16.9844 9.75747 16.7677 9.82105 16.5511 9.75747C15.9632 9.28061 15.468 8.70838 14.7253 8.48585C14.6944 8.42227 14.6325 8.39048 14.6016 8.3269C15.2205 7.59572 15.8394 6.83274 16.4583 6.10156C16.644 6.10156 16.8296 6.10156 17.0463 6.10156Z" fill="#10DCB5"/>
<path d="M13.6437 9.5685C14.5101 9.5685 14.046 8.5512 14.572 8.29688C15.2219 9.15522 14.9124 10.2997 15.3147 11.2852C15.6242 12.0164 14.6649 12.1753 14.1079 12.3343C13.5199 12.3025 12.901 12.4296 12.344 12.1435C12.2202 11.921 12.2511 11.6985 12.4059 11.4759C12.87 10.8719 12.8081 9.91819 13.6437 9.5685Z" fill="#0EDEB6"/>
<path d="M17.0471 3.24277C17.2637 3.94216 16.4591 4.22828 16.4282 4.8323C15.7783 4.76872 15.7783 4.29186 15.8402 3.815C15.964 3.02024 16.5829 3.30635 17.0471 3.24277Z" fill="#0EE0B3"/>
<path d="M13.6436 7.34289C13.6126 6.67529 13.5817 5.9759 14.572 6.07127C14.6029 6.77066 14.6338 7.47005 13.6436 7.34289Z" fill="#15E0AB"/>
<path d="M9.06376 6.07064C9.06376 6.48391 9.03282 6.92898 9.03282 7.34226C8.44485 7.56479 8.32107 6.89719 7.91877 6.77003C7.67121 6.8654 7.51649 7.15151 7.20703 7.02435C7.20703 6.5157 7.20702 6.00706 7.23797 5.49841C7.85688 5.49841 8.72336 4.95797 9.06376 6.07064Z" fill="#8BF8C9"/>
<path d="M7.17573 7.02349C7.39235 6.70558 7.57803 6.41947 7.79464 6.10156C8.28977 6.73737 8.13504 7.43677 7.57802 7.75467C6.80438 8.23153 6.74249 8.67659 7.23762 9.37598C7.29951 9.43956 7.11384 9.63031 6.99006 9.75747C6.40209 10.0436 5.84507 10.0118 5.25711 9.75747C4.70009 9.24882 4.48347 8.70839 5.00955 8.04079C5.72129 7.6593 6.61871 7.72288 7.17573 7.02349Z" fill="#ABFCD7"/>
<path d="M5.01017 8.0426C4.97923 8.58304 5.01017 9.12348 5.35057 9.56854C5.25774 9.6957 5.13395 9.75929 4.97922 9.82287C4.73166 9.85466 4.54599 9.75929 4.36031 9.60034C4.4841 8.83736 4.01991 7.88365 4.97922 7.375C5.01017 7.59753 5.01017 7.82007 5.01017 8.0426Z" fill="#35EB8A"/>
<path d="M17.3574 7.34675C17.574 7.12421 17.7597 6.93347 17.9763 6.71094C18.193 6.71094 18.3786 6.71094 18.5952 6.71094C18.8119 6.71094 18.9975 6.71094 19.2142 6.71094C20.3901 7.31496 20.2973 8.33225 20.1116 9.41313C19.9878 9.82641 19.7712 10.1761 19.3689 10.3986C18.9666 10.5576 18.5952 10.5894 18.193 10.4304C18.0382 10.3668 17.9454 10.2715 17.8526 10.1125C17.7907 9.88999 17.8216 9.66746 17.9763 9.47672C18.5334 9.12702 19.0285 8.77732 18.7809 7.98256C18.4715 7.34675 17.6978 7.8554 17.3574 7.34675Z" fill="#23D2C7"/>
<path d="M19.8318 9.57208C19.8318 8.55479 19.9865 7.53749 19.2129 6.71094C19.4295 6.71094 19.6152 6.71094 19.8318 6.71094C20.2341 6.93347 20.6673 7.12421 21.0696 7.34675C21.0696 7.44212 21.0696 7.56928 21.0696 7.66465C21.0696 7.72823 21.0696 7.79182 21.1006 7.8554C21.1315 8.26867 21.0696 8.65016 20.9149 9.03165C20.7911 9.28597 20.6673 9.54029 20.4198 9.69924C20.2032 9.79461 19.9865 9.76283 19.8318 9.57208Z" fill="#0FD3C8"/>
<path d="M25.0935 17.8333C25.0007 18.5962 24.4127 18.4691 23.9486 18.4691C22.9892 18.4691 22.0299 18.4691 21.1016 18.4691C21.1325 17.8333 21.5657 17.8333 22.0299 17.8333C22.1847 17.6743 22.3394 17.5471 22.5251 17.4518C22.9893 17.3246 23.3606 16.8795 23.8867 17.0703C24.289 17.3246 24.7531 17.4836 25.0935 17.8333Z" fill="#1058C7"/>
<path d="M22.6169 17.8341C22.4003 17.8341 22.2146 17.8341 21.998 17.8341C21.2862 16.6897 20.1413 17.3891 19.2129 17.1983C19.2129 16.9758 19.2129 16.785 19.2129 16.5625C20.1413 16.5625 21.0696 16.5625 21.998 16.5625C22.2146 16.5625 22.4003 16.5625 22.6169 16.5625C22.9573 17.0076 22.9573 17.4208 22.6169 17.8341Z" fill="#0851BE"/>
<path d="M9.03142 15.6075C8.31967 15.4804 7.54604 15.7983 6.86523 15.3532C7.01996 15.0671 7.26752 14.9717 7.57698 14.9081C8.50534 14.8128 9.43371 14.8764 10.393 14.8446C12.1879 14.8446 13.9827 14.8446 15.7775 14.8446C17.8818 14.781 19.9861 15.0035 22.0595 14.7174C22.2452 14.6538 22.3999 14.622 22.5856 14.622C23.0498 14.5902 23.5139 14.5902 23.8543 14.9717C23.3283 15.4804 22.6784 15.5757 22.0285 15.6393C18.3151 15.9572 14.6016 15.7029 10.8572 15.7665C10.2383 15.7665 9.58844 15.9254 9.03142 15.6075Z" fill="#08A1D9"/>
<path d="M9.0329 15.6094C13.3653 15.6094 17.6667 15.6094 21.9991 15.6094C21.5349 16.118 20.9469 15.8955 20.3899 15.8955C16.5836 15.9273 12.8083 15.8955 9.00195 15.8955C9.00195 15.8319 9.00196 15.7365 9.0329 15.6094Z" fill="#036BB0"/>
<path d="M23.8234 14.9761C23.4211 14.9761 23.0188 14.9761 22.6165 14.9761C22.5237 14.849 22.5237 14.69 22.6165 14.5629C22.9878 14.245 23.3592 13.9906 23.8543 14.3403C24.0709 14.3403 24.2876 14.3721 24.5042 14.3721C24.4732 14.7854 24.1947 14.9444 23.8234 14.9761Z" fill="#10B3EB"/>
<path d="M24.4746 14.3659C24.5674 13.7619 25.4339 13.7619 25.403 13.0625C25.6196 13.0625 25.8362 13.0625 26.0528 13.0943C25.8672 13.9526 25.3411 14.3977 24.4746 14.3659Z" fill="#10B3EB"/>
<path d="M7.48457 15.2912C7.26795 15.323 7.05133 15.323 6.83471 15.3548C5.93729 15.1959 4.94704 15.2912 4.32812 14.4011L4.39002 14.3375C4.91609 13.8607 5.44217 14.0832 5.96824 14.3057C6.43243 14.6236 7.02039 14.5601 7.45363 14.878C7.51552 14.9733 7.54646 15.0687 7.54646 15.1641C7.51551 15.2595 7.51552 15.2912 7.48457 15.2912Z" fill="#21CDA8"/>
<path d="M5.90642 14.6525C5.44224 14.3663 4.91616 14.3028 4.35914 14.3028C4.14253 14.0802 3.92591 13.8895 3.74023 13.6669C3.95685 13.6669 4.14253 13.6669 4.35914 13.6669C4.6686 13.3808 5.07089 13.2855 5.47319 13.2537C6.27777 13.3808 6.95857 12.6179 7.76315 12.9676C8.10355 13.9213 7.42275 14.3028 6.80384 14.716C6.52533 14.8114 6.21588 14.9068 5.90642 14.6525Z" fill="#1CE89C"/>
<path d="M4.39062 9.57031C4.60724 9.57031 4.79292 9.57031 5.00954 9.57031C5.19521 9.76106 5.28804 10.0154 5.28804 10.3015C5.16426 10.7784 5.00954 11.1598 4.42157 10.8419C4.39063 10.4287 4.39062 10.0154 4.39062 9.57031Z" fill="#1AF287"/>
<path d="M4.39062 10.8367C4.79292 10.8367 5.00954 10.6142 5.00954 10.2009C5.28805 9.94656 5.62845 9.91477 5.96885 10.0737C6.46398 10.5188 6.58775 11.091 6.6187 11.7268C6.64964 12.5852 6.24736 13.1892 5.62845 13.6978C5.22615 13.6978 4.79292 13.6978 4.39062 13.6978C4.39062 12.7441 4.39062 11.7904 4.39062 10.8367Z" fill="#1BEE8A"/>
<path d="M25.0939 17.8341C24.5987 17.7705 23.9489 18.0567 23.8561 17.1983C23.6704 16.9758 23.6704 16.785 23.8561 16.5625C24.3512 16.6261 25.001 16.34 25.0939 17.1983C25.0939 17.4208 25.0939 17.6116 25.0939 17.8341Z" fill="#0754C1"/>
<path d="M23.855 16.5625C23.855 16.785 23.855 16.9758 23.855 17.1983C23.4527 17.4208 23.0195 17.6116 22.6172 17.8341C22.6172 17.4208 22.6172 16.9758 22.6172 16.5625C23.0195 16.5625 23.4527 16.5625 23.855 16.5625Z" fill="#0A51C5"/>
<path d="M23.856 14.3342C23.4537 14.4296 23.0205 14.5568 22.6182 14.6521C22.0302 13.7302 21.8136 12.7765 22.4635 11.791C22.8658 11.3459 23.3918 11.0598 23.6394 10.4558C23.7941 10.1061 24.1036 9.91535 24.4749 10.2015C24.7225 11.4413 23.4847 12.4268 23.856 13.6984C23.856 13.9209 23.856 14.1117 23.856 14.3342Z" fill="#07C7E9"/>
<path d="M24.4732 10.2049C23.5758 10.3957 23.8234 11.9852 22.6165 11.7944C22.5546 11.7309 22.5237 11.6991 22.4618 11.6355C22.1833 10.9997 22.7403 10.5864 22.8641 10.0778C22.926 9.88701 23.0188 9.69626 23.1735 9.53731C23.3592 9.41015 23.5758 9.37836 23.7615 9.53731C23.9781 9.53731 24.1947 9.5691 24.4423 9.5691C24.4733 9.79164 24.4732 10.0142 24.4732 10.2049Z" fill="#07C8E3"/>
<path d="M23.794 9.53862C23.6084 9.57041 23.4227 9.6022 23.237 9.63399C23.1751 9.6022 23.1442 9.53862 23.0823 9.50683C22.9895 9.34788 22.9276 9.15713 22.8657 8.96639C22.7728 8.71207 22.7109 8.45774 22.7109 8.20342C22.7419 8.07626 22.8038 7.94909 22.8966 7.85372C23.0204 7.79014 23.1442 7.72656 23.268 7.72656C23.4846 7.72656 23.6702 7.82193 23.794 8.01268C23.825 8.55311 23.794 9.02997 23.794 9.53862Z" fill="#67DEEB"/>
<path d="M23.8234 8.0402C23.6378 8.0084 23.4521 7.97661 23.2664 7.97661C23.0188 7.6905 22.4618 7.65871 22.6166 7.05469C22.8332 7.05469 23.0498 7.05469 23.2355 7.05469C23.6378 7.21364 23.8544 7.53155 23.8234 8.0402Z" fill="#25C8D4"/>
<path d="M22.617 7.05469C22.8337 7.37259 23.2978 7.46796 23.2669 7.97661C23.1431 7.97661 23.0503 8.0084 22.9265 8.0084C22.4004 8.07198 22.091 8.3581 22.0291 8.93033C21.9981 9.15286 21.9362 9.37539 21.8125 9.56614C21.6887 9.6933 21.5649 9.72509 21.4102 9.6933C21.2864 9.59792 21.1935 9.47077 21.1317 9.31182C21.0698 8.73959 20.9769 8.16736 21.3792 7.6905C21.6887 7.24543 22.1219 7.11827 22.617 7.05469Z" fill="#4CD6DB"/>
<path d="M21.3792 7.66406C21.3792 8.29987 21.3792 8.93568 21.3792 9.57149C21.1936 9.66686 21.0698 9.63508 20.946 9.47613C20.8841 8.87211 20.8222 8.26808 21.0698 7.69585C21.1626 7.66406 21.2554 7.66406 21.3792 7.66406Z" fill="#25D1D2"/>
<path d="M7.11295 9.60094C7.11295 8.61544 6.12269 9.18766 5.68945 8.61543C6.46309 7.85246 8.13416 7.78888 7.79375 6.10399C8.66023 6.0404 8.28888 7.24844 9.00063 7.34381C9.03157 7.43918 9.03158 7.53455 9.03158 7.62993C9.06252 7.7253 9.15535 7.78888 9.24819 7.82067C9.77426 7.97962 10.517 7.97963 10.5479 8.67902C10.5789 9.44199 9.65048 9.18766 9.31008 9.60094C9.21725 9.69631 9.12441 9.79168 9.03158 9.91885C8.87685 10.0778 8.8459 10.2685 8.75307 10.4593C8.62929 10.8408 8.56739 11.3176 8.04132 11.2858C7.51524 11.254 7.4843 10.7772 7.36052 10.3957C7.29863 10.205 7.23673 10.0142 7.1439 9.82348C7.1439 9.7599 7.14389 9.69631 7.11295 9.60094Z" fill="#E2FDF7"/>
<path d="M9.0332 9.60383C9.0332 8.65011 9.89968 9.12697 10.302 8.80906C10.1782 8.07788 9.18793 8.30041 9.0332 7.63281C11.1994 7.79177 11.3232 7.91893 10.7971 9.57204C10.7043 9.6992 10.5805 9.82636 10.4258 9.85815C9.96157 9.88994 9.46644 10.0171 9.0332 9.60383Z" fill="#B3FBE8"/>
<path d="M10.5475 9.60265C10.6403 9.57086 10.7022 9.53906 10.795 9.53906C11.0116 9.53906 11.2283 9.57085 11.4758 9.57085C11.2902 9.98413 10.9807 10.2067 10.5475 10.2067C10.3618 10.0159 10.3618 9.79339 10.5475 9.60265Z" fill="#1EDF9F"/>
<path d="M5.90625 14.6565C6.21571 14.6565 6.52516 14.6565 6.83462 14.6565C7.39164 14.275 7.94865 14.0206 8.19622 13.2577C8.38189 12.749 8.84607 12.4947 9.43404 12.5901C9.49593 12.6219 9.55782 12.6854 9.61971 12.7172C9.43404 13.9888 9.92917 14.4975 11.167 14.3068C11.167 14.4021 11.167 14.4975 11.167 14.5611C9.96011 15.1651 8.72229 15.1969 7.45353 14.9426C6.9584 14.9108 6.37043 15.1969 5.90625 14.6565Z" fill="#17E3A7"/>
<path d="M12.4053 11.4766C12.4053 11.6991 12.4053 11.8898 12.4053 12.1124C12.9933 12.7482 13.6431 13.384 13.1171 14.3695C12.9314 14.5602 12.6838 14.6556 12.4053 14.6874C11.9411 14.7192 11.5079 14.6874 11.1675 14.3059C10.3939 12.8436 11.7864 12.3349 12.4053 11.4766Z" fill="#0FE1AF"/>
<path d="M10.5481 9.60156C10.5481 9.79231 10.5481 10.0148 10.5481 10.2056C9.86729 10.142 9.55783 10.4599 9.61972 11.1593C9.40311 11.9858 9.03176 12.6217 8.01055 12.3355C7.85583 12.272 7.763 12.1766 7.67016 12.0494C7.63921 11.8905 7.7011 11.7633 7.79394 11.6362C8.93892 11.4136 8.47474 10.1738 9.03176 9.60156C9.55783 9.60156 10.053 9.60156 10.5481 9.60156Z" fill="#29D69A"/>
<path d="M13.6426 9.56652C13.1784 10.1705 13.2403 11.1243 12.4047 11.474C12.4666 10.6156 12.0025 9.37578 13.6426 9.56652Z" fill="#0FE1AF"/>
<path d="M7.76337 12.1412C8.62984 12.3002 9.15592 11.8233 9.6201 11.1875C9.6201 11.2829 9.6201 11.41 9.6201 11.5054C9.80577 11.7279 9.80577 11.9823 9.71293 12.2366C9.15591 12.7134 8.56795 12.9678 7.8562 12.6181C7.73242 12.4591 7.70148 12.3002 7.76337 12.1412Z" fill="#1EDF9F"/>
<path d="M9.6201 12.1124C9.6201 11.8898 9.6201 11.6991 9.6201 11.4766C9.86766 11.5401 10.3009 11.5719 10.3009 11.6355C10.3319 12.1442 10.0843 12.5256 9.6201 12.7482C9.43443 12.5574 9.46537 12.3349 9.6201 12.1124Z" fill="#17E3A7"/>
<path d="M12.4057 14.3401C12.6224 14.3401 12.808 14.3401 13.0246 14.3401C13.9221 13.8632 13.4579 12.7823 13.953 12.1147C14.2315 11.6379 16.1811 11.8604 14.4791 10.5252C14.1387 10.2709 14.51 9.06286 14.5719 8.29988C15.5003 8.2363 16.2739 8.42704 16.4287 9.5715C16.243 10.3345 16.243 11.161 15.9645 11.8922C15.655 12.4327 15.1599 12.8459 15.0361 13.4817C14.6957 14.9759 13.7673 15.1984 12.4986 14.7851C12.3438 14.658 12.3129 14.5308 12.4057 14.3401Z" fill="#10DBBB"/>
<path d="M15.8097 11.7956C16.0263 11.0645 15.2836 10.0472 16.4286 9.57031C16.6452 9.57031 16.8309 9.57031 17.0475 9.57031C17.1094 9.6021 17.1713 9.60211 17.2332 9.6339C17.5117 9.76106 17.7592 9.98359 18.0068 10.2061C17.8521 11.5095 17.2641 11.9546 15.8097 11.7956Z" fill="#0DD8BE"/>
<path d="M17.3557 7.34569C17.9437 7.47285 18.7482 6.74167 19.1505 7.72718C18.2531 8.04508 18.0365 8.93522 17.6652 9.6664C17.4485 9.76177 17.2319 9.72998 17.0462 9.57102C17.0462 8.83984 16.8915 8.04508 17.3557 7.34569Z" fill="#4EDBD1"/>
<path d="M13.9517 12.111C13.8589 12.9375 14.8182 14.241 13.0233 14.3363C13.3328 13.4462 12.3116 12.9375 12.4044 12.111C12.9305 11.9838 13.4566 11.9838 13.9517 12.111Z" fill="#12DBB8"/>
<path d="M5.90688 10.2061C5.59743 10.2061 5.28797 10.2061 4.97852 10.2061C4.97852 10.0154 4.97852 9.79285 4.97852 9.6021C5.1023 9.6021 5.22608 9.57031 5.34987 9.57031C5.93783 9.6021 6.52579 9.60211 7.11376 9.6339C7.57794 10.1425 7.48511 10.7466 7.33038 11.3506C6.15445 11.9228 6.52579 10.4287 5.90688 10.2061Z" fill="#2AE689"/>
<path d="M15.8089 11.7927C16.7373 11.5701 17.5419 11.1568 17.9751 10.2031C18.3774 10.2031 18.8106 10.2031 19.2129 10.2031C19.6152 10.9025 18.9963 11.2522 18.6869 11.6337C18.2227 12.2059 17.6347 12.6192 17.2634 13.255C16.8611 13.7637 16.892 14.5266 16.2731 14.8763C14.7877 15.0035 13.3333 15.2578 11.8479 15.0353C11.7241 14.4313 12.0026 14.4313 12.4359 14.6538C13.6427 14.7492 14.6949 14.7492 14.7258 13.0007C14.6949 12.492 15.3138 12.0788 15.8089 11.7927Z" fill="#0FD7C3"/>
<path d="M17.0469 13.0673C17.4182 11.8274 18.9036 11.4777 19.2131 10.2061C19.4297 9.98359 19.6154 9.79285 19.832 9.57031C20.0486 9.57031 20.2343 9.57031 20.4509 9.57031C21.1317 11.1598 20.977 11.6367 19.3059 13.1944C18.9964 13.3852 18.656 13.4488 18.2847 13.4488C17.8205 13.4805 17.3873 13.4488 17.0469 13.0673Z" fill="#0AD1D1"/>
<path d="M17.727 9.5387C17.5104 8.33066 17.6651 7.47232 19.1814 7.75843C19.3361 8.74394 19.5218 9.76123 18.0055 9.63407C17.8507 9.69765 17.7579 9.66586 17.727 9.5387Z" fill="#C4FEFE"/>
<path d="M17.7277 9.53906C17.8205 9.53906 17.9133 9.57086 17.9752 9.63444C17.9752 9.82518 17.9752 10.0159 17.9752 10.2385C17.542 10.2385 17.0778 10.2385 17.0469 9.60265C17.2635 9.57086 17.4801 9.57085 17.7277 9.53906Z" fill="#1ED1BC"/>
<path d="M19.2141 13.0703C19.864 11.9894 20.8542 11.0357 20.4519 9.57331C20.4519 9.31899 20.5138 9.06466 20.7614 8.9375C20.978 9.09645 20.8542 9.41436 21.0708 9.57331C21.1637 9.57331 21.2874 9.57331 21.3803 9.57331C21.4731 9.57331 21.566 9.6051 21.6588 9.63689C21.9373 9.76406 22.0611 9.98659 22.1539 10.2727C22.2468 10.7814 22.0611 11.2264 21.9064 11.7033C21.8445 11.8304 21.7826 11.9576 21.6897 12.053C21.3184 12.4345 20.8542 12.7524 20.8542 13.3882C20.7923 14.024 20.5757 14.5962 20.0496 14.9777C19.9258 15.0731 19.7711 15.1367 19.6164 15.1684C18.8118 15.1684 18.0072 15.2002 17.2026 15.1684C17.017 15.1049 16.9551 14.9777 16.9551 14.787C17.1717 14.3101 17.6359 14.1829 18.0691 14.0558C18.688 14.024 18.8737 13.4518 19.2141 13.0703Z" fill="#0BCDD7"/>
<path d="M21.0709 9.57149C20.8234 9.44433 20.7615 9.19001 20.7615 8.93568C20.7924 8.49062 20.6067 8.01376 21.0709 7.66406C21.0709 8.29987 21.0709 8.93568 21.0709 9.57149Z" fill="#19C9CB"/>
<path d="M19.832 14.9714C19.832 14.876 19.832 14.7488 19.832 14.6535C20.4819 14.3355 21.534 14.3355 20.977 13.0957C20.977 12.5235 21.4103 12.2056 21.6888 11.7923C21.9982 11.538 22.3077 11.538 22.6171 11.7923C22.1839 12.746 22.7409 13.6997 22.6171 14.6535C22.6171 14.7488 22.6171 14.876 22.6171 14.9714C22.5243 14.9714 22.4005 14.9714 22.3077 14.9714C21.4721 15.2257 20.6676 15.2257 19.832 14.9714Z" fill="#07C8E3"/>
<path d="M17.0466 14.6548C17.0466 14.7502 17.0466 14.8774 17.0466 14.9727C16.7062 15.3224 16.1801 14.941 15.8088 15.2907C13.952 15.2907 12.1263 15.2907 10.2695 15.2907C10.6718 14.5595 11.2288 14.7184 11.7859 14.9727C13.3641 15.1953 14.8495 14.5913 16.4277 14.6548C16.6443 14.4641 16.83 14.4959 17.0466 14.6548Z" fill="#15D4CC"/>
<path d="M15.8086 15.2945C16.149 14.8494 16.6132 15.0401 17.0464 14.9766C17.9748 14.9766 18.9031 14.9766 19.8315 14.9766C20.667 14.9766 21.4716 14.9766 22.3072 14.9766C20.1719 15.676 17.9748 15.1355 15.8086 15.2945Z" fill="#0DBCD9"/>
<path d="M11.7875 14.9717C11.2614 15.0671 10.7044 14.781 10.2711 15.2897C9.34276 15.2897 8.41439 15.2897 7.48603 15.2897C7.48603 15.1943 7.45508 15.0671 7.45508 14.9717C8.72384 15.0035 9.99261 14.94 11.1685 14.3359C11.5708 14.3359 12.0041 14.3359 12.4064 14.3359C12.4064 14.4313 12.4064 14.5585 12.4064 14.6538C12.1588 14.6538 11.9422 14.7174 11.7875 14.9717Z" fill="#12DBB8"/>
<path d="M9.62104 12.1094C9.62104 12.3319 9.62104 12.5227 9.62104 12.7452C9.09496 12.8406 8.53794 12.9359 8.41416 13.5399C8.22849 14.5255 7.57863 14.6208 6.83594 14.6526C7.14539 14.1122 7.45485 13.6035 7.7643 13.0631C7.57863 12.8406 7.60958 12.6498 7.7643 12.4273C8.41416 12.4591 9.06402 12.4909 9.62104 12.1094Z" fill="#16E39F"/>
<path d="M7.76384 12.4283C7.76384 12.6509 7.76384 12.8416 7.76384 13.0642C7.02115 13.1595 6.46413 13.9861 5.59766 13.7C5.59766 13.0006 6.40224 12.5555 6.21657 11.7925C6.77359 11.6018 7.29966 11.7607 7.7329 12.1104C7.76384 12.2376 7.76384 12.333 7.76384 12.4283Z" fill="#14EC94"/>
<path d="M7.76328 12.1112C7.23721 12.143 6.71114 12.0794 6.24696 11.7933C6.15412 11.2528 6.03034 10.7442 5.9375 10.2037C6.77303 10.172 6.46358 11.38 7.20627 11.4436C7.60856 11.2528 7.88707 11.2528 7.76328 11.8251C7.76328 11.9522 7.76328 12.0476 7.76328 12.1112Z" fill="#23E892"/>
<path d="M22.6178 11.7976C22.3084 11.7976 21.9989 11.7976 21.6895 11.7976C21.7823 11.2572 21.9061 10.7486 21.9989 10.2081C22.4012 9.82664 22.8344 9.89022 23.2367 10.2081C23.2058 10.8121 22.4012 11.0983 22.6178 11.7976Z" fill="#08CBDC"/>
<path d="M23.2367 10.2081C22.8344 10.2081 22.4012 10.2081 21.9989 10.2081C21.9061 10.0173 21.7823 9.8266 21.6895 9.63586L21.7513 9.5087C22.2465 9.12721 22.7416 9.159 23.2367 9.5087L23.2677 9.66765C23.2367 9.85839 23.2367 10.0173 23.2367 10.2081Z" fill="#2CCCD9"/>
<path d="M23.2061 9.50207C22.711 9.50207 22.2158 9.50207 21.7207 9.50207C21.7207 9.31133 21.7207 9.12058 21.7207 8.92984C21.8445 8.83447 21.9683 8.7391 22.0921 8.67552C22.4943 8.54836 22.8657 8.67551 23.1751 8.89805C23.2061 9.12058 23.2061 9.31133 23.2061 9.50207Z" fill="#AAFBFD"/>
<path d="M21.9977 8.93581C21.9049 8.93581 21.7811 8.93581 21.6883 8.93581C21.6573 8.04567 21.7502 7.25091 22.8952 7.98209C22.8642 8.07746 22.8332 8.20462 22.8023 8.3C22.5547 8.52253 22.2143 8.64969 21.9977 8.93581Z" fill="#B8F9FA"/>
<path d="M21.998 8.9323C22.0599 8.39186 22.1528 7.91501 22.8336 8.32828C22.9574 8.51903 23.0502 8.74156 23.174 8.9323C22.8026 8.9323 22.4003 8.9323 21.998 8.9323Z" fill="#DDFEFE"/>
<path d="M7.76344 11.8552C7.67061 11.6009 7.45399 11.5055 7.20643 11.4737C7.17548 10.8697 7.17548 10.2339 7.14453 9.62987C8.13479 9.62987 7.54682 10.679 8.04195 11.0287C8.78464 10.8697 8.04196 9.5345 9.06316 9.62987C9.00127 10.5836 9.24883 11.728 7.76344 11.8552Z" fill="#AAFCE3"/>
<path d="M17.0467 14.652C16.8301 14.652 16.6444 14.652 16.4278 14.652C16.4278 14.048 16.335 13.3804 17.0467 13.0625C17.449 13.0625 17.8822 13.0625 18.2845 13.0625C18.6249 13.4758 18.6249 13.9208 18.2845 14.3341C17.8822 14.4613 17.449 14.5567 17.0467 14.652Z" fill="#06D4CE"/>
<path d="M18.2852 14.3341C18.2852 13.9208 18.2852 13.4758 18.2852 13.0625C18.5946 13.0625 18.9041 13.0625 19.2135 13.0625C19.2445 13.7619 19.2754 14.4295 18.2852 14.3341Z" fill="#07D2D4"/>
<path d="M21.0699 13.0648C21.7197 13.1284 21.7197 13.6052 21.6578 14.0821C21.5959 14.6543 21.1318 14.6225 20.7295 14.6225C20.42 14.6225 20.1105 14.6225 19.832 14.6225C20.3272 14.2093 20.5438 13.7006 20.4509 13.033C20.6676 12.9058 20.8532 12.8741 21.0699 13.0648Z" fill="#05CCE1"/>
<path d="M21.0701 13.0685C20.8535 13.0685 20.6678 13.0685 20.4512 13.0685C20.6059 12.4009 21.0391 11.9876 21.689 11.7969C21.7199 12.3691 21.2558 12.6234 21.0701 13.0685Z" fill="#08CBDC"/>
</svg>
