<svg width="30" height="30" viewBox="0 0 30 30" fill="none" xmlns="http://www.w3.org/2000/svg">
<path d="M18.7678 29.0394C17.2737 29.0394 15.8044 28.9861 14.3103 29.0661C11.5711 29.2261 8.95631 28.5594 6.34157 27.9461C6.26687 27.7861 6.29177 27.6527 6.44119 27.5461C7.16335 27.2261 7.91042 27.3328 8.63259 27.4661C11.0232 28.3194 13.5134 28.1061 15.9788 28.1328C16.9998 28.1594 18.0456 27.9727 19.0417 28.2927C19.6643 28.8794 18.9421 28.8261 18.7678 29.0394Z" fill="#E3C7F2"/>
<path d="M22.005 28.5017C21.6813 28.5017 21.3576 28.5283 21.0338 28.5283C20.6354 28.795 20.237 28.8483 19.8385 28.6083C19.6393 28.0217 20.1124 28.0217 20.4113 27.8883C20.8844 27.6483 21.4323 27.6483 21.9303 27.515C22.528 27.3283 23.2003 27.515 23.7233 27.035C23.9723 26.9283 24.2213 26.875 24.4703 26.875C24.7443 26.875 24.9933 26.9283 25.2174 27.0883C25.317 27.195 25.3419 27.3283 25.2423 27.4617C24.6945 28.0483 23.9723 28.0217 23.275 28.0217C22.8766 28.2617 22.3786 28.235 22.005 28.5017Z" fill="#EDD4F3"/>
<path d="M0.116727 23.7083C0.116727 23.6283 0.116727 23.5216 0.116727 23.4416C-0.00778404 23.2816 -0.0326833 23.0949 0.0420236 22.9083C0.191437 22.7749 0.340851 22.7482 0.540069 22.7749C1.13772 23.0682 1.31203 23.7349 1.68557 24.2416C1.83498 24.4549 2.00931 24.6683 2.20853 24.8549C2.33304 24.9616 2.43264 25.0683 2.55715 25.1749C2.73146 25.3083 2.90578 25.4149 2.98049 25.6549C3.00539 25.8416 2.9805 26.0016 2.83108 26.1083C1.76028 25.7616 0.888701 25.1749 0.540069 23.9482C0.490265 23.8416 0.266141 23.7883 0.116727 23.7083Z" fill="#F5E9FA"/>
<path d="M28.2314 25.598C28.2314 25.758 28.2314 25.9447 28.2314 26.1047C27.6836 26.398 27.1855 26.798 26.5132 26.6647C26.4634 26.6113 26.4385 26.558 26.3887 26.5047C26.4634 25.6514 27.1108 25.4914 27.7334 25.3047C27.9326 25.358 28.1069 25.4113 28.2314 25.598Z" fill="#F8EAFB"/>
<path d="M19.7153 28.4809C20.1387 28.5076 20.5869 28.5076 21.0103 28.5342C20.4126 29.5209 19.4912 28.8276 18.7441 29.0409C18.9185 28.8542 19.0679 28.6676 19.2422 28.4809C19.4165 28.3742 19.5659 28.3476 19.7153 28.4809Z" fill="#F7E8FC"/>
<path d="M25.2427 27.4421C25.2427 27.3621 25.2427 27.2555 25.2427 27.1755C25.2178 26.9888 25.2676 26.8288 25.3672 26.6688C25.4419 26.5888 25.5415 26.5088 25.6411 26.4555C25.915 26.3755 26.189 26.3755 26.438 26.5888C26.4629 26.6155 26.4878 26.6421 26.5376 26.6955C26.3135 27.3621 25.7905 27.4421 25.2427 27.4421Z" fill="#F8EAFB"/>
<path d="M5.04637 27.2283C4.62304 27.095 4.00049 27.4417 3.82617 26.6683C3.90088 26.5617 4.00048 26.455 4.12499 26.4283C4.57323 26.3483 5.02148 26.2683 5.22069 26.9083C5.22069 27.0417 5.17089 27.1483 5.04637 27.2283Z" fill="#E2CFEF"/>
<path d="M6.36669 27.6189C6.36669 27.7256 6.3418 27.8323 6.3418 27.9656C5.79395 27.9656 5.49512 27.4589 5.04688 27.2456C5.07178 27.2189 5.09668 27.1656 5.12158 27.1389C5.49511 26.8189 5.86866 26.8456 6.26709 27.0589C6.46631 27.1923 6.4912 27.4056 6.36669 27.6189Z" fill="#E2CFEF"/>
<path d="M4.14991 26.6125C4.0503 26.6392 3.95069 26.6658 3.82618 26.6925C3.57716 26.5858 3.20361 26.6925 3.12891 26.2659C3.35303 25.7059 3.72657 25.8658 4.1001 26.0258C4.24952 26.2125 4.24952 26.3992 4.14991 26.6125Z" fill="#B088DF"/>
<path d="M4.05175 26.1563C3.75293 26.2096 3.40429 25.943 3.13037 26.263C3.03076 26.2096 2.93116 26.183 2.83155 26.1296C2.83155 25.9696 2.80664 25.783 2.80664 25.623C3.08057 25.383 3.37939 25.5163 3.67822 25.5696C3.85254 25.623 4.02686 25.703 4.15137 25.8363C4.17627 25.943 4.15136 26.0496 4.05175 26.1563Z" fill="#7B48B8"/>
<path d="M22.0059 28.51C22.3296 28.0833 22.7529 27.95 23.251 28.0033C22.977 28.59 22.479 28.51 22.0059 28.51Z" fill="#F7E8FC"/>
<path d="M22.2556 16.7762C22.3303 16.7762 22.405 16.7762 22.5046 16.7762C22.9031 17.0695 23.5505 16.7762 23.8245 17.4428C23.8245 17.5762 23.7498 17.6828 23.6501 17.7362C23.3513 17.8695 23.0525 17.8695 22.7537 17.8162C22.6292 17.7895 22.5046 17.7362 22.405 17.7095C21.4089 17.3628 20.4627 16.9362 20.0891 15.7362C19.9646 15.1228 19.3669 14.6162 19.6907 13.8962C20.2634 13.6562 20.3879 14.1895 20.6619 14.5095C20.9109 15.0428 21.1599 15.5762 21.3591 16.1628C21.5334 16.5895 21.9817 16.5362 22.2556 16.7762Z" fill="#E9B7F9"/>
<path d="M17.1006 7.97656C17.5489 8.05656 17.5987 8.48323 17.773 8.80323C17.8228 9.68323 19.2671 10.0566 18.5449 11.2032C18.1714 11.1232 18.0718 10.8032 17.8975 10.5099C17.773 10.2166 17.5738 9.97657 17.2998 9.7899C17.0757 9.60323 16.9014 9.3899 16.8267 9.09657C16.752 8.80323 16.752 8.50989 16.8516 8.21656C16.9014 8.10989 17.001 8.0299 17.1006 7.97656Z" fill="#F9E2FD"/>
<path d="M7.83664 1.33438C7.93625 1.86771 8.23509 2.42771 7.81175 2.96104C7.63743 3.01438 7.51291 2.93438 7.4133 2.80104C7.31369 2.69438 7.23899 2.56104 7.13938 2.42771C6.94016 2.21438 6.71604 2.24104 6.51682 2.40104C6.41722 2.45438 6.3176 2.50771 6.21799 2.53438C6.09348 2.53438 5.99388 2.53437 5.89427 2.48104C5.79466 2.40104 5.74484 2.29438 5.74484 2.16104C5.89426 1.89438 5.42112 1.30771 6.11838 1.33438C6.54172 1.33438 6.94015 1.33438 7.36349 1.33438C7.51291 1.20104 7.66233 1.20104 7.83664 1.33438Z" fill="#FEF6FE"/>
<path d="M24.9939 10.4005C25.0686 10.5872 25.1682 10.7472 25.2429 10.9339C24.9939 11.2272 24.7199 11.2272 24.3962 11.1205C23.8733 10.4272 23.3254 11.1205 22.8024 11.1205C22.6779 11.0939 22.6032 11.0405 22.5285 10.9339C22.5036 10.5339 22.8772 10.4005 23.0266 10.1339C23.2009 9.68052 23.3752 9.25386 23.8982 9.22719C24.6452 9.20053 24.6203 10.0272 24.9939 10.4005Z" fill="#FADCEF"/>
<path d="M25.9161 18.1549C26.9869 17.7282 27.4352 18.9015 28.2071 19.1949C28.3815 19.4349 28.4313 19.7015 28.2819 19.9949C27.8087 20.3949 27.4352 20.1549 27.0865 19.7815C26.8126 19.2749 26.3146 19.0349 25.8912 18.6882C25.8414 18.5015 25.8165 18.3149 25.9161 18.1549Z" fill="#F6E5FB"/>
<path d="M21.2593 16.2672C20.8857 15.8139 20.6118 15.2805 20.5122 14.6672C20.3628 14.4005 20.3379 14.1339 20.5122 13.8672C21.4834 14.3739 21.6079 15.2539 21.5083 16.2405C21.4336 16.3739 21.3589 16.3739 21.2593 16.2672Z" fill="#FDF5FE"/>
<path d="M24.9942 10.3951C24.8448 10.3151 24.6207 10.2884 24.5709 10.1818C24.0729 8.98175 23.5499 9.46175 23.0021 10.1284C22.9025 8.47508 24.0729 9.24842 24.7452 9.06175C24.8199 9.14175 24.9195 9.24842 24.9942 9.32842C24.9942 9.67508 24.9942 10.0484 24.9942 10.3951Z" fill="#FCF6F9"/>
<path d="M20.5114 13.863C20.5114 14.1297 20.5114 14.3963 20.5114 14.663C20.2126 14.4497 20.1628 13.943 19.7394 13.8897C19.4406 13.943 19.2663 13.783 19.1418 13.543C19.0422 13.2763 19.0173 13.0097 19.0422 12.743C19.0671 12.5297 19.1418 12.343 19.2663 12.183C19.4655 12.0763 19.6398 12.103 19.7893 12.2363C19.864 12.8763 20.113 13.4097 20.5114 13.863Z" fill="#FDE4FE"/>
<path d="M5.84506 2.40049C5.91976 2.40049 6.01937 2.40049 6.09408 2.40049C6.39291 3.14715 5.86996 3.68049 5.64584 4.29382C5.47153 4.40049 5.2723 4.40049 5.09799 4.26716C5.09799 4.00049 5.09799 3.73382 5.09799 3.44049C5.07309 2.98715 5.14779 2.58715 5.59603 2.37382C5.67074 2.26715 5.77035 2.26715 5.84506 2.40049Z" fill="#FEF5FE"/>
<path d="M25.9162 18.1556C25.9411 18.3156 25.9661 18.4756 25.991 18.6356C26.0408 18.7156 26.0657 18.7689 26.0657 18.8489C26.0408 18.9289 26.0408 18.9556 26.0159 18.9556C25.8664 19.0623 25.6921 19.0889 25.5178 19.0623C25.219 18.9823 24.9451 18.9023 24.6711 18.7156C24.4968 18.5289 24.3474 18.3156 24.4968 18.0223C24.6711 17.9156 24.8455 17.9156 25.0198 18.0489C25.3186 18.1023 25.6174 18.1289 25.9162 18.1556Z" fill="#8531B8"/>
<path d="M22.5047 10.9375C22.5794 10.9375 22.679 10.9642 22.7537 10.9642C23.0277 11.2842 23.1522 11.6842 23.3763 12.0308C23.451 12.2708 23.451 12.5375 23.3265 12.7508C22.8035 13.0442 22.7786 12.4308 22.5047 12.2442C22.0067 11.8975 22.0316 11.4442 22.2806 10.9375C22.3553 10.9642 22.43 10.9375 22.5047 10.9375Z" fill="#EFB3B3"/>
<path d="M23.749 17.4932C23.3257 17.2532 22.9023 17.0132 22.5039 16.7732C23.2759 16.7466 24.0229 16.7466 24.4961 17.5466C24.2222 17.8132 23.9731 17.8399 23.749 17.4932Z" fill="#F7DCFB"/>
<path d="M11.8203 5.59768C11.646 5.59768 11.4966 5.59768 11.3223 5.59768C11.0234 5.78435 10.8242 5.78435 10.8242 5.33102C11.0732 5.11768 11.2227 4.63768 11.6211 4.79768C11.8701 4.93102 11.7954 5.30435 11.8203 5.59768Z" fill="#FCFEFD"/>
<path d="M28.2321 19.9686C28.2321 19.702 28.2321 19.462 28.2321 19.1953C28.4812 19.462 28.7302 19.7286 28.9792 19.9953C29.1286 20.1553 29.1286 20.3686 29.029 20.5553C28.9294 20.662 28.8298 20.7153 28.6804 20.742C28.4812 20.7686 28.3068 20.7153 28.1574 20.5553C28.0578 20.3153 28.0827 20.1286 28.2321 19.9686Z" fill="#F8E8FB"/>
<path d="M18.0718 10.375C18.2461 10.6683 18.3955 10.935 18.5698 11.2283C18.6196 11.335 18.6943 11.415 18.7441 11.5217C18.9932 11.735 18.9932 11.975 18.8686 12.2417C17.8975 12.1883 17.8477 11.4683 17.8477 10.695C17.8726 10.535 17.9473 10.4283 18.0718 10.375Z" fill="#B967E4"/>
<path d="M10.8242 5.32812C10.9238 5.54146 11.123 5.59479 11.3223 5.59479C11.3223 5.67479 11.3223 5.78146 11.3223 5.86146C11.397 6.23479 11.1479 6.28812 10.9238 6.36812C10.7495 6.39479 10.5752 6.36813 10.4009 6.28813C10.2266 6.18146 10.1519 6.02146 10.127 5.83479C10.127 5.70146 10.1519 5.59479 10.2017 5.48813C10.2515 5.43479 10.2764 5.40813 10.3262 5.35479C10.4756 5.32813 10.6499 5.32812 10.8242 5.32812Z" fill="#FEF5F2"/>
<path d="M23.7493 17.4922C23.9984 17.5189 24.2474 17.5455 24.4964 17.5455C24.7952 17.5722 24.9696 17.7322 25.0194 18.0788C24.845 18.1055 24.6707 18.1322 24.4964 18.1589C24.2474 18.3722 24.0233 18.3455 23.7493 18.1855C23.6248 17.9989 23.5999 17.8122 23.7244 17.5989L23.7493 17.4922Z" fill="#C294E1"/>
<path d="M18.7686 12.2688C18.7437 12.0021 18.7437 11.7621 18.7188 11.4954C18.8931 11.4954 19.0674 11.4688 19.2417 11.4688C19.4658 11.7088 19.4658 11.9754 19.2915 12.2421C19.2915 12.4287 19.2666 12.5887 19.2417 12.7754C18.8433 12.8821 18.7188 12.6954 18.7686 12.2688Z" fill="#EDC1FB"/>
<path d="M28.9785 20.5067C28.9785 20.3467 28.9785 20.16 28.9785 20C29.1528 20 29.3022 20 29.4766 20C29.6509 20.3467 29.8003 20.72 29.9746 21.0667C29.8501 21.2267 29.6758 21.2533 29.5015 21.2C29.2026 21.04 29.0034 20.8533 28.9785 20.5067Z" fill="#FDF0FE"/>
<path d="M7.83594 1.33333C7.66162 1.33333 7.51221 1.33333 7.33789 1.33333C7.4873 0.933334 7.63672 0.506667 7.81104 0C8.13477 0.56 7.71142 0.933334 7.83594 1.33333Z" fill="#FEFBFD"/>
<path d="M8.53352 4.29229C8.70784 4.29229 8.88216 4.26562 9.08138 4.26562C9.25569 4.26562 9.4051 4.26562 9.57942 4.26562C9.57942 4.45229 9.57942 4.61229 9.57942 4.79896C9.52962 4.85229 9.47982 4.90563 9.43001 4.93229C9.10628 5.09229 8.80745 5.06563 8.53352 4.8523C8.43391 4.66563 8.40901 4.47896 8.53352 4.29229Z" fill="#FEF5F2"/>
<path d="M19.3154 12.2421C19.2905 11.9754 19.2905 11.7354 19.2656 11.4688C19.7886 11.4688 19.7886 11.8688 19.7886 12.2688C19.6143 12.2688 19.4648 12.2687 19.3154 12.2421Z" fill="#FDF5FE"/>
<path d="M21.2578 16.2656C21.3325 16.2656 21.4321 16.2656 21.5068 16.2656C21.8555 16.2923 22.1045 16.4523 22.2539 16.799C21.8306 16.8256 21.457 16.7456 21.2578 16.2656Z" fill="#F6D8FC"/>
<path d="M5.84464 2.39733H5.72013H5.59562C5.81974 2.07733 5.14738 1.27733 6.09366 1.33067C5.72013 1.624 5.86954 2.05067 5.84464 2.39733Z" fill="#FEFBFD"/>
<path d="M22.2807 10.9642C22.206 11.4175 22.2558 11.8708 22.5049 12.2708C21.6831 12.1108 22.1064 11.4175 21.9819 10.9375C22.0815 10.9375 22.1811 10.9375 22.2807 10.9642Z" fill="#FBE6E8"/>
<path d="M9.05782 14.634C8.88351 13.914 9.48115 13.434 9.58076 12.794C9.82979 12.5807 9.90449 12.2607 10.0788 11.994C10.3278 11.6473 10.2282 11.114 10.6267 10.874C10.7512 10.8473 10.8508 10.9006 10.9255 11.0073C11.05 11.2473 11.0749 11.4873 11.0749 11.754C11.0749 11.9407 11.0251 12.1273 10.9504 12.314C10.7512 12.6873 10.5769 13.0873 10.4274 13.514C10.2531 13.9673 9.9792 14.3407 9.82979 14.794C9.70528 15.194 9.48116 15.514 9.00801 15.2473C8.93331 15.0073 8.93331 14.8207 9.05782 14.634Z" fill="#F8E0FD"/>
<path d="M11.3223 8.53073C11.3223 8.34406 11.3223 8.1574 11.3223 7.9974C11.1479 7.8374 11.0981 7.5974 11.1479 7.3574C11.1728 7.25073 11.2227 7.14406 11.2974 7.06406C11.4468 6.90406 11.5962 6.74406 11.8203 6.66406C11.9946 6.85073 12.144 7.01073 12.3184 7.1974C12.4678 7.3574 12.4927 7.5174 12.4678 7.73073C12.2436 8.18406 12.1191 8.66406 12.0942 9.17073C11.9946 9.5974 11.7954 9.9174 11.3721 10.0507C11.1729 10.0774 10.9985 10.0241 10.8242 9.86406C11.2227 9.5174 11.397 9.09073 11.3223 8.53073Z" fill="#FBEAFD"/>
<path d="M7.58789 11.7353C7.51318 12.2153 7.43847 12.722 6.84082 12.802C6.6665 12.802 6.51709 12.802 6.34277 12.802C5.99414 12.5353 5.81982 12.1087 5.5957 11.7353C5.5957 11.6553 5.5957 11.5487 5.5957 11.4687C5.5957 11.282 5.5957 11.122 5.5957 10.9353C6.01904 10.642 6.21827 11.0153 6.44239 11.282C6.69141 11.7887 7.23925 11.4953 7.58789 11.7353Z" fill="#FEFEF2"/>
<path d="M9.05713 14.6406C9.05713 14.8273 9.08203 15.014 9.08203 15.2006C9.20654 15.334 9.23145 15.5206 9.18164 15.7073C9.03223 15.974 8.833 16.1873 8.65869 16.4273C8.35986 16.7206 8.08594 17.1206 7.58789 16.774C7.6626 16.5873 7.76221 16.4273 7.83691 16.2406C8.18555 15.6806 8.23536 14.8273 9.05713 14.6406Z" fill="#FAE5FD"/>
<path d="M10.7998 10.9061C10.5507 11.2795 10.3017 11.6261 10.0776 11.9995C10.0527 11.2528 10.1523 10.5595 10.8247 10.1328C11.0239 10.3995 11.0239 10.6395 10.7998 10.9061Z" fill="#FBEAFD"/>
<path d="M5.59461 11.7344C5.99304 11.9744 6.31677 12.2677 6.34168 12.801C5.5448 12.881 5.56971 12.2944 5.59461 11.7344Z" fill="#FEFBFD"/>
<path d="M10.7988 10.9072C10.7988 10.6405 10.7988 10.4005 10.8237 10.1339C10.8237 10.0539 10.8237 9.94719 10.8237 9.86719C10.998 9.86719 11.1724 9.86719 11.3467 9.86719C11.6206 10.1872 11.5957 10.5339 11.3965 10.8805C11.2222 11.0405 11.0478 11.0939 10.8486 10.9605L10.7988 10.9072Z" fill="#FDE4FE"/>
<path d="M10.0781 11.9922C10.0781 12.3922 10.0781 12.7655 9.58008 12.7922C9.58008 12.3922 9.72949 12.1522 10.0781 11.9922Z" fill="#FBEAFD"/>
<path d="M23.2505 12.7761C23.2505 12.5095 23.2505 12.2695 23.2505 12.0028C23.0015 11.0161 23.8481 11.1495 24.2964 10.8828C24.6201 10.9095 24.9438 10.9095 25.2676 10.9361C25.3423 10.9628 25.3921 10.9628 25.4668 10.9895C25.7905 11.3095 25.7905 11.6295 25.4917 11.9761C25.3423 12.0828 25.168 12.1895 25.0185 12.2695C24.645 12.5361 24.5454 13.0161 24.2466 13.3095C23.9228 13.6028 23.5991 13.6295 23.2505 13.3895C23.1011 13.2028 23.0762 12.9895 23.2505 12.7761Z" fill="#F4BA9A"/>
<path d="M25.4683 11.9743C25.4683 11.6543 25.4434 11.3076 25.4434 10.9876C25.6177 10.9876 25.792 10.9609 25.9912 10.9609C25.7671 11.2543 26.4394 12.0809 25.4683 11.9743Z" fill="#FEEBDF"/>
<path d="M29.4757 21.0391C29.65 21.0391 29.7994 21.0391 29.9738 21.0391C29.899 22.0257 30.1979 23.0391 29.7247 23.9724C29.65 23.9724 29.5753 23.9724 29.5006 23.9724C29.2516 23.7591 29.2018 23.4924 29.1769 23.1724C29.152 22.7191 29.152 22.2924 29.1769 21.8391C29.1769 21.5457 29.2267 21.2524 29.4757 21.0391Z" fill="#FCDFFE"/>
<path d="M19.7148 28.4779C19.5654 28.4779 19.416 28.4779 19.2666 28.4779C16.7763 28.4779 14.311 28.4779 11.8208 28.4512C10.7002 28.4246 9.60449 28.2646 8.55859 27.7846C8.6084 27.7312 8.6333 27.6512 8.68311 27.5979C9.35547 27.2246 10.0776 27.3579 10.7749 27.4646C11.6963 27.7846 12.6426 27.9979 13.6387 27.8646C14.7094 27.8646 15.7802 27.8646 16.8261 27.8646C17.5234 27.9979 18.1709 27.6779 18.8183 27.4646C19.7895 27.3312 20.7607 27.2779 21.7319 27.4646C21.8564 27.5179 21.9809 27.6246 22.0556 27.7579C21.2837 27.9979 20.4868 28.2379 19.7148 28.4779Z" fill="#7E30B0"/>
<path d="M6.3662 27.6327C6.3413 27.4994 6.31641 27.3394 6.31641 27.206C6.41602 27.046 6.59033 26.966 6.76464 26.9127C6.98876 26.8594 7.23778 26.8594 7.46191 26.8594C7.63622 26.8594 7.81053 26.886 7.98485 26.9127C8.10936 26.9394 8.20898 26.966 8.30859 27.046C8.50781 27.206 8.65722 27.3927 8.58251 27.6594L8.55761 27.766C7.83545 27.7394 7.11327 27.686 6.3662 27.6327Z" fill="#691EA8"/>
<path d="M24.4709 27.1428C24.2468 27.1695 24.0227 27.1961 23.7985 27.1961C23.5993 27.3295 23.425 27.3295 23.2258 27.1961C23.1013 26.9828 23.1013 26.7695 23.176 26.5561C23.7238 25.6495 24.5705 25.7028 25.4172 25.7828C25.6413 25.8361 25.9401 25.8895 25.99 26.1828C26.0398 26.5561 25.6662 26.4495 25.5168 26.5828V26.6361C25.218 26.9828 24.7448 26.8228 24.4709 27.1428Z" fill="#7212A7"/>
<path d="M23.2517 27.1425C23.426 27.1692 23.6252 27.1692 23.7996 27.1958C23.4011 28.0758 22.6541 27.6225 22.0564 27.7558C22.0066 27.7292 21.9817 27.6759 21.9319 27.6492C21.8323 27.4359 21.8821 27.2492 22.0066 27.0892C22.156 26.9558 22.3552 26.9025 22.5544 26.9025C22.8035 26.8759 23.0276 26.9825 23.2517 27.1425Z" fill="#8535B9"/>
<path d="M24.4707 27.1503C24.5952 26.5103 25.0684 26.6436 25.4917 26.6703C25.417 26.8569 25.3174 27.0169 25.2427 27.2036C24.9937 27.1769 24.7197 27.1503 24.4707 27.1503Z" fill="#9B60BF"/>
<path d="M2.05837 25.0663C1.80934 24.9596 1.65994 24.7729 1.58523 24.5063C1.11209 23.5729 0.937773 22.5596 1.08719 21.5196C1.31131 20.7463 1.61013 20.1329 2.53152 20.4263C2.83034 20.7463 2.73073 21.0396 2.55641 21.3596C1.98366 22.1596 2.08328 22.9596 2.53152 23.7596C2.60622 23.9463 2.63112 24.1596 2.63112 24.3729C2.55641 24.7196 2.58131 25.1463 2.05837 25.0663Z" fill="#4C0C9E"/>
<path d="M1.36267 21.5745C1.33776 22.5612 1.36267 23.5479 1.58679 24.5345C1.03894 24.1612 0.939328 23.4679 0.615598 22.9345C0.366575 22.6679 0.34167 22.3212 0.441279 21.9745C0.540888 21.7079 0.715207 21.5212 0.989132 21.4679C1.13855 21.4412 1.26306 21.4945 1.36267 21.5745Z" fill="#642BAE"/>
<path d="M2.05859 25.0681C2.38232 24.8815 2.35742 24.5615 2.35742 24.2415C2.83057 23.8682 3.1543 24.4548 3.57764 24.4548C3.97608 24.6148 4.3496 24.7748 4.12548 25.3615C3.90136 25.5748 3.62745 25.5748 3.32862 25.5481C3.00489 25.4148 2.63135 25.5215 2.30762 25.3348C2.23291 25.2548 2.1582 25.1481 2.05859 25.0681Z" fill="#5403AB"/>
<path d="M0.640129 21.87C0.640129 22.2167 0.615233 22.5634 0.615233 22.91C0.440917 22.91 0.291504 22.91 0.117188 22.91C0.117188 22.5634 0.117188 22.19 0.117188 21.8434C0.241699 21.71 0.366213 21.6834 0.540529 21.7367C0.590334 21.79 0.615227 21.8434 0.640129 21.87Z" fill="#F0E4F8"/>
<path d="M2.33203 25.3281C2.68066 25.3281 3.00439 25.3281 3.35302 25.3281C3.47753 25.4881 3.75146 25.5415 3.60204 25.8615C3.32812 25.7815 3.05419 25.7015 2.80517 25.6215C2.60595 25.5948 2.43164 25.5148 2.33203 25.3281Z" fill="#632CA3"/>
<path d="M29.4273 23.125C29.4522 23.4183 29.4522 23.7117 29.4771 24.005C29.1783 24.645 28.8297 25.2317 28.232 25.605C28.0577 25.605 27.8834 25.5783 27.709 25.5783C27.6343 25.4717 27.6094 25.365 27.6343 25.2583C27.7838 24.7783 28.0577 24.4317 28.3814 24.1117C28.8047 23.8717 28.8795 23.1783 29.4273 23.125Z" fill="#F1D2F7"/>
<path d="M27.7085 25.3058C27.6836 25.3858 27.6836 25.4658 27.7085 25.5725C27.2852 25.9191 26.6128 25.9191 26.4136 26.5858C26.0899 26.5858 25.791 26.6125 25.4673 26.6125C25.5669 26.4791 25.6914 26.3725 25.791 26.2391C25.6914 26.1858 25.5669 26.1591 25.4673 26.1058C25.3926 25.9725 25.3926 25.8658 25.4922 25.7591C25.6416 25.6258 25.8159 25.5725 26.0152 25.5458C26.6128 25.6525 27.086 24.7725 27.7085 25.3058Z" fill="#7B0BB9"/>
<path d="M6.8413 27.1124C6.66698 27.1391 6.49267 27.1657 6.31836 27.1657C5.91992 27.1391 5.52148 27.1391 5.14795 27.1124C5.02344 26.4991 4.52539 26.6591 4.15186 26.5791C4.12695 26.4191 4.07714 26.2857 4.05224 26.1257C4.07714 26.0457 4.07715 25.9391 4.10205 25.8591C4.05224 25.7791 4.02734 25.6991 4.02734 25.6457C4.05225 25.5657 4.05225 25.5391 4.07715 25.5391C4.99854 25.6724 5.94482 25.6724 6.71679 26.3124C6.8164 26.3924 6.86621 26.4991 6.94091 26.6057C6.99072 26.7924 6.99071 26.9791 6.8413 27.1124Z" fill="#520AA2"/>
<path d="M4.10108 25.5714C4.10108 25.678 4.10108 25.758 4.10108 25.8647C3.95166 25.8647 3.77734 25.838 3.62793 25.838C3.55322 25.6514 3.45361 25.4914 3.37891 25.3047C3.62793 25.3047 3.87695 25.3047 4.12597 25.3047C4.20068 25.358 4.20069 25.4113 4.20069 25.4913C4.15089 25.5447 4.12598 25.5714 4.10108 25.5714Z" fill="#4F0A9F"/>
<path d="M12.8658 6.34505C12.9156 6.26505 12.9904 6.15839 13.0402 6.07839C13.1647 5.97172 13.2892 5.94505 13.4386 5.97172C13.5382 5.99839 13.6129 5.99839 13.7125 5.99839C14.0113 5.89172 13.9864 5.54505 14.111 5.30505C14.4845 4.66505 14.9078 4.87839 15.3561 5.19839C15.63 5.51839 15.7545 5.89173 15.7296 6.31839C15.6798 6.63839 15.5802 6.95839 15.381 7.22506C14.2853 7.01172 13.9615 8.13172 13.3141 8.66506C13.1896 8.66506 13.09 8.61172 12.9904 8.50506C12.7911 8.21172 12.7911 7.86505 12.7662 7.54505C12.6666 7.14505 12.9406 6.77172 12.8658 6.34505Z" fill="#9D11ED"/>
<path d="M15.3067 5.36801C14.9829 5.50134 14.46 4.70134 14.2857 5.60801C14.0367 5.79468 13.9868 6.24801 13.5635 6.19468L13.5137 6.11467C13.2398 5.66134 13.19 5.23468 13.5884 4.83468C13.8623 4.78134 13.9868 4.56801 14.0616 4.30134C14.46 3.95468 14.8584 3.92801 15.2569 4.30134C15.5557 4.64801 15.5806 4.99468 15.3067 5.36801Z" fill="#9A36D6"/>
<path d="M15.3076 5.35501C15.2827 5.00835 15.2827 4.66168 15.2578 4.31501C15.6064 4.28835 15.7808 4.47501 15.8057 4.82168C16.1294 5.22168 16.229 5.75501 16.5527 6.15501C16.5527 6.31501 16.5527 6.50168 16.5527 6.66168C16.6772 6.82168 16.7022 7.00834 16.6025 7.19501C16.1792 7.46168 15.98 7.03501 15.6563 6.90168C15.5317 6.76834 15.3823 6.63501 15.5566 6.42168C15.4819 6.04835 15.3823 5.70168 15.3076 5.35501Z" fill="#F2C7FE"/>
<path d="M11.8202 6.67042C11.7953 7.01709 11.6459 7.20375 11.2973 7.17708C10.9238 6.93708 10.5004 6.72375 10.8242 6.11042C11.0234 6.11042 11.1977 6.05708 11.3222 5.84375C11.6459 6.03042 11.7953 6.29709 11.8202 6.67042Z" fill="#FBEADD"/>
<path d="M15.2578 4.32421C14.8594 4.32421 14.4609 4.32421 14.0625 4.32421C14.4609 3.47088 14.8594 3.41755 15.2578 4.32421Z" fill="#F0C1FE"/>
<path d="M13.6132 4.82812C13.5883 5.25479 13.5634 5.68146 13.5385 6.10812C13.3641 6.10812 13.2147 6.10812 13.0404 6.10812C13.14 5.62812 12.7416 4.90813 13.6132 4.82812Z" fill="#F2D8F8"/>
<path d="M16.5264 6.13802C15.8291 5.97802 15.9536 5.31135 15.7793 4.80469C16.3022 5.09802 16.6011 5.49802 16.5264 6.13802Z" fill="#FCEAFE"/>
<path d="M16.527 7.25073C16.527 7.06407 16.5519 6.85073 16.5519 6.66406C17.2741 6.85073 16.9503 7.54406 17.0997 7.9974L17.0001 8.02406C16.5021 7.9974 16.3029 7.78407 16.527 7.25073Z" fill="#F1CAFB"/>
<path d="M12.294 7.73531C12.294 7.54864 12.294 7.38864 12.294 7.20198C12.3189 6.98864 12.3438 6.77531 12.5679 6.69531C12.7672 6.88198 12.7672 7.14865 12.7921 7.38865C12.7921 7.70865 12.817 8.02864 12.7423 8.34864C12.6924 8.45531 12.6177 8.56198 12.4932 8.61531C12.3687 8.61531 12.2691 8.56198 12.1944 8.45531C12.0948 8.18865 12.1446 7.94864 12.294 7.73531Z" fill="#F2D8F8"/>
<path d="M12.5684 7.49042C12.5684 7.22376 12.5684 6.95709 12.5933 6.69042C12.6929 6.58376 12.7925 6.47708 12.8921 6.34375C13.2656 6.63708 13.0166 7.03708 13.0415 7.41042C12.8921 7.62375 12.7427 7.62376 12.5684 7.49042Z" fill="#D498F1"/>
<path d="M6.34277 11.5004C6.09375 11.3138 5.99413 10.9138 5.6206 10.9404C5.22216 10.3538 5.04784 9.63375 4.62451 9.07375C4.62451 8.91375 4.59961 8.75375 4.59961 8.56709C4.62451 8.51375 4.67432 8.48709 4.69922 8.43375C4.84864 8.35375 5.02295 8.32708 5.19727 8.35375C5.29688 8.38042 5.39648 8.43375 5.49609 8.51375C5.81982 8.91375 6.06884 9.36708 6.29296 9.82042C6.44238 10.1404 6.56689 10.4604 6.59179 10.8338C6.59179 11.0204 6.56689 11.2071 6.46728 11.3671C6.41748 11.4204 6.36767 11.4471 6.34277 11.5004Z" fill="#FADEC0"/>
<path d="M2.88133 6.15711C3.03075 6.13045 3.18017 6.13044 3.32958 6.10378C3.5288 5.94378 3.75291 5.86378 4.00193 5.97044C4.47508 6.42378 4.02684 7.01045 4.22606 7.51712C4.20116 7.65045 4.12645 7.75711 4.02685 7.83711C3.62841 7.86378 3.27977 7.75711 2.98095 7.46378C2.63231 7.06378 2.45799 6.63711 2.88133 6.15711Z" fill="#EEA1B7"/>
<path d="M4.59873 9.03906C5.3956 9.38573 5.61972 10.0791 5.59482 10.9057C4.67344 10.6657 4.52402 9.91906 4.59873 9.03906Z" fill="#FEF8EF"/>
<path d="M2.88157 6.16406C2.83177 6.6174 2.83177 7.07073 3.1057 7.47073C3.23021 7.63073 3.50414 7.71073 3.35472 8.00406C2.13451 7.23073 2.03489 6.8574 2.88157 6.16406Z" fill="#F8D8E3"/>
<path d="M5.09765 4.28979C5.24706 4.28979 5.42138 4.26313 5.5708 4.26313C5.67041 4.18312 5.79492 4.18312 5.89453 4.26313C6.11865 5.03646 5.52098 5.30312 5.12255 5.67646C4.94823 5.75646 4.74902 5.75646 4.57471 5.6498C4.4751 5.54313 4.4751 5.40979 4.57471 5.30312C4.77393 4.98312 4.92333 4.63646 5.09765 4.28979Z" fill="#FAC0DF"/>
<path d="M4.59814 5.32812C4.59814 5.40813 4.59814 5.51479 4.59814 5.59479C4.59814 5.75479 4.57323 5.9148 4.47362 6.04813C4.37401 6.1548 4.2495 6.28813 4.10009 6.15479C3.85107 6.15479 3.60205 6.12813 3.32812 6.12813C3.50244 5.38146 4.07519 5.38146 4.59814 5.32812Z" fill="#FCCEDD"/>
<path d="M3.35449 8.00208C3.27978 7.81542 3.18018 7.65542 3.10547 7.46875C3.4292 7.54875 3.75293 7.65542 4.10156 7.73542C4.5249 7.78875 4.84863 7.92208 4.64941 8.48208L4.59961 8.53542C4.05176 8.69542 3.82764 8.02875 3.35449 8.00208Z" fill="#FBCFD3"/>
<path d="M24.2227 13.3056C24.2227 12.7456 24.3223 12.2656 24.9946 12.2656C24.9946 12.4523 24.9946 12.6123 24.9946 12.799C24.7207 12.959 24.6211 13.3856 24.2227 13.3056Z" fill="#FDECD8"/>
<path d="M23.251 12.7768C23.251 12.9368 23.2759 13.1235 23.2759 13.2835C23.4004 13.4701 23.4004 13.6568 23.251 13.8435C23.002 13.6835 22.9023 13.2568 22.5039 13.3101C22.5039 12.9635 22.5039 12.5901 22.5039 12.2435C22.8774 12.2168 22.977 12.6168 23.251 12.7768Z" fill="#FEFAED"/>
<path d="M23.25 13.8647C23.25 13.678 23.25 13.4914 23.2749 13.3047C23.5986 13.3047 23.9224 13.3314 24.2461 13.3314C24.1714 14.0514 23.6484 13.8114 23.25 13.8647Z" fill="#FEF1E0"/>
<path d="M23.7739 18.1021C23.998 18.1287 24.2471 18.1554 24.4712 18.1554C24.5708 18.3154 24.6455 18.4754 24.7451 18.6354C24.0728 19.2221 23.2759 18.9288 22.5039 18.9821C22.3545 18.9821 22.23 18.9287 22.0806 18.8754C21.8066 18.7687 21.5825 18.6087 21.4082 18.3421C21.3335 18.2087 21.3086 18.0488 21.3086 17.9154C21.5327 17.1688 22.0059 17.3288 22.479 17.5154C22.5537 17.5154 22.6284 17.5154 22.7031 17.5687C23.0269 17.9421 23.5 17.7821 23.7739 18.1021Z" fill="#670CA4"/>
<path d="M22.5282 17.5509C22.1546 17.6843 21.5819 17.4176 21.5072 18.1376C21.2831 18.3509 21.034 18.3509 20.7601 18.2176C20.4115 17.5509 20.013 16.8843 20.0628 16.0576C20.0877 15.9243 20.1624 15.7909 20.287 15.7109C20.7103 16.7776 21.7313 16.9909 22.5282 17.5509Z" fill="#9125DC"/>
<path d="M20.2622 15.7069C20.2622 15.8135 20.2373 15.9202 20.2373 16.0269C20.0879 16.1602 19.9136 16.1602 19.7392 16.0535C19.4902 15.7602 19.291 15.4402 19.0918 15.0935C18.9922 14.8269 18.9424 14.5602 18.9673 14.2935C18.9922 14.0002 19.042 13.7335 19.291 13.5469C19.4404 13.6535 19.5898 13.7602 19.7144 13.8669C19.6396 14.5869 20.3867 15.0135 20.2622 15.7069Z" fill="#9129D5"/>
<path d="M23.7729 18.1082C23.3745 18.0816 22.8516 18.3216 22.752 17.6016C23.0757 17.6016 23.3994 17.6282 23.7231 17.6282C23.748 17.7882 23.7729 17.9482 23.7729 18.1082Z" fill="#6C1A99"/>
<path d="M8.53437 4.29438C8.55927 4.45438 8.58417 4.64104 8.60907 4.80104C8.63397 4.93438 8.60908 5.04105 8.50947 5.12105C8.01142 5.17438 7.7375 4.93438 7.63789 4.42771C7.61299 4.24104 7.63788 4.05438 7.73749 3.86771C7.78729 3.81438 7.8122 3.78771 7.862 3.73438C8.06122 3.92104 8.31025 4.10771 8.53437 4.29438Z" fill="#F69DC0"/>
<path d="M7.53809 2.6924C7.6377 2.79907 7.73732 2.87907 7.81202 2.98573C7.81202 3.22573 7.83692 3.4924 7.83692 3.7324L7.81202 3.75907C7.18946 3.99907 7.08984 3.54573 6.99023 3.06573C7.06494 2.7724 7.23926 2.6124 7.53809 2.6924Z" fill="#F69DC0"/>
<path d="M15.5557 6.39844C15.6304 6.47844 15.7051 6.55844 15.7798 6.6651C16.3028 7.41177 16.5269 8.31844 17.025 9.06511C17.1744 9.25177 17.3238 9.46511 17.4732 9.65178C17.6973 9.86511 17.7222 10.1318 17.7471 10.4251C17.7471 10.9051 17.7471 11.3318 18.0708 11.7584C18.3697 12.1584 18.3448 12.6384 18.1207 13.0918C17.8467 13.5184 17.4483 13.6251 17 13.6251C16.3526 13.5718 15.9791 13.2518 16.0289 12.5051C16.0787 12.2384 16.2281 12.0518 16.3775 11.8384C17.0499 10.8518 16.5767 10.1584 15.8047 9.57177C15.5557 8.79844 15.0577 8.07844 15.2569 7.19844C15.3067 6.9051 15.2569 6.5851 15.5557 6.39844Z" fill="#9A0EEA"/>
<path d="M17.0498 9.0637C16.1284 8.55703 16.0288 7.57036 15.8047 6.6637C16.2529 6.55703 16.3027 7.03703 16.5269 7.25037C16.502 7.6237 16.7261 7.8637 17.0249 8.0237C17.0249 8.37037 17.0249 8.71703 17.0498 9.0637Z" fill="#9E2FDB"/>
<path d="M17.523 10.3951C17.523 10.1551 17.498 9.88844 17.498 9.64844C17.8716 9.72844 18.021 9.9951 18.0708 10.3684C18.0459 10.3951 17.9961 10.4484 17.9712 10.4751C17.7969 10.5551 17.6475 10.5284 17.523 10.3951Z" fill="#B967E4"/>
<path d="M7.53873 2.69531C7.38931 2.77531 7.2399 2.88198 7.09049 2.96198C6.96598 3.33531 7.11539 3.94865 6.41812 3.86865C6.29361 3.81531 6.21891 3.70864 6.1691 3.57531C6.09439 3.17531 6.1442 2.77531 6.36832 2.42865C6.69205 2.10865 7.01578 2.13531 7.33951 2.40198C7.41422 2.50865 7.46402 2.58865 7.53873 2.69531Z" fill="#EC96C2"/>
<path d="M6.36708 2.42969C6.36708 2.85635 6.34218 3.28302 6.34218 3.73635C6.29238 4.05635 6.29238 4.40302 5.84414 4.26969C5.76943 4.26969 5.66982 4.26969 5.59511 4.26969C5.4208 3.54969 6.04335 3.06969 6.11805 2.42969C6.19276 2.42969 6.26747 2.42969 6.36708 2.42969Z" fill="#FBD0EC"/>
<path d="M7.33838 2.39233C7.01465 2.39233 6.69092 2.41899 6.36719 2.41899C6.36719 2.12566 6.46681 1.91233 6.76563 1.88566C7.11427 1.85899 7.31348 2.01899 7.33838 2.39233Z" fill="#F7CCE6"/>
<path d="M24.2715 10.8825C24.3213 11.6825 23.2256 11.2559 23.2256 12.0025C22.5782 11.9225 22.7774 11.3892 22.7525 10.9625C23.126 10.9625 23.2505 10.5625 23.5245 10.3759C24.0972 10.0292 24.2715 10.3225 24.2715 10.8825Z" fill="#EEA6AE"/>
<path d="M28.2315 19.9762C28.2315 20.1362 28.2564 20.2962 28.2564 20.4562C28.4058 20.6962 28.4805 20.9362 28.3809 21.2029C28.3311 21.3096 28.2315 21.4162 28.107 21.4429C27.1109 21.3629 26.7374 20.2429 25.8907 19.9496C25.7662 19.6829 25.7662 19.4162 25.9405 19.1762C26.4385 18.9362 26.8121 19.1762 27.2105 19.4696C27.4346 19.8696 27.7833 20.0029 28.2315 19.9762Z" fill="#750CAC"/>
<path d="M27.186 19.4673C26.7627 19.494 26.3643 19.4406 25.9907 19.2006C25.9409 19.1473 25.916 19.094 25.916 19.0406C25.916 18.9873 25.9409 18.9606 25.9658 18.9606C25.9658 18.854 25.9907 18.7473 25.9907 18.6406C26.5137 18.694 27.0366 18.774 27.186 19.4673Z" fill="#8736B1"/>
<path d="M17.5241 10.3984C17.6735 10.4251 17.8229 10.4518 17.9474 10.4784C17.9474 11.2251 18.2712 11.7851 18.7692 12.2651C18.9435 12.4518 19.0929 12.6118 19.2673 12.7984C19.2673 13.0651 19.2672 13.3051 19.2922 13.5718C19.2922 13.8651 19.2673 14.1318 19.2673 14.4251C18.5202 14.5318 18.3708 13.8118 17.9474 13.4118C17.8976 13.2784 17.9225 13.1718 18.0221 13.0918C18.2712 12.0784 17.3 11.3584 17.5241 10.3984Z" fill="#8D14E1"/>
<path d="M25.9644 18.958C25.9644 19.038 25.9893 19.118 25.9893 19.198C25.9893 19.4647 25.9893 19.7314 25.9893 19.998C25.4663 20.3447 25.1924 19.838 24.8189 19.6247C24.6196 19.3847 24.5449 19.1447 24.7442 18.878C24.9932 18.798 25.2671 18.7447 25.4912 18.9314C25.6406 18.9314 25.8149 18.9314 25.9644 18.958Z" fill="#7304B3"/>
<path d="M25.4926 18.9073C25.2435 18.9073 24.9945 18.9073 24.7455 18.9073C24.1727 19.414 23.5004 19.3073 22.828 19.2273C22.5541 19.1206 22.2304 19.094 22.2553 18.6406C23.077 18.6406 23.9237 18.6406 24.7455 18.6406C25.0194 18.6673 25.3182 18.614 25.4926 18.9073Z" fill="#740BB8"/>
<path d="M28.2316 21.3065C28.2316 21.0131 28.2565 20.7465 28.2565 20.4531C28.4059 20.4798 28.5554 20.5065 28.7048 20.5331C29.1779 20.8531 29.3273 21.3598 29.4269 21.9198C29.4269 22.3198 29.4269 22.7198 29.4269 23.1465C29.1032 23.4931 29.0783 24.1598 28.5056 24.2931C28.0324 24.3731 28.1818 24.0265 28.2565 23.8131C28.4807 22.9598 28.4309 22.1331 28.2316 21.3065Z" fill="#8028AD"/>
<path d="M29.4273 21.9212C29.1284 21.4945 28.7549 21.1211 28.7051 20.5345C28.8047 20.5345 28.8794 20.5078 28.979 20.5078C29.1533 20.6945 29.3027 20.8811 29.4771 21.0678C29.4522 21.3345 29.4522 21.6278 29.4273 21.9212Z" fill="#E0B4F3"/>
<path d="M10.8247 6.13738C10.9741 6.48405 11.1484 6.83071 11.2979 7.20405C11.1484 7.39072 11.0239 7.60405 10.7998 7.68405C10.6504 7.79071 10.4761 7.89738 10.3267 8.00405C10.1274 8.21738 9.90332 8.24405 9.65429 8.13738C9.55468 8.05738 9.47998 7.97738 9.45508 7.84405C9.52978 7.20405 9.95313 6.69738 10.0527 6.08404C10.1523 6.03071 10.2519 6.03071 10.3516 6.11071C10.501 6.11071 10.6753 6.13738 10.8247 6.13738Z" fill="#ECBA8E"/>
<path d="M8.58398 5.07135C8.58398 4.99135 8.60888 4.88469 8.60888 4.80469C8.93261 4.80469 9.25635 4.80469 9.58008 4.83136C9.60498 5.36469 9.95361 5.36469 10.3271 5.36469C10.3271 5.44469 10.3271 5.55136 10.3271 5.63136C10.1528 5.81802 9.92871 5.89802 9.67969 5.89802C9.23145 5.87136 8.90771 5.63136 8.65869 5.25802C8.63379 5.17802 8.60889 5.12469 8.58398 5.07135Z" fill="#FCE7DD"/>
<path d="M9.58023 5.60156C9.82925 5.60156 10.0783 5.60156 10.3273 5.60156C10.3522 5.76156 10.3522 5.92156 10.3771 6.08156C10.2775 6.10823 10.1779 6.10823 10.0783 6.1349C9.90396 6.26823 9.72965 6.26823 9.55533 6.16156C9.43082 5.9749 9.43081 5.78823 9.58023 5.60156Z" fill="#F5CDB6"/>
<path d="M1.58594 19.9429C1.58594 19.7829 1.61083 19.5962 1.61083 19.4362C2.20849 19.2229 2.55712 18.4762 3.30419 18.6096C3.32909 18.6629 3.3789 18.6896 3.4038 18.7429C3.4038 19.1429 3.15478 19.3563 2.90576 19.5963C2.75634 19.7563 2.58202 19.8896 2.43261 20.0496C2.23339 20.1829 2.03417 20.2363 1.81005 20.1563C1.73534 20.1296 1.63574 20.0496 1.58594 19.9429Z" fill="#F0E4F8"/>
<path d="M3.3545 18.1328C3.62842 18.1328 3.90235 18.1595 4.15137 18.1595C4.22608 18.8795 3.87744 18.9061 3.37939 18.7195L3.30469 18.6395C3.32959 18.4528 3.3545 18.2928 3.3545 18.1328Z" fill="#F0E4F8"/>
<path d="M7.58691 11.7358C7.13867 11.8958 6.61572 12.4025 6.3418 11.4958L6.36669 11.4158C6.59081 11.2025 6.88964 11.1492 7.11376 10.9092C7.18847 10.8292 7.23829 10.7492 7.31299 10.6692C7.53711 10.4292 7.71142 10.0825 8.08496 10.4025C8.08496 10.7492 8.08496 11.1225 8.08496 11.4692C7.88574 11.4692 7.68652 11.5225 7.58691 11.7358Z" fill="#F9EAD1"/>
<path d="M9.60449 8.55827C9.43017 9.06493 9.10644 9.43827 8.6084 9.59827C8.43408 9.46493 8.38428 9.27826 8.35938 9.03826C8.35938 8.82493 8.40918 8.6116 8.53369 8.4516C8.83252 8.23827 9.15625 8.2116 9.47998 8.39827C9.50488 8.4516 9.55468 8.50493 9.60449 8.55827Z" fill="#FEF4D7"/>
<path d="M8.06086 10.4009C7.68733 10.3743 7.58771 10.7743 7.33869 10.9609C6.86555 10.1343 7.4383 9.60093 7.83674 9.04093C7.93634 8.9876 8.06085 8.96094 8.16046 8.96094C8.63361 9.20094 8.21028 9.60094 8.30989 9.89427C8.23518 10.0276 8.16047 10.2143 8.06086 10.4009Z" fill="#F4CB89"/>
<path d="M9.57942 8.03448C9.82844 8.03448 10.0775 8.03448 10.3265 8.00781C10.3265 8.54115 9.95294 8.54115 9.60431 8.56781L9.55452 8.51448C9.43001 8.35448 9.4549 8.19448 9.57942 8.03448Z" fill="#FDEDD8"/>
<path d="M10.7988 7.68312C10.8237 7.33646 10.998 7.20312 11.2969 7.20312C11.2969 7.46979 11.2969 7.73646 11.2969 8.00313C11.0728 8.00313 10.8984 7.92312 10.7988 7.68312Z" fill="#FCE9DB"/>
<path d="M8.30936 9.86438C7.93582 9.59771 8.25955 9.33104 8.33425 9.06438C8.40896 8.95771 8.48367 8.95771 8.58328 9.06438C8.58328 9.25104 8.58327 9.43771 8.60817 9.59771C8.50856 9.70438 8.40897 9.78438 8.30936 9.86438Z" fill="#FCE2B4"/>
<path d="M7.58754 16.7755C8.01088 16.8289 8.23501 16.4289 8.55874 16.2422C8.70815 16.3755 8.75795 16.5622 8.75795 16.7489C8.73305 16.8822 8.68324 16.9889 8.60853 17.0955C8.2599 17.3889 7.73696 17.3622 7.38833 17.7089C7.1393 17.8689 6.86538 17.9489 6.59145 18.0289C6.41714 18.0822 6.24283 18.0822 6.06851 18.0022C5.89419 17.8955 5.76968 17.7889 5.84438 17.5489C6.34243 17.0955 6.91518 16.8022 7.58754 16.7755Z" fill="#E7C7FA"/>
<path d="M3.40382 18.6928C3.77735 18.6928 4.10107 18.6395 4.17578 18.1328C4.47461 18.1061 4.77344 18.0795 5.09717 18.0528C5.19678 17.9995 5.32129 17.9995 5.4209 18.0795C5.4956 18.3728 5.34619 18.5595 5.17187 18.7461C4.97265 18.9061 4.77344 19.0128 4.54932 19.1195C4.00147 19.2261 3.52832 19.9461 2.88086 19.4128C3.03027 19.1995 3.2046 18.9595 3.40382 18.6928Z" fill="#7534B5"/>
<path d="M5.34618 18.1837C5.24658 18.157 5.17187 18.1303 5.07227 18.077C5.12207 17.5703 5.4707 17.5703 5.84423 17.5703C5.94384 17.677 6.01854 17.757 6.11815 17.8636C6.01854 18.397 5.69482 18.3703 5.34618 18.1837Z" fill="#CEAAEE"/>
<path d="M9.08099 15.7346C9.08099 15.5746 9.08099 15.3879 9.08099 15.2279C9.80316 14.8279 9.65374 13.7613 10.2763 13.2812C10.3261 13.3346 10.3759 13.3613 10.4257 13.4146C10.6747 13.8946 10.5004 14.3479 10.3012 14.7746C10.0273 15.3346 9.97747 16.1613 9.10589 16.0813C9.00628 15.9746 8.98138 15.8413 9.08099 15.7346Z" fill="#952CD8"/>
<path d="M10.774 12.2125C10.7989 12.0525 10.7989 11.8925 10.8238 11.7325C11.023 11.5725 11.1974 11.5992 11.3717 11.7592C11.6456 12.3992 11.8199 13.0392 11.048 13.4392C10.8985 13.4392 10.774 13.3592 10.6993 13.2525C10.525 12.8792 10.6495 12.5592 10.774 12.2125Z" fill="#931BE3"/>
<path d="M10.7745 12.2109C10.7745 12.5843 10.7994 12.9576 10.7994 13.3309C10.65 13.4909 10.5006 13.5176 10.3263 13.4109L10.2765 13.3043C10.2267 12.7976 10.4508 12.4776 10.7745 12.2109Z" fill="#A440E5"/>
<path d="M11.3228 11.7329C11.1733 11.7329 10.999 11.7329 10.8496 11.7329C10.8496 11.4663 10.8496 11.1996 10.8496 10.9596C10.999 10.9329 11.1484 10.9329 11.2979 10.9062C11.3477 10.9596 11.3975 10.9863 11.4473 11.0396C11.522 11.2263 11.5469 11.4129 11.4722 11.5996C11.3975 11.6263 11.3477 11.6796 11.3228 11.7329Z" fill="#A440E5"/>
<path d="M12.3188 8.42969C12.3935 8.45635 12.4434 8.48302 12.5181 8.48302C12.6924 8.58968 12.7173 8.77635 12.6924 8.96302C12.543 9.41635 12.3188 9.84302 12.2192 10.323C12.1694 10.5097 12.0698 10.6697 11.9702 10.803C11.7959 10.9897 11.5967 11.123 11.3476 10.963L11.248 10.883C11.2729 10.5364 11.2979 10.1897 11.2979 9.84302C11.5967 9.68302 11.7959 9.44302 11.771 9.06969C11.9951 8.90969 11.8706 8.42969 12.3188 8.42969Z" fill="#A037E1"/>
<path d="M12.3183 8.42771C12.144 8.64104 11.9946 8.85438 11.8203 9.09438C11.7954 8.56104 11.7456 8.02771 12.2934 7.73438C12.2934 7.97438 12.2934 8.18771 12.3183 8.42771Z" fill="#F7D7FA"/>
<path d="M9.08154 15.7344C9.10644 15.8144 9.13134 15.921 9.13134 16.001C9.28076 16.5344 9.35546 16.9877 8.58349 16.801C8.58349 16.6144 8.55859 16.4277 8.55859 16.241C8.6084 15.9477 8.75781 15.761 9.08154 15.7344Z" fill="#BC6AEF"/>
<path d="M1.08722 21.572C0.937803 21.6786 0.788377 21.7853 0.638963 21.892L0.564259 21.812C0.389943 21.5453 0.414854 21.3053 0.58917 21.0386C0.738584 20.5053 1.08721 20.1586 1.56035 19.9453C1.58525 19.972 1.61016 19.9987 1.65997 20.052C1.83428 20.7187 1.18683 21.012 1.08722 21.572Z" fill="#F0E4F8"/>
<path d="M0.614231 21.0391C0.614231 21.3057 0.589335 21.5457 0.589335 21.8124C0.439921 21.8391 0.290496 21.8391 0.141082 21.8657C0.11618 21.4657 0.116186 21.0924 0.614231 21.0391Z" fill="#FDF0FE"/>
<path d="M22.0053 27.1716C21.9804 27.3316 21.9555 27.4916 21.9306 27.6516C20.8847 27.6782 19.8139 27.7049 18.768 27.7315C18.1953 27.9182 17.5727 27.9716 17.0249 28.2382C15.8794 28.2382 14.709 28.2382 13.5635 28.2382C12.6919 27.8116 11.6958 28.0515 10.8242 27.7315C10.0771 27.7049 9.33008 27.7049 8.58301 27.6782C8.5083 27.5182 8.40869 27.3582 8.33398 27.1982C8.4834 26.9849 8.70752 26.9049 8.93165 26.8782C10.2764 26.7715 11.646 26.7982 12.9907 26.8249C13.2895 26.8249 13.5884 26.7715 13.9121 26.8249C15.1323 26.8515 16.3774 26.7715 17.5976 26.8249C19.0669 26.8782 20.5859 26.4782 22.0053 27.1716Z" fill="#6106AD"/>
<path d="M10.7988 27.7067C11.7202 27.8134 12.7412 27.3601 13.5381 28.2134C12.6167 28.2667 11.6704 28.2667 10.7988 27.7067Z" fill="#6A20A8"/>
<path d="M17.0254 28.2133C17.5234 27.6533 18.146 27.68 18.7686 27.7067C18.2456 28.16 17.6729 28.2667 17.0254 28.2133Z" fill="#711FAB"/>
<path d="M8.08502 27.1709C7.9107 27.1709 7.73639 27.1709 7.58697 27.1709C7.38776 26.9043 7.03912 26.9309 6.83991 26.6643C6.56598 26.2643 6.29205 25.8909 5.7442 25.9976C5.52008 26.0243 5.19635 26.1043 5.09674 25.8109C4.97223 25.4909 5.17145 25.1443 5.42047 25.0376C6.54107 24.4243 6.01814 23.6243 5.69441 22.8509C5.69441 22.4243 5.94342 22.2376 6.29205 22.2109C6.49127 22.2109 6.66559 22.2643 6.83991 22.3976C7.13873 22.9576 7.61188 23.2776 8.20953 23.4109C8.63287 23.4909 9.18073 23.4909 9.18073 24.1843C9.13092 24.4243 8.80719 24.6643 8.9566 24.9043C9.62896 26.0509 8.83209 26.6109 8.08502 27.1709Z" fill="#5E04B7"/>
<path d="M8.08594 27.1757C8.08594 26.829 8.33496 26.6423 8.53418 26.429C8.98242 26.0023 9.20654 25.6557 8.63379 25.069C8.16065 24.5623 8.40967 24.2157 9.05713 24.2423C9.20655 24.109 9.38085 23.9757 9.60497 23.949C10.0283 23.8957 10.4517 23.8957 10.8003 24.189C10.9497 24.349 11.0244 24.5623 11.0742 24.7757C11.2734 25.8157 10.7505 26.3757 9.92871 26.749C9.55518 26.909 9.10694 26.829 8.80811 27.1757C8.63379 27.1757 8.48438 27.1757 8.31006 27.1757C8.23536 27.1757 8.16064 27.1757 8.08594 27.1757Z" fill="#6003B6"/>
<path d="M6.83984 26.6408C7.18848 26.6408 7.56201 26.6142 7.58691 27.1475C7.33789 27.1475 7.11376 27.1208 6.86474 27.1208C6.83984 26.9608 6.83984 26.8008 6.83984 26.6408Z" fill="#5000A1"/>
<path d="M25.4929 25.8467C25.4929 25.9267 25.4929 26.0333 25.4929 26.1133C24.6961 26.0867 23.9241 26.06 23.2517 26.6467C23.1272 26.8067 22.9778 26.8067 22.8035 26.7533C22.6541 26.6467 22.6043 26.46 22.6292 26.2733C22.6541 26.14 22.7288 26.0333 22.8035 25.9533C23.0027 25.7933 23.2019 25.6867 23.4509 25.6067C23.6253 25.5533 23.8245 25.5267 24.0237 25.5C24.5217 25.5267 25.0696 25.3933 25.4929 25.8467Z" fill="#7608B3"/>
<path d="M22.7532 26.6406C22.9275 26.6406 23.0769 26.6406 23.2512 26.6406C23.2512 26.8006 23.2512 26.9873 23.2512 27.1473C23.0022 27.1473 22.7532 27.1473 22.5042 27.174C22.3299 26.854 22.3299 26.6406 22.7532 26.6406Z" fill="#6A04AE"/>
<path d="M22.7526 26.6429C22.5534 26.7496 22.5036 26.9629 22.5036 27.1763C22.3292 27.1763 22.1798 27.1763 22.0055 27.1763C20.5114 27.1763 19.0172 27.1763 17.5231 27.1763C17.0251 26.7229 17.1496 26.1896 17.3488 25.6296C17.548 25.2829 17.4235 25.1229 17.0749 25.1496C16.278 25.0696 15.4562 25.3629 14.734 24.8029C14.6344 24.5629 14.6593 24.3496 14.8336 24.1363C16.0788 23.6296 17.3737 23.9763 18.6437 23.8696C18.9923 23.8963 19.341 23.8963 19.6647 24.0829C19.9137 24.2429 19.9137 24.5096 19.8639 24.7763C19.7643 25.2563 19.341 25.8696 19.9635 26.1896C20.5114 26.4563 21.1837 26.4296 21.7067 26.0029C22.1051 25.6829 22.5036 25.1763 22.7277 26.1363C22.7526 26.2963 22.7526 26.4563 22.7526 26.6429Z" fill="#7103BD"/>
<path d="M3.35459 24.7729C3.03086 24.5862 2.68223 24.4262 2.3585 24.2395C2.3585 24.0529 2.3585 23.8929 2.3585 23.7062C2.05967 22.9062 1.96006 22.1062 2.3585 21.3062C2.4332 21.0395 2.50792 20.7462 2.58262 20.4795C2.63243 20.4529 2.68223 20.3995 2.73203 20.3729C2.95615 20.2929 3.18027 20.2929 3.37949 20.4529C3.5787 20.9329 3.27989 21.3595 3.27989 21.8129C3.4293 22.2662 3.90243 22.3995 4.12655 22.7729C4.20126 22.8795 4.25107 22.9862 4.27598 23.0929C4.32578 23.8929 3.75303 24.2662 3.35459 24.7729Z" fill="#5504B0"/>
<path d="M2.35693 21.3047C2.35693 22.1047 2.35693 22.9047 2.35693 23.7047C1.65967 23.0114 1.65967 22.0247 2.35693 21.3047Z" fill="#5403AB"/>
<path d="M1.08842 21.5743C0.914106 20.9077 1.61136 20.6143 1.68607 20.0543C1.88529 20.0277 2.10941 20.001 2.30863 19.9743C2.40823 19.8677 2.53275 19.8676 2.65726 19.9476C2.75687 20.1343 2.75687 20.321 2.60746 20.5077C1.91019 20.481 1.51176 20.881 1.36234 21.5743C1.26273 21.5743 1.18803 21.5743 1.08842 21.5743Z" fill="#7C50B5"/>
<path d="M3.35382 24.7816C3.27911 24.0083 4.2254 23.715 4.10089 22.915C4.67364 22.4083 5.27129 22.4616 5.84405 22.915C6.74053 23.795 6.74053 24.3816 5.89385 24.915C5.61993 25.1016 5.3211 25.2883 5.29619 25.6883C5.74443 26.1416 6.86504 25.2883 6.84014 26.6216C6.04327 25.955 4.89776 26.2216 4.10089 25.555C4.10089 25.475 4.10089 25.3683 4.10089 25.2883C4.07598 24.7816 3.72735 24.7816 3.35382 24.7816Z" fill="#5A04B3"/>
<path d="M28.2315 21.3047C29.3272 22.1847 28.5303 23.2514 28.5054 24.2647C28.2315 24.6114 27.9825 24.958 27.7085 25.3047C27.0611 25.198 26.6626 26.1047 25.9903 25.838C25.7413 24.9847 26.3638 24.7714 26.8619 24.478C27.2603 24.3714 27.4097 23.998 27.584 23.678C27.6338 23.5714 27.7085 23.4914 27.7583 23.4114C27.9576 23.038 27.8828 22.6114 27.9078 22.2114C27.9327 21.8647 28.0074 21.5714 28.2315 21.3047Z" fill="#7207AC"/>
<path d="M27.983 23.7088C27.9083 23.7088 27.8087 23.7088 27.734 23.7088C27.3853 23.9754 27.4351 24.4288 27.2359 24.7754C26.5636 24.7754 26.19 25.2021 25.9908 25.8421C25.8165 25.8421 25.6671 25.8421 25.4928 25.8421C24.92 25.8421 24.3223 25.8421 23.7496 25.8421C23.3014 25.0688 23.2017 24.2954 23.899 23.6021C23.9737 23.5754 24.0484 23.5754 24.1231 23.6021C24.3971 23.6554 24.7208 24.1621 24.9449 23.6821C25.1441 23.2021 24.5465 23.2821 24.3472 23.0954C24.2974 23.0421 24.2227 22.9888 24.1729 22.9354C24.0982 22.7488 24.0982 22.5621 24.1729 22.3754C24.5216 21.9221 25.1192 22.2954 25.4678 21.8688C25.692 21.5754 26.1402 21.6287 26.4888 21.1754C25.692 20.9354 25.7667 21.7888 25.418 21.9221C24.1978 21.5488 24.0484 20.7488 24.9698 19.4688C25.2935 19.6554 25.6422 19.8154 25.9659 20.0021C26.439 19.9754 26.8375 20.0288 27.1363 20.5354C27.3604 20.9354 27.6841 21.3354 28.2071 21.3354C28.2071 21.6821 28.2071 22.0554 28.2071 22.4021C27.7838 22.7488 28.1075 23.2821 27.983 23.7088Z" fill="#7A04BC"/>
<path d="M15.2823 7.19447C15.7057 7.94114 15.8551 8.7678 16.0294 9.59447C16.1041 9.8078 15.9547 10.0211 15.8551 9.9678C14.6847 9.54113 14.2116 10.6078 13.5392 11.1945C13.2404 11.4078 12.9415 11.7545 12.568 11.4345C12.1198 11.0345 12.2941 10.5011 12.3937 9.99447C12.7423 9.51447 12.7672 8.8478 13.3151 8.5278C13.5641 8.3678 13.5143 8.07447 13.589 7.83447C13.9127 6.98113 14.4606 6.63447 15.2823 7.19447Z" fill="#A20DF5"/>
<path d="M13.3156 8.53521C12.9421 8.90854 13.3156 9.76188 12.5685 9.86854C12.5187 9.81521 12.4938 9.78854 12.444 9.73521C12.3693 9.49521 12.3942 9.25521 12.5685 9.06854C12.5436 8.88188 12.5436 8.69521 12.5187 8.50854C12.693 8.40187 12.8922 8.37521 13.0666 8.53521C13.1413 8.53521 13.216 8.53521 13.3156 8.53521Z" fill="#9A0DEE"/>
<path d="M13.5645 6.1895C13.7886 5.97617 13.8882 5.57617 14.2866 5.60283C14.2368 5.97617 14.187 6.40283 13.8135 6.53617C13.6392 6.61617 13.5894 6.37617 13.5645 6.1895Z" fill="#9215D6"/>
<path d="M13.0405 8.53407C12.8662 8.53407 12.6919 8.5074 12.5176 8.5074C12.5425 8.16073 12.5425 7.84073 12.5674 7.49407C12.7168 7.4674 12.8662 7.44073 13.0156 7.41406C13.0405 7.7874 13.0405 8.16073 13.0405 8.53407Z" fill="#A13FD3"/>
<path d="M8.08496 9.06239C7.81103 9.67573 7.28809 10.1824 7.33789 10.9557C7.01416 11.2224 6.69043 11.2491 6.3667 10.9291C6.26709 10.5824 6.14258 10.2357 6.04297 9.88906C6.09277 9.5424 6.06788 9.16906 6.3169 8.87572C6.59083 8.55572 6.91455 8.28906 7.36279 8.28906C7.81103 8.28906 8.30908 8.31573 8.08496 9.06239Z" fill="#FAB56D"/>
<path d="M4.64942 8.5076C4.62451 8.13427 4.27588 8.0276 4.10156 7.76094C4.10156 7.68094 4.10156 7.57427 4.10156 7.49427C4.35059 7.1476 4.67432 6.9876 5.07276 6.96094C5.27198 6.96094 5.44629 7.01427 5.5957 7.1476C5.72021 7.3076 5.74512 7.49427 5.69532 7.68093C5.5708 8.0276 5.32178 8.2676 5.07276 8.53427C4.94825 8.5076 4.79883 8.5076 4.64942 8.5076Z" fill="#F89F9F"/>
<path d="M6.34179 9.06419C6.34179 9.35752 6.39161 9.67752 6.06788 9.86419C5.76905 9.43752 5.42041 9.09086 5.3457 8.53086C5.47021 8.39752 5.61963 8.37086 5.79394 8.42419C6.04296 8.58419 6.21728 8.77086 6.34179 9.06419Z" fill="#F0B88D"/>
<path d="M5.84472 8.53536C5.67041 8.53536 5.4961 8.53536 5.32178 8.53536C5.24708 8.53536 5.17236 8.50869 5.09766 8.48202C5.09766 8.10869 5.09766 7.73536 5.5957 7.70869C5.69531 7.60203 5.79492 7.60202 5.89453 7.68202C6.04395 7.89536 6.06885 8.13536 5.96924 8.37536C5.91943 8.45536 5.89453 8.48203 5.84472 8.53536Z" fill="#F0AA93"/>
<path d="M6.39172 10.9062C6.71545 10.9062 7.03917 10.9329 7.3629 10.9329C7.2882 11.6529 6.79016 11.4129 6.39172 11.4129C6.36682 11.2529 6.36682 11.0663 6.39172 10.9062Z" fill="#F4CB89"/>
<path d="M5.0974 7.20336C4.77367 7.28336 4.44994 7.39002 4.10131 7.47002C3.35424 7.01669 4.0764 6.59002 4.10131 6.13669C4.17601 6.05669 4.27562 5.95002 4.35033 5.87002C4.84837 5.87002 5.37133 5.71002 5.81957 6.08335C6.24291 6.96335 5.34642 6.83002 5.0974 7.20336Z" fill="#FA98A8"/>
<path d="M5.84382 4.26771C6.01814 4.08104 6.16755 3.92104 6.34187 3.73438L6.36676 3.76104C6.64069 4.08104 6.81502 4.48104 6.93953 4.88104C6.88972 5.17437 6.6905 5.28105 6.46638 5.38771C6.01814 5.44105 5.6446 6.02771 5.12165 5.60104C5.09675 4.98771 5.91853 4.93438 5.84382 4.26771Z" fill="#F396BA"/>
<path d="M5.07178 5.59583C5.49512 5.40917 5.91846 5.24917 6.3169 5.0625C6.44141 5.16917 6.46631 5.32917 6.44141 5.48917C6.3418 5.75584 6.14258 5.88916 5.94336 6.07583C5.89356 6.1025 5.84375 6.1025 5.81885 6.12917C5.3208 6.12917 4.79785 6.1825 4.34961 5.8625C4.42432 5.75583 4.49903 5.67583 4.57374 5.56917C4.74805 5.59583 4.92237 5.59583 5.07178 5.59583Z" fill="#F693AD"/>
<path d="M22.2545 18.6641C22.3541 18.8774 22.5284 18.9307 22.7276 18.9307C22.9766 19.1974 23.0015 19.5174 22.9517 19.8641C22.9019 20.1307 22.8023 20.3707 22.7027 20.6107C22.6529 20.7441 22.5782 20.8507 22.4786 20.9307C22.0552 21.2774 21.5821 21.4107 21.084 21.1974C20.9844 21.1174 20.9097 21.0374 20.8599 20.9041C20.835 20.7707 20.8599 20.6641 20.8848 20.5307C21.0342 20.2641 21.2584 20.0774 21.4576 19.8641C21.9058 19.5974 21.607 18.9307 22.0303 18.6641C22.105 18.6641 22.1798 18.6641 22.2545 18.6641Z" fill="#840FDB"/>
<path d="M22.0561 18.6605C21.832 19.0872 22.7285 20.0205 21.5332 19.9939C21.4834 19.9405 21.4336 19.9139 21.3838 19.8605C21.1846 19.4072 21.1846 18.9539 21.3838 18.5005C21.4336 18.4472 21.4834 18.4205 21.5332 18.3672C21.7075 18.4472 21.8818 18.5539 22.0561 18.6605Z" fill="#B971F1"/>
<path d="M20.76 18.1062C21.009 18.1062 21.258 18.1329 21.4822 18.1329C21.5071 18.2129 21.5071 18.2929 21.5071 18.3729L21.4573 18.4262C21.1335 18.7729 20.8596 19.2262 20.2869 19.0396C20.1872 18.9596 20.1374 18.8529 20.1125 18.7196C20.0876 18.4262 20.2121 18.2396 20.4114 18.0796C20.5608 17.9996 20.6604 18.0262 20.76 18.1062Z" fill="#B971F1"/>
<path d="M20.7614 18.1067L20.6369 18.1333H20.5124C20.1388 18.3733 19.7653 18.5067 19.3419 18.2667C19.1676 18.1333 19.1178 17.9467 19.1427 17.7333C19.7404 17.3333 19.3918 16.5067 19.7653 16C19.9147 16 20.089 16.0267 20.2384 16.0267C20.1886 16.7733 20.9855 17.3067 20.7614 18.1067Z" fill="#8B08E3"/>
<path d="M19.7646 16.0025C19.7895 16.2692 19.7148 16.5892 19.8393 16.7758C20.5366 17.7892 19.7397 17.5492 19.2666 17.6025C17.9468 18.5625 16.6518 19.5225 14.9336 18.8558C14.311 18.4025 13.7881 17.7358 12.8916 17.9492C12.0698 17.8958 11.248 18.1092 10.4512 17.7625C10.3267 17.6825 10.252 17.5758 10.252 17.4158C10.3018 17.0692 11.3975 17.3625 10.7002 16.5092C10.5259 16.2958 10.999 15.8425 11.2979 15.6025C11.6465 15.4158 12.02 15.3625 12.3935 15.5758C12.543 15.6558 12.6177 15.8692 12.8169 15.8958C12.6675 15.8425 12.5679 15.7092 12.4682 15.5492C12.5181 14.8825 13.041 14.8825 13.4643 14.8558C14.0371 14.8292 14.5849 14.6692 15.1328 14.5625C15.4814 14.5625 15.7803 14.8558 16.1538 14.8558C16.7016 14.9625 17.4238 14.9625 16.876 16.1358C17.5234 15.2825 18.2954 15.7892 18.9678 15.5492C19.0674 15.4158 19.167 15.2825 19.2915 15.2025C19.7895 15.2292 19.7646 15.6292 19.7646 16.0025Z" fill="#9306F2"/>
<path d="M19.2666 15.2026C19.2666 15.3893 19.2666 15.5493 19.2666 15.7359C18.3701 15.2293 17.9219 14.4559 18.0215 13.3359C18.644 13.3893 18.6938 14.2426 19.2666 14.4026C19.2666 14.6693 19.2666 14.9359 19.2666 15.2026Z" fill="#9409F3"/>
<path d="M6.83984 4.79636C6.19238 4.71636 6.3916 4.15635 6.3418 3.72969C6.86474 3.75635 6.76514 3.11635 7.08887 2.92969C7.26318 3.27635 7.3628 3.70302 7.81104 3.72969C7.81104 3.88969 7.83593 4.07635 7.83593 4.23635C7.63672 4.71635 7.4624 5.27636 6.83984 4.79636Z" fill="#F58CBF"/>
<path d="M6.84034 4.79896C7.31348 4.90563 7.5625 4.55896 7.83643 4.26562C7.86133 4.77229 8.25977 4.87896 8.5835 5.06563C8.6582 5.30563 8.50878 5.43896 8.35937 5.57229C8.01074 5.75896 7.63721 5.8923 7.26368 5.91896C6.93995 5.91896 6.59131 5.91896 6.36719 5.59896C6.36719 5.41229 6.36719 5.25229 6.36719 5.06563C6.5415 5.06563 6.74073 5.01229 6.84034 4.79896Z" fill="#FA96B0"/>
<path d="M13.5645 10.9338C13.8135 10.3204 14.436 10.0271 14.7598 9.52044C15.1333 8.93377 15.1831 9.25377 15.3574 9.60044C15.5566 9.97377 15.8057 9.89377 16.0547 9.60044C16.7519 9.76044 17.001 10.2404 17.0508 10.9604C17.1006 11.6271 16.9014 12.0538 16.3037 12.2671C16.0298 12.5604 15.8804 13.0938 15.3325 12.9071C15.0337 12.6138 14.7349 12.3738 14.2866 12.6138C13.4649 12.3471 13.7637 11.4938 13.5645 10.9338Z" fill="#9C0BF6"/>
<path d="M18.021 13.3292C18.3198 14.2092 18.7432 14.9825 19.2661 15.7292C19.1914 15.8892 19.1167 16.0225 19.042 16.1825C18.021 15.4892 16.9502 16.6092 15.9043 16.1292C16.0288 15.4625 16.7261 15.9958 16.8755 15.4625C16.6763 15.0358 16.3027 15.2758 16.0288 15.1958C15.73 14.1825 16.5269 13.8358 17.0249 13.3292C17.3984 13.3825 17.6973 13.2492 18.021 13.0625C18.021 13.1425 18.021 13.2225 18.021 13.3292Z" fill="#9508F4"/>
<path d="M17.0256 13.3323C16.7018 13.9456 16.3532 14.5856 16.0295 15.199C15.6559 15.199 15.3073 15.199 15.2824 14.6656C14.9338 14.2923 14.9587 13.839 14.9836 13.3856C15.0085 13.1456 15.1081 12.959 15.2824 12.799C15.6061 12.6123 15.9548 12.4523 16.2785 12.2656C16.2785 12.8256 16.2287 13.4123 17.0256 13.3323Z" fill="#9907F3"/>
<path d="M22.752 19.9964C22.752 19.6497 22.752 19.303 22.752 18.9297C23.4243 18.9297 24.0718 18.9297 24.7441 18.9297C24.7441 19.143 24.7939 19.3564 24.9932 19.463C24.8437 20.343 24.1216 21.3564 25.4912 21.863C25.3418 22.7164 24.6943 22.2897 24.2461 22.3964C23.9722 22.2897 23.7729 22.103 23.6235 21.8364C23.3247 21.383 23.6733 20.6897 23.1255 20.3164C22.9512 20.2364 22.8267 20.1297 22.752 19.9964Z" fill="#7804B9"/>
<path d="M6.3418 9.06117C6.01807 9.06117 5.86865 8.87451 5.84375 8.52784C6.69043 7.3545 7.91064 6.7145 9.08105 5.9945C9.25536 5.94117 9.42968 5.96784 9.57909 6.10117C9.72851 6.10117 9.90283 6.12784 10.0522 6.12784C10.5254 6.8745 9.87793 7.22117 9.5542 7.70117C9.33008 8.10117 8.83202 8.15451 8.583 8.55451C8.583 8.71451 8.55811 8.8745 8.55811 9.0345C8.4834 9.0345 8.40869 9.0345 8.30908 9.0345C8.23438 9.0345 8.13477 9.0345 8.06006 9.0345C7.48731 7.72784 6.91455 9.03451 6.3418 9.06117Z" fill="#FBAD79"/>
<path d="M8.60742 8.58771C8.63232 7.89438 9.13038 7.84104 9.57862 7.73438C9.57862 7.84104 9.57861 7.92104 9.60351 8.02771C9.60351 8.18771 9.57862 8.34771 9.57862 8.50771C9.22999 8.53437 8.90625 8.56105 8.60742 8.58771Z" fill="#F7BA86"/>
<path d="M9.58021 6.12917C9.40589 6.12917 9.25648 6.12917 9.08216 6.12917C8.78334 6.39583 8.4596 6.4225 8.11097 6.23583C7.78724 5.83583 8.01136 5.56917 8.33509 5.32917C8.4098 5.24917 8.50941 5.1425 8.58412 5.0625C8.90785 5.24917 9.25648 5.40917 9.58021 5.59583C9.58021 5.7825 9.58021 5.9425 9.58021 6.12917Z" fill="#F9A499"/>
<path d="M2.65723 19.9768C2.53272 19.9768 2.43311 19.9768 2.30859 19.9768C2.3833 19.6568 2.48291 19.4168 2.85645 19.4435C3.52881 19.6302 3.92725 18.7502 4.59961 18.9102C4.45019 20.0835 3.87744 20.4302 2.65723 19.9768Z" fill="#531399"/>
<path d="M8.58399 16.803C9.05713 16.7763 9.05714 16.3496 9.13184 16.003C9.80421 15.843 9.7544 15.0963 10.0781 14.6696C10.1777 14.563 10.2773 14.563 10.377 14.643C10.5762 14.9096 10.5762 15.2296 10.5264 15.5496C10.5015 15.6563 10.4766 15.7896 10.4268 15.8963C10.103 16.4296 9.90381 17.0963 9.23144 17.3096C9.05713 17.3363 8.90771 17.3363 8.7334 17.283C8.63379 17.2296 8.53418 17.1763 8.48438 17.0696C8.50928 16.963 8.55909 16.883 8.58399 16.803Z" fill="#8C13E2"/>
<path d="M6.56738 17.8364C6.71679 17.463 7.06542 17.5964 7.33935 17.543C7.58837 17.383 7.81249 17.463 7.9619 17.7297C8.03661 17.9964 7.93701 18.2364 7.81249 18.4764C7.68798 18.6897 7.56347 18.903 7.33935 19.063C7.16503 19.143 6.99072 19.143 6.8164 19.1164C6.41797 19.0097 5.99462 19.0364 5.64599 18.7697C5.47168 18.423 5.67089 18.343 5.91991 18.2897C6.14403 18.183 6.44287 18.1564 6.56738 17.8364Z" fill="#4F089F"/>
<path d="M7.91015 17.9191C7.78563 17.6257 7.53662 17.5991 7.3125 17.5457C7.51172 16.8524 8.03465 17.0924 8.4829 17.0391C8.5327 17.0391 8.58251 17.0391 8.65721 17.0391C8.85643 17.3857 9.03075 17.7324 8.88134 18.1591C8.458 18.4257 8.13427 18.3991 7.91015 17.9191Z" fill="#AF68DE"/>
<path d="M6.56544 17.8359C6.81446 18.0759 6.83935 18.2626 6.49072 18.3693C6.19189 18.4493 5.84326 18.3159 5.61914 18.6626C5.44482 18.7959 5.29541 18.7959 5.12109 18.6626C5.1958 18.5026 5.29541 18.3426 5.37012 18.1826C5.61914 18.0759 5.94288 18.1826 6.1421 17.8893C6.26661 17.8626 6.41602 17.8359 6.56544 17.8359Z" fill="#5814A3"/>
<path d="M5.09716 18.6653C5.27147 18.6653 5.42089 18.6653 5.5952 18.6653C6.01854 18.7186 6.49168 18.4786 6.84032 18.9319C6.6411 19.1986 6.34228 19.2519 6.06835 19.3319C5.34619 19.8386 4.69872 20.4786 3.85204 20.7186C3.65282 20.7453 3.50341 20.6919 3.354 20.5319C3.10497 20.5319 2.85596 20.5319 2.58203 20.5053C2.60693 20.3186 2.63182 20.1586 2.63182 19.9719C3.4785 20.0253 4.20068 19.8386 4.57421 18.9053C4.69873 18.6919 4.89794 18.6653 5.09716 18.6653Z" fill="#5707AB"/>
<path d="M10.3271 14.6647C10.2524 14.6647 10.1528 14.6647 10.0781 14.6647C10.3022 14.2647 10.352 13.838 10.352 13.3847C10.5015 13.358 10.6509 13.3314 10.8252 13.3047L10.8501 13.3314C11.1987 14.3714 11.1489 14.5314 10.3271 14.6647Z" fill="#931BE3"/>
<path d="M10.3262 14.6704C11.0981 14.4837 10.7246 13.8171 10.8242 13.3371C11.6958 13.0437 11.1479 12.2704 11.3223 11.7371C11.4966 11.5771 11.6709 11.577 11.8701 11.6837C12.1938 12.137 12.2685 12.6704 12.2685 13.2037C12.2685 13.5771 12.0444 14.0037 12.5176 14.217C12.8911 14.377 13.2397 14.2437 13.5386 14.0037C13.8623 13.7637 14.0366 13.3104 14.435 13.1237C14.7588 13.0171 15.0576 13.0437 15.3315 13.3104C15.3315 13.7637 15.3315 14.1904 15.3315 14.6437C14.8335 15.0971 14.2856 15.2304 13.6382 15.2037C13.2397 15.1771 12.6919 14.9904 12.5923 15.7104C12.1689 15.7104 11.7705 15.7104 11.3472 15.7104C11.0234 15.7904 10.6748 16.0304 10.3511 15.7104C10.3262 15.3637 10.3262 15.0171 10.3262 14.6704Z" fill="#9708F6"/>
<path d="M11.8203 11.7307C11.646 11.7307 11.4966 11.7307 11.3223 11.7307C11.3472 11.4907 11.3721 11.2241 11.3721 10.9841C11.5215 10.8774 11.6709 10.7707 11.8203 10.6641C12.5923 11.0374 12.2437 11.3841 11.8203 11.7307Z" fill="#9110DD"/>
<path d="M11.8219 11.7301C11.9464 11.3834 12.2701 11.0367 11.8468 10.6634C11.9215 10.5834 11.9962 10.4767 12.0709 10.3967C12.2951 10.2901 12.0958 9.7034 12.569 9.8634C12.569 9.99674 12.5939 10.1301 12.569 10.2634C12.4196 11.3034 12.7682 11.4901 13.5651 10.9301C13.9137 10.9567 14.1129 11.1167 14.0133 11.5167C13.8888 11.9434 13.9884 12.2634 14.3121 12.5301C14.3619 12.7701 14.2374 12.9301 14.088 13.0634C13.4655 13.5701 12.818 13.9434 12.0709 13.3301C11.9713 12.7967 11.7223 12.2901 11.8219 11.7301Z" fill="#9B0AF2"/>
<path d="M12.543 9.86708C12.3687 10.0537 12.2192 10.2137 12.0449 10.4004C12.0698 9.89375 11.9702 9.33375 12.543 9.09375C12.5679 9.33375 12.543 9.60042 12.543 9.86708Z" fill="#9C2CDB"/>
<path d="M17.5235 25.5732C17.5484 26.1065 17.3242 26.6398 17.5235 27.1732C16.2783 27.1732 15.0332 27.1732 13.7881 27.1732C13.7134 26.9865 13.7383 26.7998 13.8628 26.7198C14.5352 26.2665 14.7842 25.7598 14.1865 25.0398C14.1367 24.9598 14.2364 24.7998 14.3111 24.6932C14.4854 24.6132 14.6597 24.6132 14.8091 24.7732C15.7305 24.7732 16.627 24.7732 17.5484 24.7732C17.7227 25.0398 17.7227 25.3065 17.5235 25.5732Z" fill="#6B03BA"/>
<path d="M8.83203 27.1683C8.90674 26.395 9.67871 26.4217 10.0273 26.2883C10.8242 25.9683 10.8491 25.4617 10.7993 24.795C10.9487 24.635 11.123 24.635 11.2974 24.6617C11.4468 24.715 11.5713 24.8483 11.7456 24.9017C13.3144 25.355 13.3144 25.355 13.0405 27.195C11.646 27.1683 10.2266 27.1683 8.83203 27.1683Z" fill="#6303B6"/>
<path d="M13.0659 27.1794C13.1655 26.7794 12.4683 26.6194 12.792 26.166C13.3399 25.3394 12.8169 25.3394 12.269 25.3127C11.8706 25.3127 11.4224 25.4194 11.3477 24.7794C12.3437 24.2194 13.3398 24.2194 14.3359 24.7794C15.1826 25.8727 15.1826 25.8727 13.8379 27.1794C13.564 27.1794 13.3149 27.1794 13.0659 27.1794Z" fill="#6803BA"/>
<path d="M5.84424 18.9297C6.16797 18.9297 6.5166 18.9297 6.84033 18.9297C6.98974 18.9297 7.11426 18.9297 7.26367 18.9297C7.46289 19.0364 7.46289 19.223 7.43799 19.4097C6.64112 19.943 6.21778 20.6364 6.56641 21.6764C6.64112 21.9164 6.5415 22.183 6.36718 22.3697C6.04345 22.3697 5.86913 22.5564 5.86913 22.903C5.29638 22.903 4.69873 22.903 4.12597 22.903C3.92676 22.263 3.37891 22.103 2.88086 21.8364C3.05518 21.383 3.20459 20.9564 3.37891 20.503C3.55322 20.503 3.70263 20.503 3.87695 20.503C5.02246 20.6897 5.62012 20.103 5.84424 18.9297Z" fill="#5A02B7"/>
<path d="M6.34139 22.3786C6.5157 21.5786 5.69392 20.8853 6.29158 19.9786C6.59041 19.5253 6.86434 19.472 7.26277 19.4453C7.46199 19.5253 7.5367 19.6853 7.56161 19.8986C7.58651 20.5386 7.06356 21.0453 7.13826 21.712C7.11336 21.8986 7.06355 22.0853 6.98884 22.2453C6.93904 22.2986 6.88923 22.3253 6.86433 22.3786C6.66511 22.3786 6.5157 22.3786 6.34139 22.3786Z" fill="#6301BE"/>
<path d="M9.58019 24.2417C9.40588 24.2417 9.25646 24.2417 9.08215 24.2417C8.90783 23.335 8.13586 23.7083 7.66272 23.5483C7.01526 23.335 6.76624 23.0417 6.84094 22.375C7.91174 22.5083 8.98253 22.6683 9.7296 23.655C9.7545 23.8683 9.70471 24.0817 9.58019 24.2417Z" fill="#6301BE"/>
<path d="M14.2851 24.7704C13.2891 24.7704 12.293 24.7704 11.2969 24.7704C11.1226 24.7704 10.9731 24.7704 10.7988 24.7704C10.7988 24.5838 10.7988 24.4238 10.7988 24.2371C10.8486 24.1838 10.8984 24.1304 10.9482 24.0771C11.272 23.8904 11.6455 23.8904 11.9941 23.8637C12.9155 23.9437 13.9116 23.5438 14.7583 24.2371C14.7583 24.4238 14.7583 24.5838 14.7583 24.7704C14.6338 24.7704 14.4595 24.7704 14.2851 24.7704Z" fill="#6800C1"/>
<path d="M9.58008 24.2349C9.58008 24.0483 9.58008 23.8883 9.58008 23.7016C10.1777 23.3549 10.6509 23.4083 10.8252 24.2349C10.4019 24.2349 9.97851 24.2349 9.58008 24.2349Z" fill="#6800C1"/>
<path d="M23.7498 21.8438C24.0735 21.8438 24.2479 22.0304 24.2479 22.3771C24.2479 22.5638 24.2479 22.7238 24.2479 22.9104C24.4471 23.1771 24.472 23.4438 24.2479 23.7104C23.2518 24.1904 23.9739 25.1504 23.7498 25.8438C23.5755 25.8438 23.4261 25.8438 23.2518 25.8438C22.9529 25.6838 23.0526 25.1504 22.6292 25.0704C22.8284 25.4171 23.1273 25.7104 22.7537 26.1104C22.5296 25.9771 22.2806 25.3904 22.0564 26.0838C21.9319 26.4838 21.7327 26.6971 21.3343 26.6438C20.6619 26.5371 19.8152 27.0438 19.367 26.3238C18.9188 25.6304 19.4666 24.9104 19.7654 24.2704C20.388 23.7638 21.16 23.5771 21.8572 23.2571C22.5794 22.9104 23.2767 22.5638 23.7498 21.8438Z" fill="#7503BB"/>
<path d="M22.7529 26.1037C22.8774 25.1704 22.0806 25.3571 21.5078 25.1971C22.7778 24.4771 23.1016 24.6371 23.251 25.8371C23.1514 26.0504 22.9521 26.1037 22.7529 26.1037Z" fill="#7904BD"/>
<path d="M14.7853 24.2385C13.7892 24.2385 12.7931 24.2385 11.797 24.2385C11.6476 24.0518 11.6476 23.8384 11.7721 23.6251C12.4694 23.1184 13.1916 22.7718 14.0631 22.9318C15.5822 23.4384 17.151 23.2784 18.695 23.0651C19.1681 23.0918 19.6163 23.0384 20.0397 22.7984C20.1393 22.7451 20.2638 22.6918 20.3883 22.6651C20.6373 22.6118 20.8615 22.5851 21.1105 22.6384C21.3097 22.6918 21.4591 22.7718 21.5587 22.9584C21.2101 23.6518 20.5626 23.8118 19.9401 23.9185C19.5416 23.9985 19.1183 23.9718 18.7697 24.2118C17.4499 24.2384 16.13 24.2385 14.7853 24.2385Z" fill="#7D04D6"/>
<path d="M18.7676 24.2354C19.5146 23.3821 20.7847 23.7821 21.5068 22.9021C21.6313 22.5821 21.8804 22.3688 22.1294 22.1821C22.3535 22.0488 22.5278 21.8887 22.7021 21.6754C23.0259 21.3287 22.9263 20.8488 23.001 20.4221C23.0508 20.2354 23.1255 20.1021 23.25 19.9688C24.1714 20.3688 23.5737 21.2221 23.748 21.8354C23.8227 22.5021 23.5488 22.7421 22.9512 23.0087C21.9053 23.4621 20.9341 24.1021 19.7637 24.2354C19.4399 24.2354 19.0913 24.2354 18.7676 24.2354Z" fill="#7603C2"/>
<path d="M17.5234 25.5734C17.5234 25.3068 17.5234 25.0401 17.5234 24.7734C17.7227 24.8001 17.9468 24.8268 17.9717 25.1201C18.0215 25.4668 17.7725 25.5468 17.5234 25.5734Z" fill="#6D04B8"/>
<path d="M2.85547 21.8455C3.57764 21.7922 4.25 21.7922 4.10058 22.9122C3.62744 22.6455 3.05469 22.5122 2.85547 21.8455Z" fill="#5B04B3"/>
<path d="M27.9816 23.7083C27.8571 23.2283 27.3341 22.6417 28.2306 22.375C28.1559 22.8283 28.38 23.335 27.9816 23.7083Z" fill="#7F06BE"/>
<path d="M27.2344 24.7698C27.2842 24.3431 27.0601 23.7831 27.7324 23.7031C27.6826 24.1298 27.5581 24.5031 27.2344 24.7698Z" fill="#7C08B7"/>
<path d="M25.4913 21.8391C25.5411 21.4124 25.317 20.9058 25.7154 20.6124C25.9645 20.4258 26.2633 20.5058 26.5123 20.7191C26.7364 20.9058 26.9855 21.1458 26.9108 21.4924C26.836 21.8924 26.4874 21.8391 26.2135 21.8391C25.9894 21.8658 25.7404 21.8391 25.4913 21.8391Z" fill="#7B04C0"/>
<path d="M24.2461 23.7063C24.2461 23.4396 24.2461 23.1729 24.2461 22.9063C24.7192 23.0129 25.4912 22.5862 25.4912 23.6262C25.4912 24.3729 24.8935 24.2396 24.52 24.2929C24.1714 24.3462 24.271 23.9463 24.2461 23.7063Z" fill="#7D02BF"/>
<path d="M5.09622 7.20341C5.02152 6.59007 5.918 6.75007 5.84329 6.13674C6.14212 5.87007 6.46586 5.81674 6.81449 6.03007C6.9888 6.21674 6.9888 6.43007 6.939 6.6434C6.59037 7.15007 6.26663 7.63007 5.59427 7.17674C5.41995 7.20341 5.27054 7.20341 5.09622 7.20341Z" fill="#FE9B9D"/>
<path d="M5.5957 7.1924C6.14355 7.37906 6.36767 6.68573 6.84082 6.65906C7.01513 6.49906 7.21435 6.49906 7.38867 6.65906C7.36377 7.8324 6.56689 7.69906 5.84473 7.72573C5.77002 7.72573 5.67041 7.72573 5.5957 7.72573C5.5957 7.53906 5.5957 7.37906 5.5957 7.1924Z" fill="#FE9E90"/>
<path d="M5.84375 7.73139C6.31689 7.33139 7.18847 7.57139 7.33789 6.66472C7.41259 6.18472 7.53711 5.83806 8.08496 6.13139C8.40869 6.13139 8.75732 6.13139 9.08105 6.13139C8.13476 7.11806 6.96435 7.78473 5.84375 8.53139C5.84375 8.26473 5.84375 7.99806 5.84375 7.73139Z" fill="#FAA68A"/>
<path d="M6.83984 6.1349C6.51611 6.1349 6.16748 6.1349 5.84375 6.1349C5.84375 5.78823 6.01807 5.60156 6.3418 5.60156C6.66553 5.60156 7.01416 5.60156 7.33789 5.60156C7.53711 6.18823 7.36279 6.34823 6.83984 6.1349Z" fill="#FA98A8"/>
<path d="M19.0181 23.4401C17.5488 23.4401 16.0547 24.0268 14.5854 23.4401C14.4111 23.3601 14.2368 23.2534 14.0625 23.1734C14.0874 23.1201 14.1372 23.0668 14.1621 23.0401C14.6353 22.8001 15.0337 22.4534 15.4819 22.1868C16.0298 21.9734 16.6274 22.0268 17.1753 22.0534C18.1465 22.1068 19.043 21.9468 19.8647 21.4134C19.9643 21.3334 20.064 21.2801 20.1636 21.2001C20.4375 21.0668 20.7114 21.0134 20.9853 21.0401C21.5083 21.1201 21.9814 20.8534 22.4795 20.7734C22.6289 20.9068 22.7036 21.1201 22.7036 21.3334C22.6787 21.6001 22.5791 21.8401 22.355 22.0001C21.8818 22.0801 21.583 22.5334 21.1098 22.6134C20.811 22.6401 20.4624 22.5868 20.2134 22.9068C19.8647 23.1468 19.3667 23.1201 19.0181 23.4401Z" fill="#8604E9"/>
<path d="M21.0098 20.501C21.0098 20.581 21.0098 20.661 21.0098 20.7677C20.8354 21.061 20.4868 21.1144 20.2627 21.301C19.8643 21.6744 19.416 21.621 18.9678 21.4877C18.8433 21.4344 18.7686 21.3277 18.7188 21.1944C18.7188 20.9544 18.8682 20.8744 19.0425 20.7944C19.3662 20.7144 19.665 20.581 19.939 20.3677C20.0386 20.3144 20.1382 20.2877 20.2378 20.261C20.3374 20.2344 20.4619 20.2344 20.5615 20.2344C20.7358 20.2877 20.8853 20.3677 21.0098 20.501Z" fill="#9A41E4"/>
<path d="M22.5039 21.3116C22.5039 21.1249 22.5039 20.9649 22.5039 20.7782C22.5039 20.6982 22.5039 20.5916 22.5039 20.5116C22.7529 20.2982 23.002 20.2982 23.251 20.5116C23.1514 20.9916 23.5498 21.6582 22.7529 21.8449C22.5786 21.7382 22.6782 21.4449 22.5039 21.3116Z" fill="#7C03D2"/>
<path d="M21.0095 20.5024C20.8351 20.5024 20.6857 20.5024 20.5114 20.4757C20.4616 19.5157 20.9347 19.6491 21.4826 19.9424L21.5075 19.9691C21.4826 20.3424 21.3083 20.5024 21.0095 20.5024Z" fill="#B971F1"/>
<path d="M23.251 20.5333C23.002 20.5333 22.7529 20.5333 22.5039 20.5333C22.5039 20.32 22.5537 20.1067 22.7529 20C22.9272 20 23.0767 20 23.251 20C23.251 20.16 23.251 20.3467 23.251 20.5333Z" fill="#7B04C8"/>
<path d="M20.2617 21.3068C20.4111 20.9601 20.6602 20.8001 21.0088 20.7734C21.0088 20.8801 21.0088 20.9601 21.0088 21.0668C20.8345 21.3601 20.5356 21.3068 20.2617 21.3068Z" fill="#8512DD"/>
<path d="M21.4839 19.9809C21.1103 20.0609 20.5874 19.8209 20.5127 20.5143L20.3882 20.5409H20.2637C19.9648 20.1409 19.6909 19.6876 19.666 19.1543C19.7905 18.8609 19.9898 18.7543 20.2637 18.9676C20.6621 18.8076 21.0854 18.6209 21.4839 18.4609C21.4839 18.9409 21.4839 19.4476 21.4839 19.9809Z" fill="#BD7CF1"/>
<path d="M20.2623 18.9101C20.0631 18.9101 19.8888 18.9635 19.7643 19.1768C19.3907 19.9235 18.7931 19.8168 18.1954 19.6568C17.7223 18.6168 18.7682 18.9368 19.0421 18.5635C19.1666 18.5101 19.2662 18.4568 19.3907 18.4301C19.6896 18.4035 20.0133 18.3768 20.2623 18.6435C20.2623 18.7501 20.2623 18.8301 20.2623 18.9101Z" fill="#AC51F4"/>
<path d="M20.2616 18.6395C19.9379 18.6395 19.6142 18.6661 19.2904 18.6661C19.1659 18.4795 19.141 18.3195 19.2904 18.1328C19.7138 18.1328 20.1371 18.1328 20.5355 18.1328C20.4359 18.2928 20.3363 18.4795 20.2616 18.6395Z" fill="#9125DC"/>
<path d="M19.2676 18.1303C19.2676 18.317 19.2676 18.477 19.2676 18.6636C17.9976 19.0103 16.8022 19.8103 15.4077 19.517C15.0591 19.437 14.6855 19.357 14.6855 18.8503C14.7104 18.7703 14.7603 18.717 14.7852 18.637C15.9805 18.557 17.2505 19.037 18.1968 17.7303C18.3462 17.517 18.894 17.6236 19.2676 17.5703C19.2676 17.757 19.2676 17.9436 19.2676 18.1303Z" fill="#8C0AE8"/>
<path d="M8.83298 18.1057C8.65866 17.7857 8.45944 17.4657 8.63376 17.0391C8.78317 17.0391 8.93259 17.0391 9.082 17.0657C9.43063 17.4124 10.0034 17.1457 10.3271 17.5991C11.2485 17.5991 12.145 17.5991 13.0664 17.5991C13.2158 17.7857 13.2158 17.9991 13.0913 18.2124C12.9917 18.3191 12.8671 18.3724 12.7177 18.4257C11.5971 18.5591 10.5014 18.5324 9.38083 18.4524C9.15671 18.3991 8.98239 18.2924 8.83298 18.1057Z" fill="#860CD9"/>
<path d="M10.3259 15.7306C10.6496 15.8373 10.9982 15.2506 11.322 15.7306C11.4216 16.2106 10.4753 16.4506 11.0481 17.0639C11.1228 17.1439 11.048 17.2506 10.3259 17.3306C9.87764 16.7973 10.1516 16.2639 10.3259 15.7306Z" fill="#9308F8"/>
<path d="M10.3271 15.7344C10.3271 16.2677 10.3271 16.801 10.3271 17.3344C10.3271 17.4144 10.3271 17.521 10.3271 17.601C9.854 17.601 9.33105 17.7077 9.08203 17.0677C9.7793 16.9344 9.8291 16.081 10.3271 15.7344Z" fill="#8E04F3"/>
<path d="M13.0664 18.1027C13.0664 17.9427 13.0664 17.756 13.0664 17.596C13.8633 17.516 14.5605 17.676 14.8096 18.6627C14.0376 19.0893 13.5894 18.476 13.0664 18.1027Z" fill="#8F06E7"/>
<path d="M12.543 15.7109C12.9165 15.7909 13.3647 15.5509 13.6636 16.1376C13.1655 16.2709 12.7173 16.4576 12.543 15.7109Z" fill="#9708F6"/>
<path d="M6.83984 6.12813C7.16357 6.12813 7.33789 5.94146 7.33789 5.59479C7.66162 5.51479 8.01025 5.40813 8.33398 5.32812C8.25927 5.59479 8.15967 5.86146 8.08496 6.12813C7.71142 6.07479 7.58691 6.50146 7.33789 6.66146C7.16357 6.66146 7.01416 6.66146 6.83984 6.66146C6.83984 6.47479 6.83984 6.31479 6.83984 6.12813Z" fill="#FE9A9B"/>
<path d="M14.0367 12.7996C14.1114 12.7196 14.211 12.613 14.2857 12.533C14.3106 12.1596 14.4849 11.9996 14.8336 12.0263C15.3067 12.0796 15.2569 12.453 15.2569 12.7996C15.2569 12.9863 15.2569 13.1463 15.2569 13.333C14.9332 13.333 14.5846 13.333 14.2608 13.333C13.8873 13.333 13.8873 13.093 14.0367 12.7996Z" fill="#9E07F7"/>
<path d="M8.83303 18.1053C8.98244 18.132 9.13186 18.1587 9.25637 18.1853C9.48049 18.2653 9.6548 18.3987 9.85401 18.5587C10.3272 18.9853 10.7505 19.4387 10.7505 20.1587C10.7256 20.372 10.6758 20.5587 10.5015 20.692C10.0781 20.932 9.62991 20.9053 9.18166 20.8786C8.60891 20.7986 8.16067 20.3987 7.63772 20.1853C7.53811 20.1053 7.4634 19.9986 7.4634 19.8386C7.4883 19.3586 7.36379 18.8787 7.5381 18.4253C7.66262 18.2653 7.78713 18.1053 7.91164 17.9453C8.18556 18.1586 8.5093 18.132 8.83303 18.1053Z" fill="#F5DBF9"/>
<path d="M7.5625 18.3984C7.5874 18.9051 7.58739 19.4384 7.61229 19.9451C7.53759 20.0518 7.43798 20.0784 7.33838 19.9984C7.31347 19.8118 7.28857 19.6251 7.26367 19.4384C7.26367 19.2518 7.26367 19.0918 7.26367 18.9051C7.31348 18.7184 7.33838 18.4784 7.5625 18.3984Z" fill="#812CCB"/>
<path d="M5.84375 18.9297C5.74414 19.6497 5.64452 20.3697 5.49511 21.463C5.14648 20.263 4.32471 21.0364 3.85156 20.5297C4.47412 19.9164 5.3457 19.703 5.84375 18.9297Z" fill="#5804B3"/>
<path d="M14.0378 12.7969C14.0378 13.0102 14.0876 13.2235 14.2868 13.3302C14.0876 14.1835 13.6144 14.6635 12.7677 14.6635C11.7467 14.6902 11.5475 14.2369 12.0705 13.3302C12.7926 13.4635 13.4401 13.1969 14.0378 12.7969Z" fill="#9907F4"/>
<path d="M11.8203 23.705C11.8203 23.8917 11.8203 24.0517 11.8203 24.2383C11.4966 24.2383 11.1479 24.2383 10.8242 24.2383C10.5005 23.8117 10.0771 23.6783 9.5791 23.705C8.78222 22.985 7.63672 23.0917 6.83984 22.3717C6.83984 22.185 6.83984 22.025 6.83984 21.8383C6.96436 21.705 7.11377 21.625 7.31299 21.625C7.4375 21.625 7.53711 21.6517 7.63672 21.705C7.98535 21.9183 8.33398 22.0783 8.65771 22.265C8.95654 22.5583 9.35497 22.6117 9.70361 22.7717C10.3262 23.305 11.2974 22.905 11.8203 23.705Z" fill="#6D00CE"/>
<path d="M7.33771 21.8386C7.1634 21.8386 7.01398 21.8386 6.83967 21.8386C6.66535 21.1186 7.06379 20.5853 7.31282 19.9986C7.41243 19.972 7.51203 19.972 7.58673 19.9453C7.83576 20.3986 8.65753 20.292 8.58283 21.0653C8.23419 21.4386 7.63654 21.3586 7.33771 21.8386Z" fill="#7D0DD5"/>
<path d="M11.8213 23.7065C11.1489 23.1998 10.1279 23.8665 9.58008 22.9065C9.75439 22.6398 10.0283 22.4531 10.1777 22.1598C10.2524 22.0531 10.352 21.9998 10.4766 21.9731C10.6011 21.9465 10.7256 21.9465 10.8501 21.9731C11.7466 22.0531 12.6431 21.9998 13.5395 22.0265C13.8135 22.0531 14.0874 22.0798 14.3115 22.2665C14.6103 22.6665 14.4111 22.9331 14.0874 23.1731C13.2158 22.9865 12.6182 23.7865 11.8213 23.7065Z" fill="#7E0ACD"/>
<path d="M21.0105 22.3777C21.4836 22.351 21.7078 21.6577 22.2556 21.8444C22.405 22.031 22.405 22.191 22.2556 22.3777C22.0066 22.5377 21.907 22.9644 21.5085 22.911C21.3342 22.911 21.1848 22.911 21.0105 22.911C20.8611 22.751 20.8611 22.5644 21.0105 22.3777Z" fill="#8004DB"/>
<path d="M19.0176 23.443C19.2666 22.8297 19.7895 22.9097 20.2627 22.9097C19.939 23.3363 19.5156 23.4697 19.0176 23.443Z" fill="#8003D9"/>
<path d="M21.0088 22.375C21.0088 22.5617 21.0088 22.7217 21.0088 22.9083C20.7598 22.9083 20.5107 22.9083 20.2617 22.9083C20.2866 22.375 20.6602 22.375 21.0088 22.375Z" fill="#8402E5"/>
<path d="M22.2539 22.3714C22.2539 22.1847 22.2539 22.0247 22.2539 21.838C22.4531 21.7314 22.5029 21.518 22.5029 21.3047C22.7021 21.4114 22.752 21.6247 22.752 21.838C22.752 22.1847 22.5776 22.3714 22.2539 22.3714Z" fill="#7F02D4"/>
<path d="M18.7681 21.3047C19.2662 21.3047 19.7642 21.3047 20.2623 21.3047C19.7891 22.1047 19.0669 22.3447 18.2452 22.3714C17.274 22.398 16.2779 22.398 15.3067 22.398C15.2818 22.3447 15.232 22.2647 15.2071 22.2114C15.1822 21.9714 15.232 21.7847 15.4312 21.678C16.0538 21.4114 16.6763 21.5447 17.3238 21.518C17.772 21.518 18.2203 21.5714 18.6436 21.358C18.6685 21.3314 18.7183 21.3314 18.7681 21.3047Z" fill="#8512DD"/>
<path d="M14.0625 23.173C14.1372 22.9064 14.2368 22.6397 14.3115 22.3997C14.6353 22.053 14.959 22.1064 15.2827 22.373V22.3997C15.1333 23.1464 14.5854 23.1464 14.0625 23.173Z" fill="#7D04D6"/>
<path d="M18.0225 19.4385C18.6201 19.4652 19.2178 19.5452 19.7656 19.1719C20.189 19.5185 20.3384 19.9452 20.2637 20.5052C20.189 20.5319 20.1143 20.5319 20.0146 20.5319C19.8154 20.6919 19.5664 20.7452 19.3174 20.6919C19.1929 20.6385 19.0933 20.5852 18.9936 20.5319C18.1719 20.1052 17.2256 20.5585 16.4038 20.1852C16.2793 20.1052 16.2046 19.9985 16.1797 19.8385C16.6528 18.9319 17.3501 19.2785 18.0225 19.4385Z" fill="#C48CF8"/>
<path d="M17.4981 21.8096C16.7759 21.8363 16.0289 21.8629 15.3067 21.9163C14.9581 22.1296 14.6343 22.1829 14.3106 21.9163C14.211 21.4896 14.5098 21.4096 14.7838 21.3029C15.9791 21.4096 17.0748 20.7163 18.2452 20.7429C18.4693 20.7696 18.6436 20.8763 18.793 21.0629C18.793 21.1429 18.7681 21.2229 18.793 21.3296C18.4195 21.7029 17.8965 21.5963 17.4981 21.8096Z" fill="#C281FA"/>
<path d="M18.7938 21.06C18.6195 21.06 18.4452 21.06 18.2709 21.0333C18.2211 19.9933 18.744 20.26 19.267 20.5C19.4164 20.66 19.4164 20.8467 19.267 21.0067C19.1176 21.0333 18.9432 21.0333 18.7938 21.06Z" fill="#C48CF8"/>
<path d="M19.2656 21.0379C19.2656 20.8779 19.2656 20.6913 19.2656 20.5312C19.5146 20.5312 19.7637 20.5312 20.0127 20.5312C19.8633 20.8513 19.6392 21.0646 19.2656 21.0379Z" fill="#BD7CF1"/>
<path d="M18.0205 19.4424C17.4478 19.6291 16.6509 19.0691 16.2525 19.9757C16.0283 20.2957 15.7046 20.2958 15.3809 20.3224C15.1817 20.3224 15.0074 20.2957 14.8081 20.2424C14.6836 20.1891 14.584 20.1358 14.4844 20.0291C14.3848 19.8424 14.3848 19.6558 14.4595 19.4691C14.6836 19.1758 15.0572 19.4691 15.2813 19.2024C16.6509 19.4958 17.896 18.5891 19.2657 18.6691C18.9668 19.1491 18.3692 19.0424 18.0205 19.4424Z" fill="#8D1DE0"/>
<path d="M15.3076 19.1934C15.1084 19.5134 14.8096 19.4601 14.5356 19.4601C13.8633 19.8601 13.5146 19.1401 13.0166 18.9534C12.9419 18.8468 12.8921 18.7401 12.8672 18.6067C12.8672 18.4201 12.917 18.2334 13.0415 18.1001L13.0664 18.0734C13.7637 17.8601 14.1372 18.7134 14.7847 18.6334C14.8096 19.0067 14.9839 19.1667 15.3076 19.1934Z" fill="#8E11CE"/>
<path d="M13.0415 18.1328C13.0415 18.3195 13.0415 18.5061 13.0415 18.6928C12.3691 19.2528 11.5972 19.0128 10.875 19.0395C10.4268 18.9861 10.0034 18.8795 9.60498 18.6661C9.50537 18.5061 9.38086 18.3461 9.28125 18.1861C10.5264 18.1595 11.7964 18.1328 13.0415 18.1328Z" fill="#8C31BD"/>
<path d="M10.5013 20.5089C10.5262 20.3222 10.5511 20.1355 10.576 19.9489C10.6757 19.7889 10.7504 19.6022 10.8998 19.4689C11.2484 19.2289 11.597 19.1489 11.9457 19.4689C12.0702 19.6555 12.12 19.8422 12.1449 20.0555C12.1449 20.5889 12.0951 21.0955 11.5472 21.2822C11.348 21.3355 11.1488 21.3355 10.9496 21.2822C10.7504 21.2289 10.601 21.0955 10.5013 20.8822C10.4266 20.7755 10.4266 20.6422 10.5013 20.5089Z" fill="#FEDD82"/>
<path d="M8.58281 21.0446C8.35868 20.5912 7.56181 20.6979 7.61161 19.9512C8.23417 19.7379 8.533 20.5112 9.08085 20.5379C9.28007 20.6979 9.6785 20.6179 9.7283 21.0179C9.7283 21.1512 9.70341 21.2579 9.6287 21.3646C9.47929 21.4712 9.30497 21.4979 9.13066 21.4712C8.88164 21.4179 8.68241 21.2846 8.58281 21.0446Z" fill="#812CCB"/>
<path d="M10.8237 19.7073C10.749 19.7873 10.6494 19.8673 10.5747 19.9473C10.4004 19.3873 9.97705 19.0406 9.60352 18.6406C10.002 18.6673 10.4004 18.7206 10.7988 18.7473C11.1226 19.0673 11.023 19.3873 10.8237 19.7073Z" fill="#D592D7"/>
<path d="M9.58008 21.1212C9.40576 20.9345 9.25635 20.7478 9.08203 20.5611C9.55517 20.5345 10.0283 20.5345 10.5015 20.5078C10.5264 20.6145 10.5264 20.6945 10.5513 20.8011C10.4517 21.1478 10.2275 21.2811 9.87891 21.2811C9.7793 21.2278 9.65478 21.1745 9.58008 21.1212Z" fill="#E9A7D5"/>
<path d="M9.08203 21.3047C9.23144 21.3047 9.40577 21.3047 9.55518 21.3047C9.70459 21.3847 9.77929 21.5447 9.85399 21.7047C9.9536 21.9714 10.1279 22.1847 10.3271 22.3714C10.3022 22.9047 9.95361 22.9047 9.58008 22.9047C9.18164 22.8514 8.65869 23.0914 8.58398 22.3714C8.65869 22.1314 8.7832 21.918 8.83301 21.678C8.88281 21.5447 8.95752 21.4114 9.08203 21.3047Z" fill="#870FDC"/>
<path d="M9.08212 21.8736C9.08212 22.2203 8.90781 22.407 8.58408 22.407C8.16074 22.4336 7.7872 22.3536 7.58799 21.8736C7.33896 21.3936 7.58798 21.2603 7.98642 21.207C8.50937 21.1003 8.8082 21.447 9.08212 21.8736Z" fill="#8907ED"/>
<path d="M9.08139 21.8706C8.58335 21.9506 8.0853 20.5906 7.58725 21.8706C7.51255 21.8706 7.41294 21.8706 7.33823 21.8706C7.28843 20.7773 8.0604 21.1506 8.58335 21.0706C8.78256 21.0706 8.98178 21.1239 9.08139 21.3373C9.08139 21.4973 9.08139 21.6839 9.08139 21.8706Z" fill="#8309E1"/>
<path d="M13.5635 22.3809C12.5923 22.3542 11.5713 22.6742 10.625 22.0876C10.7495 21.6876 11.0732 21.6076 11.4219 21.5542C11.9448 21.5276 12.4678 21.5009 13.0156 21.5542C13.2148 21.5809 13.4141 21.6609 13.5635 21.7942C13.688 21.9809 13.7129 22.1942 13.5635 22.3809Z" fill="#D77DA7"/>
<path d="M13.5645 22.3717C13.5645 22.2117 13.5645 22.025 13.5645 21.865C13.6641 21.705 13.8384 21.6517 14.0127 21.625C14.1372 21.625 14.2368 21.6783 14.3115 21.7583C14.6353 21.8117 14.959 21.8383 15.2827 21.8917C15.2827 22.0517 15.2578 22.2117 15.2578 22.345C14.9341 22.345 14.6104 22.3717 14.2866 22.3717C14.0625 22.3983 13.8135 22.3717 13.5645 22.3717Z" fill="#A13CC9"/>
<path d="M11.3227 21.818C11.0986 21.898 10.8745 21.978 10.6255 22.0847C10.5259 22.0847 10.4263 22.058 10.3267 22.058C10.227 22.0047 10.1523 21.9514 10.0776 21.8447C9.95312 21.6047 9.67919 21.418 9.82861 21.098C10.0527 20.9914 10.3017 20.8847 10.5259 20.8047C10.6255 20.9114 10.7002 20.9914 10.7998 21.098C10.9741 21.3114 11.4224 21.3647 11.3227 21.818Z" fill="#E197A0"/>
<path d="M10.3271 21.8354C10.352 21.8887 10.352 21.9687 10.352 22.022C10.352 22.1287 10.3271 22.2354 10.3271 22.3687C9.95361 22.3687 9.60498 22.3687 9.58008 21.8087C9.8291 21.622 10.0781 21.622 10.3271 21.8354Z" fill="#810AC9"/>
<path d="M17.498 21.8195C17.8716 21.4728 18.27 21.2595 18.7681 21.3128C18.5938 22.1928 17.9712 21.7662 17.498 21.8195Z" fill="#9A41E4"/>
<path d="M19.267 20.5077C18.8685 20.561 18.3705 20.3477 18.2709 21.041C17.1005 21.0677 16.0048 21.841 14.7845 21.5744C14.7098 21.4677 14.7098 21.361 14.7845 21.2544C15.4071 20.9077 16.1542 20.801 16.5028 20.0277C17.1503 20.0277 17.7977 20.001 18.4452 20.001C18.8187 19.9744 19.2172 19.9744 19.267 20.5077Z" fill="#CD9BF9"/>
<path d="M16.5017 20.0221C16.6262 21.5154 15.5554 21.1688 14.7835 21.3288C14.7087 21.2221 14.7087 21.1154 14.7336 21.0087C14.9329 20.6887 15.0076 20.2888 15.2815 20.0221C15.6052 19.9954 15.9289 19.9954 16.2527 19.9688C16.3523 19.9687 16.427 19.9954 16.5017 20.0221Z" fill="#D5B1FA"/>
<path d="M14.7842 21.0664C14.7842 21.1464 14.7842 21.2531 14.7842 21.3331C14.7842 21.4131 14.7842 21.5198 14.7842 21.5998C14.6348 21.6798 14.4604 21.7331 14.311 21.8131C14.2363 21.8131 14.1367 21.7864 14.062 21.7864C13.8379 21.5998 13.7632 21.3064 13.7383 21.0131C13.7383 20.6398 13.7383 20.2664 13.9873 19.9731C14.1865 19.8398 14.3857 19.8664 14.5601 19.9731C14.6348 19.9731 14.7095 19.9998 14.7842 20.0264C15.0581 20.3464 15.0581 20.7198 14.7842 21.0664Z" fill="#E7AADF"/>
<path d="M14.5851 19.9422C14.4107 19.9689 14.2364 19.9689 14.0621 19.9956C13.6139 20.3156 13.3897 19.8889 13.0909 19.6489C13.0162 19.5689 12.9664 19.4622 12.9166 19.3556C12.8917 19.1689 12.9166 19.0089 13.066 18.8756C13.6886 18.6356 13.9376 19.5689 14.5104 19.4622C14.5353 19.6222 14.5602 19.7822 14.5851 19.9422Z" fill="#CE7597"/>
<path d="M14.7832 21.0712C14.7832 20.7246 14.7832 20.3779 14.8081 20.0312C14.9575 20.0312 15.1318 20.0312 15.2812 20.0312C15.2563 20.4313 15.4556 20.9646 14.7832 21.0712Z" fill="#E2B5FE"/>
<path d="M13.0664 18.8783C13.0664 19.0649 13.0664 19.2516 13.0415 19.4383C12.6182 19.865 12.2197 19.785 11.7964 19.4383C11.4478 19.385 11.124 19.5183 10.8003 19.6783C10.8003 19.3583 10.7754 19.0383 10.7754 18.7183C11.5225 18.4783 12.2695 18.6916 13.0166 18.6383C13.0664 18.745 13.0664 18.8249 13.0664 18.8783Z" fill="#E1939C"/>
<path d="M11.3223 21.0599C11.9946 20.9533 11.7705 20.4199 11.8203 19.9933C12.2187 19.6733 12.667 19.6733 13.0903 19.9133C13.3642 20.2866 13.3643 20.6599 13.165 21.0599C12.5425 21.3533 11.9199 22.0733 11.3223 21.0599Z" fill="#FAD892"/>
<path d="M11.323 21.0688C11.8957 21.6555 12.4685 20.8021 13.0412 21.0688C13.1408 21.1488 13.1906 21.2288 13.2155 21.3621C13.2404 21.5488 13.1906 21.7088 13.0412 21.8421C12.4685 21.8421 11.8957 21.8421 11.323 21.8421C11.1486 21.6021 10.7751 21.4955 10.8 21.0955C10.9743 21.0688 11.1486 21.0688 11.323 21.0688Z" fill="#ECB4A0"/>
<path d="M13.0405 20.0021C12.6421 20.0021 12.2187 20.0021 11.8203 20.0021C11.8203 19.8154 11.8203 19.6554 11.8203 19.4688C12.2437 19.4688 12.6421 19.4688 13.0654 19.4688V19.4954C13.1899 19.6554 13.165 19.8154 13.0405 20.0021Z" fill="#F2BE94"/>
<path d="M10.3271 21.8436C10.0781 21.8436 9.82909 21.817 9.60497 21.817C9.60497 21.657 9.58008 21.497 9.58008 21.3103C9.58008 21.2303 9.60498 21.1503 9.58008 21.097C9.67969 21.097 9.75439 21.0703 9.854 21.0703C10.0283 21.337 10.4019 21.417 10.3271 21.8436Z" fill="#912BA9"/>
<path d="M13.041 21.8148C13.041 21.6548 13.041 21.4948 13.041 21.3081C13.3398 21.0148 13.6138 20.6948 14.0371 21.0415C14.0371 21.2815 14.0371 21.5215 14.062 21.7615C13.8877 21.7882 13.7383 21.8415 13.564 21.8681C13.3896 21.8415 13.2153 21.8415 13.041 21.8148Z" fill="#ECA68D"/>
<path d="M14.062 21.0679C13.7383 21.1479 13.3896 21.2545 13.0659 21.3345C13.0659 21.2545 13.0659 21.1479 13.041 21.0679C13.041 20.7212 13.041 20.3479 13.041 20.0012C13.041 19.8145 13.041 19.6545 13.0659 19.4679C13.5142 19.3879 13.6387 20.0279 14.062 20.0012C14.062 20.3479 14.062 20.6945 14.062 21.0679Z" fill="#F1AF7E"/>
</svg>
