<svg width="31" height="28" viewBox="0 0 31 28" fill="none" xmlns="http://www.w3.org/2000/svg">
<path d="M9.51504 27.0483C7.83591 26.946 6.15678 27.3551 4.53362 26.7926C1.56717 25.77 0 23.6225 0 20.4524C0 18.2026 2.12689 15.4416 4.75752 14.8791C7.33218 14.3167 8.00382 13.5497 7.50009 10.942C6.94038 8.12983 7.55605 5.1131 8.00382 2.24976C8.2277 0.715831 9.68294 0 11.53 0C16.6233 0.051131 21.7726 0 26.866 0C27.2018 0.409048 28.8809 0.30678 27.5936 1.43166C22.7801 2.1475 17.9666 1.58506 13.0972 1.73845C11.9218 1.78958 10.6345 1.53393 9.73892 2.55655C8.67547 4.80631 9.4031 7.20947 9.23518 9.51037C9.17921 10.533 9.17921 11.5045 9.23518 12.5271C9.4031 14.7769 8.50755 16.1063 5.93289 16.1574C5.42916 16.3619 4.86946 16.5153 4.42169 16.8221C0.727617 19.7877 0.895523 22.8555 4.86945 25.1564C9.12323 26.4859 12.1457 24.5429 12.2016 20.4524C12.2016 19.7877 12.1457 19.123 12.1457 18.4583C12.0897 16.7198 12.0337 15.0325 12.1457 13.2941C12.2016 10.9932 12.0897 8.69227 12.2016 6.44251C12.2576 5.98233 12.4255 5.52215 12.7613 5.1131C13.0412 4.90858 13.3211 4.75519 13.6569 4.65292C16.9032 4.29501 20.0935 4.4484 23.3398 4.65292C23.6757 4.75519 23.9555 4.85744 24.2354 5.06197C24.963 7.36286 26.2503 9.61263 24.4033 11.9647C23.8436 12.2714 23.2279 12.3226 22.6122 12.0669C21.9405 11.2488 22.8361 10.7375 23.004 10.0728C23.3398 8.74339 23.8995 7.36286 22.4443 6.23797C22.0525 6.23797 21.7167 6.23797 21.3249 6.23797C20.3734 6.64702 19.4778 6.64702 18.5263 6.23797C17.9666 6.23797 17.4069 6.23797 16.8472 6.23797C14.5524 7.1072 13.8808 8.23209 14.3845 11.0443C14.6084 12.2203 14.8882 13.3452 14.0487 14.4189C14.0487 15.2882 14.0487 16.1063 14.0487 16.9755C14.2166 19.3786 15.1121 21.8329 13.489 24.1338C13.321 24.2872 13.0972 24.4917 12.9292 24.6451C12.0337 25.6678 11.0263 26.6392 9.51504 27.0483Z" fill="#EFF8FD"/>
<path d="M22.333 6.13634C23.9002 7.46575 23.9002 9.97117 22.333 11.5562C22.1091 12.2721 21.3815 12.2721 20.8218 12.5277C18.1352 13.806 17.0158 15.4933 17.5195 18.0499C17.9113 19.8906 18.9748 21.3223 21.1576 21.7313C24.1801 22.2937 25.8592 21.5268 27.5383 18.9191C27.9301 18.2544 28.3219 17.5385 28.154 16.7205C27.2584 12.1698 27.6502 7.61915 28.042 3.11962C27.8182 2.50605 27.5943 1.84133 27.8182 1.17663C27.4823 0.818714 27.0905 0.409675 26.7547 0.0517578C30.6167 0.767592 30.7846 1.33002 29.7771 4.70467C29.1615 6.69878 29.1614 8.94855 29.8891 10.9938C31.0085 14.0617 29.6092 20.9643 27.2585 23.4698C26.7547 24.0322 26.3069 23.7254 25.8032 23.6743C24.348 23.572 22.8368 23.5209 21.3815 23.572C17.9673 23.6743 15.7285 21.7824 15.6165 18.8168C15.4486 15.1865 16.1202 12.3232 20.6539 11.0449C22.6688 10.3802 23.7323 8.33498 22.333 6.13634Z" fill="#FAFCFD"/>
<path d="M13.9929 14.3152C13.9929 12.4233 14.1608 10.4804 13.9369 8.58851C13.713 6.49214 14.7205 5.92971 16.7914 6.18537C16.2317 6.74781 15.5601 7.20798 15.1123 7.82155C14.4406 8.79304 14.0488 10.0713 14.9444 10.8894C15.672 11.5541 16.5675 10.5315 17.2952 10.1224C17.7989 9.81566 18.3026 9.7134 18.9743 10.2758C16.8474 11.2473 15.8399 13.1903 13.9929 14.3152Z" fill="#FAFCFD"/>
<path d="M13.4336 23.9796C14.2172 21.6276 13.9373 19.2244 13.9933 16.8213C15.6724 18.4064 13.7134 20.605 15.2246 22.3434C15.4485 22.6502 14.2172 23.5706 13.4336 23.9796Z" fill="#FAFCFD"/>
<path d="M9.51562 27.0478C10.635 26.1785 11.7545 25.3604 12.8739 24.4912C12.4261 26.0763 11.4186 27.0478 9.51562 27.0478Z" fill="#FAFCFD"/>
<path d="M18.4141 6.13574C19.3656 6.13574 20.2611 6.13574 21.2126 6.13574C20.3171 7.15836 19.3656 7.15836 18.4141 6.13574Z" fill="#FAFCFD"/>
<path d="M28.5448 2.45312C29.4403 4.19158 28.3769 5.87891 28.4888 7.61736C28.7127 10.6341 28.2649 13.6508 28.8806 16.6676C29.1045 17.639 28.8806 18.7128 27.9291 19.4286C27.7052 19.2752 27.5933 19.1218 27.4813 18.9173C27.2574 18.0992 27.8172 17.23 27.4813 16.4119C27.3694 16.1051 27.3134 15.7983 27.2575 15.4915C27.1455 14.878 26.8097 14.3666 26.306 13.9576C25.7462 13.3952 25.0746 12.9861 24.4029 12.5259C24.1231 12.3214 23.8992 12.0146 23.8432 11.6567C24.9626 9.45807 23.7313 7.31058 23.8432 5.16308C24.7388 3.93593 27.3134 5.16307 27.5933 3.0667C27.8731 2.75992 28.153 2.50426 28.5448 2.45312Z" fill="#58B4F7"/>
<path d="M12.8164 13.2931C12.8164 15.185 12.8164 17.0257 12.8724 18.9175C12.6485 19.0198 12.3686 19.0198 12.1447 18.8664C11.0253 18.0483 10.3537 16.6166 8.5626 16.5144C7.33124 16.361 5.93197 16.8212 4.98047 15.7474C5.37226 15.594 5.82002 15.2361 6.21182 15.2872C8.39468 15.4917 8.56259 14.3669 8.50662 12.7818C8.39468 9.9696 8.45065 7.20853 8.45065 4.39633C8.45065 3.57823 8.17081 2.709 8.9544 1.99316C9.17828 2.14656 9.34619 2.35109 9.45813 2.60674C9.68202 3.27145 9.68201 3.93614 9.68201 4.54971C9.68201 5.06102 9.68201 5.57233 9.68201 6.08364C9.68201 7.51531 9.62605 8.94698 10.0178 10.3786C10.2977 11.5547 10.9134 12.4239 12.2007 12.7307C12.4246 12.9352 12.5925 13.0886 12.8164 13.2931Z" fill="#78B0F8"/>
<path d="M27.8184 18.9195C27.8744 19.124 27.9303 19.2774 27.9863 19.4819C26.2512 22.243 24.0124 23.2145 20.878 22.4475C18.5272 21.8851 16.5682 19.4819 16.6242 17.0788C16.6242 14.2154 18.5832 12.3236 22.3892 11.5566C22.9489 11.6078 23.4526 11.6589 24.0124 11.71C24.2362 11.9146 24.4601 12.0679 24.684 12.2725C24.5161 12.477 24.3482 12.6304 24.0683 12.7326C21.3258 13.4485 18.5272 14.1643 18.7511 17.5901C18.975 18.5616 19.1429 19.5331 19.9265 20.2489C20.7661 21.0159 21.7735 21.3226 22.8929 21.3226C25.1318 21.5783 25.9714 19.3286 27.8184 18.9195Z" fill="#2785F2"/>
<path d="M23.4516 5.0114C20.0933 5.0114 16.7351 5.0114 13.3769 5.06253C11.9776 5.0114 10.6903 4.60236 10.9141 3.06843C11.0821 1.63676 12.4254 1.58563 13.6567 1.58563C14.5522 1.58563 15.5037 1.48336 16.3993 1.73902C16.903 2.04581 16.959 2.35259 16.5112 2.7105C16.2873 2.91503 15.9515 2.96617 15.6717 3.06843C15.9515 3.11956 16.2314 3.06843 16.5112 3.11956C18.4142 3.42635 20.3732 3.47747 22.2762 3.5286C22.724 3.57974 23.1158 3.73312 23.4516 3.93765C23.7314 4.24443 23.7874 4.60235 23.4516 5.0114Z" fill="#178BEF"/>
<path d="M16.791 2.04551C15.9514 2.04551 15.1119 1.99438 14.2723 2.04551C13.2648 2.09664 11.8096 1.63646 11.4178 2.91473C11.026 4.19301 12.5372 4.39753 13.3768 5.01111C13.2648 5.11337 13.1529 5.21563 12.985 5.21563C11.4738 5.88033 10.0185 6.18712 8.95508 4.55093C8.95508 3.88623 8.95508 3.22153 8.95508 2.60796C9.40284 1.78986 10.0185 1.27855 11.1379 1.32968C15.1119 1.32968 19.0858 1.32968 23.0597 1.32968C23.6194 1.32968 24.1791 1.43193 24.0112 2.14777C21.6045 3.01699 19.1977 3.27266 16.791 2.04551Z" fill="#2490F4"/>
<path d="M9.01104 4.5498C10.2424 5.41903 11.6976 4.95885 13.0409 5.2145C12.985 5.52129 12.929 5.82808 12.873 6.13487C12.2014 7.15749 12.873 8.28236 12.4253 9.30498C12.1454 10.0719 11.6417 10.6855 10.6342 10.5321C9.62673 10.3787 9.45882 9.56064 9.23493 8.84481C9.01105 7.97558 9.45882 7.0041 8.95508 6.13487C9.01105 5.62356 9.01104 5.06111 9.01104 4.5498Z" fill="#55B7F6"/>
<path d="M24.0665 1.99311C19.0292 1.4818 13.9358 0.612576 8.95441 2.55555C8.95441 2.35103 8.89844 2.1465 8.89844 1.99311C9.3462 1.22614 10.0738 0.919356 10.9693 0.919356C16.6224 0.970487 22.2195 0.561435 27.8725 1.12388C28.0964 1.53292 28.3203 1.9931 28.5442 2.40215C28.3203 2.60668 28.1524 2.81121 27.9285 3.01573C27.5927 3.01573 27.2569 2.91347 26.977 2.76007C26.3054 2.50442 25.6337 2.55555 24.9621 2.45329C24.6262 2.45329 24.2904 2.2999 24.0665 1.99311Z" fill="#55B7F6"/>
<path d="M12.3704 18.8662C12.5383 18.8662 12.7062 18.9173 12.8741 18.9173C13.21 24.3884 9.90767 27.4051 5.09418 26.0246C4.8703 25.9734 4.64643 25.7178 4.47852 25.5644C4.64643 25.3599 4.8703 25.2065 5.09418 25.1042C5.48598 25.0019 5.87778 24.9508 6.26957 24.8997C10.2995 24.6951 11.3069 21.9341 12.0905 19.0196C12.1465 18.9685 12.2584 18.9173 12.3704 18.8662Z" fill="#199BF6"/>
<path d="M5.0371 25.462C4.81322 25.462 4.6453 25.5132 4.42142 25.5132C-0.0562448 23.3145 -0.336095 18.9173 3.91769 16.3096C4.0856 16.463 4.2535 16.7186 4.30947 16.9231C3.86171 18.9173 2.12661 20.758 3.24603 22.9566C3.58185 23.9792 5.09307 24.2349 5.0371 25.462Z" fill="#287BEA"/>
<path d="M27.4258 2.50488C27.5937 2.70941 27.7616 2.8628 27.9855 3.06733C28.5452 4.44786 27.9855 5.11257 26.4183 5.11257C25.6347 5.11257 24.7951 5.1637 24.0115 5.1637C23.8436 5.1637 23.6757 5.11256 23.5078 5.0103C23.5078 4.70351 23.5078 4.39673 23.5078 4.08995C24.5713 3.16959 26.5862 4.08994 27.4258 2.50488Z" fill="#1293F4"/>
<path d="M12.3134 9.2036C12.4813 8.18098 11.8657 7.0561 12.8731 6.13574C12.8731 8.5389 12.8731 10.8909 12.8172 13.2941C12.6492 13.2941 12.4813 13.2941 12.3134 13.2941C11.0261 11.9135 11.7537 10.533 12.3134 9.2036Z" fill="#6CB1E9"/>
<path d="M3.91797 16.872C3.91797 16.7186 3.91797 16.514 3.91797 16.3606C4.25379 16.1561 4.58962 15.9516 4.98141 15.7471C6.49262 15.7982 7.94786 15.8493 9.45908 15.9005C7.94786 17.7923 5.93292 17.1787 3.91797 16.872Z" fill="#2378DF"/>
<path d="M19.5346 20.4524C17.8555 20.1968 18.695 18.6117 17.8555 17.8959C19.2547 15.4416 21.3816 13.652 24.0122 12.3226C24.2361 12.3226 24.4041 12.3226 24.6279 12.2715C25.7474 12.3226 26.363 12.9873 26.8668 13.7543C27.4265 14.5212 27.0907 15.186 26.6989 15.8507C24.1802 17.2312 22.6689 19.89 19.5346 20.4524Z" fill="#1889FB"/>
<path d="M27.8178 18.9163C26.5304 20.4502 25.355 22.0353 22.8923 21.933C22.5005 21.5751 21.549 21.7285 21.7169 20.8081C22.1087 18.6095 25.411 16.1552 27.9297 16.3086C28.9372 17.229 27.9297 18.0471 27.8178 18.9163Z" fill="#1897F7"/>
<path d="M27.9848 16.312C24.5706 16.312 23.843 19.1754 22.2198 21.0161C22.1639 21.1184 22.6676 21.6297 22.8915 21.9365C21.6041 21.7831 20.0929 21.9365 19.5332 20.4537C21.828 19.022 23.5631 16.8745 26.2497 15.8519C26.6975 15.4428 27.1452 14.9826 27.8729 15.3406C27.9288 15.6473 27.9288 16.0053 27.9848 16.312Z" fill="#1A91F9"/>
<path d="M27.8732 15.339C27.3135 15.4924 26.8097 15.6458 26.25 15.8503C26.4179 15.1344 26.6418 14.4697 26.8097 13.7539C27.5373 14.0607 27.9291 14.572 27.8732 15.339Z" fill="#1B90FA"/>
<path d="M3.91733 16.8738C5.65242 16.0046 7.72334 16.8227 9.45844 15.9023C10.8017 16.567 11.9771 17.3851 12.3689 18.8679L12.313 18.9191C11.8652 19.3281 11.3614 19.1236 10.9137 18.9702C9.06664 18.6634 7.89126 19.5326 6.99572 20.8109C6.04422 22.2426 4.86882 23.3675 2.85387 23.4697C1.23071 21.0154 2.74194 18.9702 3.91733 16.8738Z" fill="#1A87F9"/>
<path d="M12.3141 9.2036C12.3141 10.5841 12.3141 11.9135 12.3141 13.2941C10.579 13.4475 9.68347 12.9873 9.40362 11.1466C9.17973 9.45925 8.89987 7.82307 9.01181 6.13574C9.85138 6.80045 9.34764 7.72079 9.57152 8.53889C10.0753 10.1751 10.8589 10.7887 12.3141 9.2036Z" fill="#69B3F7"/>
<path d="M24.011 12.2715C23.955 13.243 23.3393 13.9077 22.4438 14.2145C20.9885 14.6746 19.4773 14.7769 20.149 16.9244C20.3729 17.7425 18.6378 17.4357 17.9102 17.8959C18.19 13.9077 19.7012 12.5271 24.011 12.2715Z" fill="#1984FD"/>
<path d="M24.0665 1.99316C24.4024 1.99316 24.7382 2.0443 25.13 2.0443C25.018 3.32257 23.8427 3.16918 23.0591 3.06692C21.7158 2.91353 22.7232 3.83388 22.3314 4.0384C19.253 4.24293 16.2306 3.57823 12.8164 3.27144C14.1037 1.94203 15.8388 3.11805 16.7344 1.99316C19.1971 2.0443 21.6598 2.0443 24.0665 1.99316Z" fill="#0E8FFB"/>
<path d="M22.3314 4.09126C22.0515 3.42656 20.5963 2.45507 22.8911 2.55733C23.6747 2.60847 24.5142 2.76186 25.1299 2.09716C25.9135 2.09716 26.7531 1.8415 27.3687 2.5062C27.6486 6.23876 24.6821 3.42656 23.4508 4.09126C23.115 4.09126 22.7232 4.09126 22.3314 4.09126Z" fill="#0891FD"/>
<path d="M11.1932 18.3555C11.4171 18.7645 11.8089 18.8668 12.2567 18.8668C11.697 23.5708 10.5216 24.8491 6.15588 25.4627C4.42078 24.5423 4.14092 23.3663 5.82005 22.3437C7.72305 21.1677 8.33874 18.5089 11.1932 18.3555Z" fill="#1095FC"/>
<path d="M11.1932 18.3572C8.89838 19.4821 7.94687 21.8853 5.764 23.1636C4.36473 23.9305 5.87594 24.7486 6.21176 25.5156C5.81997 25.5156 5.48414 25.5156 5.09235 25.4645C4.36473 24.7486 3.24531 24.4418 2.85352 23.4703C4.47667 22.3966 6.04385 21.4251 7.05133 19.6867C7.66701 18.5106 9.34614 17.6925 11.1932 18.3572Z" fill="#168EFA"/>
</svg>
