<svg width="34" height="29" viewBox="0 0 34 29" fill="none" xmlns="http://www.w3.org/2000/svg">
<path d="M2.12789 10.8477C1.38794 10.8814 0.675409 10.8477 0.346546 9.98886C-0.0206837 9.01772 -0.261853 8.06341 0.505493 7.14279C1.53593 5.9022 3.02677 5.51487 4.38607 4.88054C4.65464 4.75704 4.94514 4.68407 5.22467 4.58864C6.21126 4.25183 6.24415 4.21254 5.64671 3.31438C5.30141 2.79793 4.87937 2.33201 4.44089 1.89415C4.15587 1.60786 4.24357 1.50681 4.53406 1.37208C6.07972 0.647936 6.07972 0.647948 6.51272 2.33201C6.87447 3.74101 6.85255 3.70732 7.95424 2.76424C9.28065 1.63592 10.6016 0.406566 12.3555 0.103435C13.9998 -0.182856 15.6661 0.109039 16.9925 1.18122C17.99 1.98396 18.5162 3.2414 18.571 4.56058C18.5929 5.13316 18.0722 5.63276 17.6995 6.10991C17.6666 6.36252 17.5954 6.59267 17.3597 6.7274C16.3347 7.50207 15.1015 7.36734 13.945 7.48523C12.4651 7.63118 11.0127 7.81643 9.62047 8.37778C8.70514 8.54057 7.89394 8.98404 7.07179 9.39383C5.80567 10.0225 4.60532 10.8028 3.14188 10.9207C2.78561 10.9544 2.46223 10.9656 2.12789 10.8477Z" fill="black"/>
<path d="M26.6733 14.6147C26.6624 14.0308 27.2214 13.8175 27.4516 13.3853C27.7915 12.7566 28.0271 12.0605 28.5698 11.5384C28.9699 11.1567 29.2714 10.9266 29.814 11.3307C30.8773 12.1279 31.694 13.1944 32.7682 13.9747C33.1081 14.2217 33.0752 14.6876 32.6806 14.9234C30.7731 16.0517 29.0137 17.3709 27.501 19.0213C27.4626 19.0606 27.3585 19.0325 27.2872 19.0381C27.2708 19.0157 27.2488 18.9876 27.2324 18.9651C27.2269 18.9034 27.2324 18.8416 27.2488 18.7799C27.3256 18.5946 27.1831 18.4206 27.2105 18.2354C27.2434 18.1343 27.3201 18.0726 27.4188 18.0445C28.23 17.8873 28.2354 17.8761 27.7969 16.9218C27.8134 16.8095 27.8737 16.7309 27.9833 16.6917C28.1258 16.6636 28.2354 16.7422 28.345 16.8152C28.3779 16.8488 28.4108 16.8713 28.4382 16.8825C28.4218 16.8544 28.3889 16.8264 28.345 16.7927C27.7202 16.2482 27.0351 15.771 26.5911 15.0413C26.5528 14.8841 26.5911 14.7438 26.6733 14.6147Z" fill="black"/>
<path d="M17.3912 6.51941C17.4953 6.38468 17.594 6.24996 17.6981 6.11523C18.2407 6.85061 18.9971 7.41757 19.3808 8.28767C20.488 10.8025 21.2444 13.3679 20.9265 16.1915C20.7346 17.9261 20.9539 19.6719 21.0964 21.4121C20.9813 22.3047 21.2498 23.2085 21.0361 24.101C21.0306 25.089 21.0141 26.0826 21.0251 27.0706C21.0306 27.5533 20.9429 27.7891 20.3674 27.7835C17.9886 27.7442 15.6044 27.7442 13.2256 27.7722C12.661 27.7779 12.5021 27.6151 12.524 27.0425C12.5569 26.1612 12.5679 25.2742 12.4144 24.3873C12.3267 23.8765 12.1842 23.5116 11.6142 23.4835C11.0387 23.4554 10.6111 23.6238 10.4303 24.2638C10.2055 25.0665 10.3316 25.8749 10.3097 26.6832C10.2823 27.7386 10.2987 27.7442 9.24635 27.7498C7.01557 27.761 4.78479 27.7498 2.54852 27.7779C1.98945 27.7835 1.77569 27.6544 1.8031 27.0144C2.01138 22.372 1.92916 17.724 1.96753 13.0816C1.97301 12.5034 2.04426 11.9196 2.22513 11.3639C2.28542 11.1786 2.38409 10.9766 2.12648 10.8531C3.54607 10.7857 4.88344 10.4152 6.1112 9.68543C6.96624 9.18022 7.88158 8.82657 8.75854 8.37749C9.01615 8.24838 9.27376 8.22592 9.54233 8.24837C9.53685 8.60202 9.25184 8.7143 9.01615 8.81534C7.61849 9.41599 6.31947 10.2243 4.91633 10.7969C4.45592 10.9878 3.99003 11.173 3.48577 11.1955C2.92123 11.2235 2.64169 11.5435 2.54303 12.088C2.49919 12.3407 2.46082 12.5876 2.4663 12.8459C2.55948 17.3142 2.27446 21.777 2.31283 26.2454C2.32379 27.3456 2.36764 27.4579 3.45837 27.3512C5.28904 27.1716 7.12519 27.2221 8.95586 27.2277C9.58618 27.2277 9.77801 26.9527 9.76705 26.352C9.75061 25.6447 9.71224 24.9262 9.90956 24.2301C10.1617 23.3488 10.7646 22.9109 11.6196 22.9839C12.4144 23.0569 12.7378 23.4274 12.8967 24.3873C13.0063 25.0665 13.0612 25.7514 13.0337 26.4362C13.0118 26.9751 13.2037 27.2277 13.7627 27.2165C15.7688 27.1884 17.7749 27.2951 19.7809 27.2165C20.2852 27.1941 20.4989 26.9864 20.488 26.4755C20.4277 23.8877 20.6195 21.2998 20.3729 18.712C20.3016 17.9542 20.2961 17.1907 20.3948 16.4329C20.7565 13.6598 20.055 11.1001 18.9588 8.61326C18.6025 7.79369 17.879 7.24356 17.3912 6.51941Z" fill="#5860AB"/>
<path d="M21.0317 24.096C20.9659 23.4561 20.8398 22.8217 20.8782 22.1706C20.8947 21.8843 20.944 21.6373 21.0975 21.4071C21.2619 21.278 21.4263 21.1489 21.5907 21.0198C21.7333 20.9524 21.7826 21.0422 21.81 21.1601C21.3989 21.7608 21.218 22.4063 21.4482 23.2877C22.0895 22.6533 22.6705 22.0976 23.1857 21.4689C23.6461 20.9075 24.0737 20.3181 24.5067 19.7287C25.3836 18.5218 25.5535 18.4712 26.9074 18.9709C27.0389 18.9709 27.1759 18.9484 27.302 19.0045L27.291 19.0382C27.2856 19.1898 27.2801 19.3414 27.2691 19.4873C27.0882 19.6726 26.8745 19.6838 26.6662 19.5603C25.9317 19.1337 25.422 19.4705 24.978 20.0655C24.9177 20.1441 24.8355 20.2058 24.7533 20.2507C24.1997 20.9637 23.6407 21.6822 23.0816 22.3951C22.6267 22.8386 22.1717 23.2877 21.7113 23.7311C21.5195 23.922 21.3551 24.169 21.0317 24.096Z" fill="#902B37"/>
<path d="M27.2971 19.0099C27.1875 19.0773 27.0833 19.1391 26.9737 19.2064C26.3324 18.617 25.7569 17.949 25.0334 17.2866C25.0663 17.949 25.3184 18.5889 24.6168 18.9594C24.1181 19.2233 23.8056 19.7846 23.2027 19.8856C23.0986 19.8351 23.0164 19.7734 23.0821 19.6387C23.2795 19.4534 23.4549 19.2289 23.6851 19.0941C24.4579 18.6226 24.9019 18.0725 24.4469 17.0957C24.288 16.7589 24.5127 16.4782 24.8525 16.3379C24.9183 16.3547 24.9786 16.3884 25.0389 16.4277C25.6747 16.9442 26.2611 17.5111 26.8202 18.1118C27.0395 18.3475 27.2916 18.5665 27.2861 18.937C27.308 18.9538 27.3135 18.9819 27.2971 19.0099Z" fill="#922F3A"/>
<path d="M24.748 20.2558C24.8796 20.0481 25.0057 19.8348 25.1482 19.6383C25.5099 19.1331 25.9374 18.9198 26.502 19.3352C26.7322 19.5036 26.9843 19.5541 27.2638 19.4924C27.22 19.5934 27.1707 19.7001 27.1268 19.8011C26.2553 19.5036 25.5099 19.9134 24.748 20.2558Z" fill="#F7F4F6"/>
<path d="M24.8735 16.4445C24.8899 16.4052 24.8844 16.3659 24.8516 16.3379C25.3723 15.6755 25.9861 15.1085 26.6658 14.6201C26.6658 14.7605 26.6713 14.9008 26.6713 15.0411C26.5233 15.3667 27.0878 15.5183 26.8576 15.8607C26.463 16.0628 25.9423 15.4397 25.6079 16.0516C25.5367 16.1246 25.4654 16.1975 25.3887 16.2649C25.2352 16.3659 25.1201 16.6017 24.8735 16.4445Z" fill="#030303"/>
<path d="M23.0936 19.6377C23.1484 19.6994 23.2032 19.7556 23.258 19.8173C22.9401 20.4797 22.4852 20.9793 21.7672 21.187C21.7069 21.1309 21.6521 21.0748 21.5918 21.0242C22.0906 20.5583 22.5893 20.098 23.0936 19.6377Z" fill="#96343E"/>
<path d="M17.392 6.51953C18.5978 7.12579 19.1459 8.28779 19.5899 9.46102C20.3024 11.3528 20.8396 13.3007 20.719 15.3665C20.5052 19.1388 20.8341 22.9111 20.7354 26.6834C20.719 27.2952 20.5491 27.458 19.9736 27.4468C17.825 27.4131 15.6819 27.4187 13.5333 27.4468C12.9798 27.4524 12.777 27.2896 12.8153 26.717C12.8701 25.9087 12.7605 25.106 12.6947 24.2976C12.6344 23.5622 12.2837 23.2535 11.6424 23.1749C10.9627 23.0907 10.3598 23.4556 10.1735 24.0562C9.91036 24.8982 9.97066 25.7683 10.009 26.6216C10.0364 27.2391 9.872 27.4749 9.23072 27.4468C7.91527 27.3963 6.59982 27.4356 5.28436 27.4299C4.44577 27.4243 3.61813 27.6376 2.76857 27.604C2.25335 27.5815 2.067 27.4412 2.0944 26.9023C2.18758 25.0274 2.0944 23.1581 2.19306 21.2775C2.33556 18.4764 2.24239 15.664 2.25335 12.8572C2.25335 12.5541 2.30268 12.2566 2.34105 11.959C2.43971 11.1956 2.82338 10.9374 3.54688 10.9542C4.28134 10.9711 4.92262 10.5669 5.56938 10.2581C6.90676 9.61259 8.2222 8.91651 9.54862 8.24289C11.2477 7.36718 13.1113 7.32789 14.9365 7.21C15.8244 7.14825 16.6192 6.92932 17.392 6.51953Z" fill="#5D69AF"/>
<path d="M25.454 16.006C25.8322 15.4447 26.2707 15.3155 26.7859 15.8264C26.9613 15.7422 27.0325 15.8825 27.1147 15.9892C27.2847 16.3653 27.7615 16.4832 27.8656 16.9154C28.5398 17.6059 28.5289 17.7069 27.9808 18.1841C27.7232 18.4086 27.6026 18.257 27.4272 18.1279C26.7585 17.8192 26.3803 17.1624 25.8431 16.6965C25.6787 16.4944 25.4101 16.3428 25.454 16.006Z" fill="#FAFAFA"/>
<path d="M24.873 16.4447C25.021 16.3662 25.169 16.2876 25.317 16.209C25.6404 16.2707 25.761 16.5963 25.9967 16.7647C26.4132 17.2699 27.0052 17.6236 27.2792 18.2579C27.5862 18.4825 27.6245 18.707 27.2792 18.9315C26.5831 17.9997 25.6623 17.2868 24.873 16.4447Z" fill="#F1EFF0"/>
<path d="M26.9899 16.1803C26.9789 16.0287 26.9406 15.894 26.7871 15.8266C26.7981 15.574 26.5788 15.4674 26.4692 15.299C26.2883 15.0295 26.5404 15.0632 26.683 15.0352C27.2365 15.6695 28.0149 16.0793 28.4369 16.8483C28.4259 16.9325 28.3821 16.9606 28.3054 16.9269C28.2067 16.8764 28.1135 16.8259 28.0149 16.7697C27.6147 16.6799 27.3845 16.2757 26.9899 16.1803Z" fill="#E3E3E3"/>
<path d="M27.2853 18.2583C26.8249 17.7867 26.37 17.3096 25.9096 16.8381C25.8602 16.7482 25.8712 16.6697 25.937 16.5967C26.4631 17.0794 27.0387 17.5117 27.4333 18.1348C27.384 18.1741 27.3346 18.219 27.2853 18.2583Z" fill="#121212"/>
<path d="M26.9902 16.1808C27.4945 16.0854 27.6863 16.5457 28.0152 16.7702C27.9659 16.8208 27.922 16.8713 27.8727 16.9218C27.5164 16.7422 27.2533 16.4671 26.9902 16.1808Z" fill="#1F1F1F"/>
<path d="M28.3008 16.9271C28.3446 16.899 28.3885 16.8766 28.4323 16.8485C28.6735 16.8261 28.8379 16.9383 28.8927 17.1741C28.9037 17.2134 28.7941 17.3313 28.7502 17.3257C28.5255 17.292 28.4049 17.118 28.3008 16.9271Z" fill="#E4E4E4"/>
<path d="M21.7607 21.1881C22.2595 20.7334 22.7528 20.2731 23.2515 19.8184C23.4982 19.6163 23.7284 19.3805 23.997 19.2121C24.7205 18.7686 25.2467 18.2634 24.7917 17.3091C24.7588 17.2361 24.7698 17.0958 24.8136 17.0284C24.8794 16.933 24.9945 16.9667 25.0658 17.0509C25.6906 17.7807 26.5566 18.2859 26.9677 19.2065C25.4385 18.6844 25.433 18.6844 24.4409 20.1159C23.6407 21.2779 22.7144 22.322 21.7004 23.2932C21.5798 23.4054 21.4812 23.6187 21.2839 23.5345C21.0811 23.4503 21.1578 23.2202 21.1633 23.0574C21.2071 22.3894 20.9331 21.6035 21.7607 21.1881Z" fill="#924948"/>
<path d="M25.9381 16.5963C25.9271 16.6749 25.9162 16.7534 25.9107 16.8376C25.7134 16.6299 25.5215 16.4166 25.3242 16.2089C25.3681 16.1416 25.4119 16.0742 25.4558 16.0068C25.6147 16.2033 25.7791 16.3998 25.9381 16.5963Z" fill="#131313"/>
<path d="M11.7924 20.5095C11.6937 19.9201 11.9459 19.5047 12.5159 19.3924C13.1024 19.2801 13.7656 19.2015 14.0177 19.965C14.3466 20.953 14.7521 21.8399 15.8538 22.143C15.9306 22.1655 16.0128 22.2778 16.0347 22.362C16.0566 22.4686 15.958 22.5135 15.8593 22.5528C14.9824 22.9233 12.9927 22.4967 12.3021 21.8062C11.9349 21.447 11.7266 21.0484 11.7924 20.5095Z" fill="#924948"/>
<path d="M10.7325 9.57363C11.7904 9.36593 12.7605 9.65783 13.7307 10.062C15.5613 10.8254 16.2464 13.1382 15.8792 14.9738C15.3914 17.3933 13.9006 18.6339 11.604 18.8472C9.75141 19.0212 7.61381 18.1736 6.73136 15.9169C6.60529 15.5913 6.50664 15.2601 6.39154 14.9289C6.3148 14.3732 6.3148 13.8175 6.39154 13.2673C6.52308 12.8688 6.62722 12.4534 6.79165 12.0716C7.37812 10.6963 8.57299 10.0788 9.85007 9.57363C10.146 9.50065 10.4365 9.49504 10.7325 9.57363Z" fill="#FCFCFD"/>
<path d="M6.30859 22.675C6.94988 22.428 7.38836 22.1698 7.73915 21.76C7.99127 21.4681 8.10089 21.193 8.00771 20.8001C7.84876 20.104 8.19955 19.6549 8.96689 19.5314C9.60818 19.4248 10.2495 19.9075 10.2933 20.5363C10.3481 21.2829 9.75068 22.2371 8.99978 22.602C8.40235 22.8883 7.24037 22.9501 6.30859 22.675Z" fill="#924948"/>
<path d="M6.39213 13.2666C6.39213 13.8223 6.39213 14.3781 6.39213 14.9282C6.19481 14.3725 6.19481 13.8223 6.39213 13.2666Z" fill="#5664AF"/>
<path d="M10.7324 9.57314C10.4419 9.57314 10.146 9.57314 9.85547 9.57314C10.146 9.37666 10.4365 9.37666 10.7324 9.57314Z" fill="#495DAE"/>
<path d="M6.71553 14.1542C6.40859 11.5215 8.8641 9.54553 11.3032 9.74762C14.4438 10.0058 15.6222 11.3868 15.7702 14.0307C15.9072 16.5961 13.7916 18.6507 11.2429 18.5833C8.82574 18.5216 6.68264 17.0564 6.71553 14.1542Z" fill="#F0F0F5"/>
<path d="M8.49736 12.0321C8.88103 10.9993 10.7117 10.5109 11.9669 10.887C14.6306 11.6841 15.0856 13.8902 13.7263 16.1469C12.948 17.4436 10.1691 17.5783 8.82623 16.5117C7.56559 15.5069 7.40664 13.312 8.50285 12.0265C8.7769 12.3746 8.55217 12.7058 8.459 13.0313C8.04792 14.446 8.37678 15.6416 9.37433 16.2704C10.4322 16.944 12.3341 16.8486 13.1508 15.9785C13.8359 15.2487 14.099 14.2776 13.8907 13.2952C13.666 12.223 12.8603 11.6336 11.8518 11.409C11.0735 11.2294 10.2732 11.2126 9.53876 11.656C9.23182 11.7683 9.01807 12.0602 8.68372 12.122C8.61247 12.122 8.54669 12.0883 8.49736 12.0321Z" fill="#4055B0"/>
<path d="M9.396 11.5774C10.5087 10.7971 11.6487 10.9936 12.7559 11.5605C13.6328 12.004 14.2193 12.7506 14.1426 13.7835C14.0494 15.0129 13.7808 16.1861 12.4106 16.6801C11.0732 17.1629 9.54947 16.9383 8.70539 15.9616C8.05315 15.215 7.92708 14.3056 8.16277 13.34C8.27239 12.9022 8.51356 12.498 8.5026 12.0265L8.49711 12.0321C8.55192 12.0377 8.60673 12.0377 8.66702 12.0433C8.84789 12.2173 8.83146 12.4531 8.86982 12.6776C8.95204 13.1267 9.2535 13.3232 9.66457 13.312C10.0373 13.2951 10.3278 13.1043 10.3826 12.6833C10.4374 12.251 10.273 11.9423 9.86189 11.8019C9.69198 11.7458 9.5111 11.7346 9.396 11.5774Z" fill="#5D69AF"/>
<path d="M9.39703 11.5775C9.87937 11.5607 10.3781 11.5887 10.5645 12.1389C10.6906 12.515 10.6906 12.9584 10.3288 13.2503C9.95611 13.5535 9.5231 13.6321 9.09558 13.3851C8.57488 13.0819 8.65161 12.5487 8.66258 12.0491C8.90922 11.8919 9.15587 11.7347 9.39703 11.5775Z" fill="#F4F5F9"/>
<path d="M10.2891 12.4985C10.2891 13.0374 9.96574 13.2226 9.61496 13.217C9.26965 13.2114 8.91886 13.0374 8.96271 12.5602C9.00656 12.0775 9.38475 11.9315 9.75746 11.9203C10.1357 11.9091 10.3549 12.1505 10.2891 12.4985Z" fill="#F0F0F5"/>
<path d="M26.6552 28.155C28.2263 28.155 29.4999 26.8506 29.4999 25.2416C29.4999 23.6325 28.2263 22.3281 26.6552 22.3281C25.0841 22.3281 23.8105 23.6325 23.8105 25.2416C23.8105 26.8506 25.0841 28.155 26.6552 28.155Z" fill="url(#paint0_linear_356_1800)"/>
<defs>
<linearGradient id="paint0_linear_356_1800" x1="29.0511" y1="23.3418" x2="23.9993" y2="28.3383" gradientUnits="userSpaceOnUse">
<stop stop-color="#434FA0"/>
<stop offset="0.440625" stop-color="#6E72CB"/>
<stop offset="1" stop-color="#434FA0" stop-opacity="0.916667"/>
</linearGradient>
</defs>
</svg>
