<svg width="30" height="26" viewBox="0 0 30 26" fill="none" xmlns="http://www.w3.org/2000/svg">
<path d="M19.4769 4.74534C19.493 4.87208 19.5413 5.0622 19.6862 5.01467C20.443 4.80871 21.2159 4.96714 21.9727 4.85624C22.7456 4.74533 23.3897 4.99883 24.1143 5.12558C25.0321 5.28401 25.805 5.91774 26.755 5.87021C26.9805 5.85437 26.9482 5.99696 26.9643 6.18708C26.9966 6.7416 27.383 7.0743 27.8822 7.15352C28.7678 7.31195 28.9127 7.48623 28.7034 8.31009C28.639 8.53189 28.6712 8.76954 28.6551 9.00719C28.6712 9.03888 28.6873 9.08641 28.7034 9.1181C28.6712 9.14978 28.639 9.16563 28.6068 9.19731C28.172 8.99135 28.1559 8.46852 27.8339 8.18334C27.2864 7.47039 26.7872 6.7416 25.966 6.2663C24.9516 5.68009 23.8405 5.48997 22.6973 5.4266C21.5862 5.36322 20.4591 5.56919 19.3642 5.29985C19.1709 5.10973 19.1548 4.91961 19.3481 4.72949C19.3964 4.74534 19.4286 4.74534 19.4769 4.74534Z" fill="#FCFAFE"/>
<path d="M16.7383 2.52668C16.7383 2.47915 16.7383 2.41578 16.7383 2.36825C17.1408 1.16415 18.2519 0.593793 19.4595 0.95819C19.5884 0.989876 19.7172 1.02156 19.846 1.02156C20.3452 1.03741 20.168 0.482889 20.4418 0.308612C20.6994 0.245239 20.9409 -0.277593 21.2147 0.197707C21.424 0.562104 21.6655 1.03741 20.9731 1.27506C20.4418 1.44933 20.5706 1.92463 20.6189 2.27318C20.7477 3.33469 20.3452 4.1427 19.4756 4.74474C19.2502 4.19023 19.8621 3.98427 19.9748 3.57234C20.3129 2.89108 20.1841 2.27319 19.6367 1.82957C19.0087 1.33843 18.3646 1.35427 17.7688 1.8771C17.6239 2.00385 17.5112 2.13059 17.3824 2.27318C17.2535 2.39993 17.1408 2.57421 16.9476 2.62174C16.8671 2.6059 16.8027 2.57421 16.7383 2.52668Z" fill="#FAFCFD"/>
<path d="M28.655 23.1087C28.494 23.2196 28.333 23.3146 28.172 23.4256C27.9465 22.9027 28.3652 22.4749 28.3813 21.9838C28.4779 18.6409 28.3974 15.3138 28.4135 11.9708C28.4135 11.3212 28.4135 10.6558 28.4135 10.0062C28.4135 9.72107 28.3974 9.42005 28.6389 9.19824C28.9127 9.19824 28.9127 9.32499 28.8 9.51511C28.7677 10.8776 29.1381 12.2402 28.9449 13.5868C28.7194 15.0603 28.8161 16.5179 28.8161 17.9754C28.8322 19.6865 29.0093 21.3976 28.655 23.1087Z" fill="#FCFAFE"/>
<path d="M20.4421 0.308594C20.3938 0.688834 20.6031 1.17998 19.959 1.25919C19.8463 0.878954 20.1362 0.609617 20.2811 0.308594C20.3294 0.308594 20.3938 0.308594 20.4421 0.308594Z" fill="#FEFDFE"/>
<path d="M5.3216 4.89616C6.35213 5.07044 7.38267 5.13381 8.4132 4.912C8.78355 4.83279 8.91237 4.81694 8.60643 4.45254C8.12336 3.8505 7.75301 3.18508 7.88183 2.37707C7.96234 1.60075 8.50981 1.22051 9.17 0.951172C9.49204 0.951172 9.81408 0.951172 10.1361 0.951172C10.748 1.23635 11.3277 1.53738 11.5853 2.21864C11.9879 2.32954 12.0845 2.67809 12.2294 3.0108C12.3421 3.16924 12.4387 3.32767 12.5514 3.4861C12.6481 3.56532 12.6642 3.67622 12.632 3.78713C12.6158 3.91387 12.5514 3.99309 12.4226 4.00893C12.3099 3.99309 12.2294 3.92972 12.1489 3.83466C12.0362 3.62869 11.9396 3.39104 11.7302 3.24845C11.3921 2.8999 11.1828 2.47213 10.8768 2.10773C10.3616 1.474 9.71747 1.39478 9.00898 1.85424C8.96067 1.91761 8.91237 1.96514 8.84796 2.01267C8.26828 2.50382 8.381 3.05833 8.70304 3.62869C8.96067 4.08815 9.37933 4.4367 9.47594 4.99122C9.42763 5.59327 8.97678 5.57742 8.54202 5.59327C7.35046 5.62495 6.15891 5.52989 4.96735 5.65664C4.72582 5.73585 4.45209 5.73586 4.21055 5.83092C4.01733 5.87845 3.8241 5.89429 3.61477 5.91013C2.92238 6.03688 2.3266 6.32206 1.90795 6.90826C1.69862 7.20928 1.44099 7.46278 1.15115 7.68459C0.716397 7.84302 0.651988 8.33416 0.329946 8.6035C0.249435 8.63519 0.185025 8.61934 0.136719 8.55597C0.813007 6.84489 1.98846 5.72001 3.87241 5.3873C4.08174 5.35562 4.27496 5.29224 4.48429 5.22887C4.69361 4.88032 4.98345 4.84863 5.3216 4.89616Z" fill="#F6FAFE"/>
<path d="M2.42383 25.6279C2.71367 25.6913 3.0035 25.7388 3.22893 25.9448C2.9391 25.8814 2.52044 26.1349 2.42383 25.6279Z" fill="#FAF8FD"/>
<path d="M12.4236 3.9533C12.4719 3.90577 12.5202 3.8424 12.5524 3.79487C12.6007 3.74734 12.6651 3.74734 12.7134 3.79487C12.8261 4.00083 12.971 4.15926 13.1965 4.27017C14.0016 5.06233 14.4202 5.06233 15.2897 4.27017C15.7889 4.03252 15.8855 3.38294 16.4169 3.16113C16.4491 3.19282 16.4652 3.22451 16.4974 3.25619C16.5296 3.38294 16.5135 3.49384 16.4491 3.60474C16.1915 3.96914 15.9338 4.33354 15.6923 4.71378C14.9838 5.8545 13.6956 5.88618 12.8583 4.80884C12.6973 4.60287 12.5363 4.39691 12.3914 4.1751C12.3431 4.08004 12.3592 4.01667 12.4236 3.9533Z" fill="#F8FAFD"/>
<path d="M15.2896 4.26401C15.3057 5.05618 14.6455 5.00865 14.1625 5.04034C13.6633 5.07202 13.1803 4.92943 13.2125 4.26401C13.9049 4.59672 14.5972 3.9313 15.2896 4.26401Z" fill="#FEFEFE"/>
<path d="M16.7388 2.52734C16.7871 2.52734 16.8515 2.52734 16.8998 2.52734C17.0608 2.97096 16.8515 3.16108 16.4167 3.16108C16.4006 2.8759 16.6583 2.74915 16.7388 2.52734Z" fill="#F8FAFD"/>
<path d="M27.5273 24.2007C27.4629 24.2007 27.4146 24.2007 27.3502 24.2007C27.1409 23.6303 27.785 23.3927 27.8655 22.9332C28.0587 22.6797 28.0587 22.2995 28.3808 22.1094C28.413 22.1252 28.4452 22.1252 28.4935 22.1411C28.5901 22.6164 28.2358 22.9649 28.1714 23.4085C27.946 23.6779 27.7367 23.9472 27.5273 24.2007Z" fill="#F6E5FD"/>
<path d="M19.3144 5.21907C21.0534 5.31413 22.8085 5.06064 24.5637 5.48841C26.19 5.88449 27.2527 6.83509 28.0095 8.21346C27.9773 8.22931 27.9451 8.26099 27.9129 8.27683C27.8324 8.29268 27.7519 8.27684 27.6875 8.24515C27.1722 7.75401 26.7052 7.21533 26.1578 6.74003C25.5137 6.18552 24.7247 5.96371 23.9196 5.75775C22.5348 5.69437 21.15 5.77359 19.7813 5.71022C19.2822 5.69437 18.783 5.61516 18.9923 4.90221C19.3305 4.74377 19.1533 5.17154 19.3144 5.21907Z" fill="#EADDF9"/>
<path d="M28.6535 9.16544C28.6535 13.1896 28.6535 17.2139 28.6535 21.2381C28.6535 21.5391 28.7663 21.8718 28.4925 22.1411C28.1866 21.8084 28.2671 21.3965 28.2671 21.0163C28.2671 17.6416 28.2671 14.2828 28.2671 10.9082C28.2671 10.1636 28.2832 9.43478 27.9612 8.73767C27.8807 8.5634 27.8806 8.37328 27.9934 8.21484C28.4442 8.40496 28.3637 8.89611 28.6535 9.16544Z" fill="#F6E5FD"/>
<path d="M19.3142 5.21921C19.1854 5.15584 19.1532 5.02909 19.1532 4.90234C18.96 4.22108 19.4752 3.92006 19.8939 3.5715C19.9744 3.55566 20.0549 3.58735 20.1193 3.63488C20.0227 4.06265 19.5235 4.28445 19.4752 4.74391C19.282 4.85481 19.3142 5.04493 19.3142 5.21921Z" fill="#E3E7FD"/>
<path d="M20.1198 3.63942C20.0715 3.63942 20.0071 3.63942 19.9588 3.63942C19.7656 3.43346 19.9105 3.19581 19.9105 2.95816C19.9105 2.46701 19.7817 2.08678 19.2664 1.9125C18.7511 1.69069 18.3164 1.76991 17.9138 2.19768C17.7367 2.3878 17.5435 2.65714 17.1892 2.54623C17.1409 2.43533 17.1409 2.32442 17.2214 2.21352C18.3003 0.882682 19.6689 0.977741 20.313 2.43533C20.5063 2.87894 20.4901 3.27502 20.1198 3.63942Z" fill="#DEDAFD"/>
<path d="M17.2216 2.20996C17.2216 2.32086 17.2216 2.43177 17.2377 2.54267C17.3987 3.09719 17.0606 3.35068 16.6258 3.55664C16.5453 3.55664 16.4648 3.52496 16.4004 3.46158C16.4004 3.36652 16.4165 3.25562 16.4165 3.16056C16.6741 3.01797 16.8835 2.84369 16.8996 2.52683C17.0123 2.41592 17.1089 2.30502 17.2216 2.20996Z" fill="#DEDEFC"/>
<path d="M0.651943 22.6154C0.603637 22.6788 0.539228 22.7263 0.490922 22.7897C0.362105 22.5996 0.297697 22.3936 0.329901 22.1559C0.184982 21.8232 0.16888 21.4747 0.16888 21.1103C0.16888 17.5455 0.16888 13.9649 0.16888 10.4002C0.16888 10.0358 0.120573 9.65555 0.329901 9.32284C0.329901 9.16441 0.329901 9.00597 0.329901 8.84754C0.55533 8.38808 0.63584 7.86525 1.1189 7.56423C1.34433 7.31074 1.55366 7.0414 1.77909 6.78791C2.31046 6.31261 2.95454 6.02743 3.56642 5.69472C3.77575 5.69472 3.98508 5.67887 4.1783 5.67887C4.54865 5.56797 4.9512 5.6155 5.32155 5.47291C6.49701 5.47291 7.65635 5.42538 8.83181 5.47291C9.07334 5.47291 9.31487 5.52044 9.47589 5.29864C9.60471 5.17189 9.71743 5.0293 9.92675 5.0293C10.0073 5.07683 10.0717 5.1402 10.0878 5.23526C10.0556 5.94821 9.54031 6.05911 8.97673 6.07496C7.75297 6.0908 6.51311 6.07496 5.28935 6.07496C4.99951 6.07496 4.69357 6.05911 4.40373 6.12249C2.98675 6.48688 1.8596 7.23152 1.1189 8.49898C0.845167 9.1644 0.700247 9.86151 0.700247 10.5745C0.700247 14.0283 0.716353 17.4822 0.684149 20.936C0.700251 21.4905 1.0867 22.0609 0.651943 22.6154Z" fill="#A59FF1"/>
<path d="M12.4234 3.95752C12.4073 4.00505 12.4073 4.05258 12.4073 4.10011C12.6005 4.40113 12.987 4.59125 12.9065 5.03486C12.7454 5.14577 12.6166 5.06655 12.4878 4.98733C11.8759 4.30607 11.3285 3.57728 10.781 2.84848C10.5878 2.59499 10.4267 2.32565 10.1208 2.19891C9.81486 2.02463 9.49281 2.15138 9.17077 2.19891C9.05806 2.19891 8.94534 2.16722 8.84873 2.10385C8.80042 2.04047 8.80042 1.96126 8.84873 1.89789C8.84873 1.85036 8.86483 1.80282 8.88094 1.77114C9.91147 1.29584 10.4428 1.43843 11.1191 2.30981C11.3768 2.65837 11.6022 3.05445 11.9242 3.35547C12.1014 3.46637 12.1175 3.67234 12.2624 3.79908C12.3107 3.83077 12.359 3.89414 12.4234 3.95752Z" fill="#A09FED"/>
<path d="M8.83258 1.88477C8.84869 1.94814 8.84869 2.01151 8.86479 2.07489C8.9614 2.26501 8.86479 2.42344 8.81649 2.59772C8.65546 3.12055 9.00971 3.4691 9.25124 3.86518C9.47667 4.24542 9.94363 4.5306 9.81481 5.06928C9.79871 5.19602 9.78261 5.32277 9.65379 5.38614C9.42836 5.24355 9.49277 4.94253 9.31565 4.76825C8.84869 4.3088 8.44613 3.78597 8.28511 3.15223C8.1724 2.6294 8.2046 2.10657 8.83258 1.88477Z" fill="#C4C1F3"/>
<path d="M11.9085 3.47349C11.5704 3.31505 11.4255 2.98234 11.2483 2.713C10.6687 1.80994 9.96018 1.33464 8.86523 1.74657C9.54152 1.12868 10.4754 1.20789 11.039 1.95253C11.345 2.34861 11.6187 2.76054 11.9085 3.17247C12.0051 3.26753 12.0212 3.36258 11.9085 3.47349Z" fill="#CCD1F8"/>
<path d="M9.33233 4.74512C9.55776 4.88771 9.63827 5.12536 9.67047 5.36301C9.41284 5.55313 9.17131 5.60065 8.81707 5.56897C7.65771 5.48975 6.49836 5.53728 5.33901 5.52144C5.16189 5.6165 5.00086 5.63234 4.83984 5.5056C5.69326 5.18873 6.57887 5.42638 7.44839 5.36301C7.89925 5.33132 8.36621 5.33132 8.81707 5.36301C9.28403 5.41054 9.39674 5.15704 9.33233 4.74512Z" fill="#D1CDFA"/>
<path d="M3.56663 5.71191C3.05136 6.20306 2.40728 6.48824 1.7793 6.8051C2.18185 6.13968 2.85814 5.90203 3.56663 5.71191Z" fill="#D3D3FD"/>
<path d="M1.11908 7.58105C0.861446 8.00882 0.587712 8.4366 0.330078 8.86437C0.330078 8.75346 0.330078 8.64256 0.330078 8.5475C0.523303 8.16726 0.539404 7.64443 1.11908 7.58105Z" fill="#D4CFF9"/>
<path d="M4.82377 5.51758C4.98479 5.51758 5.16192 5.53342 5.32294 5.53342C4.96869 5.80276 4.56614 5.64432 4.17969 5.67601C4.35681 5.4542 4.59834 5.54926 4.82377 5.51758Z" fill="#C4C1F3"/>
<path d="M11.9082 3.47778C11.9082 3.38272 11.9082 3.27182 11.9082 3.17676C12.198 3.28766 12.2463 3.52531 12.2463 3.7788C12.0692 3.74712 11.9887 3.62037 11.9082 3.47778Z" fill="#DBDDFB"/>
<path d="M0.169538 21.8324C-0.0558916 21.6423 0.00851681 21.4046 0.00851681 21.167C0.00851681 17.4913 0.00851681 13.8157 0.00851681 10.14C0.00851681 9.91822 -0.0558916 9.66473 0.169538 9.47461C0.314457 9.74395 0.233946 10.045 0.250048 10.3301C0.250048 13.9107 0.250048 17.4913 0.250048 21.0719C0.217844 21.3254 0.314457 21.5948 0.169538 21.8324Z" fill="#D4CFF9"/>
<path d="M0.169922 21.2026C0.169922 17.3051 0.169922 13.3918 0.169922 9.49437C0.218228 9.44684 0.282637 9.38347 0.330943 9.33594C0.330943 13.2968 0.330943 17.2576 0.330943 21.2026C0.266534 21.266 0.218228 21.266 0.169922 21.2026Z" fill="#B6AEF4"/>
<path d="M0.168447 21.208C0.216753 21.208 0.265058 21.208 0.313365 21.208C0.313365 21.5249 0.313365 21.8417 0.313365 22.1586C0.184548 22.0952 0.152344 21.9685 0.152344 21.8417C0.168446 21.6199 0.168447 21.414 0.168447 21.208Z" fill="#C2B8F4"/>
<path d="M12.8732 5.06209C12.8571 4.68185 12.4707 4.46004 12.4062 4.09565C12.7766 4.15902 12.8571 4.50757 13.0342 4.74522C13.7266 5.67998 14.9021 5.61661 15.4979 4.63432C15.7555 4.20655 15.9487 3.74709 16.3996 3.46191C16.464 3.46191 16.5123 3.47776 16.5767 3.47776C16.7055 3.58866 16.7216 3.73125 16.6894 3.88969C16.6572 4.03228 16.5928 4.15902 16.5123 4.28577C16.4479 4.38083 16.3674 4.46005 16.2869 4.52342C16.0292 4.72938 15.8682 5.01456 15.675 5.2839C15.5301 5.47402 15.3529 5.60076 15.1275 5.67998C14.5961 5.83841 14.0809 5.94932 13.5495 5.71167C13.4851 5.69583 13.4046 5.66414 13.3402 5.61661C13.163 5.48986 13.002 5.34727 12.8893 5.15715C12.8893 5.12547 12.8893 5.09378 12.8732 5.06209Z" fill="#C8CBF7"/>
<path d="M26.2543 24.8503C26.1899 24.8028 26.1416 24.7394 26.0771 24.6919C26.0288 24.1849 26.5924 24.1215 26.7695 23.7571C26.8823 23.5036 27.1077 23.3135 27.2526 23.06C27.3331 22.9333 27.4136 22.8065 27.5746 22.7432C27.7679 22.7749 27.8162 22.9174 27.8323 23.0759C27.5263 23.7888 27.0594 24.3909 26.3992 24.8186C26.3348 24.8503 26.3026 24.8503 26.2543 24.8503Z" fill="#A380EB"/>
<path d="M26.3828 24.835C26.8176 24.2647 27.4456 23.821 27.6871 23.1081C27.8642 22.9972 27.5905 22.5694 28.0252 22.617C28.0896 22.7279 28.0896 22.8388 28.0091 22.9497C28.0091 23.4725 27.4456 23.726 27.3489 24.2171C26.9947 24.3597 26.8498 24.8509 26.3828 24.835Z" fill="#D2B9F8"/>
<path d="M28.0095 22.9499C28.0095 22.839 28.0095 22.7439 28.0095 22.633C27.7197 21.9993 28.1384 21.4131 28.1223 20.7794C28.074 18.8306 28.1062 16.8819 28.1062 14.9332C28.1062 13.8241 28.0901 12.731 28.1062 11.6219C28.1223 10.7188 28.1062 9.83162 27.8002 8.97608C27.7197 8.73843 27.6392 8.4691 27.8324 8.23145C27.8968 8.23145 27.9451 8.23145 28.0095 8.23145C28.5248 9.22958 28.5087 10.2911 28.5087 11.3684C28.4926 14.9649 28.4926 18.5613 28.4926 22.1577C28.235 22.3637 28.3155 22.7598 28.0095 22.9499Z" fill="#E5D4FD"/>
<path d="M27.8323 8.22757C28.4925 9.97034 28.3154 11.7923 28.3154 13.5985C28.3154 15.8007 28.2993 18.0187 28.3315 20.221C28.3476 21.0448 28.251 21.837 28.0094 22.6292C27.8967 22.7876 27.8001 22.946 27.6874 23.1045C27.6391 22.9936 27.5908 22.8826 27.5425 22.7717C27.3814 22.5816 27.462 22.4232 27.5747 22.2489C27.7518 21.8845 27.784 21.5043 27.784 21.0924C27.784 17.5434 27.784 13.9945 27.784 10.4456C27.784 9.82775 27.6552 9.24154 27.4458 8.67118C26.7374 7.46709 25.7873 6.54818 24.3381 6.24715C24.1127 6.19962 23.8551 6.16794 23.7424 5.8986C23.7263 5.81938 23.7424 5.74017 23.7907 5.66095C23.9034 5.59758 24.0322 5.59758 24.1449 5.67679C25.8356 5.88276 26.834 7.05516 27.8323 8.22757Z" fill="#B09CEF"/>
<path d="M24.145 5.68349C24.0323 5.68349 23.9196 5.69933 23.8069 5.69933C23.5976 5.88945 23.3238 5.90529 23.0501 5.90529C21.8746 5.90529 20.6992 5.92114 19.5237 5.90529C19.0729 5.90529 18.6542 5.84192 18.5254 5.31909C18.5415 4.65367 19.0246 4.17837 19.2983 3.62386C19.572 3.33868 19.6686 3.02181 19.5398 2.64157C19.5076 2.57819 19.4915 2.51482 19.4593 2.45145C19.3788 2.26133 19.2339 2.1029 19.2178 1.89693C19.2339 1.83356 19.2661 1.77019 19.3144 1.72266C20.1356 2.1029 20.2644 2.49898 19.9424 3.62386C19.6364 4.01994 19.2017 4.35265 19.1373 4.89132C18.7669 5.57259 19.2983 5.50921 19.6847 5.50921C20.8924 5.52505 22.084 5.50921 23.2916 5.52506C23.5976 5.5409 23.9035 5.44584 24.145 5.68349Z" fill="#B9BAF6"/>
<path d="M19.316 1.73147C19.316 1.79484 19.2999 1.84237 19.2999 1.90575C18.3981 1.95328 17.8024 2.44442 17.3998 3.2049C17.3354 3.33164 17.2549 3.45839 17.1905 3.58514C17.0134 3.77526 16.9167 4.06044 16.5625 3.91785C16.5625 3.77526 16.5786 3.61683 16.5786 3.47424C16.8845 3.22074 17.11 2.91972 17.2227 2.53948C17.5769 2.23846 17.9151 1.87406 18.3176 1.63641C18.6236 1.46213 18.9939 1.55719 19.316 1.73147Z" fill="#9795E6"/>
<path d="M0.653449 22.6207C0.299203 18.5331 0.556837 14.4456 0.508531 10.358C0.492429 9.62918 0.540732 8.83702 1.10431 8.23497C1.16871 8.18744 1.23312 8.1716 1.29753 8.21913C1.41025 8.45678 1.20092 8.63105 1.18482 8.85286C1.16871 8.93208 1.15261 9.01129 1.13651 9.09051C1.12041 9.21726 1.08821 9.344 1.056 9.47075C1.0077 13.495 1.0399 17.5192 1.0399 21.5434C1.0399 22.1929 1.31363 22.7633 1.53906 23.3495C1.57127 23.5079 1.55517 23.6505 1.44245 23.7773C1.0238 23.4763 0.927185 22.9851 0.653449 22.6207Z" fill="#6B5BE3"/>
<path d="M1.45703 23.7426C1.45703 23.6317 1.45703 23.5208 1.45703 23.4258C2.11722 23.7268 2.60028 24.2021 2.90622 24.8517C2.79351 24.8517 2.69689 24.8517 2.58418 24.8517C2.21383 24.4714 1.58585 24.3447 1.45703 23.7426Z" fill="#6952DD"/>
<path d="M24.6278 25.3228C24.5634 25.3228 24.5151 25.3228 24.4506 25.3069C24.4184 25.2594 24.4023 25.2277 24.4023 25.1802C24.4023 25.1327 24.4184 25.1168 24.4345 25.1168C25.4007 24.5306 26.3829 23.9761 27.0431 23.0255C27.1236 22.9463 27.2202 22.8829 27.349 22.9146C27.3973 22.9621 27.3973 23.0096 27.3973 23.0413C27.3812 23.0889 27.3651 23.1047 27.349 23.1047C27.1236 23.8018 26.5439 24.1979 26.0609 24.6732C25.5778 24.8633 25.2236 25.3545 24.6278 25.3228Z" fill="#794FE2"/>
<path d="M4.19531 5.99597C4.61397 5.71079 5.08093 5.85338 5.51569 5.85338C6.72334 5.82169 7.9149 5.83754 9.12256 5.85338C9.67003 5.85338 9.99207 5.66326 9.97597 5.07706C9.89546 4.96615 9.87935 4.85525 9.95986 4.74435C10.1048 4.71266 10.2014 4.79188 10.2819 4.90278C10.5395 5.72663 10.459 5.90091 9.60562 6.29699C9.50901 6.31283 9.41239 6.29699 9.33188 6.28115C7.75388 6.20193 6.15977 6.29699 4.58176 6.23362C4.42074 6.17024 4.29193 6.12271 4.19531 5.99597Z" fill="#7673F2"/>
<path d="M4.19612 5.99707C4.30883 5.99707 4.40545 6.01291 4.51816 6.01291C4.45375 6.50406 3.95458 6.37731 3.68085 6.56743C3.55203 6.61496 3.42322 6.67833 3.3105 6.75755C3.19779 6.83676 3.06897 6.91599 2.95625 6.97936C2.29607 7.2487 1.99013 7.97749 1.31384 8.23098C1.24943 8.23098 1.18503 8.23098 1.13672 8.21514C1.7969 7.01104 2.85964 6.32978 4.19612 5.99707Z" fill="#6A5DE1"/>
<path d="M9.97648 4.74112C9.97648 4.85203 9.97648 4.94709 9.97648 5.05799C9.92817 5.05799 9.87986 5.05799 9.81545 5.05799C9.54172 4.64606 9.25188 4.26582 8.99425 3.83805C8.76882 3.44197 8.31796 3.07757 8.6722 2.52306C8.73661 2.47553 8.80102 2.45968 8.88153 2.50721C9.09086 2.77655 9.02645 3.14095 9.25188 3.41029C9.47731 3.82221 9.79935 4.17076 10.0248 4.56685C10.057 4.61438 10.0409 4.67775 9.97648 4.74112Z" fill="#7B82E4"/>
<path d="M10.1525 2.03447C10.9415 2.28796 11.0703 3.1435 11.6178 3.63464C12.0042 3.9832 12.2457 4.47434 12.5517 4.90211C12.6483 5.09223 12.9059 5.23482 12.7288 5.50415C12.3746 5.61506 12.2618 5.31404 12.1169 5.12392C11.65 4.52187 11.1347 3.96735 10.6999 3.33362C10.555 2.74742 9.94314 2.54145 9.62109 2.11368C9.78211 1.90772 9.95924 1.95525 10.1525 2.03447Z" fill="#585ADA"/>
<path d="M12.7294 5.5173C12.6811 5.31134 12.6167 5.10538 12.5684 4.89941C12.6811 4.94694 12.7777 5.01032 12.8904 5.05785C13.0192 5.24797 13.1641 5.42224 13.3735 5.53315C13.9692 5.86586 14.5489 5.86586 15.1447 5.53315C15.3057 5.42224 15.4506 5.31134 15.6117 5.20044C15.6922 5.13706 15.7727 5.15291 15.8371 5.21628C15.9659 5.80248 15.4989 5.92923 15.0964 6.13519C14.2752 6.19857 13.4057 6.45206 12.7616 5.65989C12.7455 5.61236 12.7294 5.56483 12.7294 5.5173Z" fill="#766FE7"/>
<path d="M10.1522 2.02896C9.97511 2.0448 9.78188 1.99727 9.65307 2.18739C9.58866 2.31414 9.47594 2.39336 9.39543 2.48842C9.1539 2.71022 9.28272 3.01125 9.26662 3.26474C9.25051 3.29643 9.25051 3.32811 9.23441 3.37564C9.20221 3.40733 9.1861 3.42317 9.1539 3.45486C8.71914 3.2489 8.86406 2.85281 8.83186 2.50426C8.73525 2.20324 9.02508 2.17155 9.1539 2.02896C9.50815 1.90221 9.83019 1.74378 10.1522 2.02896Z" fill="#5959DB"/>
<path d="M9.18667 2.04785C9.07395 2.20628 8.96124 2.36472 8.86462 2.52315C8.80022 2.52315 8.75191 2.52315 8.6875 2.52315C8.75191 2.36472 8.81632 2.20629 8.86462 2.0637C8.97734 2.04785 9.07395 2.04785 9.18667 2.04785Z" fill="#8880E8"/>
<path d="M16.5614 3.92179C16.819 3.87426 16.9479 3.66829 17.0767 3.47817C17.3665 3.39896 17.5436 3.50986 17.6403 3.7792C17.6403 4.2545 17.3665 4.55552 16.964 4.77732C16.8029 4.57136 16.5614 4.46046 16.4004 4.2545C16.4326 4.12775 16.4326 4.001 16.5614 3.92179Z" fill="#464CDE"/>
<path d="M16.4162 4.26562C16.6417 4.37653 17.012 4.31315 16.8993 4.74092C16.9154 4.85183 16.8671 4.96273 16.8188 5.05779C16.6095 5.29544 16.4001 5.51725 16.0298 5.34297C15.9332 5.20038 15.9171 5.05779 15.9332 4.89936C15.9815 4.70924 16.0781 4.53496 16.2391 4.40821C16.3035 4.36068 16.3518 4.31315 16.4162 4.26562Z" fill="#4348D6"/>
<path d="M15.1287 5.54199C14.5329 6.00145 13.9532 6.00145 13.3574 5.54199C13.9532 5.68458 14.549 5.68458 15.1287 5.54199Z" fill="#A09FED"/>
<path d="M16.2403 4.41992C16.192 4.5942 16.1436 4.75263 16.0953 4.92691C15.9987 5.03781 15.9504 5.19625 15.7733 5.24378C15.7089 5.24378 15.6445 5.24378 15.5801 5.22793C15.725 4.87938 15.8538 4.54667 16.2403 4.41992Z" fill="#7676E5"/>
<path d="M13.3581 5.5378C13.0521 5.52196 12.8911 5.36352 12.875 5.0625C13.1004 5.15756 13.2615 5.31599 13.3581 5.5378Z" fill="#A09FED"/>
<path d="M27.3666 23.1052C27.3666 23.0418 27.3666 22.9943 27.3505 22.9309C27.0285 22.5506 27.2861 22.1546 27.3022 21.7585C27.3183 21.6159 27.3505 21.4733 27.3988 21.3465C27.5277 19.2552 27.431 17.1481 27.4471 15.0567C27.4632 14.2646 27.4471 13.4883 27.4471 12.6961C27.5115 11.7138 27.3183 10.7157 27.576 9.73339C27.6404 9.62248 27.7209 9.60664 27.8336 9.65417C28.0107 9.92351 27.9141 10.2245 27.9141 10.4939C27.9141 13.916 27.9141 17.3382 27.9302 20.7603C27.9302 21.3465 27.898 21.9011 27.6887 22.4556C27.5599 22.519 27.5438 22.6457 27.5438 22.7724C27.4793 22.8833 27.431 22.9943 27.3666 23.1052Z" fill="#8251EB"/>
<path d="M23.8077 5.87187C25.4018 6.20458 26.69 6.9809 27.5273 8.39096C27.5917 8.80288 27.9138 9.19896 27.6883 9.64258H27.6722C27.3341 9.67426 27.3502 9.3574 27.2375 9.18312C26.7383 7.88397 25.7722 7.07596 24.4196 6.69572C23.9687 6.42638 23.4857 6.37885 22.9704 6.37885C21.7305 6.36301 20.4746 6.44223 19.2347 6.33132C18.9932 6.17289 18.494 6.33132 18.5423 5.80849C18.6228 5.76096 18.7195 5.74512 18.8322 5.74512C20.2331 5.79265 21.65 5.74512 23.0509 5.77681C23.2925 5.77681 23.5662 5.68175 23.8077 5.87187Z" fill="#7358DC"/>
<path d="M27.6884 9.64518C27.6401 9.23325 27.5757 8.80548 27.5273 8.39355C27.8977 8.96391 28.0104 9.59765 28.0104 10.2631C28.0104 13.907 28.0104 17.5668 28.0104 21.2108C28.0104 21.6544 28.0104 22.098 27.6884 22.4624C28.0587 18.359 27.7528 14.2556 27.8494 10.1522C27.8494 9.97789 27.8494 9.78777 27.6884 9.64518Z" fill="#9669E6"/>
<path d="M23.8079 5.87029C22.1011 5.87029 20.3942 5.85445 18.6713 5.85445C18.3493 5.60095 18.1399 5.34746 18.6552 5.07812C18.623 5.63264 18.9611 5.71186 19.4281 5.71186C20.8934 5.69601 22.3426 5.71186 23.8079 5.71186C23.8079 5.75939 23.8079 5.80692 23.8079 5.87029Z" fill="#9D87DF"/>
<path d="M18.6552 5.06273C18.3653 5.33207 18.5424 5.58556 18.6713 5.83905C18.623 5.83905 18.5585 5.8549 18.5102 5.8549C18.3331 5.91827 18.2204 5.82321 18.1077 5.69646C17.9789 5.42713 18.0755 5.17364 18.156 4.92014C18.1721 4.85677 18.2043 4.77755 18.2365 4.71418C18.3975 4.47653 18.6069 4.28641 18.7196 4.03291C18.8806 3.76358 19.0416 3.4784 19.2187 3.20906C19.3153 3.12984 19.412 3.08231 19.5086 3.19322C19.5891 3.35165 19.5408 3.49424 19.4603 3.63683C19.2187 4.11213 18.9289 4.58743 18.6552 5.06273Z" fill="#7377E4"/>
<path d="M17.2539 3.17256C17.7853 2.04769 18.3005 1.73082 19.2989 1.9051C19.4116 2.06353 19.5082 2.22197 19.6209 2.3804C19.2345 2.60221 18.8641 2.07937 18.4777 2.33287C18.3166 2.41208 18.2039 2.53883 18.0912 2.64973C17.8014 2.82401 17.737 3.331 17.2539 3.17256Z" fill="#7676E5"/>
<path d="M18.3496 2.20456C18.8488 1.76094 19.203 2.29962 19.6217 2.37883C19.6217 2.42636 19.6378 2.47389 19.6539 2.52142C19.7183 2.75907 19.8954 3.04425 19.4929 3.171C19.4446 3.21853 19.3801 3.26606 19.3318 3.31359C19.2674 3.36112 19.203 3.36112 19.1225 3.31359C18.9615 2.88582 18.8005 2.44221 18.3496 2.20456Z" fill="#4D49CB"/>
<path d="M19.4766 3.17692C19.6859 3.00264 19.6054 2.74915 19.6376 2.52734C19.9113 2.93927 19.9113 3.33535 19.4766 3.65222C19.4766 3.49379 19.4766 3.33535 19.4766 3.17692Z" fill="#8784E2"/>
<path d="M17.2538 3.18008C17.6403 3.10086 17.6725 2.62556 18.0267 2.5305C18.864 2.27701 19.0251 2.38791 19.0895 3.32267C19.17 3.56032 18.9606 3.71875 18.9123 3.90887C18.7513 4.08314 18.6225 3.97224 18.5098 3.86134C18.4776 3.79797 18.4454 3.73459 18.4454 3.65538C18.4293 3.4811 18.5903 3.27514 18.4132 3.16423C18.3005 3.10086 18.236 3.29098 18.1555 3.38604C17.9784 3.54447 17.914 3.86134 17.5759 3.79797C17.4309 3.70291 17.2699 3.592 17.125 3.49694C17.1411 3.38604 17.1894 3.29098 17.2538 3.18008Z" fill="#4D4BE3"/>
<path d="M2.90779 24.8343C2.42472 24.359 1.94166 23.8837 1.4586 23.4084C0.975534 22.8856 0.830616 22.236 0.830616 21.5864C0.814514 17.6414 0.814513 13.6965 0.814513 9.73562C0.814513 9.52966 0.782309 9.30785 0.975534 9.14941C1.29758 9.48212 1.20096 9.89405 1.20096 10.2743C1.21706 13.7757 1.20096 17.2929 1.20096 20.7943C1.20096 21.1903 1.15266 21.5864 1.32978 21.9667C1.89336 23.1866 2.84338 24.0897 3.87391 24.9294C3.90612 25.0086 3.90612 25.072 3.87391 25.1512C3.50356 25.1987 3.21373 24.9769 2.90779 24.8343Z" fill="#583FE4"/>
<path d="M3.87305 25.1521C3.87305 25.1046 3.87305 25.0412 3.87305 24.9937C4.22729 24.661 4.67815 24.7877 5.09681 24.7719C5.8214 24.756 6.546 24.7719 7.25449 24.756C9.99185 24.756 12.7292 24.756 15.4666 24.756C15.8047 24.756 16.1589 24.7244 16.4971 24.8194C16.5937 24.8511 16.6903 24.9145 16.7547 24.9937C16.642 25.3739 16.32 25.2155 16.0945 25.2155C14.3716 25.2313 12.6487 25.2155 10.9097 25.2313C10.652 25.2313 10.3783 25.1521 10.1368 25.3106C8.31723 25.3106 6.51379 25.3106 4.69426 25.3106C4.42052 25.3106 4.11458 25.4056 3.87305 25.1521Z" fill="#5A38E9"/>
<path d="M10.1523 25.3055C10.3939 25.052 10.6998 25.1471 10.9736 25.1471C12.616 25.1312 14.2745 25.1471 15.9169 25.1312C16.1906 25.1312 16.5127 25.2263 16.7381 24.9728C16.8991 24.7985 17.1085 24.7668 17.3178 24.7668C18.9119 24.751 20.506 24.7351 22.084 24.7827C22.2128 24.7827 22.3416 24.8302 22.4543 24.8936C22.5993 25.0045 22.6154 25.1471 22.5188 25.3055C18.3966 25.3055 14.2745 25.3055 10.1523 25.3055Z" fill="#6D3EEA"/>
<path d="M22.5352 25.3139C22.5352 25.203 22.5352 25.108 22.5352 24.9971C22.9538 24.6327 23.5013 24.8861 23.9521 24.6802C24.242 24.5534 24.5479 24.4742 24.8056 24.2999C25.6751 23.9514 26.1581 23.1592 26.8344 22.5889C27.076 22.6839 27.0598 22.9374 27.1887 23.0959C26.5124 24.0781 25.6107 24.7911 24.4513 25.1555C24.2098 25.3456 23.8877 25.1238 23.6462 25.3139C23.2759 25.3139 22.9055 25.3139 22.5352 25.3139Z" fill="#6D3BE6"/>
<path d="M23.6621 25.3113C23.8875 25.0578 24.1935 25.1845 24.4672 25.1529C24.4672 25.2004 24.4672 25.2638 24.4672 25.3113C24.1935 25.3113 23.9197 25.3113 23.6621 25.3113Z" fill="#7746E7"/>
<path d="M2.90638 6.80576C3.0191 6.75823 3.11571 6.69485 3.22843 6.64732C3.53437 6.55226 3.8403 6.42552 4.16235 6.58395C4.27506 6.67901 4.29116 6.80576 4.24286 6.94835C3.58267 7.32859 2.92249 7.69298 2.42332 8.27918C1.92416 8.86539 1.58601 9.46743 1.66652 10.2596C1.71483 10.7983 1.66652 11.3528 1.68262 11.9073C1.68262 12.0816 1.69872 12.2717 1.68262 12.446C1.63432 13.2698 1.76314 14.0937 1.63432 14.9017C1.39279 16.486 1.60211 18.0862 1.5216 19.6864C1.5055 20.1458 1.65042 20.637 1.31228 21.0489C0.845315 20.9538 1.07074 20.5736 1.07074 20.3518C1.05464 16.8029 1.05464 13.254 1.05464 9.70508C1.05464 9.4199 1.11905 9.11888 0.990234 8.84954C0.990234 8.80201 0.990234 8.73864 0.990234 8.69111C1.65042 8.10491 2.19789 7.37612 2.90638 6.80576Z" fill="#4938EA"/>
<path d="M0.975372 8.85645C1.23301 9.0941 1.12029 9.39512 1.12029 9.6803C1.12029 13.1658 1.12029 16.6672 1.13639 20.1527C1.13639 20.4538 1.00758 20.7865 1.29741 21.0558C1.60335 21.4836 1.60335 21.8955 1.29741 22.3233C0.943167 22.0381 0.975372 21.6262 0.975372 21.2301C0.975372 17.2059 0.975372 13.1975 0.975372 9.17331C0.975372 9.06241 0.975372 8.95151 0.975372 8.85645Z" fill="#4E39E3"/>
<path d="M2.90686 6.80078C2.34329 7.51373 1.82802 8.27421 0.974609 8.70198C1.07122 8.54355 1.18394 8.38511 1.28055 8.22668C1.76361 7.67216 2.21447 7.1018 2.90686 6.80078Z" fill="#5548D9"/>
<path d="M27.1894 23.1115C26.8674 23.0956 26.8674 22.858 26.8674 22.6362C26.6097 22.3668 26.6581 22.05 26.7064 21.7172C26.9479 21.0518 26.6258 20.2755 27.125 19.6576C27.592 19.4992 27.4632 19.9269 27.5759 20.1012C27.6081 20.3864 27.592 20.6716 27.592 20.9568C27.5759 21.2578 27.3182 21.5271 27.5115 21.844C27.4632 22.2084 27.3987 22.5728 27.3504 22.953C27.3021 23.0006 27.2538 23.0481 27.1894 23.1115Z" fill="#6D37E1"/>
<path d="M4.19464 6.64461C3.8726 6.64461 3.55056 6.64461 3.22852 6.64461C3.29292 6.51786 3.42174 6.48617 3.55056 6.48617C5.51501 5.89997 7.51168 6.07425 9.52444 6.16931C9.57274 6.16931 9.62105 6.16931 9.66936 6.16931C9.71766 6.26437 9.70156 6.35943 9.60495 6.4228C8.89646 6.69214 8.15576 6.72382 7.41506 6.72382C6.56165 6.72382 5.70824 6.64461 4.87093 6.81889C4.6133 6.85057 4.38787 6.80304 4.19464 6.64461Z" fill="#5749E2"/>
<path d="M9.50904 6.1555C7.51238 6.1555 5.51571 6.10797 3.53516 6.47237C3.8572 6.31394 4.17924 6.1555 4.50128 6.01291C5.93437 6.01291 7.38356 5.99707 8.81665 5.99707C9.07428 6.01291 9.31581 5.94954 9.50904 6.1555Z" fill="#5B4EDA"/>
<path d="M9.66992 6.32982C9.66992 6.26644 9.66992 6.21891 9.66992 6.15554C10.1691 5.87036 10.475 5.50596 10.153 4.90392C10.2174 4.85639 10.2979 4.84054 10.3784 4.88807C10.6683 5.09404 10.7649 5.39506 10.8454 5.71193C10.6683 6.42488 10.3945 6.56747 9.66992 6.32982Z" fill="#574BEA"/>
<path d="M10.3143 4.90214H10.2338H10.1533C10.105 4.85461 10.0406 4.79124 9.9923 4.74371C9.9923 4.69618 9.9923 4.63281 9.9923 4.58528C9.79908 4.26841 9.50924 4.03076 9.46094 3.65052C9.50924 3.53962 9.58975 3.4604 9.71857 3.42871C10.0567 3.44455 10.2016 3.69805 10.3788 3.91986C10.4915 4.25256 10.9423 4.60112 10.3143 4.90214Z" fill="#484DDA"/>
<path d="M9.50954 3.63246C9.60615 3.98102 9.9604 4.20282 9.99261 4.58306C9.57395 4.31373 9.33242 3.93349 9.1875 3.47403H9.2036C9.36462 3.39481 9.44513 3.48987 9.50954 3.63246Z" fill="#5959DB"/>
<path d="M10.7969 3.32324C11.5859 3.94113 11.9885 4.87589 12.7292 5.54131C12.7775 5.58884 12.7936 5.62052 12.7775 5.66805C12.7614 5.71558 12.7614 5.73143 12.7453 5.73143C12.6487 5.7948 12.5359 5.81065 12.4232 5.77896C12.3105 5.74727 12.23 5.6839 12.1495 5.60468C11.7952 5.28781 11.6664 4.82836 11.3283 4.51149C11.0707 4.17878 10.5715 3.97282 10.7325 3.4183C10.7325 3.37077 10.7647 3.33909 10.7969 3.32324Z" fill="#534DE3"/>
<path d="M9.33175 2.36839C9.39616 2.24165 9.52497 2.20996 9.65379 2.20996C10.3301 2.28918 10.7004 2.65357 10.7809 3.31899C10.3784 3.4299 10.2979 3.01797 10.0402 2.89122C9.83091 2.78032 9.686 2.92291 9.52498 3.01797C9.44447 3.03382 9.38005 3.03381 9.31565 2.98628C9.13852 2.78032 9.20293 2.57436 9.33175 2.36839Z" fill="#534DE3"/>
<path d="M12.3914 5.69158C12.5041 5.69158 12.6007 5.69158 12.7134 5.69158C13.1965 6.08766 13.7761 6.11935 14.3719 6.08766C14.6295 6.10351 14.8872 6.49959 15.1448 6.08766C15.1287 6.05598 15.1287 6.04013 15.1126 6.00845C15.338 5.75495 15.7567 5.65989 15.7728 5.21628C15.8372 5.07369 15.9338 4.96279 16.0948 4.89941C16.0948 5.05785 16.0948 5.21628 16.0948 5.37471C16.1592 5.56483 16.3364 5.72326 16.3042 5.96091C16.0948 6.27778 15.8533 6.57881 15.5474 6.80061C14.8067 7.06995 14.0499 6.78477 13.3092 6.80061C12.7939 6.64218 12.343 6.40453 12.0371 5.92923C12.0693 5.72327 12.2303 5.70742 12.3914 5.69158Z" fill="#5644ED"/>
<path d="M14.4841 6.17573C13.8722 6.11235 13.1637 6.38169 12.7129 5.70043C12.7129 5.6529 12.7129 5.58952 12.7129 5.54199C13.4214 6.20741 14.2909 6.00145 15.1282 6.01729C15.0155 6.42922 14.7579 6.31832 14.4841 6.17573Z" fill="#5A48EC"/>
<path d="M9.33198 2.36426C9.34808 2.58606 9.26757 2.82371 9.493 2.99799C9.54131 3.06136 9.54131 3.12473 9.52521 3.18811C9.4286 3.29901 9.33198 3.39407 9.17096 3.31486C8.99384 2.95046 8.88112 2.61775 9.33198 2.36426Z" fill="#4C42DA"/>
<path d="M9.1875 3.31957C9.30021 3.27204 9.39683 3.20866 9.50954 3.16113C9.65446 3.22451 9.75107 3.30372 9.67056 3.478C9.62226 3.52553 9.55785 3.5889 9.50954 3.63643C9.39683 3.5889 9.30021 3.52553 9.1875 3.478C9.1875 3.41463 9.1875 3.3671 9.1875 3.31957Z" fill="#534DE3"/>
<path d="M17.5434 3.79854C17.7044 3.64011 17.8654 3.48168 18.0264 3.32324C18.2197 3.38662 18.3968 3.48168 18.5095 3.64011C18.5095 3.68764 18.5095 3.75101 18.5095 3.79854C18.6061 4.1471 18.3324 4.41643 18.3485 4.74914C18.3485 4.79667 18.3485 4.86005 18.3324 4.90758C18.2519 5.03432 18.1392 5.16107 17.9942 5.2086C17.5273 5.3195 17.0442 5.41456 16.7383 4.90758C16.7866 4.86005 16.851 4.79667 16.8993 4.74914C17.1247 4.43228 17.4951 4.22631 17.5434 3.79854Z" fill="#484DEB"/>
<path d="M16.7381 4.89941C17.1407 5.15291 17.5754 5.12122 18.0263 5.05785C18.1873 5.26381 18.0424 5.42224 17.9458 5.58068C17.5271 6.04013 16.9153 5.59652 16.4483 5.89754C16.3678 5.91339 16.3034 5.89754 16.239 5.83417C16.0618 5.72327 15.7881 5.62821 16.0779 5.35887C16.3356 5.23212 16.6254 5.18459 16.7381 4.89941Z" fill="#4F43ED"/>
<path d="M27.5275 20.0977C27.4148 19.9393 27.3182 19.7808 27.2054 19.6224C27.0122 19.4481 26.98 19.2105 26.98 18.9728C26.98 17.3568 26.9156 15.7408 27.0122 14.1089C27.2699 12.8098 27.0605 11.5106 27.1249 10.2115C27.141 9.84706 27.0444 9.46682 27.3504 9.18164C27.447 9.34007 27.5597 9.49851 27.6563 9.65694C27.6563 10.6551 27.6563 11.669 27.6563 12.6672C27.4792 13.4435 27.608 14.2357 27.5758 15.012C27.5436 16.6914 27.7046 18.4025 27.5275 20.0977Z" fill="#6C40EB"/>
<path d="M27.5259 20.0977C27.5259 17.8955 27.5259 15.6774 27.5259 13.4752C27.5259 13.2059 27.4132 12.889 27.687 12.6514C27.687 15.3289 27.687 18.0223 27.687 20.6998C27.687 20.9691 27.7997 21.286 27.5259 21.5236C27.4132 21.3652 27.4132 21.2068 27.5259 21.0483C27.5259 20.7315 27.5259 20.4146 27.5259 20.0977Z" fill="#7846F0"/>
<path d="M27.5269 21.0537C27.5269 21.2121 27.5269 21.3706 27.5269 21.529C27.5269 21.6399 27.5269 21.735 27.5269 21.8459C27.2853 21.5765 27.2853 21.3072 27.5269 21.0537Z" fill="#6C40EB"/>
<path d="M27.3662 9.16706C27.3662 10.5296 27.3662 11.8921 27.3662 13.2546C27.3662 13.524 27.4789 13.8408 27.2052 14.0785C26.7865 14.031 26.867 13.6982 26.8348 13.4448C26.8026 13.1437 26.8187 12.8427 26.8187 12.5417C26.8348 12.0822 26.8348 11.6228 26.8187 11.1792C26.8187 10.6405 26.8992 10.086 26.6094 9.57898C26.5128 9.32549 26.5289 9.04031 26.4323 8.78682C26.3518 8.18477 25.7238 8.01049 25.4339 7.56688C25.1924 7.18664 24.7738 7.18664 24.4034 7.04405C24.2585 6.93315 24.017 6.86977 24.1619 6.60044C24.3229 6.53706 24.4839 6.53707 24.6288 6.64797C25.9009 6.83809 27.1569 7.99465 27.3662 9.16706Z" fill="#6038E6"/>
<path d="M24.6291 6.64546C24.4681 6.64546 24.3071 6.64546 24.1461 6.64546C23.9528 6.81973 23.7274 6.83558 23.4859 6.78805C22.2782 6.61377 21.0706 6.70883 19.8629 6.72467C19.7824 6.75636 19.6858 6.7722 19.6053 6.78805C19.1705 6.81973 18.8002 6.75636 18.623 6.2969C18.7358 5.99588 18.9451 6.05925 19.1544 6.17016C20.5231 6.17016 21.8757 6.186 23.2443 6.17016C23.7757 6.15431 24.2427 6.28106 24.6291 6.64546Z" fill="#5B3EE1"/>
<path d="M19.1534 6.15499C18.9763 6.17083 18.783 6.1233 18.6703 6.31342C18.3322 6.55107 18.1067 6.40848 17.9457 6.07577C17.9296 5.88565 17.994 5.74306 18.1873 5.67969C18.3 5.74306 18.3966 5.79059 18.5093 5.85397C18.6542 6.10746 19.0085 5.91734 19.1534 6.15499Z" fill="#624BEE"/>
<path d="M18.348 4.73673C17.9454 4.34065 18.3641 4.08716 18.509 3.78613C18.6217 3.83366 18.7183 3.89704 18.831 3.94457C18.8793 3.97625 18.8955 4.00794 18.8793 4.05547C18.8632 4.08715 18.8471 4.103 18.831 4.103C18.8149 4.41987 18.6056 4.59414 18.348 4.73673Z" fill="#464BDF"/>
<path d="M18.1872 5.69158C18.1389 5.80248 18.0745 5.89754 18.0262 6.00845C17.6558 5.94507 17.7524 5.75495 17.8651 5.53315C17.9134 5.37471 17.9778 5.21628 18.0262 5.05785C18.1228 5.01032 18.2355 4.94694 18.3321 4.89941C18.2999 5.15291 18.2355 5.42224 18.1872 5.69158Z" fill="#6049F9"/>
<path d="M18.832 4.11541C18.832 4.06788 18.832 4.00451 18.832 3.95698C18.8803 3.79854 18.9447 3.64011 18.9931 3.48168C19.0575 3.43415 19.0575 3.33909 19.1541 3.32324C19.2024 3.32324 19.2668 3.32324 19.3151 3.32324C19.2829 3.65595 19.0414 3.87776 18.832 4.11541Z" fill="#5556D8"/>
<path d="M19.1545 3.31933C19.1062 3.36686 19.0418 3.43024 18.9935 3.47777C19.1062 2.73313 18.7841 2.41627 18.0273 2.52717C18.0918 2.36874 18.1884 2.27368 18.3494 2.2103C19.1545 2.19446 19.1867 2.73313 19.1545 3.31933Z" fill="#4D48D4"/>
<path d="M18.5104 3.63272C18.2689 3.63272 18.0434 3.63272 18.0273 3.31586C18.0918 3.01483 18.2367 2.65044 18.5426 2.80887C18.7841 2.93562 18.7519 3.36339 18.5104 3.63272Z" fill="#5150EF"/>
<path d="M1.29643 22.3165C1.29643 21.8887 1.29643 21.4768 1.29643 21.049C1.29643 19.2587 1.29643 17.4843 1.29643 15.694C1.29643 15.4246 1.18371 15.1078 1.45745 14.8701C1.73118 15.1078 1.68288 15.4405 1.68288 15.7415C1.68288 16.9931 1.68288 18.2447 1.68288 19.4805C1.69898 19.7182 1.69898 19.9558 1.68288 20.1776C1.65067 20.4787 1.66677 20.7797 1.66677 21.0807C1.63457 21.6986 1.60237 22.3165 2.13374 22.7918C2.32696 23.1086 2.47188 23.4414 2.81002 23.6473C2.95494 23.7899 3.11596 23.9008 3.27698 23.9959C4.1626 24.6771 5.20923 24.6138 6.25587 24.6138C6.61012 24.6138 7.07708 24.4395 7.2542 24.9782C6.12706 24.9782 4.99991 24.9782 3.87276 24.9782C3.21258 24.8356 2.82612 24.2811 2.39137 23.8691C1.92441 23.4572 1.65067 22.8393 1.29643 22.3165Z" fill="#5938EF"/>
<path d="M7.25443 24.9937C6.54594 24.661 5.78914 24.8511 5.06454 24.8511C4.25944 24.8511 3.64756 24.5343 3.08398 24.0431C3.51874 23.8055 3.85689 24.1065 4.22723 24.2174C4.30775 24.2491 4.37215 24.2966 4.45266 24.3283C5.35438 24.5501 6.2722 24.4075 7.19002 24.4234C7.7697 24.4234 8.33327 24.3917 8.91294 24.4868C10.185 24.6927 11.4732 24.5184 12.7613 24.566C14.0173 24.5977 15.2894 24.4392 16.5453 24.7086C16.642 24.7719 16.6742 24.8511 16.6259 24.9621C13.4698 24.9937 10.3621 24.9937 7.25443 24.9937Z" fill="#5D3BF7"/>
<path d="M16.5781 24.9886C16.5781 24.9411 16.5781 24.8777 16.5781 24.8302C16.6747 24.7193 16.8036 24.6717 16.9485 24.64C17.6248 24.5291 18.3333 24.7193 19.0095 24.5133C19.863 24.4024 20.7325 24.4341 21.5859 24.4816C21.6664 24.4816 21.7469 24.5133 21.8274 24.5291C22.1172 24.64 22.4071 24.6717 22.713 24.545C22.9868 24.4816 23.1961 24.3073 23.4537 24.2123C23.7919 24.1331 24.13 24.1331 24.4682 24.1489C24.6453 24.1647 24.8224 24.2123 24.9512 24.3549C24.291 25.0678 23.4054 24.9886 22.5359 24.9886C20.6037 24.9886 18.6714 24.9886 16.7391 24.9886C16.6908 24.9886 16.6264 24.9886 16.5781 24.9886Z" fill="#7337F8"/>
<path d="M24.9518 24.3713C24.7908 24.3713 24.6298 24.3713 24.4688 24.3713C24.5654 23.8802 25.145 23.9277 25.3705 23.595C26.4493 23.1038 26.1273 22.1691 26.1434 21.3294C26.3366 20.8382 26.4976 20.3312 26.4815 19.7926C26.5137 18.9529 26.401 18.129 26.5459 17.2893C26.5781 17.1943 26.6425 17.115 26.723 17.0517C26.8358 17.0358 26.9163 17.0675 26.9646 17.1784C27.1095 18.6835 27.0129 20.1728 26.868 21.6779C26.868 21.9948 26.868 22.3117 26.868 22.6285C26.3849 23.3573 25.8696 24.0861 24.9518 24.3713Z" fill="#773BF9"/>
<path d="M1.45703 11.8546C1.45703 11.2525 1.45703 10.6505 1.45703 10.0326C1.45703 8.6542 2.7613 7.16493 4.19439 6.94312C4.37151 6.80053 4.56474 6.76885 4.77407 6.86391C4.95119 7.27583 4.58084 7.24415 4.37151 7.30752C3.93676 7.43427 3.4859 7.4818 3.14775 7.89372C3.43759 8.13137 3.98506 7.9571 4.08167 8.44824C3.90455 8.79679 3.11555 8.81264 3.4859 9.47806C3.74353 10.6505 2.7774 10.999 2.06891 11.506C1.82738 11.5694 1.76297 11.9338 1.45703 11.8546Z" fill="#4F41FD"/>
<path d="M4.8394 6.95963C4.63007 6.95963 4.40464 6.95963 4.19531 6.95963C4.19531 6.84872 4.19531 6.75366 4.19531 6.64276C5.99875 6.34174 7.85049 6.62692 9.67003 6.32589C10.0887 6.26252 10.7167 6.50017 10.6362 5.69216C11.2802 4.89999 11.3768 4.88415 12.2464 5.53373C12.2947 5.58126 12.3591 5.64463 12.4074 5.69216C12.343 5.81891 12.2142 5.85059 12.0853 5.85059C11.6345 5.97734 11.2158 6.16746 10.8294 6.46848C9.94376 7.1339 8.84882 7.07053 7.85049 7.08637C7.06149 7.10222 6.27248 7.19728 5.48348 7.18143C5.22585 7.16559 5.00042 7.1339 4.8394 6.95963Z" fill="#4D44ED"/>
<path d="M1.45703 11.8531C1.66636 11.7422 1.58585 11.3461 1.94009 11.3778C2.03671 11.4253 2.16552 11.4728 2.16552 11.5679C2.19773 12.1858 2.69689 12.3442 3.16386 12.5343C3.29267 12.7561 3.29267 13.0096 3.29267 13.2631C3.27657 13.9444 3.16386 14.5781 2.43926 14.9108C1.90789 14.4514 1.61805 13.8652 1.55364 13.1681C1.52144 12.8829 1.63416 12.5977 1.47313 12.3284C1.45703 12.1699 1.45703 12.0115 1.45703 11.8531Z" fill="#5441FD"/>
<path d="M1.45703 12.335C1.56975 13.2539 2.03671 14.046 2.42316 14.8699C2.55197 15.0442 2.55197 15.2501 2.42316 15.3769C1.66636 16.0265 1.87569 16.882 1.85958 17.7058C1.85958 17.8801 1.85958 18.0702 1.85958 18.2445C1.76297 18.7198 2.13332 19.306 1.47313 19.6229C1.47313 18.0386 1.47313 16.4542 1.47313 14.8699C1.45703 14.0302 1.45703 13.1905 1.45703 12.335Z" fill="#553FFD"/>
<path d="M26.8834 21.674C26.8834 20.1372 26.8834 18.6162 26.8834 17.0794C26.5775 16.7467 26.6741 16.3348 26.6741 15.9387C26.6902 14.592 26.6741 13.2453 26.0944 11.9937C25.9495 11.6768 26.03 11.3758 26.2071 11.0906C26.352 10.8371 26.5453 10.6153 26.5453 10.2985C26.5453 10.1717 26.5292 10.045 26.5453 9.91822C26.5614 9.74394 26.5936 9.58551 26.7385 9.47461C27.2377 9.91822 26.9961 10.5203 27.0605 11.0589C26.9317 11.5342 26.9317 12.0095 27.0605 12.4848C27.141 13.0077 26.8995 13.5622 27.2216 14.0692C27.2216 15.9228 27.2216 17.7607 27.2216 19.6143C26.9156 20.2639 27.2055 21.0086 26.8834 21.674Z" fill="#6F3DF5"/>
<path d="M12.23 5.53994C11.6503 5.09633 11.1189 5.31813 10.6198 5.69837C10.5071 5.42904 10.4105 5.17554 10.2977 4.90621C10.6842 4.51012 10.2816 4.25663 10.1367 3.95561C10.3621 3.76549 10.5393 3.92392 10.6681 4.06651C10.8774 4.28831 11.1512 4.36753 11.4249 4.43091C11.8596 4.6844 11.9079 5.20723 12.23 5.53994Z" fill="#4947EB"/>
<path d="M11.4244 4.42441C11.1185 4.59868 10.8287 4.66206 10.6354 4.28182C10.5388 4.07585 10.3778 3.94911 10.1363 3.94911C10.0236 3.74314 9.86254 3.58471 9.65321 3.47381C9.6049 3.3629 9.54049 3.26784 9.49219 3.15694C9.49219 3.10941 9.49219 3.04604 9.49219 2.99851C9.76592 2.99851 10.0236 2.99851 10.1363 2.68164C10.3778 2.87176 10.4583 3.20447 10.7804 3.31537C10.6998 3.85405 11.2473 4.02832 11.4244 4.42441Z" fill="#4E50EA"/>
<path d="M10.1519 2.68426C10.0875 2.90607 10.3129 3.12787 10.168 3.36552C9.84596 3.4289 9.76545 3.04866 9.50781 3.00113C9.54002 2.55751 9.76545 2.4783 10.1519 2.68426Z" fill="#564FF7"/>
<path d="M5.48238 6.96445C6.91547 6.75849 8.36465 6.98029 9.79774 6.67927C10.2647 6.58421 10.6673 6.44162 10.9571 6.07723C11.2791 5.71283 11.6334 5.57024 12.0681 5.85542C12.4385 6.12476 12.8249 6.37825 13.1953 6.64759C13.2275 6.67927 13.2597 6.7268 13.2436 6.77433C13.2436 6.82186 13.2275 6.8377 13.2275 6.8377C12.9377 7.05951 12.7605 7.37638 12.5512 7.66156C12.4868 7.70909 12.4224 7.72493 12.3419 7.75662C12.197 7.80415 11.9876 7.77246 11.891 7.88336C11.3274 8.50125 10.6673 8.32698 10.0071 8.12101C8.96043 8.20023 8.94433 8.21608 8.87992 9.24589C8.87992 9.37264 8.84772 9.49938 8.76721 9.61029C8.67059 9.70535 8.55788 9.67366 8.46127 9.61029C8.25194 9.38848 7.9299 9.35679 7.67227 9.2142C7.12479 8.65969 7.68837 8.07348 7.65616 7.48728C6.91547 7.37638 6.12647 7.77246 5.43407 7.26548C5.38577 7.15457 5.38577 7.05951 5.48238 6.96445Z" fill="#5640FC"/>
<path d="M13.1969 6.81075C13.1969 6.76322 13.1969 6.69984 13.1969 6.65231C14.002 6.54141 14.8071 6.85828 15.6122 6.65231C16.0309 6.54141 16.2402 6.2087 16.4173 5.86015C16.5622 5.54328 16.836 5.46406 17.1258 5.59081C17.3996 5.70171 17.625 5.67003 17.8665 5.54328C17.8665 5.71756 17.8343 5.90768 18.0275 6.01858C18.1564 6.30376 18.3979 6.35129 18.6716 6.33545C18.9615 6.54141 19.2513 6.71569 19.6378 6.65231C19.6539 6.684 19.67 6.71568 19.6861 6.76321C19.67 6.7949 19.67 6.84243 19.6539 6.87412C18.8326 7.38111 18.2691 7.2702 17.5123 6.38298C17.7538 7.09593 17.7055 7.55538 16.9165 7.57123C16.208 7.61876 15.5478 7.44448 14.9198 7.17514C14.4529 7.06424 13.9859 6.98502 13.519 7.09593C13.3579 7.0484 13.1647 7.0484 13.1969 6.81075Z" fill="#5941F8"/>
<path d="M16.4164 5.8584C16.4325 6.39707 16.352 6.85653 15.6113 6.65056C15.724 6.30201 15.9817 6.08021 16.2554 5.8584C16.3198 5.8584 16.3681 5.8584 16.4164 5.8584Z" fill="#5B44F6"/>
<path d="M14.4844 6.17113C14.7098 6.13944 14.9513 6.2345 15.1285 6.0127C15.2734 6.02854 15.4827 5.96516 15.531 6.15528C15.5793 6.3454 15.4022 6.45631 15.2412 6.45631C14.9674 6.45631 14.5971 6.64643 14.4844 6.17113Z" fill="#503EE3"/>
<path d="M25.5946 7.43431C25.7878 7.95714 26.6734 7.95714 26.5607 8.70178C26.7217 8.92358 26.5768 9.08201 26.448 9.2246C26.3353 9.28798 26.2226 9.30382 26.1098 9.30382C25.7878 9.27213 25.5141 9.08201 25.2564 8.90774C24.8539 8.6384 24.4352 8.57503 23.9844 8.79684C23.8716 8.81268 23.7589 8.79683 23.6462 8.7493C23.4369 8.55918 23.2759 8.33738 23.2598 8.03635C23.4369 7.40262 23.9844 7.24419 24.5157 7.03823C24.9344 6.97485 25.2564 7.22835 25.5946 7.43431Z" fill="#693BFD"/>
<path d="M25.5945 7.43493C25.1919 7.41908 24.886 7.05469 24.4673 7.11806C23.8554 7.35571 23.2274 7.54583 22.5673 7.29234C22.0681 7.11806 21.5689 7.1339 21.0698 7.29234C20.8121 7.37155 20.5545 7.43493 20.2808 7.33987C20.0553 7.24481 19.8138 7.18143 19.6206 7.023C19.5562 6.95963 19.5562 6.88041 19.6206 6.81704C20.8121 6.50017 22.0037 6.64276 23.1952 6.73782C23.5978 6.76951 24.0486 6.76951 24.4512 6.97547C24.9182 6.94378 25.3368 6.99131 25.5945 7.43493Z" fill="#633EF7"/>
<path d="M24.4673 6.96954C22.8571 6.77942 21.2469 6.81111 19.6367 6.81111C19.6367 6.76358 19.6367 6.70021 19.6367 6.65268C20.9249 6.52593 22.2131 6.52593 23.5012 6.65268C23.7106 6.65268 23.936 6.65268 24.1453 6.65268C24.2419 6.74774 24.3546 6.85864 24.4673 6.96954Z" fill="#633FF1"/>
<path d="M26.3991 9.16964C26.4474 9.0112 26.5118 8.85277 26.5601 8.69434C26.8338 8.91614 26.6889 9.21717 26.7211 9.4865C26.7211 9.64494 26.7211 9.80337 26.7211 9.9618C26.1414 9.88259 26.1736 9.56572 26.3991 9.16964Z" fill="#6F3DF9"/>
<path d="M27.0448 12.4933C26.7872 12.018 26.7872 11.5427 27.0448 11.0674C27.0448 11.5427 27.0448 12.018 27.0448 12.4933Z" fill="#6C40EB"/>
<path d="M23.5012 6.64536C22.2131 6.64536 20.9249 6.64536 19.6367 6.64536C20.9249 6.37603 22.2131 6.37603 23.5012 6.64536Z" fill="#603FE9"/>
<path d="M2.74565 23.7389C2.26258 23.6914 2.18207 23.3111 2.10156 22.9467C2.87446 22.2655 2.82616 21.0614 3.76008 20.4593C3.9533 20.3326 3.9372 20.0316 3.8889 19.7939C3.74398 19.0493 4.08212 18.4631 4.56518 17.9402C4.77451 17.7026 4.98384 17.4808 5.14486 17.1956C5.64402 16.3084 6.1915 16.2292 6.9966 16.8946C7.04491 16.9896 7.07711 17.0847 7.09321 17.1956C7.17372 18.4472 7.39916 18.6057 8.73563 18.368C8.99326 18.3205 9.2509 18.3205 9.49243 18.3997C9.65345 18.4631 9.81447 18.5581 9.86278 18.7482C9.46023 19.2394 8.83224 19.0176 8.33308 19.1919C8.09155 19.2711 7.80171 19.1919 7.56017 19.2869C6.2076 19.6513 5.90166 21.2515 6.51354 22.0437C6.75507 22.3605 7.04491 22.4239 7.36695 22.5506C7.93053 22.9309 8.65512 22.519 9.20259 22.9309C9.23479 23.1685 9.05767 23.2161 8.88055 23.2794C8.17206 23.3428 7.46356 23.3903 6.77117 23.1369C5.96607 22.8834 5.77284 22.107 5.32198 21.4099C4.83892 22.3288 3.66346 22.5031 3.35752 23.5171C3.1804 23.7231 3.03548 23.929 2.74565 23.7389Z" fill="#5D40FB"/>
<path d="M6.93317 16.928C5.90264 16.4368 5.80602 16.4844 5.29076 17.435C5.14584 17.7043 4.8721 17.8944 4.66277 18.1479C4.24412 18.6391 3.87377 19.1302 4.13141 19.8432C4.32463 20.3977 3.93818 20.7462 3.56783 21.0314C3.10087 21.38 2.81103 21.6968 2.97205 22.3306C3.14918 23.0594 2.29577 22.5841 2.10254 22.9485C1.29744 22.5841 1.45846 21.8553 1.45846 21.2057C1.61948 21.0156 1.49066 20.7779 1.57117 20.572C1.63558 20.4452 1.71609 20.3502 1.86101 20.3185C2.44069 20.16 3.03646 19.6847 3.37461 19.0827C3.68055 18.5599 3.80936 17.9578 4.1153 17.435C4.45345 17.2924 4.71108 17.0864 4.93651 16.7696C5.22635 16.3418 5.54839 15.914 6.12807 15.8506C6.49841 15.8982 6.85266 15.914 7.1586 15.6288C7.28742 15.5179 7.46454 15.3912 7.64166 15.5655C7.75438 15.7397 7.77048 15.9457 7.77048 16.1358C7.77048 16.3101 7.73828 16.4685 7.67387 16.6111C7.48064 16.8488 7.27132 17.0389 6.93317 16.928Z" fill="#5B3FFC"/>
<path d="M3.5503 19.148C3.5342 19.3223 3.58251 19.5282 3.34098 19.6074C2.7452 19.7817 2.66469 20.2095 2.90622 20.9224C2.42316 20.4947 2.05281 20.2412 1.61805 20.5739C1.50534 20.4947 1.56975 20.3362 1.45703 20.257C1.45703 20.0511 1.45703 19.8292 1.45703 19.6233C1.77907 19.1797 1.55364 18.6727 1.61805 18.1974C1.94009 17.9914 2.11722 18.2449 2.32654 18.4033C2.63248 18.8153 2.98673 19.148 3.5503 19.148Z" fill="#593FFE"/>
<path d="M2.74609 23.7386C2.97152 23.7386 3.13254 23.6277 3.22916 23.4218C3.64781 23.1366 3.79273 23.4693 3.96985 23.7386C4.06647 23.9446 4.2919 24.103 4.19528 24.3724C3.82493 24.2615 3.43848 24.1664 3.06814 24.0555C2.85881 24.0397 2.74609 23.9446 2.74609 23.7386Z" fill="#5F3EFA"/>
<path d="M1.45703 20.2568C1.58585 20.3202 1.61805 20.447 1.61805 20.5737C1.60195 20.7955 1.69856 21.0332 1.45703 21.2074C1.45703 20.8906 1.45703 20.5737 1.45703 20.2568Z" fill="#553FFD"/>
<path d="M4.19529 24.3551C4.08258 24.1967 3.98596 24.0383 3.87325 23.8798C3.80884 23.6105 4.01817 23.4045 4.19529 23.4362C5.0004 23.5788 5.33854 22.4698 6.15975 22.7708C6.30467 22.8183 6.46569 22.8183 6.5945 22.9292C7.3352 23.1035 8.092 23.1035 8.8488 23.0877C8.97761 23.1986 9.26745 23.1669 9.23525 23.4045C9.17084 23.8323 9.39627 24.0066 9.75052 24.1492C9.92764 24.2125 10.0726 24.3551 10.0082 24.5769C9.92764 24.8146 9.70221 24.7512 9.54119 24.7354C9.31576 24.7354 9.07423 24.8146 8.8488 24.672C8.25302 24.672 7.67334 24.672 7.07757 24.672C6.36907 24.4027 5.61228 24.5136 4.87158 24.4344C4.66225 24.4185 4.40462 24.5294 4.19529 24.3551Z" fill="#633EFE"/>
<path d="M8.86523 24.6728C9.20338 24.6728 9.54152 24.6728 9.86357 24.6728C9.94408 24.356 9.75085 24.2926 9.62204 24.2767C9.10677 24.1975 8.6237 24.15 9.12287 23.4529C9.21948 23.3103 8.92964 23.2311 8.86523 23.0885C8.99405 23.0885 9.12287 23.0568 9.18728 22.9301C9.73475 22.5498 10.3305 22.7399 10.9263 22.7558C11.6026 22.9618 12.3111 22.835 13.0035 22.8667C13.2933 22.8825 13.5993 22.8508 13.873 22.9459C14.0984 23.0727 14.0823 23.2152 13.8569 23.342C13.5832 23.4846 13.2933 23.4371 13.0035 23.4529C12.6975 23.4687 12.4238 23.548 12.295 23.849C12.1501 24.1975 12.3594 24.3877 12.617 24.5461C12.7136 24.6095 12.7619 24.6887 12.7297 24.8154C11.6992 24.8154 10.6526 24.8154 9.62204 24.8154C9.3483 24.8313 9.05846 24.9263 8.86523 24.6728Z" fill="#653DFA"/>
<path d="M12.7131 24.8321C12.3749 24.6103 11.7952 24.5944 11.9724 23.9448C12.1334 23.3745 12.5198 23.1844 13.0995 23.2319C13.3893 23.2636 13.7436 23.3586 14.0012 23.0893C14.6131 22.7091 15.2733 22.8833 15.9174 22.9309C16.3199 23.1685 16.0784 23.2794 15.8208 23.3903C15.4665 23.5329 14.8385 23.4854 14.8868 23.9448C14.919 24.3409 15.5953 24.1508 15.9174 24.3726C16.2233 24.5786 16.7547 24.3092 16.8996 24.8321C16.7869 24.8321 16.6903 24.8321 16.5776 24.8321C15.2894 24.8321 14.0012 24.8321 12.7131 24.8321Z" fill="#6B3BFD"/>
<path d="M4.19531 24.3622C5.19364 24.1404 6.17587 24.1404 7.09369 24.679C6.3691 24.679 5.6606 24.679 4.93601 24.679C4.64617 24.6949 4.34023 24.6949 4.19531 24.3622Z" fill="#603CFD"/>
<path d="M26.7224 17.2415C26.7224 18.1446 26.7224 19.0318 26.7224 19.9349C26.5614 20.1091 26.3681 20.2517 26.0944 20.2676C25.4181 20.1092 25.08 20.4735 24.9995 21.0598C24.8868 21.7885 24.3715 22.2322 23.7757 22.3431C23.1316 22.4698 22.8579 22.7708 22.7291 23.3095C22.1655 24.1017 23.0028 24.1017 23.3571 24.371C23.2282 24.6562 22.9867 24.7037 22.713 24.6879C22.4392 24.8146 22.1816 24.7988 21.9079 24.6879C20.8934 24.1492 20.8934 24.1492 21.4248 22.755C21.457 22.6916 21.5053 22.6124 21.5536 22.5649C22.407 22.0262 22.5681 21.2023 22.4875 20.2834C22.3587 19.7764 22.407 19.3328 22.874 19.0001C23.2443 18.4773 23.6469 18.0495 24.3071 17.8277C24.7418 17.6851 24.8707 17.2415 24.9512 16.8137C24.9995 16.5761 25.0639 16.3543 25.3215 16.2592C25.6114 16.1642 25.7724 16.3701 25.8851 16.5761C26.0783 16.8771 26.4648 16.988 26.7224 17.2415Z" fill="#743BFE"/>
<path d="M16.8999 24.8345C16.272 24.7077 15.6923 24.3909 15.0321 24.4226C14.7101 24.4384 14.5973 24.2641 14.5168 24.0423C14.4363 23.8205 14.5812 23.7096 14.7745 23.5512C15.177 23.2343 15.7084 23.3769 16.0948 23.1076C16.2237 22.9491 16.4008 22.9016 16.594 22.9016C18.0271 22.9333 19.4441 22.8224 20.8772 22.7432C20.9577 22.759 21.0382 22.7748 21.1187 22.8065C21.4246 23.0283 21.2314 23.1709 21.006 23.2185C20.5229 23.3294 20.0721 23.5987 19.5568 23.567C19.4441 23.567 19.3475 23.5512 19.2348 23.5829C18.8966 23.6779 18.5102 23.7571 18.4296 24.1215C18.333 24.5018 18.8483 24.4384 18.9932 24.676C18.3169 25.0246 17.5923 24.7553 16.8999 24.8345Z" fill="#6E3BFC"/>
<path d="M18.9923 24.6731C18.5736 24.6889 18.171 24.6414 18.0583 24.1503C18.01 23.8968 19.0084 23.2155 19.3787 23.3106C20.0872 23.5007 20.6025 22.9937 21.2465 22.9303C21.311 22.7877 21.3915 22.6927 21.5686 22.7719C21.5686 22.8036 21.5686 22.8194 21.5525 22.8511C21.1982 23.5482 21.0855 24.1819 21.8906 24.6731C20.9245 24.6731 19.9584 24.6731 18.9923 24.6731Z" fill="#723AFD"/>
<path d="M23.3396 24.3768C22.9532 24.3768 22.5345 24.4402 22.293 24.0282C22.0998 23.6797 22.4379 23.5212 22.5345 23.2678C22.5989 23.2202 22.6634 23.1568 22.7439 23.1568C23.6295 23.1885 24.4829 23.1727 25.1592 22.4756C25.3846 22.8717 25.3524 23.3153 25.4329 23.7272C25.2558 24.155 24.7405 24.0758 24.4668 24.3609C24.0803 24.3609 23.71 24.3768 23.3396 24.3768Z" fill="#783AFB"/>
<path d="M21.8906 24.6689C22.1644 24.6689 22.422 24.6689 22.6957 24.6689C22.422 24.9066 22.1644 24.9066 21.8906 24.6689Z" fill="#723AFD"/>
<path d="M26.7217 17.2481C26.2708 17.2481 25.9005 17.0897 25.6911 16.6619C25.6267 16.5351 25.5784 16.345 25.3691 16.3767C25.192 16.4084 25.1114 16.5668 25.1276 16.7411C25.1437 17.565 24.7089 18.0403 23.9038 18.2145C23.3724 18.3254 23.3563 18.88 23.0182 19.1651C22.6639 18.6898 23.0182 17.9769 22.4707 17.565C22.4707 17.0104 22.8572 16.7094 23.2597 16.4559C24.0004 15.9648 24.6284 15.4261 24.8699 14.4914C25.0631 13.7309 25.836 13.2714 26.4157 13.3506C26.7217 13.715 26.8344 14.127 26.8022 14.6023C26.7539 15.4419 26.8827 16.2816 26.7217 17.1055C26.7217 17.1372 26.7217 17.2006 26.7217 17.2481Z" fill="#713CFD"/>
<path d="M26.7224 17.0889C26.7224 16.3284 26.6902 15.5679 26.7385 14.8074C26.7707 14.2212 26.6257 13.7301 26.2393 13.2865C25.6435 12.7478 25.402 12.0032 25.241 11.2902C25.0799 10.5931 25.7401 10.1812 26.7224 10.2763C26.8834 10.4822 26.7546 10.7516 26.6418 10.8466C25.9817 11.3853 26.3037 11.8923 26.5291 12.5102C27.0605 13.9836 26.8512 15.5521 26.8834 17.0889C26.819 17.0889 26.7707 17.0889 26.7224 17.0889Z" fill="#6F3DF9"/>
<path d="M25.4338 23.7364C24.8864 23.4195 25.1923 22.8967 25.1118 22.4689C25.2889 22.1204 25.6915 21.9144 25.7237 21.4867C25.8686 21.3599 26.0296 21.2648 26.2389 21.3599C26.6254 22.8175 26.5127 23.1502 25.4338 23.7364Z" fill="#773BFC"/>
<path d="M26.2395 21.3663C26.0785 21.4139 25.9175 21.4772 25.7565 21.5248C25.2573 20.9227 25.6437 20.5108 26.0785 20.0989C26.2878 20.0513 26.5133 19.988 26.7226 19.9404C26.5616 20.4157 26.7387 21.0019 26.2395 21.3663Z" fill="#783CFC"/>
<path d="M3.06855 12.496C2.44057 12.7019 2.03802 12.591 2.08632 11.8147C2.10243 11.6721 1.98971 11.5295 1.94141 11.3869C2.19904 11.2127 2.45667 11.0384 2.71431 10.8641C3.21347 10.5314 3.4228 10.0719 3.3906 9.50159C3.4228 9.01045 4.00248 9.01044 4.1957 8.67773C4.79148 8.75695 5.25844 9.04213 5.58048 9.53327C5.67709 9.8343 5.58048 10.0878 5.40336 10.3254C5.22624 10.4997 5.00081 10.5473 4.77538 10.6265C4.01858 10.9116 3.3745 11.3236 3.26178 12.2266C3.22958 12.3217 3.16517 12.4326 3.06855 12.496Z" fill="#5242FB"/>
<path d="M5.48425 9.48296C5.04949 9.21362 4.63084 8.96013 4.19608 8.69079C4.05116 8.72248 4.00286 8.67495 4.03506 8.53236C3.90624 8.24718 3.64861 8.21549 3.37487 8.21549C3.19775 8.21549 2.95622 8.24718 2.87571 8.05706C2.77909 7.80356 3.05283 7.7085 3.18165 7.56591C3.61641 7.07477 4.341 7.29658 4.84016 6.96387C5.04949 6.96387 5.27492 6.96387 5.48425 6.96387C5.48425 7.07477 5.48425 7.16983 5.48425 7.28073C5.64527 7.45501 5.80629 7.62928 5.98341 7.78772C6.33766 8.08874 6.6436 8.45314 6.51478 8.92844C6.38597 9.40374 5.9029 9.41958 5.48425 9.48296Z" fill="#5141FE"/>
<path d="M4.03493 8.52727C4.08324 8.5748 4.14765 8.63818 4.19595 8.68571C4.29256 9.3036 3.56797 9.12932 3.39085 9.47787C3.13321 9.35113 3.0527 9.20854 3.18152 8.92336C3.35864 8.52727 3.68068 8.51143 4.03493 8.52727Z" fill="#4E42FA"/>
<path d="M2.26364 18.5093C2.03821 18.4142 1.89329 18.1765 1.61955 18.1924C1.61955 17.8597 1.61955 17.5111 1.61955 17.1784C1.63565 16.4813 1.42633 15.7208 2.26364 15.2931C2.36025 15.2455 2.37635 15.0079 2.42466 14.8653C2.81111 14.4058 3.19756 13.9464 3.06874 13.281C3.29417 13.1542 3.5357 13.2017 3.76113 13.2334C4.40521 13.2968 4.93659 13.1067 5.43575 12.7106C5.72559 12.4888 5.99932 12.1244 6.46628 12.2987C6.64341 12.5046 6.67561 12.7581 6.74002 12.9958C6.77222 13.3919 6.69171 13.7404 6.51459 14.089C6.04763 14.4217 5.37134 14.485 5.22642 15.2455C5.16201 15.5941 4.69505 15.5782 4.38911 15.5149C3.76113 15.3881 3.42299 15.5941 3.34248 16.2278C3.29417 16.3387 3.22976 16.4179 3.13315 16.4971C2.26363 16.9091 2.19923 17.1467 2.61788 18.3033C2.55347 18.4617 2.42466 18.5093 2.26364 18.5093Z" fill="#5741FC"/>
<path d="M6.44932 12.3371C6.01457 12.3688 5.74083 12.7174 5.46709 12.955C4.7264 13.6204 3.92129 13.5254 3.08398 13.2877C3.08398 13.0184 3.08398 12.7649 3.08398 12.4956C3.08398 12.3847 3.08398 12.2896 3.08398 12.1787C3.43823 11.7668 3.9374 11.6559 4.45266 11.6242C4.85522 11.5925 5.09675 11.2756 5.38658 11.0855C5.56371 10.9746 5.69252 10.7528 5.88575 10.7211C6.69085 10.5627 7.20612 10.1508 7.31884 9.31106C7.35104 9.12094 7.52816 9.01004 7.73749 9.16847C8.04343 9.16847 8.38158 9.12094 8.5426 9.48534C8.18835 10.1032 7.8019 10.6736 7.70528 11.4182C7.60867 12.052 7.029 12.2421 6.44932 12.3371Z" fill="#5640FE"/>
<path d="M26.7213 10.2765C26.5119 10.3241 26.3187 10.3874 26.1094 10.435C25.4492 10.5776 25.1755 11.0529 25.5136 11.6391C25.8195 12.1619 25.9806 12.7322 26.2382 13.2709C25.6424 13.7304 25.0466 14.1581 24.9017 14.9978C24.8051 15.6157 24.2576 15.996 23.7263 16.3287C23.2432 16.6455 22.7279 16.9466 22.5347 17.5486C22.4059 18.1823 21.9389 18.5943 21.5364 19.0537C21.4076 19.0854 21.2787 19.0537 21.1821 18.9587C21.0855 18.8161 21.0694 18.6418 21.0855 18.4675C21.2948 17.6278 21.4559 16.7723 22.0677 16.0752C22.3093 15.8059 22.3898 15.4098 22.4864 15.0612C22.7279 14.1423 23.3076 13.6353 24.2898 13.5244C25.1916 13.4294 25.3687 13.0966 24.9661 12.3045C24.5153 11.4172 24.3864 10.5776 25.0466 9.70617C25.3204 9.32593 25.6102 9.10412 26.0933 9.13581C26.206 9.13581 26.3026 9.13581 26.4153 9.13581C26.4153 9.43683 26.367 9.76954 26.7374 9.92797C26.7213 10.0706 26.7213 10.1815 26.7213 10.2765Z" fill="#6E3CFC"/>
<path d="M9.99235 7.91195C10.25 7.8961 10.4754 7.97532 10.6686 8.08623C10.9585 8.2605 11.2644 8.2605 11.4415 7.95948C11.6831 7.56339 12.0373 7.57924 12.4077 7.59508C12.7458 8.00701 12.6492 8.75164 13.4221 8.81502C13.5992 8.94176 13.6636 9.1002 13.6636 9.30616C13.4704 9.84483 13.1806 10.3518 12.8263 10.8113C12.6331 11.0806 12.5204 11.35 12.456 11.651C12.1822 12.1421 11.667 12.1896 11.2 12.2055C10.5559 12.2213 10.2017 12.4907 10.1051 13.1086C9.94405 13.4096 9.63811 13.5205 9.34827 13.6631C8.8652 13.9641 9.01012 14.5186 8.8008 14.9464C8.60757 15.2791 8.38214 15.5484 7.93128 15.4217C8.0118 14.5661 7.46432 13.8532 7.41602 13.0293C7.52873 12.0154 8.36604 11.5718 9.10674 11.1281C9.94405 10.6212 9.99235 10.7162 9.44488 9.87652C9.38047 9.76562 9.31606 9.65471 9.26776 9.52797C9.20335 9.14773 9.13894 8.7358 9.70252 8.71996C10.0407 8.71996 10.2178 9.14773 10.6525 9.17941C10.5881 8.59321 9.52539 8.60905 9.99235 7.91195Z" fill="#5B40FC"/>
<path d="M7.73652 9.16573C7.33397 9.21326 7.47889 9.53013 7.39838 9.76778C7.25346 10.2748 7.07634 10.7818 6.36784 10.7501C5.80427 10.7184 5.61105 11.2887 5.17629 11.4789C4.95086 11.5739 4.82204 11.8749 4.5 11.8591C4.59661 11.2412 5.07968 10.8293 5.30511 10.2748C5.35341 10.0054 5.41782 9.75193 5.46613 9.4826C5.56274 9.38754 5.62715 9.26079 5.73986 9.21326C6.51276 8.89639 6.57717 8.48447 5.86868 7.96164C5.61105 7.77152 5.43392 7.59724 5.46613 7.26453C6.17462 7.31206 6.86701 7.40712 7.5755 7.20116C7.97805 7.09026 8.10687 7.34375 7.91365 7.6923C7.68822 8.1676 7.47889 8.6429 7.73652 9.16573Z" fill="#5541FE"/>
<path d="M9.3477 9.47461C9.44432 9.60136 9.54093 9.71226 9.63754 9.839C10.3782 10.7421 10.2977 10.7738 9.21889 11.2491C8.5104 11.5659 7.7536 12.0412 7.57647 12.9601C7.25443 13.2136 6.93239 13.2136 6.61035 12.9601C6.36881 12.8017 6.46543 12.5482 6.44933 12.3264C6.52984 12.1521 6.67476 12.0412 6.86798 12.0095C7.39935 11.8828 7.54427 11.5184 7.59258 11.0273C7.64088 10.3777 7.91462 9.80732 8.5426 9.49045C8.5909 9.53798 8.65531 9.60136 8.70362 9.64889C8.91295 9.60136 9.12227 9.49045 9.3477 9.47461Z" fill="#583FFE"/>
<path d="M9.34814 9.48255C9.18712 9.73604 9.01 9.94201 8.70406 9.64098C8.70406 9.51424 8.70406 9.38749 8.70406 9.26075C8.67185 8.08834 8.76847 7.99328 9.99223 7.91406C9.97613 8.23093 10.0566 8.46858 10.4109 8.56364C10.6685 8.62701 10.9423 8.70623 10.9423 9.03894C10.9423 9.21322 10.8778 9.35581 10.7329 9.41918C10.4109 9.57761 10.266 9.30827 10.0566 9.16568C9.87951 9.03894 9.7829 8.70623 9.50916 8.84882C9.25153 8.97556 9.36424 9.26074 9.34814 9.48255Z" fill="#583FFB"/>
<path d="M14.967 6.95921C15.5628 7.29192 16.2552 7.24439 16.8993 7.43451C16.9959 7.65632 16.8993 7.81475 16.7544 7.97319C16.4967 8.11578 16.2069 8.11577 15.9976 7.9415C15.434 7.4662 14.8704 7.60879 14.2907 7.89397C14.017 7.95734 13.7594 7.97319 13.4856 7.90981C13.1797 7.79891 12.8415 7.76722 12.5517 7.59295C12.5356 7.14933 12.7288 6.86415 13.1958 6.80078C13.2602 6.92753 13.389 6.95921 13.5178 6.95921C14.0009 6.83247 14.484 7.45036 14.967 6.95921Z" fill="#5B40FC"/>
<path d="M12.5518 7.59683C12.8577 7.47008 13.1153 7.53345 13.3569 7.75526C13.6306 8.11966 13.6467 8.4999 13.3569 8.86429C12.8738 9.13363 12.6967 8.81676 12.5518 8.43652C12.4551 8.16718 12.3746 7.88201 12.3907 7.59683C12.4551 7.59683 12.5034 7.59683 12.5518 7.59683Z" fill="#5A40F9"/>
<path d="M16.7382 7.90684C16.7865 7.74841 16.8509 7.58997 16.8992 7.43154C18.0103 7.36817 17.1569 6.56016 17.4306 6.02148C18.0103 6.86118 18.6865 7.25726 19.6366 6.79781C19.6366 6.84534 19.6366 6.90871 19.6366 6.95624C19.701 7.25726 19.5722 7.55828 19.6205 7.87515C19.3789 8.63563 18.5899 8.4772 18.0747 8.79407C17.5594 8.9525 17.2535 8.5881 16.8831 8.33461C16.7704 8.20786 16.6577 8.08112 16.7382 7.90684Z" fill="#5F40FB"/>
<path d="M14.9668 6.96343C14.4837 7.8665 14.0006 7.23277 13.5176 6.96343C14.0006 6.61488 14.4837 6.86837 14.9668 6.96343Z" fill="#583EFB"/>
<path d="M26.0777 9.16787C24.7573 9.73823 24.4513 11.1324 25.1276 12.2098C25.7395 13.2079 25.4336 13.7149 24.2581 13.7624C23.4369 13.7941 22.9377 14.2536 22.7445 14.9348C22.5513 15.632 22.2615 16.2182 21.8428 16.8202C21.5047 17.2955 21.4402 17.9451 21.2631 18.5154C20.5063 18.8323 19.2343 18.4838 18.9283 17.8817C18.4775 17.0262 18.88 15.6636 19.7656 15.125C20.1199 14.9982 20.2487 14.6814 20.3775 14.3645C20.8284 13.8258 21.2309 13.2555 21.9555 13.0336C22.3903 12.9069 22.4547 12.4633 22.6479 12.1306C23.3564 11.8137 23.7106 11.275 23.6784 10.4987C23.6945 10.4195 23.7106 10.3244 23.7751 10.2928C24.4835 9.84914 24.5802 9.32631 24.0005 8.70842C24.3225 8.34402 24.6768 8.35986 25.0632 8.59751C25.3853 8.78763 25.7234 8.97775 26.0777 9.16787Z" fill="#6C3CFE"/>
<path d="M22.5357 7.12133C23.1798 7.34314 23.8239 7.0738 24.468 7.12133C24.1781 7.53326 23.5341 7.53326 23.3408 8.07193C22.8095 8.29374 22.5357 8.73735 22.3103 9.22849C21.7467 9.59289 21.5374 10.29 20.9577 10.6385C20.6035 10.3217 20.4908 9.8147 20.1526 9.48199C20.0721 9.40277 20.0077 9.30771 19.9594 9.21265C19.8306 8.92747 19.8306 8.68982 20.1204 8.4997C21.1832 8.91163 21.6501 8.21452 22.1171 7.46988C22.1976 7.29561 22.2298 7.02627 22.5357 7.12133Z" fill="#673FFD"/>
<path d="M23.9849 8.69434C24.9028 9.40729 24.9028 9.40729 23.8239 10.4371C23.3248 10.3737 23.1798 9.94596 22.9222 9.61325C22.8256 9.04289 23.1798 8.80524 23.6629 8.69434C23.7595 8.69434 23.8722 8.69434 23.9849 8.69434Z" fill="#6A3DFA"/>
<path d="M23.6615 8.68263C23.5005 9.03118 22.8886 9.07871 23.0174 9.63323C22.647 10.0135 22.3733 9.83919 22.1479 9.49064C22.1157 9.36389 22.1318 9.25299 22.2284 9.15793C22.3411 8.54004 22.5343 7.98552 23.3555 8.0489C23.42 8.2707 23.6776 8.41329 23.6615 8.68263Z" fill="#673DFA"/>
<path d="M22.5354 7.11501C22.2778 7.74874 21.7142 8.14482 21.3761 8.73102C21.215 9.0162 21.0057 9.09542 20.732 8.88946C20.5387 8.74687 20.3938 8.54091 20.1201 8.54091C19.7336 8.49338 19.8625 8.22404 19.9269 8.03392C20.0235 7.71705 20.0396 7.3685 20.2811 7.11501C20.5709 7.32097 20.8125 7.13085 21.0862 7.05163C21.5693 6.90904 22.0684 6.82983 22.5354 7.11501Z" fill="#643DFD"/>
<path d="M20.2819 7.12055C20.4751 7.62754 19.8954 8.03947 20.1208 8.54645C19.9759 8.75242 19.9759 8.97422 20.1208 9.18019C19.5412 9.32278 19.5734 8.89501 19.5251 8.5623C19.4929 8.29296 19.7022 8.00778 19.4768 7.75429C19.364 7.45326 19.4284 7.19977 19.6378 6.96212C19.8793 6.93043 20.0886 7.00965 20.2819 7.12055Z" fill="#6340FD"/>
<path d="M9.50947 18.5094C9.23573 18.5094 8.9781 18.5094 8.70436 18.5094C8.2213 18.6678 8.2213 18.3351 8.28571 18.0658C8.39842 17.6697 8.41452 17.2578 8.43062 16.8458C8.94589 16.323 9.46116 15.8002 10.073 15.3724C10.3468 15.2773 10.7171 15.214 10.7171 14.8971C10.7171 14.4218 10.1536 14.5644 9.89592 14.3267C9.71879 14.2 9.55778 14.0732 9.62218 13.8198C10.1536 13.3761 10.6366 13.7089 11.0714 13.9623C11.5544 14.2475 11.6994 14.7228 11.5544 15.2615C11.1358 15.8319 10.9426 16.5448 10.2341 16.925C9.83151 17.131 10.1858 17.6538 10.1213 18.0182C10.0247 18.3193 9.87982 18.5569 9.50947 18.5094Z" fill="#5F3FFD"/>
<path d="M7.25514 22.6305C6.54665 22.5671 5.91866 21.8859 5.98307 21.1571C6.04748 20.2223 6.36952 19.4143 7.41616 19.145C9.55774 18.9549 11.6993 18.7647 13.8409 19.0341C14.0985 19.0658 14.3723 19.0816 14.5977 19.2242C14.6943 19.3034 14.7104 19.3826 14.646 19.4935C14.324 19.747 13.9375 19.6678 13.5672 19.6837C11.6027 19.7153 9.63825 19.6361 7.67379 19.7153C6.80428 19.9688 6.78818 20.6501 6.80428 21.3631C6.80428 21.6007 6.80428 21.8384 7.04581 21.9809C7.11022 22.0126 7.15853 22.0602 7.20683 22.0918C7.41616 22.2503 7.65769 22.2661 7.89922 22.2661C8.10855 22.2661 8.31788 22.282 8.5272 22.3453C9.39672 22.4562 10.2662 22.3612 11.1196 22.3929C11.4578 22.4087 11.812 22.3295 12.0858 22.6147C12.0053 22.9949 11.6832 22.9315 11.4417 22.9157C10.3145 22.789 9.18739 22.8682 8.07635 22.8523C7.78651 22.8523 7.51277 22.7731 7.25514 22.6305Z" fill="#5F44E9"/>
<path d="M14.6444 19.3083C12.2291 19.0865 9.81375 19.1658 7.39844 19.1499C7.97811 18.8806 8.6222 18.9915 9.23408 18.833C9.4273 18.7855 9.66883 18.8647 9.81375 18.6746C10.168 18.3577 10.6028 18.437 11.0214 18.4211C11.7943 18.3894 12.5511 18.4528 13.324 18.437C14.8054 18.4528 16.2707 18.3894 17.7521 18.4686C17.8487 18.4845 17.9453 18.532 18.0258 18.5795C18.4284 19.245 17.8648 19.2925 17.4784 19.3242C16.5444 19.3717 15.5944 19.4351 14.6444 19.3083Z" fill="#633BF5"/>
<path d="M6.60996 22.9481C6.07859 22.8688 5.56332 22.7579 5.27348 23.4234C5.19297 23.6135 4.85483 23.5976 4.6133 23.5818C4.32346 23.5659 4.01752 23.5659 3.8726 23.8987C3.67937 23.7085 3.64717 23.3125 3.22852 23.4234C3.29292 22.9481 3.58276 22.647 4.00141 22.3935C4.38787 22.1559 4.87093 21.9499 5.01585 21.4429C5.06416 21.2528 5.16077 21.0785 5.3862 21.1261C5.56332 21.1578 5.59552 21.332 5.64383 21.4905C5.80485 22.045 6.11079 22.552 6.60996 22.9481Z" fill="#5F3EFE"/>
<path d="M7.25391 22.6323C8.7353 22.9333 10.2328 22.7432 11.7303 22.7749C11.843 22.7749 11.9718 22.6798 12.0845 22.6323C12.31 22.3946 12.6159 22.4105 12.9057 22.4105C15.2567 22.4105 17.6237 22.4105 19.9746 22.4105C20.2483 22.4105 20.522 22.3946 20.7314 22.5848C20.828 22.8224 20.6509 22.8541 20.4898 22.8541C19.5559 22.8541 18.6542 23.0442 17.7203 23.0284C15.7236 22.9808 13.7269 23.0125 11.7303 23.0125C11.4727 23.0125 11.1989 23.0759 10.9413 22.9333C10.3455 22.9333 9.76583 22.9333 9.17006 22.9333C8.54207 22.7907 7.80138 23.266 7.25391 22.6323Z" fill="#6639EB"/>
<path d="M8.54274 16.7705C8.68766 17.1983 8.76817 17.6102 8.47833 18.0221C8.31731 18.2439 8.34951 18.4658 8.70376 18.5133C8.34951 18.7985 7.93086 18.7192 7.56051 18.6242C7.06134 18.4974 6.59438 18.2439 6.90032 17.5627C6.98083 17.3884 6.93253 17.1508 6.93253 16.9448C7.14185 16.8339 7.36728 16.7388 7.57661 16.6279C7.94696 16.3744 8.2529 16.4853 8.54274 16.7705Z" fill="#5D3EFE"/>
<path d="M13.3567 18.6657C12.1812 18.6657 10.9897 18.6657 9.81423 18.6657C9.68541 18.6657 9.5566 18.634 9.49219 18.5072C9.70151 18.3963 9.86254 18.2537 9.97525 18.0319C10.8287 17.5883 11.6982 17.826 12.5516 18.0002C12.7609 18.0636 12.9702 18.1428 13.1635 18.2379C13.3245 18.3488 13.4372 18.4597 13.3567 18.6657Z" fill="#623FFA"/>
<path d="M3.22852 16.3001C3.24462 15.2228 3.24462 15.2227 4.32346 15.3337C4.74211 15.3812 5.12857 15.4287 5.19297 14.7633C5.25738 14.082 5.96587 14.2088 6.44894 14.082C7.14133 14.6999 7.04471 15.2544 6.12689 15.9832C5.53112 16.1575 5.19297 16.617 4.91924 17.124C4.74211 17.4408 4.58109 17.6626 4.19464 17.4091C3.96921 16.9497 3.59886 16.617 3.22852 16.3001Z" fill="#593FFE"/>
<path d="M6.12695 15.979C6.40069 15.3769 7.12528 14.8383 6.449 14.0778C6.4973 13.7134 6.56171 13.3331 6.61002 12.9688C6.93206 12.9688 7.2541 12.9688 7.57614 12.9688C7.72106 13.4916 7.73716 14.0461 8.10751 14.5056C8.38125 14.8541 8.0431 15.0759 7.89818 15.3452C7.83378 15.4878 7.75327 15.5829 7.57614 15.5037C7.14139 15.8205 6.78714 16.3434 6.12695 15.979Z" fill="#5940FC"/>
<path d="M8.5423 16.7753C8.22026 16.7278 7.89821 16.6644 7.57617 16.6169C7.57617 16.4585 7.57617 16.3 7.57617 16.1416C8.39738 16.1099 8.5262 15.4603 8.70332 14.8741C8.75163 14.3672 8.71942 13.8285 9.18638 13.4482C9.3313 13.6225 9.52453 13.7493 9.66945 13.9235C9.78216 14.0344 9.87877 14.1295 9.99149 14.2404C9.70165 14.8108 9.70165 14.8108 10.1525 15.5079C9.55673 15.8723 9.2991 16.6328 8.5423 16.7753Z" fill="#5D40FB"/>
<path d="M3.2298 16.2998C3.84168 16.4266 4.27643 16.6959 4.19592 17.4088C4.13152 18.0426 3.85778 18.5971 3.55184 19.1516C2.77894 19.6111 2.58571 18.9615 2.26367 18.5179C2.32808 18.3911 2.4569 18.3594 2.58571 18.3594C3.13319 17.8208 3.18149 17.1553 3.06878 16.4582C3.11708 16.4107 3.16539 16.3473 3.2298 16.2998Z" fill="#593FFB"/>
<path d="M8.70479 14.8701C8.86582 15.0761 8.70479 15.2662 8.68869 15.4563C8.60818 16.1217 8.33445 16.502 7.59375 16.1376C7.59375 15.9316 7.59375 15.7098 7.59375 15.5039C7.70646 15.4563 7.80308 15.3929 7.91579 15.3454C8.25394 15.3454 8.46326 15.0919 8.70479 14.8701Z" fill="#5D40FB"/>
<path d="M10.9414 22.9535C13.4372 22.9535 15.917 22.9693 18.4128 22.9376C19.2018 22.9218 19.9908 22.8743 20.7476 22.6366C20.812 22.5891 20.8925 22.5732 20.973 22.5732C21.1501 22.6683 21.1984 22.7792 21.0696 22.9535C19.4111 23.0802 17.7526 23.1594 16.078 23.1119C15.3856 23.1119 14.6771 23.1119 13.9847 23.1119C12.9864 23.0169 11.9558 23.2862 10.9414 22.9535Z" fill="#6739F2"/>
<path d="M26.0776 20.0924C25.9327 20.5519 25.5301 20.9638 25.7556 21.5183C26.0937 22.1996 25.4496 22.2313 25.1115 22.4689C24.564 23.4512 24.403 23.5146 23.2436 23.3086C23.0182 23.2611 22.7767 23.2769 22.5352 23.2611C22.7606 22.7224 22.7284 22.0253 23.7267 22.1838C24.0004 22.2313 24.725 21.7877 24.7895 21.1064C24.87 20.2509 25.2242 20.0132 26.0776 20.0924Z" fill="#773BF9"/>
<path d="M21.5684 18.9855C21.665 18.3676 22.2124 18.0349 22.5345 17.5596C23.4362 17.8606 22.9048 18.6052 23.0175 19.1439C22.454 19.3816 22.5345 19.8093 22.6955 20.2529C22.3252 20.3322 22.2446 20.0311 22.1158 19.7935C22.2285 19.334 21.8743 19.1756 21.5684 18.9855Z" fill="#703CFA"/>
<path d="M22.2124 19.7773C22.3735 19.9358 22.5345 20.0942 22.6955 20.2526C22.6794 21.2191 22.7599 22.2014 21.5684 22.6291C21.7616 21.9162 21.9709 21.2032 22.0031 20.4586C22.0031 20.3002 22.0192 20.1259 22.0675 19.9833C22.0997 19.8882 22.148 19.8249 22.2124 19.7773Z" fill="#703CF5"/>
<path d="M22.214 20.4064C22.0529 21.1668 22.214 22.0065 21.5699 22.6244C21.5699 22.672 21.5699 22.7353 21.5699 22.7829C21.4572 22.8304 21.3606 22.8938 21.2478 22.9413C21.1995 22.9413 21.1351 22.9413 21.0868 22.9413C21.0868 22.8145 21.0546 22.6878 20.9258 22.6244C20.8936 22.2442 21.2639 22.1491 21.4411 21.9115C21.6021 21.6738 21.6987 21.4045 21.6826 21.1193C21.6987 20.8341 21.6665 20.5489 21.8114 20.2954C22.0207 20.1053 22.1013 20.2638 22.214 20.4064Z" fill="#6E3DF4"/>
<path d="M5.32265 10.2705C5.45147 10.9835 4.85569 11.3637 4.51755 11.8548C3.98618 11.7439 3.55142 12.0608 3.06836 12.1717C3.22938 10.8726 4.22771 10.5082 5.32265 10.2705Z" fill="#5440FC"/>
<path d="M3.06808 16.4552C3.55115 17.4058 3.40623 17.9445 2.58502 18.3564C1.98924 18.0237 2.23077 17.4533 2.26298 16.9939C2.27908 16.5819 2.61722 16.376 3.06808 16.4552Z" fill="#5741FA"/>
<path d="M18.0271 18.6718C17.9788 18.6718 17.9144 18.6718 17.8661 18.6718C17.689 18.5133 17.5762 18.3232 17.6085 18.0856C17.6568 17.5152 17.5924 16.9448 17.5279 16.3745C17.4474 15.7566 17.7051 15.3288 18.3653 15.2971C18.8966 15.2813 19.3958 14.7901 19.9594 15.1862C19.0898 15.6615 18.639 16.8498 19.0415 17.737C19.3314 18.3707 20.0721 18.2598 20.6034 18.4975C20.7806 18.5767 21.0221 18.5133 21.2314 18.5133C21.2314 18.6718 21.2314 18.8302 21.2314 18.9886C21.2797 19.0837 21.2636 19.1629 21.1831 19.2104C20.1043 19.2263 19.0576 19.0203 18.0271 18.6718Z" fill="#6A3DFB"/>
<path d="M21.248 19.1438C21.248 19.0963 21.248 19.0329 21.248 18.9854C21.3608 18.9854 21.4574 18.9854 21.5701 18.9854C22.2464 18.8745 22.3591 19.223 22.2142 19.7776C22.2142 19.8251 22.2142 19.8885 22.2142 19.936C21.6989 19.9043 21.5057 19.4765 21.248 19.1438Z" fill="#6E3DF4"/>
<path d="M16.7394 7.91428C16.7877 8.02518 16.8521 8.12024 16.9004 8.23114C16.6106 8.91241 16.208 9.51445 15.5156 9.89469C15.1131 10.1165 14.8071 10.4334 14.5817 10.8453C14.4368 11.0988 14.2597 11.3047 13.9698 11.3998C13.4385 11.4315 12.9554 11.8117 12.3918 11.5582C12.3274 11.3998 12.1664 11.2097 12.3596 11.0671C12.9232 10.6076 13.0842 9.89469 13.519 9.34018C14.308 9.07084 14.2114 8.35789 14.3241 7.75584C14.8715 7.29639 15.419 7.20133 15.9826 7.72416C16.208 7.93012 16.4817 7.91428 16.7394 7.91428Z" fill="#5E3EFE"/>
<path d="M9.67068 13.916C9.31644 13.9477 9.15542 13.7893 9.18762 13.4407C9.46136 13.3298 9.71899 13.2347 9.99272 13.1238C10.6851 12.6961 11.458 12.9812 12.1826 12.8545C12.6174 12.9812 13.1326 12.7911 13.4708 13.2189C13.5996 13.615 13.7123 14.0111 14.1471 14.2329C14.3886 14.3596 14.5335 14.6923 14.2437 14.7715C13.3581 15.025 12.5691 15.738 11.5546 15.437C11.5063 15.4211 11.4741 15.3736 11.4419 15.3419C11.4097 14.1378 10.7173 13.5833 9.67068 13.916Z" fill="#5F3FFE"/>
<path d="M12.2301 12.9672C11.5055 13.284 10.7326 13.0622 9.97578 13.1256C9.89527 12.3493 10.1851 11.9532 11.0385 12.0007C11.5216 12.0324 12.0368 11.9374 12.3911 11.5413C12.9225 11.4462 13.4377 11.1927 14.0013 11.2244C14.1301 12.2701 13.4216 12.9672 12.2301 12.9672Z" fill="#5D40FB"/>
<path d="M14.3235 7.75977C14.6456 8.96386 14.549 9.16982 13.5184 9.3441C13.4701 9.18567 13.4057 9.02723 13.3574 8.8688C13.3574 8.5044 13.3574 8.12416 13.3574 7.75977C13.6795 7.75977 14.0015 7.75977 14.3235 7.75977Z" fill="#5D40FB"/>
<path d="M11.4252 15.3443C12.4718 15.5028 13.2447 14.6631 14.2752 14.6314C13.7439 14.2987 13.1642 14.0293 13.3574 13.2847C13.4379 13.2055 13.5184 13.158 13.615 13.1263C14.5812 12.8569 14.5973 12.8411 14.3718 11.8905C14.2752 11.4944 14.4524 11.13 14.4685 10.7498C14.5329 10.6072 14.549 10.4171 14.6617 10.3378C15.4829 9.70412 16.2558 9.0387 16.8838 8.21484C17.3346 8.21484 17.5118 8.81689 18.0109 8.69014C18.6711 8.7852 19.0254 9.24466 19.3635 9.7358C19.3635 9.81502 19.3474 9.89424 19.3152 9.95761C19.2186 10.1477 19.1542 10.3379 19.0576 10.528C18.5584 11.4944 18.1397 11.6845 17.0448 11.4944C16.0626 11.3201 15.9982 11.3677 15.966 12.3658C15.9338 13.3639 15.966 14.3304 15.1447 15.1384C14.7744 15.5028 14.4524 15.8513 13.9371 15.9781C13.6956 16.0414 13.4379 16.0731 13.5506 16.4217C13.8566 17.2931 13.2608 17.7208 12.6972 18.1803C11.7955 17.9902 10.8777 18.006 9.95987 18.0219C9.73444 17.3248 9.58952 16.691 10.5718 16.4217C10.8133 16.3583 10.8938 16.0731 10.9099 15.8355C10.9743 15.5503 11.1031 15.3602 11.4252 15.3443Z" fill="#623EFD"/>
<path d="M19.3155 9.79498C18.8808 9.43059 18.4621 9.05035 18.0273 8.68595C18.1562 8.40077 18.4138 8.40077 18.6875 8.35324C19.0579 8.30571 19.4282 8.21065 19.4765 7.73535C19.7986 7.89378 19.8469 8.14728 19.7503 8.46415C19.6215 8.82854 19.7181 9.06619 20.1206 9.16125C20.1689 9.20878 20.2333 9.27215 20.2816 9.31968C20.4105 9.60486 20.491 9.90589 20.1367 10.0485C19.8147 10.1911 19.4926 10.1594 19.3155 9.79498Z" fill="#623FFA"/>
<path d="M22.2134 9.47461C22.4549 9.68057 22.7126 9.74395 23.0185 9.63304C23.3888 9.79148 23.5499 10.1717 23.8236 10.4252C23.8236 11.756 23.8075 11.7719 22.6965 12.168C22.2939 12.3264 21.8752 12.168 21.4727 12.2472C20.9091 12.4215 20.4583 12.8017 19.9591 13.071C19.6693 13.2295 19.5404 13.4988 19.5565 13.8632C19.621 14.893 19.4277 15.0356 18.3811 14.7663C18.204 14.5603 18.3328 14.386 18.4294 14.2118C18.7836 13.1819 19.7498 12.5324 20.2167 11.5659C20.2811 11.4392 20.3294 11.3124 20.4422 11.2491C21.1345 10.8847 21.5371 10.2668 21.9397 9.64889C22.0041 9.55383 22.1007 9.5063 22.2134 9.47461Z" fill="#673DFD"/>
<path d="M18.3485 14.7109C18.5417 14.7109 18.7188 14.6951 18.912 14.7109C19.3629 14.7426 19.5883 14.5684 19.4112 14.1089C19.1536 13.4435 19.4917 13.0791 20.0392 12.7781C20.5061 12.5246 20.957 12.2711 21.4079 12.0176C21.4562 12.5563 20.9892 12.7464 20.6672 13.0316C19.9426 13.6494 19.9265 13.6336 20.4417 14.3941C20.4256 14.7426 20.4095 15.0912 19.9587 15.1862C19.2985 15.1546 18.7188 15.519 18.0425 15.5665C17.5273 15.614 17.6883 16.1685 17.7688 16.5488C17.8815 17.1033 18.0103 17.6578 17.7044 18.1965C17.3018 18.3549 16.9154 18.3866 16.5128 18.1806C16.384 17.3568 16.5128 16.5329 16.8027 15.7883C17.0442 15.1704 17.64 14.806 18.3485 14.7109Z" fill="#683DFC"/>
<path d="M20.4422 14.3941C19.621 13.9505 19.5888 13.5544 20.3294 13.0474C20.7481 12.7622 21.1184 12.4453 21.4083 12.0176C21.843 12.0493 22.2939 11.9384 22.6965 12.176C22.7126 12.5246 22.6159 12.9682 22.31 13.0474C21.4727 13.2534 21.0862 13.9663 20.4422 14.3941Z" fill="#6A3CFB"/>
<path d="M19.3142 9.80342C19.8134 10.0094 20.3286 10.1995 20.2803 9.32812C20.5541 9.72421 20.9244 10.0728 20.9244 10.5956C20.0388 11.2293 19.1854 11.8789 18.7828 12.9562C18.7184 13.1305 18.4608 13.2097 18.2676 13.3048C18.1227 13.3682 17.9616 13.4315 17.8006 13.4632C17.6718 13.4791 17.5269 13.4949 17.3981 13.4791C16.9472 13.3999 16.4319 13.3206 16.3353 12.8137C16.2226 12.2591 16.7701 12.1958 17.1243 11.9898C17.7201 11.6571 18.4769 11.5779 18.8956 10.8966C19.1049 10.5322 19.0888 10.1361 19.3142 9.80342Z" fill="#653FFC"/>
<path d="M18.1879 13.1268C18.4455 13.0001 18.7837 12.9209 18.8481 12.604C19.0735 11.4475 19.943 10.9722 20.9252 10.5919C21.2956 10.0691 21.5532 9.43535 22.2134 9.16602C22.2134 9.27692 22.2134 9.37198 22.2134 9.48288C21.8108 10.1641 21.2634 10.7345 20.7642 11.3366C20.1362 12.0812 19.2184 12.7308 18.993 13.7923C18.9447 14.0616 18.7836 14.2042 18.5099 14.22C18.4777 14.1884 18.4616 14.1725 18.4294 14.1408C18.3328 13.824 18.1235 13.5071 18.1879 13.1268Z" fill="#663EFD"/>
<path d="M10.1375 15.5038C9.18747 15.0127 9.09086 14.775 9.97647 14.2363C10.0731 14.268 10.1858 14.268 10.2824 14.3155C10.5561 14.4423 11.0714 14.3314 10.9909 14.8542C10.9265 15.2661 10.6367 15.5355 10.1375 15.5038Z" fill="#5D40FB"/>
<path d="M8.3644 22.4803C8.15507 22.4803 7.92964 22.4803 7.72031 22.4803C7.51098 22.3535 7.25335 22.3377 7.07623 22.1634C6.78639 22.0366 6.70588 21.7832 6.59316 21.5297C6.60927 20.785 6.43214 19.977 7.39827 19.6285C9.36273 19.47 11.3433 19.5809 13.3077 19.5651C13.3238 20.1038 12.8891 19.977 12.6154 19.9929C11.3433 20.0245 10.0551 20.0087 8.78305 20.0087C8.44491 20.0087 8.09066 19.9929 7.75252 20.0245C7.44658 20.1196 7.18894 20.2622 7.14064 20.6107C7.10843 20.9751 7.20505 21.3079 7.41437 21.6089C7.6237 21.9416 7.99405 21.9891 8.31609 22.0683C12.1806 22.1159 16.0451 22.0842 19.8935 22.0842C20.1672 22.0842 20.4249 22.0525 20.6825 21.9416C20.7791 21.9099 20.8757 21.8782 20.9884 21.8782C21.1334 21.9099 21.3266 21.8941 21.2461 22.1317C21.0206 22.4327 20.6986 22.5278 20.3444 22.5278C16.4315 22.5278 12.5187 22.5278 8.60593 22.5278C8.50932 22.5436 8.44491 22.5119 8.3644 22.4803Z" fill="#755DEB"/>
<path d="M21.2479 19.1467C21.7148 19.2417 21.8597 19.717 22.214 19.9388C22.214 20.0973 22.214 20.2557 22.214 20.4141C22.1013 20.3666 22.0047 20.3032 21.892 20.2557C20.6521 19.4952 19.2834 19.6378 17.9147 19.7329C17.8181 19.7487 17.7376 19.7487 17.6571 19.7329C16.8359 19.5111 16.0147 19.4477 15.1774 19.5903C14.9842 19.622 14.807 19.6061 14.6621 19.4635C14.6621 19.416 14.6621 19.3526 14.6621 19.3051C15.5316 18.9724 16.4333 19.2417 17.319 19.1467C17.6249 19.115 18.108 19.2893 18.0436 18.6714C19.1385 18.608 20.169 18.9724 21.2479 19.1467Z" fill="#693EF2"/>
<path d="M8.36523 22.4742C12.2297 22.4742 16.1103 22.4742 19.9749 22.4742C20.4579 22.4742 20.941 22.49 21.2469 21.9989C21.1342 21.7612 21.3435 21.6345 21.4401 21.476C21.5207 21.3651 21.6012 21.2542 21.7139 21.175C21.7783 21.1433 21.8427 21.1592 21.891 21.2226C21.9232 21.9355 21.3918 22.2682 20.9249 22.6485C20.8766 22.6485 20.8122 22.6485 20.7639 22.6485C17.8655 22.6485 14.9671 22.6485 12.0687 22.6485C11.0865 22.6485 10.1043 22.6485 9.12204 22.6485C8.8644 22.6168 8.59066 22.7118 8.36523 22.4742Z" fill="#774DEA"/>
<path d="M14.6449 19.4585C15.6754 19.2842 16.7059 19.11 17.7043 19.617C17.35 19.9497 16.9153 19.8229 16.4966 19.7912C16.0941 19.6486 15.7076 19.6645 15.305 19.8071C14.6449 19.8071 13.9686 20.0289 13.3406 19.6328C11.36 19.6328 9.36337 19.6328 7.38281 19.6328C7.62434 19.3793 7.93029 19.4744 8.22012 19.4744C10.3778 19.4585 12.5194 19.4585 14.6449 19.4585Z" fill="#674AED"/>
<path d="M6.61127 21.5244C6.77229 21.7304 6.93331 21.9522 7.09433 22.1581C6.67567 22.1265 6.59516 21.8571 6.61127 21.5244Z" fill="#684BE9"/>
<path d="M7.09375 22.1582C7.35138 22.1899 7.57681 22.2691 7.73783 22.4751C7.448 22.4909 7.20646 22.4434 7.09375 22.1582Z" fill="#684BE9"/>
<path d="M16.5768 18.2C16.9471 18.0574 17.3336 18.0574 17.7039 18.2C17.7522 18.3584 17.8166 18.5168 17.8649 18.6753C16.3674 18.6753 14.8538 18.6753 13.3563 18.6753C13.308 18.5644 13.2436 18.4693 13.1953 18.3584C13.2597 18.295 13.3241 18.2317 13.4207 18.2C14.4674 18.0098 15.5301 17.9623 16.5768 18.2Z" fill="#663EFA"/>
<path d="M13.357 18.3623C13.3087 18.3623 13.2443 18.3623 13.196 18.3623C13.0188 18.3623 12.8256 18.3939 12.7129 18.2038C12.7129 17.9028 12.9383 17.7285 13.1315 17.5542C13.4858 17.2374 13.6629 16.9205 13.3248 16.4611C13.051 16.0967 13.2926 15.9065 13.679 15.8115C14.9028 15.5263 15.5952 14.5757 15.6757 13.2607C15.7079 12.8012 15.7562 12.3259 15.7562 11.8506C15.7723 11.312 16.0299 11.0902 16.5774 11.2011C16.674 11.2169 16.7867 11.2169 16.8994 11.2486C18.2037 11.5338 18.4613 11.407 18.9766 10.2029C19.0571 10.0287 19.1215 9.87023 19.3148 9.79102C19.3953 10.805 18.8961 11.4387 17.9622 11.8031C17.624 11.9299 17.302 12.1358 16.9638 12.2784C16.7384 12.3735 16.4647 12.3893 16.4647 12.6903C16.4486 12.9914 16.7706 13.0072 16.9477 13.134C17.2376 13.3082 17.5596 13.2765 17.8817 13.2765C18.0427 13.4508 17.9622 13.6409 17.8495 13.7677C17.1249 14.4806 16.5613 15.3996 15.4986 15.7323C15.2731 15.8115 15.0799 15.9858 14.8545 16.0491C14.3875 16.1759 14.2587 16.3026 14.5646 16.7938C14.8706 17.2532 14.6451 17.6968 14.146 17.9662C13.9528 18.0612 13.7273 18.0612 13.5502 18.188C13.4697 18.2514 13.4214 18.3147 13.357 18.3623Z" fill="#643EFE"/>
<path d="M21.8908 21.2126C21.8425 21.2126 21.7941 21.2126 21.7458 21.2126C21.4721 21.0225 21.5526 20.6581 21.3755 20.4204C20.9568 19.7867 20.2644 19.9134 19.6526 19.8342C19.0568 19.755 18.4288 20.0085 17.8652 19.6124C19.0407 19.2797 20.2 19.4223 21.3433 19.7075C21.5526 19.755 21.6975 20.056 21.8747 20.2461C21.8908 20.5788 21.8908 20.8957 21.8908 21.2126Z" fill="#755DEB"/>
<path d="M14.4848 10.75C14.6619 11.352 14.5814 11.9858 14.7907 12.6037C14.9195 12.9681 14.5492 13.1582 14.2271 13.2374C13.9534 13.3008 13.6475 13.2849 13.3576 13.3008C13.0517 12.9364 12.5364 13.3483 12.2305 12.9839C13.2932 12.8572 13.728 12.1442 14.0017 11.2411C14.1627 11.0669 14.3237 10.9084 14.4848 10.75Z" fill="#603FFC"/>
<path d="M13.3574 18.3514C13.3574 18.3039 13.3574 18.2405 13.3574 18.193C13.7278 17.7969 14.2913 17.8919 14.7422 17.7335C15.177 17.5751 15.4024 17.3691 15.5151 16.9572C15.7888 15.7689 16.6422 15.0243 17.6084 14.3747C17.866 14.2004 18.1881 14.1054 18.5101 14.248C18.4618 14.4064 18.3974 14.5648 18.3491 14.7233C18.333 14.7391 18.3008 14.7549 18.2847 14.7549C16.7228 15.4362 16.7711 16.8621 16.5939 18.2088C16.4651 18.3831 16.2719 18.3989 16.0948 18.3672C15.177 18.0979 14.2752 18.3672 13.3574 18.3514Z" fill="#663EFD"/>
<path d="M18.5101 14.2321C17.0126 14.7391 15.9821 15.7055 15.6439 17.274C15.5473 17.7335 15.3541 17.8602 14.9032 17.8919C14.388 17.9394 13.8727 18.082 13.3574 18.1929C13.3896 17.8444 13.6634 17.9236 13.8888 17.8602C14.5168 17.7018 14.7261 17.0522 14.243 16.672C13.5667 16.165 14.0337 16.1016 14.4524 15.9748C15.9499 15.5154 17.077 14.5965 17.866 13.2815C17.9787 13.234 18.0753 13.1706 18.1881 13.123C18.4779 13.4399 18.5584 13.8202 18.5101 14.2321Z" fill="#663EFE"/>
<path d="M7.23739 21.6857C6.99586 21.353 6.88315 20.9886 6.94756 20.5767C7.20519 20.3073 7.39841 19.9746 7.83317 19.9271C11.746 19.9429 15.6749 19.8162 19.5877 19.8479C19.942 19.8479 20.2801 19.8637 20.6182 19.9271C20.9403 19.9746 21.1818 20.1014 21.1335 20.4816C20.6665 20.7351 20.1996 20.4658 19.7326 20.4658C16.1097 20.4816 12.5028 20.4658 8.87981 20.4816C8.49336 20.4816 7.84927 20.339 7.86537 20.9094C7.88147 21.4005 8.50946 21.2421 8.87981 21.2421C12.4706 21.2579 16.0613 21.2421 19.6521 21.2579C20.1996 21.2579 20.731 21.2579 21.0047 20.64C21.52 20.5608 21.5683 20.6242 21.5361 21.3055C21.4072 21.5273 21.2462 21.7174 20.9886 21.8125C20.6343 22.0184 20.2318 22.0343 19.8292 22.0343C16.1741 22.0343 12.5189 22.0343 8.8637 22.0343C8.28403 22.0659 7.73656 22.0026 7.23739 21.6857Z" fill="#E7DAFD"/>
<path d="M7.23828 21.6867C9.63749 22.0036 12.0367 21.7818 14.4359 21.8293C16.2233 21.861 18.0267 21.8293 19.814 21.8452C20.2488 21.8452 20.6674 21.8135 21.07 21.6709C21.1827 21.8452 21.0056 21.9085 20.909 22.0036C20.5225 22.1937 20.1039 22.2413 19.6691 22.2413C16.7063 22.2254 13.7596 22.2413 10.7968 22.2413C10.3299 22.162 9.86292 22.1145 9.39596 22.2413C8.929 22.2254 8.46204 22.3046 8.01119 22.1937C7.64084 22.2096 7.4154 22.0036 7.23828 21.6867Z" fill="#B59FF6"/>
<path d="M17.8648 19.6212C18.847 19.6846 19.8293 19.542 20.7954 19.7638C21.1979 19.8589 21.4878 19.9856 21.5683 20.4134C21.52 20.4292 21.4717 20.4292 21.4234 20.4451C20.8437 19.9064 20.1191 19.9381 19.3945 19.9539C15.4817 20.049 11.585 20.0331 7.67218 20.0331C7.57556 20.049 7.47895 20.0173 7.39844 19.9539C7.63997 19.7004 7.94591 19.7955 8.21965 19.7955C9.65273 19.7796 11.0858 19.7955 12.5189 19.7796C12.7926 19.7796 13.1147 19.8747 13.3562 19.6371C14.0486 19.6371 14.7571 19.6371 15.4495 19.6371C15.7715 19.5103 16.0936 19.5103 16.4156 19.6371C16.8504 19.6371 17.269 19.6371 17.7038 19.6212C17.7682 19.6212 17.8165 19.6212 17.8648 19.6212Z" fill="#9976ED"/>
<path d="M10.6359 22.1387C13.6148 22.1387 16.6098 22.1228 19.5887 22.1545C20.0556 22.1545 20.4743 22.0119 20.9251 21.9961C20.6997 22.2654 20.3938 22.313 20.0556 22.313C16.2555 22.313 12.4393 22.313 8.63923 22.313C8.4299 22.313 8.20447 22.3446 8.02734 22.1704C8.51041 22.1704 9.00957 22.1545 9.49264 22.1545C9.87909 22.0278 10.2494 22.0278 10.6359 22.1387Z" fill="#A98DF0"/>
<path d="M7.41517 19.9404C7.46348 19.9404 7.52788 19.9404 7.57619 19.9563C7.6245 19.988 7.6406 20.0196 7.62449 20.0672C7.60839 20.0989 7.59229 20.1147 7.57619 20.1147C7.41517 20.3365 7.25415 20.5583 6.94821 20.59C6.916 20.2415 7.15754 20.083 7.41517 19.9404Z" fill="#AB97F3"/>
<path d="M20.9258 21.9998C20.9741 21.8889 21.0224 21.778 21.0868 21.6671C21.1834 21.5562 21.28 21.4453 21.3927 21.3502C21.4571 21.3027 21.5216 21.2868 21.6021 21.3344C21.6504 21.3977 21.6504 21.4611 21.586 21.5245C21.4733 21.6829 21.3605 21.8414 21.2639 21.9998C21.1351 21.9998 21.0385 21.9998 20.9258 21.9998Z" fill="#A98DF0"/>
<path d="M21.57 21.5202C21.57 21.4726 21.5539 21.4093 21.5539 21.3617C21.4734 21.0449 21.3929 20.7438 21.5539 20.427L21.57 20.4111C21.8276 20.6329 21.6827 20.9498 21.7471 21.2033C21.6827 21.2984 21.6344 21.4093 21.57 21.5202Z" fill="#9976ED"/>
<path d="M16.4173 19.6226C16.0953 19.6226 15.7732 19.6226 15.4512 19.6226C15.7732 19.3849 16.0953 19.3849 16.4173 19.6226Z" fill="#755DEB"/>
<path d="M21.1019 20.5598C21.1985 21.3361 20.8442 21.5421 20.0874 21.5421C16.2229 21.5104 12.3745 21.5262 8.51001 21.5262C8.31679 21.5262 8.12356 21.5421 7.94644 21.5104C7.6888 21.447 7.43117 21.352 7.41507 21.0193C7.39897 20.6549 7.57609 20.4014 7.91424 20.3063C8.10746 20.2429 8.33289 20.2746 8.55832 20.2746C12.3584 20.2746 16.1746 20.2746 19.9747 20.2588C20.3934 20.2429 20.7637 20.3222 21.1019 20.5598Z" fill="#FAF8FD"/>
<path d="M21.5528 20.4152C21.5528 20.732 21.5528 21.0331 21.5528 21.3499C21.4884 21.3499 21.4401 21.3341 21.3757 21.3341C21.4079 21.0331 21.4401 20.7162 21.1019 20.5419C21.0375 20.0666 20.6672 20.0825 20.3129 20.0825C16.062 20.0825 11.8271 20.0983 7.57617 20.0983C7.57617 20.0508 7.57617 19.9874 7.57617 19.9399C9.60504 19.9399 11.65 20.0666 13.6789 19.8765C15.5789 19.7181 17.4468 20.1141 19.3307 19.7973C20.1036 19.6705 20.9248 19.7973 21.5528 20.4152Z" fill="#BB99FA"/>
<path d="M10.6354 22.1421C10.249 22.1421 9.87864 22.1421 9.49219 22.1421C9.87864 21.9045 10.249 21.9045 10.6354 22.1421Z" fill="#A791F4"/>
</svg>
