<svg width="104" height="78" viewBox="0 0 104 78" fill="none" xmlns="http://www.w3.org/2000/svg">
<path d="M84.9836 77.8483C63.3836 77.8483 41.8836 77.8483 20.2836 77.8483C17.5836 77.4483 14.8836 77.8484 12.1836 77.6484C11.6836 77.6484 10.8836 78.0483 10.6836 77.0483C11.7836 76.1483 13.0836 76.6483 14.2836 76.5483C30.9836 77.2483 47.7836 76.8483 64.4836 76.9483C65.3836 76.9483 66.3836 77.0484 67.2836 76.7484C72.7836 76.4484 78.3836 75.5483 83.8836 77.0483C84.1836 77.1483 84.4836 77.1483 84.7836 77.3483C85.0836 77.4483 85.0836 77.6483 84.9836 77.8483Z" fill="#E3E4F2"/>
<path d="M10.7844 77.1481C12.0844 77.9481 13.5844 77.3481 14.9844 77.5481C16.7844 77.7481 18.5844 77.1481 20.2844 77.9481C14.0844 77.9481 7.78437 77.8481 1.58438 77.9481C0.284375 77.9481 -0.215625 77.6481 0.084375 76.3481C3.68437 76.2481 7.28439 75.7481 10.7844 77.1481Z" fill="#E5E6F3"/>
<path d="M101.785 75.248C102.385 75.248 103.085 75.248 103.685 75.248C103.685 77.948 103.685 77.948 100.985 77.948C99.0852 77.948 97.1852 77.948 95.2852 77.948C95.8852 76.548 97.2852 76.648 98.3852 76.348C99.4852 75.948 100.685 75.748 101.785 75.248Z" fill="#E7E8F5"/>
<path d="M10.784 77.1479C7.284 76.7479 3.68398 77.1479 0.0839844 76.3479C0.0839844 75.9479 0.0839844 75.5479 0.0839844 75.2479C0.983984 75.2479 1.884 75.2479 2.784 75.2479C2.584 75.0479 3.084 75.5479 2.784 75.4479C2.684 75.4479 2.68399 75.7479 2.68399 75.7479C4.58399 75.4479 6.58401 75.9479 8.48401 75.9479C10.384 75.8479 12.284 76.1479 14.084 76.6479C14.284 76.8479 14.284 76.9479 14.184 77.2479C13.084 77.1479 11.884 77.1479 10.784 77.1479Z" fill="#DFE0F1"/>
<path d="M84.9844 77.8484C84.9844 77.7484 84.9844 77.5484 84.9844 77.4484C85.0844 77.2484 85.2844 77.1484 85.4844 77.0484C88.2844 76.6484 91.2844 76.7484 94.0844 76.0484C94.6844 75.6484 95.6844 76.0484 96.0844 75.1484C96.8844 75.1484 97.5844 75.1484 98.3844 75.1484C99.2844 75.9484 98.5844 76.1484 97.8844 76.5484C95.6844 77.4484 93.3844 77.6484 91.1844 77.8484C89.0844 77.8484 86.9844 77.8484 84.9844 77.8484Z" fill="#DEE0EF"/>
<path d="M91.084 77.8484C93.184 77.2484 95.384 77.2484 97.484 76.3484C98.084 76.0484 98.784 76.0484 98.384 75.1484C99.484 75.1484 100.684 75.1484 101.784 75.1484C100.484 77.2484 97.884 76.3484 96.084 77.4484C95.784 77.6484 95.584 77.7484 95.284 77.8484C93.884 77.8484 92.484 77.8484 91.084 77.8484Z" fill="#E3E4F2"/>
<path d="M9.58406 74.8482C9.18406 73.2482 9.18407 71.7482 9.28407 70.1482C9.78407 59.9482 9.48407 49.8482 9.68407 39.6482C9.68407 38.3482 9.58409 37.1482 9.98409 35.8482C10.9841 36.7482 10.5841 38.0482 10.6841 39.1482C10.7841 40.2482 10.6841 41.2482 10.6841 42.3482C10.1841 47.6482 11.0841 52.8482 11.0841 58.0482C11.0841 61.2482 11.1841 64.4482 11.9841 67.7482C12.5841 67.2482 12.4841 66.6482 12.5841 66.0482C13.2841 58.4482 13.3841 50.8482 13.9841 43.2482C14.4841 37.0482 14.4841 30.7482 14.3841 24.5482C14.3841 19.8482 15.0841 15.3482 17.9841 11.4482C16.8841 12.6482 15.8841 14.0482 14.9841 15.3482C14.5841 15.9482 14.2841 16.7482 13.2841 16.3482C16.6841 8.6482 22.8841 4.14821 30.5841 1.54821C35.6841 -0.15179 40.9841 -0.451784 46.2841 0.648216C47.0841 0.848216 47.6841 1.4482 48.5841 1.4482C48.9841 1.7482 49.1841 1.9482 48.7841 2.4482C48.3841 2.6482 47.9841 2.74822 47.5841 2.74822C43.2841 1.24822 38.8841 1.34821 34.4841 2.04821C33.5841 2.14821 32.7841 2.64822 31.9841 2.74822C30.4841 3.04822 29.0841 3.54822 27.4841 4.24822C28.1841 4.34822 28.5841 4.4482 28.8841 4.9482C28.7841 5.9482 27.7841 5.9482 27.0841 6.3482C25.2841 7.2482 23.5841 8.14822 22.2841 9.74822C22.1841 10.0482 21.9841 10.3482 21.7841 10.5482C18.4841 13.4482 17.0841 17.2482 16.4841 21.3482C16.0841 24.1482 16.2841 27.0482 16.4841 29.8482C16.6841 35.0482 16.8841 40.3482 15.8841 45.4482C15.6841 46.4482 15.6841 47.4482 15.6841 48.4482C15.7841 53.5482 15.0841 58.6482 15.1841 63.7482C15.1841 64.1482 15.1841 64.6482 15.0841 65.0482C14.3841 68.1482 14.7841 71.1482 15.8841 74.1482C15.3841 74.8482 14.5841 74.7482 13.8841 74.8482C13.1841 74.9482 12.5841 75.1482 12.0841 75.6482C10.8841 76.2482 10.0841 75.9482 9.58406 74.8482Z" fill="#3A489C"/>
<path d="M13.0846 16.5484C14.5846 15.7484 14.8846 13.8484 15.9846 12.7484C16.8846 11.7484 17.6846 10.5484 19.5846 10.1484C18.0846 12.1484 16.7846 13.8484 16.0846 15.8484C15.0846 19.0484 14.5846 22.3484 14.6846 25.6484C14.7846 27.8484 14.3846 30.1484 14.5846 32.3484C14.7846 34.7484 14.3846 37.0484 14.4846 39.4484C14.6846 41.8484 14.1846 44.2484 13.9846 46.6484C13.6846 51.1484 13.4846 55.6484 13.1846 60.1484C13.0846 62.4484 12.9846 64.7484 12.7846 67.1484C12.7846 67.5484 12.6846 67.8484 12.4846 68.2484C12.2846 68.7484 11.9846 69.2484 11.3846 69.1484C10.6846 69.0484 10.9846 68.4484 10.9846 68.0484C10.6846 64.9484 10.0846 61.9484 10.1846 58.8484C10.2846 53.5484 9.48458 48.2484 9.68458 42.9484C10.9846 43.2484 10.5846 44.3484 10.5846 45.0484C10.7846 46.7484 10.3846 48.5484 11.0846 50.3484C12.3846 40.6484 12.9846 30.9484 12.7846 21.0484C11.9846 21.3484 12.0846 22.9484 10.7846 22.3484C11.5846 20.2484 12.1846 18.3484 13.0846 16.5484Z" fill="#36449A"/>
<path d="M11.1837 22.2487C12.1837 21.9487 12.1837 21.0487 12.2837 20.2487C12.3837 19.7487 12.4837 19.3486 13.0837 19.3486C13.6837 19.3486 13.7837 19.8486 13.7837 20.3486C13.7837 24.2486 13.7837 28.0486 13.6837 31.9486C13.5837 36.0486 13.2837 40.1486 12.9837 44.3486C12.7837 46.8486 12.9837 49.4486 11.6837 51.9486C10.6837 51.2486 10.4837 50.3487 10.3837 49.2487C10.2837 47.1487 10.8837 44.9486 10.0837 42.8486C10.0837 40.5486 10.0837 38.2486 9.98369 35.8486C9.88369 31.2486 10.0837 26.7487 11.1837 22.2487Z" fill="#354399"/>
<path d="M97.1848 70.9479C96.7848 71.5479 96.4848 72.3479 95.6848 72.5479C93.4848 70.7479 91.0848 71.3479 88.5848 72.0479C86.8848 72.5479 85.0848 72.3479 83.2848 72.2479C82.0848 72.1479 81.3848 71.2479 80.9848 70.2479C80.4848 69.0479 79.7848 68.0479 79.1848 66.9479C79.0848 66.7479 78.9848 66.6479 78.8848 66.4479C78.6848 65.7479 78.2848 65.0479 78.6848 64.2479C80.1848 63.7479 80.1848 65.3479 80.9848 65.8479C81.0848 66.0479 81.1848 66.1479 81.2848 66.3479C82.8848 69.5479 83.8848 70.0479 87.2848 68.9479C89.2848 68.3479 91.1848 67.4479 93.1848 66.8479C95.7848 66.0479 97.0848 67.0479 97.1848 69.8479C96.3848 70.3479 97.4848 70.6479 97.1848 70.9479Z" fill="#2E3D96"/>
<path d="M54.484 4.04785C56.384 4.84785 57.984 5.94785 59.484 7.44785C60.784 9.24785 62.284 10.9479 63.584 12.7479C64.084 13.4479 64.584 14.1478 64.884 14.9478C67.184 19.9478 68.284 25.1479 68.784 30.6479C69.084 33.3479 68.684 36.0479 69.384 38.7479C69.384 45.7479 69.884 52.6479 69.784 59.6479C68.884 60.0479 68.784 59.2478 68.784 58.8478C68.684 57.5478 68.184 56.3478 68.284 54.9478C67.384 47.6478 67.784 40.3479 67.084 33.0479C66.784 29.9479 66.584 26.7479 65.984 23.6479C65.684 22.1479 64.984 20.8478 64.684 19.3478C64.584 19.1478 64.484 19.0478 64.384 18.8478C64.084 17.9478 64.084 16.9478 63.084 16.3478C62.184 15.5478 61.684 14.4478 61.184 13.4478C59.684 10.6478 57.384 8.44786 55.084 6.24786C54.784 5.44786 53.784 5.04785 54.484 4.04785Z" fill="#5158A5"/>
<path d="M64.3848 14.6487C63.8848 14.0487 63.2848 13.5487 63.2848 12.7487C62.9848 12.1487 62.1848 11.6486 62.8848 10.8486C66.4848 14.7486 68.0848 19.6487 68.9848 24.7487C69.7848 29.3487 69.8848 33.9486 69.8848 38.5486C70.0848 48.7486 69.9848 58.9487 70.0848 69.1487C68.3848 68.3487 69.4848 66.8487 69.1848 65.6487C69.1848 64.2487 69.1848 62.9486 69.1848 61.5486C69.1848 60.8486 69.1848 60.1487 69.6848 59.6487C69.6848 52.5487 68.5848 45.4486 68.8848 38.3486C68.4848 35.4486 68.6848 32.4486 68.3848 29.5486C67.8848 24.7486 66.9848 20.1487 64.9848 15.7487C64.8848 15.2487 64.5848 14.9487 64.3848 14.6487Z" fill="#5C63AC"/>
<path d="M84.1844 53.0485C85.7844 52.2485 87.4844 52.1485 89.1844 52.4485C90.5844 52.9485 91.7844 53.7485 92.6844 54.9485C93.5844 56.1485 94.8844 57.0485 95.8844 58.1485C98.2844 60.8485 99.8844 63.8485 99.0844 67.5485C98.4844 67.9485 99.0844 68.8485 98.3844 69.3485C97.4844 68.4485 97.7844 67.3485 97.6844 66.3485C97.7844 63.6485 95.3844 60.9485 92.6844 60.5485C91.9844 60.4485 91.5844 60.8485 91.2844 61.2485C90.8844 61.7485 90.6844 62.4485 89.7844 61.9485C89.5844 61.5485 89.6844 61.0485 89.7844 60.6485C90.1844 57.6485 88.2844 55.8485 85.1844 56.4485C84.5844 56.5485 84.0844 57.0485 83.3844 56.6485C83.1844 56.2485 83.2844 55.9485 83.4844 55.5485C84.8844 54.1485 86.7844 54.7485 88.8844 54.1485C87.5844 53.5485 86.6844 53.7485 85.7844 53.7485C85.1844 53.7485 84.2844 54.2485 84.1844 53.0485Z" fill="#3F4B9D"/>
<path d="M79.2838 66.4482C80.7838 67.5482 80.9838 69.4482 81.9838 70.8482C82.4838 71.5482 83.0838 71.7482 83.8838 71.8482C86.5838 72.1482 89.1838 71.5482 91.6838 70.9482C93.7838 70.4482 94.8838 71.0483 95.7838 72.6483C95.3838 72.9483 94.9838 73.2483 94.5838 73.6483C91.0838 74.6483 87.4838 74.8482 83.8838 74.5482C82.5838 73.9482 81.2838 73.5482 80.3838 72.3482C80.3838 71.2482 80.2838 70.1483 79.5838 69.1483C79.4838 68.9483 79.3838 68.8483 79.3838 68.6483C79.1838 67.8483 78.6838 67.1482 79.2838 66.4482Z" fill="#293A94"/>
<path d="M98.2852 65.6486C98.2852 66.8486 98.2852 68.0486 98.3852 69.2486C98.1852 69.9486 97.9852 70.6486 97.1852 70.9486C97.1852 70.6486 96.4852 70.7486 96.7852 70.2486C97.2852 68.7486 96.6852 66.6486 95.4852 65.9486C94.1852 65.1486 92.8852 65.3486 91.7852 66.3486C90.0852 68.0486 87.8852 68.5486 85.7852 68.9486C83.4852 69.4486 81.8852 67.9486 80.7852 66.0486C79.2852 64.0486 78.8852 61.8486 79.1852 59.4486C79.2852 58.7486 79.2852 58.2486 78.7852 57.7486C79.0852 56.3486 80.3852 55.9486 81.2852 55.0486C81.4852 54.8486 81.8852 54.8486 82.1852 55.1486C82.5852 55.5486 82.4852 55.9486 82.2852 56.3486C81.7852 57.3486 81.0852 58.2486 80.8852 59.4486C80.6852 60.3486 80.5852 61.1486 80.8852 62.0486C80.9852 62.5486 81.0852 63.0486 81.2852 63.5486C81.4852 64.0486 81.6851 64.6486 82.0851 65.0486C82.2851 65.2486 82.3851 65.4486 82.5851 65.6486C83.3851 67.1486 84.5851 67.2486 86.0851 66.7486C87.7851 66.2486 89.2852 65.5486 90.4852 64.0486C91.6852 62.6486 94.3852 62.4486 95.8852 63.4486C96.6852 63.9486 97.4851 64.4486 98.0851 65.1486C98.0851 65.4486 98.1852 65.5486 98.2852 65.6486Z" fill="#354299"/>
<path d="M80.3852 62.2483C79.1852 59.5483 80.9852 57.5483 81.7852 55.1483C80.7852 55.9483 79.8852 56.8483 78.8852 57.6483C78.9852 58.5483 78.5852 58.8483 77.7852 58.7483C78.9852 55.7483 81.1852 53.9482 84.1852 52.9482C84.6852 53.7482 85.2852 53.1482 85.8852 53.0482C86.7852 53.0482 87.6852 52.9482 88.4852 53.0482C89.1852 53.1482 89.7852 53.4483 89.6852 54.2483C89.5852 54.9483 88.8852 54.9482 88.3852 54.9482C86.7852 54.9482 85.2852 54.8483 83.8852 55.7483C82.3852 57.2483 81.1852 58.8482 80.9852 61.0482C80.8852 61.5482 80.7852 61.9483 80.3852 62.2483Z" fill="#37459A"/>
<path d="M99.0836 67.5482C98.8836 63.7482 97.8836 60.2483 94.6836 57.7483C92.6836 56.1483 91.2836 53.9482 89.1836 52.4482C90.5836 52.4482 91.8836 52.7482 92.9836 53.5482C95.7836 55.5482 98.1836 57.8482 99.1836 61.3482C99.6836 63.1482 99.7836 64.8482 99.4836 66.5482C99.4836 66.8482 99.5836 67.3482 99.0836 67.5482Z" fill="#4952A2"/>
<path d="M77.7843 58.8479C78.2843 58.5479 78.6843 58.248 78.8843 57.748C79.3843 57.748 80.2843 57.3479 79.9843 58.3479C79.1843 61.0479 79.8843 63.648 80.7843 66.148C79.7843 65.848 79.7843 64.648 78.8843 64.248C78.7843 64.148 78.5842 64.0479 78.5842 63.8479C78.2842 63.0479 78.4843 62.2479 78.2843 61.3479C77.3843 62.2479 77.5842 63.3479 77.5842 64.3479C77.4842 65.0479 77.6843 65.8479 76.9843 66.3479C76.1843 63.6479 76.4843 61.1479 77.7843 58.8479Z" fill="#314097"/>
<path d="M70.0853 74.8486C71.2853 75.6486 72.5853 75.1486 73.7853 75.2486C75.9853 75.3486 78.1853 75.2486 80.3853 75.3486C80.3853 76.0486 79.8853 76.2486 79.2853 76.4486C76.1853 76.3486 73.1853 76.6486 70.0853 76.8486C67.8853 76.6486 65.6853 77.4486 63.4853 76.7486C63.2853 76.6486 63.1853 76.4486 63.2853 76.1486C64.0853 75.2486 65.1853 75.6486 66.1853 75.5486C66.7853 75.5486 67.3853 75.5486 67.9853 75.5486C69.0853 75.4486 69.9853 76.0486 70.9853 75.9486C70.5853 75.8486 70.0853 76.0486 69.6853 75.7486C69.5853 75.5486 69.5853 75.4486 69.5853 75.2486C69.7853 74.8486 69.8853 74.7486 70.0853 74.8486Z" fill="#BFC0CD"/>
<path d="M99.4844 66.4486C99.6844 62.8486 98.6844 59.6486 96.3844 56.8486C95.3844 55.6486 93.7844 54.8486 92.9844 53.3486C97.9844 55.3486 100.984 61.4486 99.4844 66.4486Z" fill="#5F66AD"/>
<path d="M83.7852 74.4479C84.1852 74.3479 84.4852 74.0479 84.8852 74.0479C88.0852 74.1479 91.2851 73.4479 94.5851 73.5479C93.7851 74.1479 92.7852 74.6479 91.7852 74.9479C91.5852 75.4479 91.1852 75.5479 90.6852 75.4479C90.1852 75.3479 89.6852 75.3479 89.1852 75.3479C88.1852 75.3479 87.2852 75.2479 86.3852 75.7479C86.0852 75.8479 85.7851 75.8479 85.5851 75.7479C85.1851 75.5479 84.9852 75.3479 84.8852 74.9479C84.3852 74.8479 84.0852 74.6479 83.7852 74.4479Z" fill="#25358D"/>
<path d="M54.4835 4.04843C54.6835 5.64843 56.3835 6.14844 57.1835 7.24844C58.6835 9.14844 60.7835 10.7484 61.6835 13.1484C59.7835 12.5484 58.7835 10.6484 57.3835 9.44843C56.0835 8.34843 55.0835 6.94843 53.6835 5.94843C53.5835 5.84843 53.3835 5.64843 53.2835 5.54843C52.9835 4.74843 51.7835 4.24844 52.4835 3.14844C53.2835 3.44844 53.8835 3.74843 54.4835 4.04843Z" fill="#4A51A1"/>
<path d="M14.1836 76.748C12.0836 76.948 10.0836 76.148 7.98361 76.348C5.88361 76.548 3.88359 75.648 1.68359 75.848C2.08359 75.648 2.3836 75.448 2.7836 75.248C4.9836 75.248 7.0836 75.248 9.2836 75.248C9.0836 76.348 8.08359 75.448 7.68359 75.948C9.58359 75.348 11.4836 76.048 13.2836 75.848C14.6836 75.948 16.1836 75.548 17.5836 76.248C17.7836 76.448 17.7836 76.648 17.6836 76.848C16.4836 76.948 15.2836 77.048 14.1836 76.748Z" fill="#D3D5E4"/>
<path d="M79.1851 71.1478C78.2851 70.1478 77.5851 69.0478 77.2851 67.7478C77.1851 66.7478 76.6851 65.2478 77.4851 65.0478C78.7851 64.7478 78.3851 66.4478 79.0851 67.1478C79.4851 67.6478 79.2851 68.2478 79.6851 68.7478C80.0851 69.6478 80.3851 70.5478 79.1851 71.1478Z" fill="#243491"/>
<path d="M79.6844 68.7479C78.9844 67.6479 78.1844 66.5479 77.4844 65.2479C77.4844 66.0479 77.3844 66.9479 77.3844 67.7479C76.9844 67.3479 76.9844 66.7479 76.9844 66.2479C76.9844 65.4479 77.0844 64.6478 77.0844 63.8478C77.4844 63.5478 76.9844 62.6479 77.7844 62.5479C78.1844 62.5479 78.3844 62.8479 78.4844 63.1479C78.4844 64.3479 78.7844 65.4478 79.2844 66.4478C79.3844 67.2478 79.7844 67.9479 79.6844 68.7479Z" fill="#273692"/>
<path d="M62.8835 10.748C62.9835 11.348 63.0835 12.048 63.2835 12.648C61.5835 11.348 60.9835 9.24803 59.3835 7.94803C59.2835 7.84803 59.4835 7.44805 59.4835 7.24805C60.8835 8.24805 61.9835 9.44805 62.8835 10.748Z" fill="#5A60AA"/>
<path d="M70.0836 74.8478C69.9836 74.8478 69.8836 74.8478 69.7836 74.9478C69.6836 74.8478 69.5836 74.8478 69.4836 74.7478C68.2836 71.8478 68.6836 68.9478 69.0836 66.0478C69.2836 65.8478 69.4836 65.7478 69.6836 65.8478C69.8836 66.9478 69.3836 68.2478 70.0836 69.2478C70.2836 71.0478 70.2836 72.9478 70.0836 74.8478Z" fill="#364299"/>
<path d="M52.6852 3.14844C52.5852 4.14844 53.8852 4.54843 53.7852 5.54843C51.8852 5.24843 50.6852 4.04842 49.7852 2.34842C49.8852 2.24842 49.8852 2.24844 49.9852 2.14844C50.8852 2.24844 51.8852 2.54844 52.6852 3.14844Z" fill="#464FA0"/>
<path d="M79.1836 71.148C79.6836 70.448 79.6836 69.548 79.5836 68.748C80.4836 69.748 81.2836 70.848 80.1836 72.248C79.7836 72.048 79.4836 71.648 79.1836 71.148Z" fill="#273692"/>
<path d="M90.6844 75.1483C90.9844 75.0483 91.3844 75.0482 91.6844 74.9482C91.9844 75.0482 92.2844 75.1483 92.5844 75.2483C93.1844 75.4483 93.8844 75.6482 92.8844 76.3482C91.6844 76.7482 90.4844 76.8482 89.2844 76.5482C89.0844 76.4482 88.9844 76.2482 88.9844 76.0482C89.3844 75.4482 89.7844 74.8483 90.6844 75.1483Z" fill="#858890"/>
<path d="M13.0851 76.3486C11.0851 76.0486 9.08516 75.8486 6.78516 76.0486C7.78516 75.3486 8.68516 75.9487 9.28516 75.2487C9.38516 75.1487 9.58515 75.0486 9.68515 74.8486C10.2852 75.4486 11.0852 75.7487 11.9852 75.6487C12.3852 75.5487 12.8852 75.5486 13.1852 75.8486C13.1852 76.0486 13.1851 76.2486 13.0851 76.3486Z" fill="#CACDDD"/>
<path d="M79.6836 75.948C79.9836 75.748 80.1836 75.448 80.4836 75.248C81.0836 75.248 81.7836 75.248 82.3836 75.248C82.2836 75.648 82.4836 75.948 82.3836 76.348C82.2836 76.448 82.0836 76.548 81.9836 76.648C81.0836 76.648 80.1836 77.048 79.6836 75.948Z" fill="#B2B3BF"/>
<path d="M95.9847 75.248C96.4847 76.048 96.3847 76.148 94.4847 76.348C94.2847 76.548 93.9847 76.548 93.7847 76.448C93.3847 75.848 94.1847 75.648 94.0847 75.248C94.7847 75.248 95.3847 75.248 95.9847 75.248Z" fill="#C2C3D0"/>
<path d="M94.084 75.248C95.184 76.048 93.784 75.948 93.684 76.348C93.484 76.548 93.184 76.648 92.984 76.448C92.884 76.248 92.884 76.148 92.984 75.948C93.284 75.448 92.584 75.548 92.584 75.248C93.084 75.248 93.584 75.248 94.084 75.248Z" fill="#ACADB9"/>
<path d="M84.7835 74.9482C85.1835 74.9482 85.2835 75.3482 85.4835 75.5482C85.4835 75.6482 85.3835 75.7482 85.3835 75.8482C84.6835 76.5482 83.9835 76.5483 83.1835 76.1483C82.6835 75.3483 83.5835 75.5483 83.8835 75.2483C84.1835 75.1483 84.4835 75.0482 84.7835 74.9482Z" fill="#81848D"/>
<path d="M83.8848 75.248C83.6848 75.448 83.3848 75.748 83.1848 75.948C82.8848 76.148 82.6848 76.248 82.3848 75.948C82.1848 75.848 82.0848 75.848 81.8848 75.748C82.0848 75.548 82.1848 75.448 82.3848 75.248C82.8848 75.248 83.3848 75.248 83.8848 75.248Z" fill="#91939C"/>
<path d="M48.7848 2.44836C48.6848 2.14836 48.4848 1.94837 48.3848 1.64837C48.9848 1.54837 49.4848 1.64837 49.8848 2.04837L49.7848 2.14837C49.5848 2.44837 49.3848 2.74837 48.8848 2.64837C48.9848 2.54837 48.8848 2.44836 48.7848 2.44836Z" fill="#464FA0"/>
<path d="M14.184 76.7484C15.284 76.7484 16.484 76.7484 17.584 76.7484C18.684 75.8484 20.084 76.3484 21.284 76.1484C21.984 76.1484 22.684 76.1484 23.384 76.2484C27.084 76.7484 30.684 76.3484 34.384 76.4484C42.784 76.4484 51.284 76.4484 59.684 76.4484C62.284 76.6484 64.884 76.2484 67.384 77.0484C66.784 77.6484 66.084 77.4484 65.384 77.4484C51.284 77.4484 37.084 77.5484 22.984 77.3484C19.984 77.3484 17.084 77.0484 14.084 77.0484C14.184 76.9484 14.184 76.8484 14.184 76.7484Z" fill="#DDDEEE"/>
<path d="M67.4848 77.1481C64.9848 77.1481 62.3848 77.1481 59.8848 77.1481C60.4848 75.6481 61.7848 76.248 62.7848 76.348C65.2848 76.648 67.6848 76.648 70.1848 76.348C73.3848 76.348 76.4848 75.748 79.6848 75.948C80.4848 76.648 81.4848 76.248 82.3848 76.348C82.4848 76.348 82.5847 76.348 82.5847 76.348C82.9847 76.348 83.3848 76.348 83.7848 76.448C84.3848 76.648 85.2848 76.448 85.3848 77.448C85.2848 77.448 85.0848 77.448 84.9848 77.448C81.5848 77.248 78.2848 76.3481 74.7848 76.6481C72.3848 76.9481 69.9848 77.3481 67.4848 77.1481Z" fill="#D2D3E3"/>
<path d="M85.3844 77.4479C84.8844 76.7479 83.9844 77.3479 83.4844 76.7479C83.7844 76.3479 84.2844 76.3478 84.7844 76.3478C86.2844 76.1478 87.6844 76.0479 89.1844 76.4479C90.4844 76.8479 91.6844 76.2478 92.9844 76.3478C93.1844 76.3478 93.4844 76.3478 93.6844 76.3478C93.9844 76.3478 94.1844 76.3478 94.4844 76.3478C91.5844 77.5478 88.4844 77.3479 85.3844 77.4479Z" fill="#C3C4D1"/>
<path d="M14.5841 65.3484C14.5841 64.9484 14.5841 64.5484 14.5841 64.2484C15.1841 60.3484 15.4841 56.5484 15.3841 52.6484C15.2841 49.6484 15.3841 46.6484 16.1841 43.7484C17.2841 39.4484 16.8841 35.2484 16.5841 30.9484C16.2841 27.7484 15.6841 24.4484 16.1841 21.2484C16.4841 17.4484 17.7841 14.1484 20.4841 11.3484C20.9841 10.8484 21.3841 10.3484 21.8841 9.84842C23.3841 8.74842 24.6841 7.24844 26.7841 7.14844C27.0841 8.44844 25.8841 8.44843 25.2841 9.04843C24.5841 9.54843 23.8841 10.0484 23.1841 10.5484C21.6841 11.5484 20.4841 12.9484 19.6841 14.5484C19.4841 14.8484 19.3841 15.1484 19.1841 15.4484C18.5841 16.2484 18.2841 17.0484 18.2841 18.0484C18.2841 18.2484 18.1841 18.4484 18.1841 18.5484C16.8841 23.8484 18.7841 28.7484 20.2841 33.6484C20.7841 35.3484 21.8841 36.6484 24.0841 36.1484C24.5841 36.0484 25.0841 36.1484 25.4841 36.4484C25.6841 36.6484 25.7841 36.9484 25.8841 37.2484C25.0841 39.9484 25.9841 42.1484 27.1841 44.5484C28.4841 47.2484 27.8841 50.1484 26.5841 52.7484C26.3841 53.0484 26.1841 53.4484 25.8841 53.6484C22.7841 56.2484 21.9841 59.9484 21.8841 63.7484C21.7841 66.5484 21.5841 69.4484 21.0841 72.2484C20.7841 74.0484 19.8841 74.7484 18.2841 74.7484C16.5841 74.8484 15.6841 74.1484 15.0841 72.3484C14.1841 69.9484 14.2841 67.6484 14.5841 65.3484Z" fill="#434EA0"/>
<path d="M14.5835 65.3486C14.8835 67.2486 14.2835 69.2487 14.7835 71.1487C15.3835 73.4487 16.0835 74.1487 17.9835 74.1487C19.2835 74.1487 20.0835 73.4487 20.2835 72.1487C20.6835 69.4487 20.9835 66.6486 21.0835 63.9486C21.1835 61.2486 21.4835 58.5487 22.7835 56.1487C23.5835 54.6487 24.8835 53.7486 25.9835 52.5486C27.6835 49.9486 29.1835 47.2486 28.1835 43.9486C27.9835 43.2486 28.0835 42.5487 28.7835 42.1487C30.2835 42.0487 30.9835 43.4486 32.1835 43.8486C32.7835 44.2486 33.4835 44.3486 34.0835 44.8486C34.1835 45.0486 34.1835 45.1486 34.1835 45.3486C33.6835 47.6486 32.8835 49.7486 30.5835 51.0486C29.5835 51.5486 28.9835 52.6487 28.3835 53.6487C27.2835 54.8487 25.7835 55.4486 24.7835 56.9486C22.4835 60.5486 22.6835 64.5486 22.3835 68.5486C22.3835 68.8486 22.3835 69.1486 22.3835 69.4486C22.3835 70.5486 22.0835 71.6487 21.8835 72.7487C21.4835 75.2487 17.7835 76.3487 15.6835 74.6487C13.6835 71.6487 13.8835 68.4486 14.5835 65.3486Z" fill="#3D499D"/>
<path d="M26.7848 7.04788C24.7848 7.34788 23.5848 9.04789 21.8848 9.74789C22.9848 7.84789 24.9848 7.24788 26.7848 6.14788C27.3848 5.74788 28.2848 5.84788 28.7848 5.14788C28.9848 4.44788 29.6848 4.34789 30.2848 4.24789C31.5848 4.14789 32.7847 3.84787 34.0847 3.44787C38.1847 3.24787 41.9848 4.04787 45.6848 5.94787C47.5848 7.74787 50.1848 9.04788 50.7848 12.0479C50.9848 12.9479 51.2848 13.9479 50.9848 14.8479C50.3848 16.9479 50.2847 19.1479 50.0847 21.3479C49.9847 21.6479 49.7848 21.8479 49.4848 22.0479C48.7848 22.2479 48.3847 21.8479 48.0847 21.2479C47.9847 21.0479 47.9848 20.8479 47.9848 20.6479C48.0848 17.8479 48.0848 15.1479 47.4848 12.3479C46.8848 9.34786 43.8848 6.64789 40.7848 6.24789C36.6848 4.74789 32.5847 4.74788 28.5847 6.64788C28.1847 6.84788 27.7848 7.04787 27.2848 6.94787C26.9848 7.04787 26.8848 7.04788 26.7848 7.04788Z" fill="#3D499C"/>
<path d="M16.0835 21.1484C16.3835 24.3484 16.4835 27.4484 16.8835 30.6484C17.6835 35.4484 17.4836 40.1484 16.4836 44.8484C15.6836 48.4484 15.9835 52.1484 15.7835 55.8484C15.6835 58.6484 15.8836 61.5484 14.4836 64.1484C14.2836 58.3484 15.0835 52.5484 14.8835 46.7484C14.8835 44.9484 15.3835 43.1484 15.5835 41.3484C15.9835 38.5484 15.6835 35.7484 15.6835 32.9484C15.6835 30.1484 15.4836 27.3484 15.4836 24.5484C15.5836 23.4484 15.3835 22.1484 16.0835 21.1484Z" fill="#3E4A9D"/>
<path d="M31.2846 2.44785C33.9846 1.54785 36.8846 1.34785 39.7846 1.04785C42.4846 0.747852 45.0846 1.74785 47.6846 2.44785C48.5846 2.94785 49.6846 3.44784 49.2846 4.84784C48.9846 6.04784 48.0846 6.54785 46.8846 6.44785C43.2846 4.94785 39.5846 3.44784 35.5846 3.34784C34.5846 3.34784 33.5846 3.44786 32.5846 3.64786C31.6846 3.84786 31.0846 3.44785 31.2846 2.44785Z" fill="#374399"/>
<path d="M31.2848 2.44824C31.5848 2.94824 31.5848 3.44826 32.4848 3.24826C34.9848 2.64826 37.4848 2.74826 39.9848 3.74826C42.2848 4.54826 44.8848 4.64824 46.8848 6.34824C46.8848 6.44824 46.7848 6.54825 46.7848 6.54825C46.1848 7.04825 45.7848 6.54824 45.3848 6.34824C44.1848 6.24824 43.1847 5.54825 42.0847 5.14825C39.4847 4.24825 36.7848 3.94825 33.9848 4.04825C32.6848 4.04825 31.3848 4.14824 30.1848 4.84824C29.5848 4.74824 29.1848 4.94826 28.6848 5.24826C27.8848 5.14826 27.1848 4.54825 26.3848 5.54825C27.3848 3.74825 27.3848 3.74824 31.2848 2.44824Z" fill="#3A469B"/>
<path d="M46.8848 6.24826C49.4848 5.24826 49.4848 4.84824 47.6848 2.44824C48.0848 2.44824 48.4848 2.44824 48.7848 2.44824C49.3848 2.84824 50.2848 2.94826 50.6848 3.74826C50.8848 4.34826 51.1848 4.84824 51.5848 5.34824C51.6848 5.54824 51.6848 5.74824 51.6848 5.84824C51.6848 7.04824 51.6848 8.34825 50.1848 8.64825C48.6848 8.94825 47.7848 7.84825 46.7848 7.04825C46.5848 6.94825 46.6848 6.54826 46.8848 6.24826Z" fill="#3A469B"/>
<path d="M15.6852 74.4484C17.0852 75.1484 18.4852 74.6484 19.8852 74.3484C20.6852 74.1484 21.2852 73.5484 21.3852 72.6484C21.5852 71.4484 21.6852 70.3484 21.7852 69.1484C21.9852 69.1484 22.1852 69.1484 22.2852 69.2484C23.2852 70.9484 22.5852 73.9484 20.7852 75.1484C20.2852 75.3484 19.7852 75.4484 19.2852 75.6484C17.6852 76.0484 15.9852 75.4484 14.4852 76.1484C13.9852 76.2484 13.4852 76.3484 12.9852 76.0484C12.5852 75.9484 12.1852 75.8484 11.7852 75.7484C11.8852 74.6484 12.6851 74.4484 13.5851 74.5484C14.2851 74.4484 14.9852 74.4484 15.6852 74.4484Z" fill="#36449A"/>
<path d="M80.7852 66.048C81.2852 66.548 81.7852 67.048 82.3852 67.348C83.7852 68.248 84.8852 68.848 86.8852 68.148C88.8852 67.448 90.6852 66.5481 92.3852 65.2481C93.5852 64.3481 95.6852 64.848 96.4852 65.848C97.7852 67.448 97.8852 68.848 96.8852 70.148C96.5852 66.748 95.3851 66.648 92.5851 67.548C90.2851 68.348 87.9851 69.448 85.5851 70.048C83.5851 70.648 81.3852 68.748 80.7852 66.048Z" fill="#314097"/>
<path d="M79.2836 66.4481C78.4836 65.5481 78.2836 64.5481 78.1836 63.4481C78.5836 63.2481 78.6836 63.6481 78.9836 63.8481C78.9836 63.9481 78.9836 64.1481 78.9836 64.2481C78.9836 64.9481 79.1836 65.6481 79.2836 66.4481Z" fill="#293A94"/>
<path d="M50.3848 3.94843C49.8848 3.44843 49.3848 2.94843 48.8848 2.44843C49.2848 2.34843 49.5848 2.24844 49.9848 2.14844C51.0848 3.54844 52.4848 4.44843 53.8848 5.54843C55.7848 7.84843 57.9847 9.84842 60.0847 11.8484C61.8847 13.6484 62.8848 15.9484 63.9848 18.2484C64.3848 18.9484 64.7848 19.5484 65.2848 20.2484C67.0848 25.2484 67.3848 30.5484 67.7848 35.8484C68.1848 42.1484 67.6848 48.5484 69.1848 54.7484C69.3848 56.4484 69.3848 58.1484 69.9848 59.7484C69.9848 61.7484 69.9848 63.8484 69.9848 65.8484C69.8848 65.8484 69.6847 65.8484 69.5847 65.8484C69.4847 65.7484 69.3848 65.7484 69.3848 65.6484C68.8848 62.9484 68.9848 60.1484 68.3848 57.4484C68.1848 56.7484 68.0848 56.0484 67.7848 55.4484C67.5848 55.0484 67.5847 54.6484 67.5847 54.2484C66.6847 50.9484 66.1848 47.6484 65.8848 44.2484C65.5848 40.3484 65.1848 36.4484 65.1848 32.5484C65.1848 31.2484 64.9848 30.0484 64.7848 28.7484C64.3848 23.7484 62.7848 19.4484 59.3848 15.6484C56.5848 12.6484 53.8848 9.34844 51.8848 5.74844C50.8848 5.14844 50.7848 4.44843 50.3848 3.94843Z" fill="#414A9D"/>
<path d="M68.9851 54.6479C67.9851 53.4479 68.0851 51.8479 67.8851 50.5479C67.5851 46.8479 67.3851 43.0478 67.2851 39.3478C67.1851 35.0478 67.2851 30.7479 66.0851 26.5479C65.4851 24.4479 64.9851 22.2479 64.7851 20.0479C64.0851 19.5479 64.1851 19.0479 64.7851 18.5479C65.7851 19.7479 66.0851 21.1479 66.3851 22.6479C67.2851 27.3479 67.5851 32.0478 67.8851 36.8478C68.3851 42.6478 68.1851 48.6479 68.9851 54.6479Z" fill="#4A51A1"/>
<path d="M64.7836 18.4478C64.7836 18.9478 64.3836 19.4478 64.7836 19.9478C64.3836 19.9478 63.7836 19.9479 63.7836 19.6479C63.8836 17.7479 61.7836 16.7478 61.6836 14.9478C61.6836 14.2478 61.1836 13.8478 60.6836 13.4478C58.6836 11.7478 57.3836 9.54785 55.2836 8.04785C54.4836 7.44785 53.7836 6.64785 53.6836 5.54785C56.5836 7.24785 58.5836 10.0478 60.8836 12.3478C61.1836 12.6478 61.3836 12.8479 61.6836 13.1479C62.4836 13.9479 62.5836 15.1478 63.5836 15.8478C64.2836 16.5478 64.2836 17.6478 64.7836 18.4478Z" fill="#464FA0"/>
<path d="M64.3848 14.6484C66.0848 16.3484 66.8848 18.5484 67.2848 20.8484C68.3848 26.6484 69.1848 32.4484 68.8848 38.3484C68.2848 37.8484 68.4848 37.1484 68.4848 36.5484C68.4848 31.1484 67.6848 25.7484 66.4848 20.5484C66.1848 18.4484 65.1848 16.5484 64.3848 14.6484Z" fill="#5A60AA"/>
<path d="M64.7836 18.448C63.5836 17.948 63.8836 16.748 63.6836 15.748C64.6836 16.348 64.8836 17.348 64.7836 18.448Z" fill="#4A51A1"/>
<path d="M80.3848 62.248C80.3848 59.448 80.9848 57.048 83.7848 55.748C83.6848 56.048 83.4848 56.248 83.3848 56.548C82.8848 58.048 81.6847 59.148 81.5847 60.848C81.4847 62.648 82.2848 63.848 83.6848 64.548C85.0848 65.248 86.4848 64.648 87.6848 63.648C88.3848 63.048 88.7848 62.148 89.8848 61.948C89.9848 61.948 89.9847 61.948 90.0847 61.948C91.0847 61.348 91.1848 59.248 92.7848 59.948C95.3848 61.048 98.0848 62.348 98.2848 65.848C98.1848 65.848 97.9848 65.848 97.8848 65.848C96.7848 64.348 95.2847 63.348 93.5847 62.548C92.4847 61.948 91.6848 62.548 90.9848 63.348C89.9848 64.548 89.0848 65.948 87.3848 66.548C85.3848 67.248 83.4848 67.448 81.8848 65.748C81.7848 65.648 81.5848 65.448 81.4848 65.348C81.1848 64.848 81.1848 64.248 80.6848 63.848C80.2848 63.348 80.4848 62.748 80.3848 62.248Z" fill="#3B489C"/>
<path d="M89.9843 61.8481C88.9843 63.0481 88.0843 64.3481 86.5843 64.9481C85.1843 65.5481 83.7843 65.4481 82.5843 64.2481C81.2843 63.0481 80.6843 60.7481 81.4843 59.2481C81.9843 58.2481 82.3843 56.9481 83.5843 56.4481C84.6843 56.0481 85.7843 55.4481 86.9843 55.7481C89.8843 56.4481 91.5843 57.548 89.9843 61.8481Z" fill="#434FA0"/>
<path d="M81.9844 65.6482C83.8844 66.3482 85.6844 67.0482 87.6844 65.9482C89.0844 65.1482 89.8844 63.9482 90.7844 62.7482C91.8844 61.2482 92.7844 61.1482 94.3844 62.1482C95.8844 63.0482 97.3844 63.9482 97.9844 65.7482C96.4844 65.0482 95.4844 63.4482 93.3844 63.5482C91.9844 63.5482 90.9844 63.8482 90.2844 64.9482C88.9844 66.9482 86.7844 67.1482 84.7844 67.6482C83.2844 67.9482 82.4844 67.0482 81.9844 65.6482Z" fill="#37459A"/>
<path d="M80.7852 63.748C81.4852 64.048 81.5851 64.648 81.5851 65.248C81.0851 64.948 80.8852 64.348 80.7852 63.748Z" fill="#37459A"/>
<path d="M78.8844 63.748C78.5844 63.648 78.3844 63.448 78.0844 63.348C77.1844 61.848 77.4844 63.948 76.9844 63.748C76.9844 63.648 76.9844 63.548 76.9844 63.348C77.0844 62.148 77.0844 60.248 78.3844 60.248C79.4844 60.248 78.6844 62.148 78.8844 63.148C78.8844 63.448 78.8844 63.548 78.8844 63.748Z" fill="#2D3B95"/>
<path d="M13.0844 76.0482C13.5844 76.0482 14.0844 75.9482 14.5844 75.9482C17.1844 75.3482 19.7844 75.6482 22.4844 75.4482C23.5844 75.4482 24.5844 75.4482 25.6844 75.4482C27.5844 75.4482 29.4844 75.4482 31.3844 75.4482C38.7844 76.2482 46.2844 75.6482 53.6844 75.8482C56.1844 75.8482 58.5844 75.8482 61.0844 75.8482C61.7844 75.8482 62.5844 75.7482 63.1844 76.3482C65.4844 76.3482 67.7844 76.3482 70.0844 76.3482C68.3844 77.1482 66.4844 76.5483 64.7844 76.7483C63.1844 76.9483 61.3844 76.3483 59.7844 77.1483C51.2844 77.1483 42.7844 77.1483 34.2844 77.1483C31.6844 76.7483 28.9844 77.0482 26.3844 76.9482C25.2844 76.8482 24.2844 77.1483 23.1844 76.7483C22.5844 76.7483 21.8844 76.7483 21.2844 76.7483C20.0844 76.2483 18.6844 76.8482 17.4844 76.4482C15.9844 76.4482 14.4844 76.4482 12.9844 76.3482C13.0844 76.2482 13.0844 76.1482 13.0844 76.0482Z" fill="#C9CBD9"/>
<path d="M69.7848 74.8478C69.7848 74.9478 69.7848 75.0479 69.7848 75.2479C69.2848 75.7479 68.6847 75.8479 68.0847 75.7479C67.4847 75.7479 66.8848 75.7479 66.1848 75.7479C65.1848 75.7479 64.2848 75.7479 63.2848 75.7479C62.9848 75.8479 62.6848 75.7479 62.3848 75.5479C62.4848 74.5479 63.3848 74.7479 63.9848 74.6479C65.1848 74.4479 65.6847 73.6478 65.5847 72.4478C65.1847 68.3478 65.1848 64.2479 65.6848 60.2479C65.7848 59.2479 65.9848 58.0479 67.1848 58.0479C68.4848 58.0479 68.3847 59.2479 68.5847 60.1479C68.6847 60.3479 68.7848 60.5479 68.7848 60.7479C68.7848 61.2479 68.8848 61.7479 68.6848 62.2479C68.1848 62.6479 67.5848 62.6479 67.4848 63.5479C67.3848 65.9479 66.9848 68.4478 67.6848 70.8478C68.0848 69.3478 67.8848 67.7479 67.9848 66.2479C67.9848 65.3479 67.7847 64.4479 68.5847 63.7479C68.7847 63.7479 68.9847 63.7478 69.0847 63.9478C69.1847 64.5478 69.0847 65.2478 69.0847 65.8478C69.0847 67.9478 69.0847 70.1479 69.0847 72.2479C69.0847 73.1479 69.1847 74.0479 69.5847 74.7479L69.7848 74.8478Z" fill="#293592"/>
<path d="M63.1844 76.3484C60.0844 76.3484 56.8844 76.3484 53.7844 76.3484C53.6844 76.1484 53.6844 75.9484 53.9844 75.7484C56.3844 75.1484 58.7844 75.5484 61.0844 75.4484C61.7844 75.3484 62.3844 75.7484 62.9844 75.8484C63.0844 75.9484 63.1844 75.9484 63.1844 76.0484C63.2844 76.1484 63.2844 76.2484 63.1844 76.3484Z" fill="#51537D"/>
<path d="M68.284 75.648C68.784 75.548 69.284 75.348 69.784 75.248C70.384 75.948 71.384 75.248 72.084 75.948C70.684 75.948 69.384 75.948 68.084 75.948C68.084 75.748 68.184 75.648 68.284 75.648Z" fill="#ACAEBE"/>
<path d="M63.284 75.5479C64.284 75.5479 65.284 75.5479 66.284 75.5479C66.384 75.6479 66.484 75.6479 66.384 75.7479C66.384 75.8479 66.284 75.8478 66.284 75.8478C65.284 75.8478 64.284 75.9478 63.284 75.9478V75.8478C63.184 75.7478 63.084 75.7479 63.184 75.6479L63.284 75.5479Z" fill="#1C2986"/>
<path d="M66.3848 75.9484C66.3848 75.8484 66.3848 75.7484 66.3848 75.6484C67.0848 75.6484 67.6848 75.6484 68.3848 75.6484C68.2848 75.7484 68.2848 75.8484 68.1848 75.9484C67.4848 75.9484 66.8848 75.9484 66.3848 75.9484Z" fill="#2E3994"/>
<path d="M90.6836 75.148C90.1836 75.448 89.6836 75.648 89.1836 75.948C89.0836 75.948 88.9836 75.948 88.8836 75.948C88.1836 75.948 87.5836 76.048 87.1836 75.348C87.5836 74.448 88.5836 75.248 89.1836 74.748C89.6836 74.848 90.2836 74.648 90.6836 75.148Z" fill="#1F2C67"/>
<path d="M89.1853 75.9482C89.1853 76.0482 89.1853 76.1483 89.1853 76.2483C88.0853 76.6483 86.9853 76.3482 85.8853 76.4482C85.3853 76.4482 85.0853 76.1483 85.2853 75.6483C85.3853 75.6483 85.3853 75.5482 85.4853 75.5482C85.7853 75.5482 85.9853 75.4482 86.2853 75.4482C86.4853 75.4482 86.6853 75.4482 86.7853 75.4482C87.4853 76.0482 88.3853 75.5482 89.1853 75.8482V75.9482Z" fill="#68696F"/>
<path d="M86.5836 75.6483C86.4836 75.6483 86.2836 75.5483 86.1836 75.5483C86.9836 74.3483 88.1836 75.0483 89.1836 74.9483C88.6836 75.5483 87.7836 75.0483 87.2836 75.6483C87.0836 75.8483 86.8836 75.8483 86.5836 75.6483Z" fill="#1E2A71"/>
<path d="M17.584 76.4486C18.884 76.5486 20.184 76.0486 21.384 76.7486C20.084 76.7486 18.884 76.7486 17.584 76.7486C17.584 76.6486 17.584 76.5486 17.584 76.4486Z" fill="#CACDDD"/>
<path d="M69.6838 74.8486C68.7838 74.4486 68.9838 73.6486 68.9838 72.8486C68.9838 70.4486 68.9838 68.0486 68.9838 65.7486C69.0838 65.5486 69.2838 65.5486 69.3838 65.7486C69.4838 68.7486 69.1838 71.7486 69.6838 74.8486Z" fill="#2E3994"/>
<path d="M85.2852 75.6484C86.3852 76.8484 87.8852 76.1484 89.1852 76.3484C90.4852 76.5484 91.6852 76.1484 92.9852 75.9484C92.9852 76.0484 92.9852 76.1484 92.9852 76.3484C90.1852 77.1484 87.3851 76.6484 84.5851 76.7484C83.8851 76.2484 82.9852 76.8484 82.2852 76.3484C82.2852 76.2484 82.2852 76.0484 82.2852 75.9484C82.5852 75.9484 82.7851 75.9484 83.0851 75.9484C83.8851 75.9484 84.5852 76.1484 85.2852 75.6484Z" fill="#ABACB7"/>
<path d="M23.2852 76.7478C26.2852 76.7478 29.3852 76.7478 32.3852 76.7478C33.0852 76.7478 33.7852 76.5478 34.3852 77.1478C31.3852 77.1478 28.3852 77.1478 25.2852 77.1478C24.5852 77.1478 23.8852 77.3478 23.2852 76.7478Z" fill="#CACDDD"/>
<path d="M82.2852 76.3482C83.0852 76.4482 83.8851 76.0483 84.5851 76.7483C84.1851 76.7483 83.7852 76.7483 83.4852 76.7483C83.0852 76.7483 82.5852 76.7482 82.2852 76.3482Z" fill="#B2B3BF"/>
<path d="M17.1844 48.948C17.2844 46.748 18.2844 44.948 19.6844 43.348C20.4844 42.448 21.5844 42.548 22.3844 43.348C24.1844 44.948 25.0845 47.048 25.4845 49.248C25.6845 50.548 25.1845 51.748 23.9845 52.648C20.9845 55.048 20.3844 58.548 20.1844 62.148C20.0844 64.948 20.3844 67.748 19.7844 70.448C19.5844 71.348 19.5844 72.248 18.7844 72.748C17.4844 73.448 15.9844 72.948 15.7844 71.348C15.5844 68.948 15.1845 66.448 15.9845 64.048C16.0845 64.148 16.0844 64.148 16.1844 64.248C16.7844 65.748 16.3845 67.248 16.4845 68.748C16.5845 69.748 16.4845 71.248 17.4845 71.248C18.6845 71.348 18.5844 69.748 18.6844 68.848C19.0844 65.948 18.6844 63.048 18.6844 60.148C18.6844 56.848 20.0844 54.348 22.1844 52.048C22.9844 51.148 23.5844 50.248 23.2844 49.048C23.2844 47.148 21.6844 46.748 20.5844 46.048C19.9844 45.748 19.4844 46.248 19.1844 46.748C18.7844 47.348 18.5844 47.948 18.1844 48.548C18.0844 48.648 17.8844 48.848 17.7844 48.948C17.6844 49.148 17.4844 49.148 17.1844 48.948Z" fill="#4752A1"/>
<path d="M28.9846 42.048C28.0846 42.748 28.5846 43.548 28.7846 44.248C29.4846 47.048 28.0846 51.148 25.9846 52.248C26.6846 50.048 27.4846 47.848 26.7846 45.448C26.4846 44.148 25.8846 43.048 25.2846 42.048C24.4846 40.848 24.2846 39.848 24.9846 38.648C25.1846 38.148 25.1846 37.548 25.2846 37.048C25.5846 36.948 25.7846 37.048 25.9846 37.248C26.3846 37.748 26.6846 38.348 27.0846 38.848C27.6846 39.848 28.6846 40.548 29.1846 41.648C29.1846 41.848 29.1846 41.948 28.9846 42.048Z" fill="#424D9F"/>
<path d="M25.1846 36.3478C24.2846 36.6478 23.3846 36.3479 22.3846 36.6479C21.5846 36.9479 21.1846 36.2479 20.6846 35.6479C19.5846 34.1479 18.7846 32.4479 18.4846 30.6479C18.0846 28.1479 17.1846 25.8478 16.8846 23.3478C16.6846 21.5478 17.0846 19.7479 17.5846 18.0479C18.2846 18.6479 18.1846 19.4479 18.0846 20.1479C17.8846 24.2479 19.1846 27.9479 20.9846 31.6479C21.4846 32.5479 22.0846 33.3478 23.2846 33.4478C24.0846 33.5478 24.7846 33.8479 25.1846 34.5479C25.4846 35.1479 25.7846 35.7478 25.1846 36.3478Z" fill="#4752A2"/>
<path d="M24.7842 34.8484C24.3842 34.3484 23.8842 33.9484 23.1842 34.0484C21.6842 34.2484 20.9842 33.1484 20.4842 32.0484C18.5842 27.7484 17.1842 23.3484 17.5842 18.5484C17.5842 18.3484 17.5842 18.1484 17.5842 17.9484C17.5842 17.8484 17.5842 17.6484 17.5842 17.5484C17.7842 17.2484 17.9842 16.8484 18.4842 17.2484C18.6842 17.5484 18.6842 17.8484 18.6842 18.1484C17.7842 22.5484 19.6842 26.2484 21.3842 29.9484C21.9842 31.2484 23.1842 31.7484 24.4842 32.2484C25.0842 32.7484 25.2842 33.4484 25.0842 34.1484C25.0842 34.5484 24.9842 34.7484 24.7842 34.8484Z" fill="#4B55A3"/>
<path d="M17.184 48.9482C17.484 48.9482 17.684 48.9482 17.984 48.9482C18.384 49.2482 18.484 49.6483 18.484 50.1483C18.784 54.4483 18.484 58.6482 17.284 62.8482C17.084 63.4482 17.084 64.3483 16.084 64.2483C16.284 62.0483 16.584 59.9483 16.784 57.7483C16.984 54.7483 17.084 51.8482 17.184 48.9482Z" fill="#4953A2"/>
<path d="M24.7852 34.8486C24.7852 34.7486 24.8852 34.6486 24.8852 34.4486C26.1852 34.3486 27.4851 34.5486 28.5851 33.8486C28.7851 33.8486 28.9851 33.9486 29.0851 34.0486C29.3851 34.4486 29.5852 34.8487 29.6852 35.2487C29.7852 35.8487 29.9852 36.3486 29.8852 36.9486C28.5852 38.3486 27.0851 37.6486 25.5851 37.4486C25.4851 37.3486 25.2852 37.1486 25.1852 37.0486C25.1852 36.8486 25.0851 36.5486 25.0851 36.3486C25.2851 35.7486 25.1852 35.2486 24.7852 34.8486Z" fill="#CFD1E9"/>
<path d="M18.7852 15.0486C18.7852 14.7486 18.8852 14.4486 19.1852 14.2486C20.2852 12.6486 21.3852 11.1486 22.9852 10.0486C23.3852 9.24864 24.2852 9.04864 24.8852 8.54864C25.1852 8.24864 25.5852 8.34863 25.9852 8.44863C26.3852 9.34863 25.4852 9.44863 25.1852 9.94863C23.5852 11.0486 22.1852 12.4486 20.9852 14.1486C20.1852 14.9486 20.1852 16.4486 18.8852 16.8486C18.6852 16.8486 18.4852 16.7486 18.3852 16.6486C17.9852 15.8486 18.4852 15.4486 18.7852 15.0486Z" fill="#4B55A3"/>
<path d="M22.9836 10.0479C21.6836 11.4479 20.4836 12.8479 19.1836 14.2479C19.8836 12.3479 20.9836 10.8479 22.9836 10.0479Z" fill="#4751A1"/>
<path d="M25.9848 8.54865C25.5848 8.54865 25.1848 8.54865 24.8848 8.54865C25.3848 7.84865 26.4848 7.94864 26.7848 7.04865C27.0848 6.84865 27.4848 6.84863 27.7848 6.84863C27.9848 6.94863 27.9847 7.14863 28.0847 7.34863C27.9847 7.84863 27.6848 8.14864 27.2848 8.44864C26.8848 8.54864 26.4848 8.84865 25.9848 8.54865Z" fill="#4751A1"/>
<path d="M18.784 15.0479C18.684 15.5479 18.484 16.0479 18.384 16.5479C18.584 16.8479 18.584 17.0478 18.384 17.3478C18.084 17.4478 17.884 17.6479 17.584 17.7479C17.584 16.6479 17.684 15.6479 18.784 15.0479Z" fill="#4751A1"/>
<path d="M20.6836 74.8483C22.2836 73.5483 22.6836 71.4483 21.7836 69.1483C21.7836 68.8483 21.7836 68.6483 21.7836 68.3483C22.4836 65.9483 22.3836 63.5483 22.8836 61.1483C23.7836 56.6483 26.3836 54.0483 30.7836 53.0483C32.7836 52.5483 34.8836 52.0483 36.8836 51.8483C38.3836 51.6483 39.7836 51.0483 41.0836 50.2483C42.4836 49.4483 42.4836 48.9483 41.1836 47.9483C40.5836 47.5483 39.9836 47.1483 40.3836 46.2483C42.0836 45.4483 43.7836 45.9483 45.2836 46.4483C46.4836 46.8483 47.6836 47.2483 48.8836 47.4483C50.7836 47.6483 52.2836 48.7483 53.6836 49.9483C54.4836 50.6483 54.9836 51.6483 54.9836 52.7483C55.0836 54.1483 55.6836 55.4483 56.3836 56.6483C58.6836 60.7483 60.6836 65.0483 60.6836 69.9483C60.6836 70.4483 60.9836 70.9483 60.9836 71.4483C60.8836 72.5483 60.2836 73.5483 59.5836 74.4483C59.0836 75.1483 58.2836 75.4483 57.4836 75.0483C57.0836 74.8483 57.0836 74.4483 57.2836 74.0483C58.4836 71.3483 58.2836 68.6483 57.6836 65.9483C57.6836 64.1483 56.7836 62.6483 55.5836 61.3483C54.5836 60.1483 53.5836 60.3483 52.9836 61.7483C51.3836 65.3483 50.9836 69.1483 50.3836 72.9483C50.2836 73.8483 50.6836 74.2483 51.5836 74.2483C52.0836 74.2483 52.5836 74.2483 53.0836 74.2483C54.4836 74.4483 55.8836 73.8483 57.1836 74.6483C57.3836 74.8483 57.3836 75.0483 57.2836 75.2483C54.6836 75.8483 52.0836 75.5483 49.4836 75.7483C49.2836 75.8483 49.0836 75.9483 48.8836 75.9483C48.3836 76.0483 47.8836 76.0483 47.3836 75.9483C47.0836 75.8483 46.8836 75.6483 46.7836 75.2483C48.0836 71.5483 49.1836 67.6483 49.5836 63.7483C49.7836 63.2483 49.8836 62.6483 49.9836 62.0483C50.5836 60.9483 50.2836 59.6483 50.8836 58.5483C50.9836 58.3483 50.8836 58.0483 50.8836 57.8483C50.3836 55.8483 45.9836 53.0483 43.9836 53.6483C40.6836 54.6483 37.1836 54.1483 33.8836 54.6483C31.9836 54.9483 29.8836 54.5483 28.3836 56.0483C24.8836 59.3483 23.5836 63.3483 23.8836 68.1483C23.9836 69.7483 23.7836 71.4483 23.4836 73.0483C23.1836 74.8483 22.2836 75.2483 20.6836 74.8483Z" fill="#354499"/>
<path d="M40.485 46.2484C40.485 47.1484 41.185 47.2484 41.885 47.5484C43.485 48.2484 43.585 49.1484 42.185 50.1484C40.085 51.7484 37.585 52.3484 34.985 52.7484C33.085 53.0484 31.185 53.4484 29.285 54.0484C26.285 54.9484 24.685 57.1484 23.585 60.0484C22.685 62.5484 22.985 65.1484 22.185 67.5484C22.085 67.8484 21.885 68.1484 21.785 68.3484C21.585 65.4484 22.085 62.5484 22.685 59.7484C23.385 56.7484 25.285 54.3484 28.285 53.1484C28.585 52.8484 28.785 52.4484 29.085 52.3484C31.285 52.1484 32.685 50.2484 34.585 49.5484C35.985 49.0484 35.885 48.2484 35.385 47.2484C35.085 46.6484 34.185 46.1484 34.985 45.2484C35.585 44.8484 36.285 44.9484 36.985 45.0484C37.785 45.3484 38.585 45.3484 39.285 45.4484C39.685 45.6484 40.185 45.8484 40.485 46.2484Z" fill="#36449A"/>
<path d="M36.8848 45.5486C36.1848 45.5486 35.3848 45.5486 34.6848 45.5486C34.2848 45.7486 34.0848 45.4487 33.9848 45.1487C33.8848 45.0487 33.8848 44.9486 33.8848 44.8486C33.9848 43.5486 35.0848 43.5486 35.9848 43.4486C38.1848 43.2486 40.3848 42.5487 42.4848 41.7487C46.1848 40.3487 48.9848 37.7487 51.3848 34.7487C51.8848 34.1487 51.9847 33.0486 53.0847 32.8486C53.3847 33.0486 53.4848 33.4487 53.4848 33.7487C53.3848 34.2487 53.2848 34.7487 53.1848 35.1487C52.8848 35.5487 52.3848 35.9486 52.1848 36.4486C51.9848 36.7486 51.8847 37.0487 51.5847 37.2487C49.7847 39.0487 47.4848 40.3486 45.8848 42.3486C43.2848 44.8486 40.1848 45.3486 36.8848 45.5486Z" fill="#B3B6DB"/>
<path d="M34.0847 45.0479C34.2847 45.1479 34.5848 45.3478 34.7848 45.4478C34.8848 45.6478 34.9848 46.0479 35.1848 46.0479C36.2848 46.4479 36.0848 47.6478 36.4848 48.4478C37.2848 50.2478 35.3848 49.3478 34.8848 49.8478C34.1848 50.4478 33.2848 50.6478 32.6848 51.4478C31.6848 52.7478 29.7848 52.1479 28.3848 53.0479C28.5848 51.6479 29.4848 50.6479 30.4848 50.1479C32.4848 49.2479 32.9847 47.4479 33.5847 45.7479C33.5847 45.4479 33.5847 45.1479 34.0847 45.0479Z" fill="#3A479B"/>
<path d="M42.6842 42.0479C40.6842 43.2479 38.4842 43.6478 36.1842 43.9478C35.2842 44.0478 34.4842 44.0478 33.8842 44.8478C33.1842 44.7478 32.5842 44.4479 32.0842 44.0479C31.8842 43.6479 31.2842 43.5479 31.3842 43.0479C31.4842 42.4479 32.0842 42.4478 32.5842 42.3478C34.0842 42.1478 35.6842 42.4479 37.2842 42.1479C38.0842 41.9479 38.8842 42.0478 39.6842 41.8478C39.8842 41.7478 40.1842 41.6479 40.3842 41.5479C40.5842 41.4479 40.6842 41.4478 40.8842 41.3478C41.2842 41.2478 41.6842 41.1479 42.0842 41.0479C42.3842 41.0479 42.5842 41.0479 42.8842 41.1479C43.3842 41.4479 43.1842 41.7479 42.6842 42.0479Z" fill="#B9BCDF"/>
<path d="M37.3844 42.4483C35.8844 43.2483 34.2844 42.7484 32.7844 42.7484C31.5844 42.7484 31.5844 43.1483 32.0844 43.9483C30.8844 43.6483 30.0844 42.6483 29.0844 42.0483C29.0844 41.9483 28.9844 41.8484 28.9844 41.7484C29.3844 40.7484 30.1844 40.8484 30.9844 40.7484C31.9844 40.6484 33.0844 40.8483 34.1844 40.6483C34.7844 40.5483 35.2844 40.7483 35.7844 40.8483C36.1844 40.9483 36.5844 41.1484 36.9844 41.2484C37.1844 41.3484 37.2844 41.3483 37.4844 41.4483C37.5844 41.5483 37.6844 41.7483 37.6844 41.9483C37.5844 42.1483 37.4844 42.3483 37.3844 42.4483Z" fill="#C0C3E2"/>
<path d="M64.7842 28.3482C65.2842 30.1482 65.2842 31.9482 65.2842 33.8482C65.2842 37.6482 65.9842 41.3482 66.1842 45.1482C66.3842 48.1482 66.9842 51.0482 67.7842 53.8482C65.7842 52.9482 65.1842 51.0482 64.9842 49.2482C64.3842 43.3482 63.6842 37.5482 62.8842 31.7482C62.0842 26.2482 59.8842 21.2482 55.5842 17.5482C54.2842 16.4482 53.4842 16.5482 52.7842 18.0482C52.2842 19.0482 52.0842 20.0482 51.8842 21.1482C51.6842 22.2482 51.2842 23.0482 49.8842 22.9482C49.3842 22.7482 48.8842 22.5482 49.0842 21.8482C49.1842 21.7482 49.3842 21.5482 49.4842 21.4482C49.9842 20.5482 49.9842 19.5482 50.0842 18.5482C50.0842 17.5482 50.2842 16.5482 50.6842 15.5482C51.7842 12.5482 53.8842 12.2482 56.3842 14.1482C59.8842 16.8482 62.7842 20.0482 64.0842 24.4482C64.4842 25.7482 64.4842 27.0482 64.7842 28.3482Z" fill="#3A459A"/>
<path d="M64.7852 28.3482C63.6852 28.0482 64.2852 27.0482 64.1852 26.4482C63.6852 23.2482 61.9852 20.8482 59.9852 18.4482C59.0852 17.3482 57.9852 16.4482 56.9852 15.3482C55.6852 14.0482 54.0852 13.1483 52.6852 13.6483C51.1852 14.2483 50.6851 16.0482 50.5851 17.8482C50.5851 19.1482 50.6852 20.5482 49.4852 21.4482C49.4852 19.3482 49.5851 17.3483 50.0851 15.2483C50.7851 12.4483 49.6852 9.94825 47.2852 8.14825C46.4852 7.54825 45.7852 6.94825 45.2852 6.14825C45.7852 6.14825 46.2852 6.54825 46.7852 6.14825C47.0852 7.64825 48.3852 7.84826 49.3852 8.24826C49.9852 8.54826 51.2852 8.14824 50.9852 6.84824C50.8852 6.24824 51.0852 5.84824 51.2852 5.44824C54.0852 7.94824 55.8852 11.3482 58.3852 14.0482C58.6852 14.3482 58.9852 14.8483 59.2852 15.1483C63.0852 18.8483 64.6852 23.3482 64.7852 28.3482Z" fill="#3A469B"/>
<path d="M27.8852 7.04872C27.4852 7.04872 27.0852 7.04872 26.7852 7.04872C31.2852 4.24872 35.9852 4.14871 40.8852 5.94871C44.4852 6.94871 47.2852 10.5487 47.1852 14.3487C47.1852 15.3487 47.4851 16.3487 47.5851 17.3487C47.7851 18.5487 47.5852 19.4487 46.2852 19.9487C45.8852 20.0487 45.4852 19.9487 45.1852 19.6487C44.9852 19.4487 44.7852 19.2487 44.6852 18.9487C44.1852 16.1487 44.5852 13.1487 42.9852 10.5487C41.8852 8.64872 40.3852 7.14872 38.1852 6.64872C35.6852 6.04872 33.1852 6.04873 30.6852 6.74873C29.8852 6.74873 28.9852 7.34872 27.8852 7.04872Z" fill="#444FA0"/>
<path d="M46.1848 19.5482C47.0848 19.0482 47.4848 18.4482 47.1848 17.4482C46.7848 16.0482 46.7847 14.5482 46.5847 13.0482C46.1847 9.54825 43.5848 7.54824 40.8848 5.94824C43.9848 6.24824 45.9848 8.24826 47.1848 10.7483C48.6848 13.8483 48.5847 17.4482 48.0847 20.8482C47.7847 21.0482 47.3847 20.9483 47.0847 20.7483C46.5847 20.4483 46.1848 20.1482 46.1848 19.5482Z" fill="#3F4B9E"/>
<path d="M49.1852 21.9484C49.3852 22.2484 49.6852 22.4484 49.8852 22.7484C50.1852 22.9484 50.4851 23.1484 50.5851 23.5484C50.5851 24.3484 50.8851 25.1484 50.5851 25.9484C50.2851 26.5484 49.8852 27.0484 49.7852 27.7484C49.7852 28.3484 49.4852 28.7484 48.6852 28.7484C48.3852 28.6484 48.1852 28.5484 47.9852 28.2484C47.5852 27.3484 46.8852 26.5484 46.7852 25.5484C46.8852 24.5484 48.0852 23.8484 47.2852 22.5484C47.0852 22.2484 47.2852 21.4484 47.9852 21.1484C48.4852 21.2484 48.5852 21.9484 49.1852 21.9484Z" fill="#CACDE5"/>
<path d="M48.0851 21.0479C47.6851 22.2479 47.4852 23.3478 48.9852 24.4478C47.7852 24.2478 47.2852 24.5478 47.2852 25.4478C47.0852 25.4478 46.9852 25.4478 46.7852 25.4478C46.0852 24.9478 45.3852 24.4478 45.2852 23.4478C45.3852 22.7478 45.8852 22.2479 45.8852 21.5479C45.9852 20.6479 46.5852 20.5479 47.2852 20.5479C47.5852 20.6479 47.7851 20.7478 48.0851 20.8478C48.0851 20.8478 48.0851 20.9479 48.0851 21.0479Z" fill="#CDD0E9"/>
<path d="M30.1836 4.74789C31.2836 3.64789 32.5836 3.64787 33.9836 3.94787C32.6836 4.24787 31.4836 4.44789 30.1836 4.74789Z" fill="#3A489C"/>
<path d="M50.3848 3.94824C51.0848 4.24824 51.1848 4.94824 51.4848 5.44824C50.5848 5.34824 50.4848 4.64824 50.3848 3.94824Z" fill="#3A469B"/>
<path d="M22.484 75.9482C19.784 76.2482 17.184 76.0482 14.584 75.8482C14.984 74.6482 15.984 75.2482 16.684 75.1482C17.584 75.0482 18.584 75.1482 19.484 75.1482C23.184 74.6482 23.684 75.0482 23.784 70.3482C23.884 67.7482 23.684 65.2482 24.384 62.6482C25.084 60.2482 26.184 58.0482 28.284 56.8482C29.784 56.0482 31.684 56.0483 33.484 56.2483C36.284 56.6483 39.184 56.5483 41.984 56.2483C44.484 56.0483 47.084 55.7482 48.384 58.5482C49.484 60.9482 49.984 63.4482 49.284 66.0482C48.784 67.9482 48.284 69.8483 48.084 71.7483C47.984 73.1483 46.784 74.0482 46.584 75.3482C46.284 75.5482 45.984 75.5482 45.684 75.4482C45.184 75.2482 44.784 74.8483 44.584 74.2483C44.284 73.5483 44.084 72.8482 44.084 72.0482C44.084 68.9482 44.384 65.9482 44.384 62.8482C44.984 62.2482 45.284 62.7482 45.684 63.1482C45.884 63.6482 46.084 64.1482 46.184 64.6482C46.384 66.2482 45.884 67.9482 46.184 69.5482C46.184 69.8482 46.184 70.0482 46.084 70.3482C46.684 69.6482 46.584 68.8482 46.784 68.0482C46.984 67.3482 46.984 66.5482 47.384 65.8482C48.584 63.2482 47.484 60.9482 45.984 59.0482C45.184 58.0482 43.584 58.1482 42.284 58.1482C41.484 58.1482 40.684 58.1482 39.984 58.3482C37.084 59.0482 34.084 57.7482 31.184 58.5482C28.084 59.4482 26.484 61.6483 27.084 64.7483C27.584 67.4483 27.184 70.1482 27.484 72.8482C27.584 74.3482 26.384 74.8482 25.084 75.0482C24.684 75.1482 24.184 75.1483 23.784 75.2483C23.384 75.8483 22.884 75.6482 22.484 75.9482Z" fill="#2E3C95"/>
<path d="M46.584 75.5484C46.484 75.2484 46.084 74.7484 46.384 74.5484C47.984 73.4484 47.684 71.7484 47.884 70.2484C48.084 67.9484 49.384 65.9484 49.084 63.6484C48.884 62.1484 48.684 60.5484 48.084 59.0484C46.984 56.4484 44.584 56.6484 42.484 56.8484C39.484 57.2484 36.484 57.2484 33.384 56.8484C29.384 56.2484 26.184 57.9484 25.284 61.9484C24.784 63.8484 23.584 65.8484 24.384 68.2484C24.884 69.6484 24.384 71.3484 24.384 72.8484C24.284 74.7484 23.184 75.1484 19.584 75.1484C19.884 74.7484 20.284 74.7484 20.684 74.7484C22.184 74.7484 22.884 74.0484 23.084 72.4484C23.384 70.0484 23.184 67.7484 23.284 65.3484C23.484 61.4484 24.984 58.2484 27.884 55.6484C29.684 54.5484 31.884 54.5484 33.684 54.6484C37.184 54.9484 40.584 54.6484 43.984 54.2484C45.484 54.0484 46.884 54.2484 48.084 55.2484C49.184 56.1484 49.884 57.3484 50.584 58.6484C50.584 58.8484 50.584 59.0484 50.584 59.1484C50.184 60.6484 50.284 62.1484 49.984 63.6484C49.684 67.7484 48.984 71.7484 46.984 75.4484C46.784 75.6484 46.684 75.6484 46.584 75.5484Z" fill="#313F97"/>
<path d="M50.3844 23.3484C50.2844 23.1484 50.0844 22.8484 49.9844 22.6484C50.9844 22.6484 51.6844 22.3484 51.5844 21.2484C51.3844 19.9484 52.1844 18.9484 52.4844 17.7484C52.9844 15.8484 54.8844 15.3484 56.0844 16.9484C58.0844 19.4484 60.8844 21.3484 61.7844 24.6484C62.4844 27.4484 63.7844 30.0484 63.8844 33.0484C63.8844 33.8484 64.1844 34.6484 64.2844 35.4484C64.7844 40.1484 65.2844 44.9484 65.8844 49.6484C66.0844 51.2484 67.0844 52.6484 68.0844 53.9484C68.0844 54.3484 68.0844 54.7484 68.0844 55.0484C67.9844 55.0484 67.8844 55.1484 67.7844 55.1484C65.7844 54.0484 65.7844 56.0484 65.0844 56.8484C63.0844 57.9484 61.7844 57.0484 61.6844 54.7484C61.4844 50.5484 62.4844 46.3484 61.9844 42.1484C61.6844 39.4484 61.2844 36.8484 60.4844 34.2484C59.6844 31.5484 58.5844 28.8484 57.8844 26.1484C57.6844 25.4484 57.4844 24.7484 57.0844 24.2484C56.1844 23.0484 54.8844 22.9484 53.8844 24.1484C53.3844 24.7484 52.9844 25.4484 52.2844 25.7484C50.5844 25.5484 50.7844 24.2484 50.3844 23.3484Z" fill="#364299"/>
<path d="M69.3842 65.6479C69.2842 65.6479 69.0842 65.6479 68.9842 65.6479C68.9842 65.0479 68.9842 64.3479 68.9842 63.7479C68.0842 62.8479 69.2841 61.6479 68.5841 60.7479C68.5841 60.6479 68.5841 60.4478 68.5841 60.3478C68.4841 58.7478 67.1842 57.5478 67.3842 55.8478C67.4842 55.5478 67.5842 55.2479 67.8842 55.0479C69.1842 57.1479 68.9842 59.6478 69.3842 61.9478C69.5842 63.1478 69.3842 64.4479 69.3842 65.6479Z" fill="#364299"/>
<path d="M85.084 64.1481C82.984 64.1481 81.584 63.0481 81.584 61.2481C81.584 58.7481 83.784 56.4481 86.284 56.5481C88.284 56.5481 89.484 57.8481 89.584 59.9481C89.584 61.9481 87.184 64.1481 85.084 64.1481Z" fill="#4D56A4"/>
<path d="M45.0844 74.9485C45.2844 75.1485 45.4844 75.3485 45.6844 75.5485C43.5844 75.9485 41.3844 75.5485 39.4844 75.7485C41.9844 75.8485 44.6844 75.5485 47.2844 75.8485C47.7844 75.8485 48.2844 75.8485 48.7844 75.8485C50.4844 75.4485 52.0844 75.2485 53.6844 75.9485C53.6844 76.0485 53.6844 76.1485 53.6844 76.2485C46.1844 76.1485 38.5844 76.6485 31.0844 75.9485C30.9844 75.7485 31.0844 75.5485 31.1844 75.3485C31.6844 74.9485 32.2844 74.9485 32.8844 74.7485C33.3844 74.6485 33.9844 74.6485 34.4844 74.6485C38.1844 74.6485 41.6844 74.1485 45.0844 74.9485Z" fill="#7A7A85"/>
<path d="M31.3842 75.6479C31.2842 75.7479 31.2842 75.8479 31.1842 76.0479C29.2842 76.0479 27.3842 76.0479 25.5842 76.0479C25.4842 75.8479 25.5842 75.6478 25.7842 75.4478C26.3842 75.1478 26.9842 75.0479 27.6842 75.0479C28.5842 75.0479 29.3842 75.0479 30.2842 75.0479C30.6842 75.1479 31.0842 75.2479 31.3842 75.6479Z" fill="#1F2A7E"/>
<path d="M25.5844 75.6486C25.5844 75.7486 25.5844 75.8486 25.4844 76.0486C24.4844 76.0486 23.4844 76.0486 22.4844 76.0486C22.7844 75.6486 23.1844 75.6486 23.6844 75.6486C24.2844 75.3486 24.9844 75.2486 25.5844 75.6486Z" fill="#182B8B"/>
<path d="M53.7848 76.0484C52.1848 76.0484 50.4848 75.9484 48.8848 75.9484C48.8848 75.8484 48.8848 75.7484 48.8848 75.6484C50.9848 75.2484 53.0848 75.5484 55.1848 75.4484C55.8848 75.4484 56.6848 75.6484 57.3848 75.2484C57.8848 74.9484 58.3848 75.1484 58.8848 74.9484C65.1848 73.4484 64.3847 73.5484 64.5847 68.0484C64.6847 65.6484 64.5848 63.2484 64.6848 60.8484C64.7848 59.0484 65.1848 57.4484 66.1848 56.0484C66.6848 55.3484 67.1848 54.8484 67.8848 55.8484C67.9848 57.4484 68.7848 58.8484 68.6848 60.4484C68.0848 59.8484 68.4848 58.3484 67.2848 58.4484C66.0848 58.6484 66.4848 59.9484 66.3848 60.8484C65.8848 64.8484 65.7848 68.8484 66.3848 72.8484C66.5848 74.3484 66.0848 75.3484 64.3848 75.3484C63.7848 75.3484 63.0847 75.1484 62.5847 75.7484C62.2847 76.1484 61.7848 75.7484 61.4848 76.0484C58.8848 75.9484 56.2848 75.9484 53.7848 76.0484Z" fill="#2E3B94"/>
<path d="M68.5836 63.7481C68.3836 66.5481 68.9836 69.4481 67.9836 72.4481C66.5836 71.2481 66.7836 69.5481 66.7836 68.2481C66.6836 66.5481 67.0836 64.7481 67.0836 63.0481C67.0836 61.4481 67.5836 61.4481 68.6836 62.2481C68.8836 62.7481 68.8836 63.2481 68.5836 63.7481Z" fill="#21318F"/>
<path d="M68.584 63.748C68.584 63.248 68.584 62.748 68.584 62.248C68.584 61.748 68.584 61.248 68.584 60.748C69.284 61.648 68.784 62.748 68.984 63.748C68.884 63.748 68.784 63.748 68.584 63.748Z" fill="#2E3994"/>
<path d="M61.3848 75.9478C61.6848 75.5478 62.0848 75.6478 62.4848 75.6478C62.7848 75.6478 62.9848 75.6478 63.2848 75.6478C63.2848 75.7478 63.2848 75.8478 63.2848 75.9478C62.6848 75.8478 62.0848 75.9478 61.3848 75.9478Z" fill="#1A3190"/>
<path d="M86.584 75.6479C86.784 75.6479 86.984 75.6479 87.284 75.5479C87.884 75.7479 88.584 75.3478 89.184 75.8478C88.284 75.8478 87.384 76.2479 86.584 75.6479Z" fill="#44454C"/>
<path d="M16.0841 64.1485C16.8841 63.3485 16.8841 62.1485 17.1841 61.1485C18.1841 57.1485 18.0842 53.0485 17.9842 48.9485C19.5842 45.7485 22.7841 46.5485 24.0841 48.9485C24.4841 50.5485 23.7841 51.5485 22.6841 52.7485C21.0841 54.6485 19.4842 56.5485 19.4842 59.4485C19.4842 62.5485 19.7842 65.5485 19.4842 68.6485C19.3842 69.3485 19.1842 70.1485 18.9842 70.8485C18.8842 71.5485 18.7841 72.2485 17.7841 72.1485C16.7841 72.1485 16.5842 71.5485 16.3842 70.7485C15.7842 68.5485 16.1841 66.3485 16.0841 64.1485Z" fill="#4C55A3"/>
<path d="M24.0844 48.9482C23.5844 48.6482 23.0844 48.3482 22.6844 48.0482C20.6844 46.3482 19.3844 47.8482 17.9844 48.9482C18.0844 48.6482 18.0844 48.3482 18.2844 48.0482C18.9844 47.1482 18.8844 45.4482 20.5844 45.5482C21.6844 45.5482 23.7844 47.6482 24.0844 48.9482Z" fill="#4953A2"/>
<path d="M25.6836 37.4478C26.9836 36.6478 28.5836 37.6479 29.7836 36.7479C30.2836 36.4479 30.4836 36.9478 30.7836 37.1478C31.1836 37.6478 31.6836 38.0478 31.8836 38.6478C31.8836 38.8478 31.8836 39.0478 31.8836 39.1478C30.9836 40.5478 29.6836 40.4478 28.3836 39.8478C27.7836 39.6478 27.3836 39.0478 26.7836 38.9478C26.0836 38.6478 25.9836 38.0478 25.6836 37.4478Z" fill="#CBCDE7"/>
<path d="M26.6836 39.0484C27.0836 38.8484 27.4836 38.9484 27.8836 39.2484C29.1836 40.1484 30.3836 40.1484 31.5836 39.1484C32.3836 38.6484 32.7836 39.5484 33.3836 39.7484C33.6836 39.9484 33.9836 40.0484 33.9836 40.4484C33.4836 40.8484 34.2836 40.7484 34.2836 41.0484C33.5836 41.6484 32.7836 41.4484 31.9836 41.4484C30.8836 41.3484 29.8836 41.2484 28.8836 41.8484C27.9836 41.0484 27.1836 40.1484 26.6836 39.0484Z" fill="#C4C7E4"/>
<path d="M18.3847 17.3478C18.3847 17.0478 18.3847 16.8479 18.3847 16.5479C18.4847 16.5479 18.6847 16.5479 18.7847 16.5479C19.1847 16.9479 19.2847 17.4478 19.2847 17.9478C18.7847 23.1478 21.0847 27.1478 24.2847 30.8478C24.4847 31.0478 24.5847 31.2478 24.6847 31.4478C24.7847 31.8478 24.7847 32.2479 24.4847 32.5479C22.6847 33.0479 21.6847 31.8479 21.0847 30.5479C18.9847 26.4479 17.0847 22.1478 18.3847 17.3478Z" fill="#4F58A5"/>
<path d="M24.484 32.5485C24.484 32.1485 24.484 31.7485 24.484 31.4485C24.284 31.2485 24.284 30.9485 24.384 30.6485C24.584 30.5485 24.684 30.5485 24.884 30.5485C26.184 31.2485 27.384 31.7485 28.284 29.9485C28.384 29.7485 28.684 29.8485 28.884 29.9485C29.084 30.2485 29.184 30.6485 29.184 31.0485C29.084 31.9485 29.484 33.0485 28.684 33.8485C27.584 35.2485 26.284 35.1485 24.884 34.3485C24.784 33.8485 24.584 33.1485 24.484 32.5485Z" fill="#D1D4EB"/>
<path d="M29.3848 35.248C28.9848 34.948 28.9848 34.548 28.9848 34.148C28.8848 34.048 28.8848 33.948 28.8848 33.848C28.8848 33.748 28.8848 33.648 28.9848 33.648C33.5848 34.448 37.8848 32.648 39.7848 28.948C41.0848 27.148 41.6848 25.048 42.1848 22.948C42.2848 22.548 42.2848 22.248 42.6848 22.048C43.3848 21.848 43.9848 22.148 44.3848 22.748C44.8848 23.848 44.6848 24.748 44.2848 25.848C43.3848 27.948 42.3848 29.848 40.7848 31.448C39.3848 32.648 37.9848 33.748 36.3848 34.748C34.0848 36.048 31.7848 36.248 29.3848 35.248Z" fill="#3F4B9D"/>
<path d="M29.3848 35.2479C30.6848 34.7479 31.9848 35.5479 33.3848 35.2479C35.8848 34.7479 37.5847 33.1479 39.5847 31.7479C39.8847 31.5479 40.1848 31.2479 40.4848 31.0479C41.1848 32.1479 39.8848 32.6478 39.7848 33.4478C37.3848 36.3478 34.2847 37.6479 30.5847 37.5479C30.2847 37.3479 30.0848 37.0478 29.7848 36.8478C29.1848 36.3478 29.5848 35.7479 29.3848 35.2479Z" fill="#3B489C"/>
<path d="M29.0836 33.7485C29.0836 33.8485 29.0836 34.0485 28.9836 34.1485C28.8836 34.0485 28.7836 34.0485 28.6836 33.9485C28.6836 32.9485 28.6836 31.9485 28.6836 31.0485C28.8836 30.6485 28.8836 30.0485 29.4836 30.1485C30.7836 30.2485 31.8836 29.5485 33.1836 29.6485C33.4836 29.7485 33.6836 29.9485 33.7836 30.2485C33.4836 31.7485 32.1836 31.9485 30.9836 32.2485C30.4836 32.4485 29.7836 32.1485 29.5836 32.8485C29.4836 33.1485 29.3836 33.4485 29.0836 33.7485Z" fill="#515BA7"/>
<path d="M24.4836 30.7483C24.4836 30.9483 24.4836 31.1482 24.4836 31.4482C21.0836 29.0482 19.8836 25.3483 18.7836 21.6483C18.2836 19.9483 18.8836 18.2483 18.7836 16.6483C19.6836 15.9483 19.5836 14.5482 20.6836 13.9482C20.7836 14.0482 20.7836 14.0483 20.8836 14.1483C21.0836 14.6483 20.8836 15.0482 20.7836 15.4482C18.9836 19.5482 20.6836 23.0482 22.4836 26.5482C23.0836 27.7482 23.8836 28.7483 24.7836 29.7483C24.8836 30.0483 24.6836 30.3483 24.4836 30.7483Z" fill="#555CA8"/>
<path d="M25.9836 8.54856C26.3836 8.44856 26.7836 8.24857 27.0836 8.14857C27.3836 7.84857 27.6836 7.84856 28.0836 8.04856C28.6836 8.84856 27.8836 9.14856 27.5836 9.54856C27.4836 9.64856 27.2836 9.74855 27.1836 9.84855C27.0836 9.94855 26.8836 10.0486 26.6836 10.0486C25.9836 10.0486 25.3836 10.8486 24.4836 10.4486C24.1836 10.0486 24.4836 9.84857 24.7836 9.64857C25.1836 9.34857 25.5836 8.94856 25.9836 8.54856Z" fill="#575FA9"/>
<path d="M24.8852 9.64844C24.7852 9.94844 24.5852 10.1484 24.4852 10.4484C24.4852 10.5484 24.4852 10.6484 24.4852 10.6484C24.2852 11.2484 23.7852 11.5484 23.3852 12.0484C23.2852 12.1484 23.1851 12.2484 23.0851 12.4484C22.2851 12.8484 22.1852 14.4484 20.7852 13.8484C21.5852 12.0484 22.9852 10.6484 24.8852 9.64844Z" fill="#555CA8"/>
<path d="M27.8852 7.04786C31.3852 5.34786 35.1852 4.84786 38.8852 6.04786C40.9852 6.74786 42.5852 8.24786 43.6852 10.5479C44.9852 13.3479 44.9852 16.0479 44.9852 18.9479C44.0852 19.4479 43.3852 18.9478 42.6852 18.3478C42.0852 16.8478 41.9852 15.3479 41.9852 13.7479C41.9852 12.1479 41.7852 10.6479 40.9852 9.24787C40.5852 8.44787 39.9851 8.04786 39.0851 7.94786C36.0851 6.54786 33.0852 6.54786 29.9852 7.54786C29.2852 7.74786 28.5852 8.14786 27.7852 7.54786C27.8852 7.24786 27.8852 7.14786 27.8852 7.04786Z" fill="#4952A2"/>
<path d="M27.884 7.34842C29.584 7.14842 31.084 6.14844 32.984 6.14844C35.284 6.14844 37.584 6.14842 39.684 7.34842C41.284 8.44842 41.784 10.1484 41.584 11.9484C41.484 13.3484 41.084 14.7484 41.284 16.2484C41.384 16.9484 40.984 17.5484 39.984 17.4484C38.584 16.6484 38.784 15.4484 39.084 14.2484C39.484 12.7484 39.484 11.2484 38.884 9.74844C38.284 8.24844 37.184 7.44843 35.584 7.44843C33.184 7.34843 30.784 7.44844 28.484 8.14844C28.384 8.14844 28.284 8.14844 28.184 8.14844C27.784 8.14844 27.384 8.14844 27.084 8.14844C27.384 7.94844 27.584 7.64842 27.884 7.34842Z" fill="#5259A6"/>
<path d="M59.0851 75.2481C58.5851 75.2481 58.0851 75.2481 57.5851 75.2481C57.4851 75.3481 57.2852 75.4481 57.1852 75.2481C57.1852 75.1481 57.1852 74.9481 57.1852 74.8481C59.7852 75.2481 59.5851 72.6481 60.5851 71.4481C60.7851 70.9481 60.1851 70.1481 61.0851 69.7481C62.6851 69.0481 62.2851 67.8481 61.5851 66.7481C60.2851 64.5481 59.2852 62.1481 58.1852 59.7481C57.0852 57.3481 56.2851 54.9481 55.5851 52.4481C54.7851 49.3481 52.3852 47.4481 49.8852 45.8481C48.4852 44.9481 46.8852 45.7481 45.3852 45.7481C44.5852 45.7481 43.6852 46.2481 43.2852 45.0481C43.6852 44.2481 44.4852 44.0481 45.2852 43.9481C46.8852 43.5481 48.3851 42.9481 50.0851 43.0481C51.8851 43.0481 53.2852 43.5481 54.2852 45.1481C54.8852 46.0481 55.4852 46.9481 56.3852 47.6481C57.1852 48.3481 57.9851 48.3481 58.5851 47.3481C59.1851 46.4481 59.5851 45.4481 59.5851 44.3481C59.7851 40.9481 58.9852 37.8481 57.7852 34.7481C57.3852 33.7481 56.8852 32.7481 56.7852 31.6481C56.4852 29.2481 55.1852 28.3481 52.9852 28.2481C52.7852 28.2481 52.5852 28.1481 52.4852 28.0481C51.9852 27.5481 51.7851 26.8481 51.5851 26.1481C51.5851 25.9481 51.5852 25.8481 51.7852 25.6481C52.0852 24.7481 52.7852 24.1481 53.2852 23.3481C54.0852 21.9481 56.3852 22.3481 57.1852 23.9481C57.8852 25.4481 58.3852 27.1481 58.9852 28.7481C60.2852 32.5481 61.8851 36.2481 62.0851 40.2481C62.2851 43.6481 63.1852 47.1481 61.7852 50.5481C61.5852 51.0481 61.6852 51.3481 61.7852 51.8481C62.0852 52.7481 62.6852 53.5481 61.8852 54.6481C61.4852 55.2481 62.1852 56.2481 62.6852 56.8481C63.2852 57.5481 64.0852 56.8481 64.7852 56.5481C65.4852 57.5481 64.8852 58.5481 64.7852 59.4481C64.4852 62.3481 64.6852 65.1481 64.6852 68.0481C64.5852 71.9481 62.2851 73.8481 59.0851 75.2481Z" fill="#334198"/>
<path d="M43.4844 45.1479C44.8844 45.6479 46.2844 45.1479 47.6844 45.0479C49.0844 44.9479 50.1844 45.3479 51.4844 46.1479C54.8844 48.3479 55.9844 51.5479 57.0844 55.1479C58.1844 58.8479 59.8844 62.4479 61.7844 65.7479C62.1844 66.4479 62.4844 67.2479 62.7844 67.9479C63.0844 68.8479 63.1844 69.7479 61.7844 69.8479C60.7844 69.8479 61.0844 70.8479 60.6844 71.3479C60.4844 70.8479 60.0844 70.3479 60.1844 69.9479C60.4844 66.2479 58.8844 63.0479 57.5844 59.7479C57.1844 58.6479 56.5844 57.5479 55.8844 56.6479C55.0844 55.5479 54.5844 54.2479 54.5844 52.7479C54.5844 50.0479 52.2844 48.7479 50.4844 48.3479C47.1844 47.6479 43.9844 46.0479 40.5844 46.2479C40.1844 46.2479 39.7844 46.2479 39.4844 45.9479C40.5844 45.0479 41.8844 44.4479 43.4844 45.1479Z" fill="#344299"/>
<path d="M50.3848 59.248C50.3848 59.148 50.3848 58.948 50.3848 58.848C49.9848 57.548 49.3847 56.448 48.0847 55.848C45.8847 54.148 43.3847 55.148 41.0847 55.448C38.6847 55.748 36.2848 55.748 33.8848 55.348C31.9848 55.048 29.8848 55.648 27.8848 55.848C29.4848 54.148 31.6848 54.748 33.6848 54.448C36.2848 54.048 38.9848 54.048 41.6848 54.048C42.6848 54.048 43.4847 53.148 44.5847 53.248C47.5847 53.648 49.7848 55.248 51.1848 57.748C51.9848 59.148 51.0848 60.948 50.3848 62.448C50.0848 61.248 49.8848 60.248 50.3848 59.248Z" fill="#344298"/>
<path d="M52.5839 74.8479C49.6839 74.8479 49.5839 74.7479 49.8839 71.9479C50.3839 68.2479 51.0839 64.6479 52.3839 61.1479C52.8839 59.9479 54.1839 59.4479 55.2839 60.5479C56.7839 62.0479 58.2839 63.6479 57.7839 66.1479C56.6839 66.2479 56.5839 65.2479 56.0839 64.6479C54.7839 62.9479 53.8839 62.8479 52.8839 64.7479C51.5839 67.3479 50.8839 70.1479 51.3839 73.1479C51.4839 73.5479 51.6839 73.8479 52.0839 73.9479C52.2839 74.0479 52.384 74.1479 52.484 74.3479C52.784 74.5479 52.7839 74.6479 52.5839 74.8479Z" fill="#3A489C"/>
<path d="M52.5839 74.8478C52.5839 74.7478 52.5839 74.5478 52.5839 74.4478C52.9839 73.9478 53.5839 73.8478 54.0839 73.9478C55.5839 74.0478 56.2839 73.2478 56.7839 72.0478C57.4839 70.0478 56.6839 66.9478 55.1839 65.5478C54.2839 64.6478 53.5839 64.8478 53.1839 65.9478C52.2839 68.3478 51.3839 70.8478 52.1839 73.4478C52.2839 73.7478 52.2839 74.0478 52.0839 74.3478C49.7839 73.8478 50.6839 71.7479 50.7839 70.7479C50.9839 68.3479 51.3839 65.7479 52.9839 63.6479C54.1839 62.1479 54.7839 62.2478 56.0839 63.5478C56.7839 64.2478 56.7839 65.4478 57.7839 65.9478C58.5839 68.9478 59.1839 71.9479 56.9839 74.7479C55.6839 74.8479 54.1839 74.8478 52.5839 74.8478Z" fill="#3E4A9D"/>
<path d="M57.1848 75.2485C57.2848 75.2485 57.4847 75.2485 57.5847 75.2485C55.7847 76.0485 53.8847 75.4485 52.0847 75.6485C50.9847 75.7485 49.9848 75.6485 48.8848 75.6485C50.7848 74.8485 52.8848 75.4485 54.7848 75.2485C55.5848 75.1485 56.3848 75.2485 57.1848 75.2485Z" fill="#313F97"/>
<path d="M47.384 75.9484C44.584 75.9484 41.884 75.9484 39.084 75.9484C39.084 75.8484 39.084 75.7484 39.084 75.6484C41.284 75.6484 43.584 75.6484 45.784 75.6484C46.084 75.6484 46.284 75.6484 46.584 75.6484C46.684 75.6484 46.884 75.6484 46.984 75.6484C47.084 75.7484 47.184 75.8484 47.384 75.9484Z" fill="#73737E"/>
<path d="M50.3844 59.248C50.3844 60.248 50.3844 61.248 50.3844 62.248C50.3844 62.748 50.5844 63.348 49.9844 63.748C49.7844 62.248 49.3844 60.648 50.3844 59.248Z" fill="#334298"/>
<path d="M43.4848 45.1485C42.0848 45.3485 40.6848 45.6485 39.2848 45.8485C38.4848 45.6485 37.5848 45.9485 36.8848 45.4485C39.9848 44.5485 43.1848 44.0485 45.7848 41.9485C47.2848 40.4485 49.0848 39.3485 50.6848 37.8485C51.0848 37.5485 51.4848 37.4485 51.8848 37.7485C52.3848 38.9485 51.4848 39.6485 50.9848 40.4485C49.6848 42.4485 47.7848 43.6485 45.3848 44.3485C44.7848 44.6485 44.0848 44.9485 43.4848 45.1485Z" fill="#AAADD7"/>
<path d="M45.3848 44.3484C48.1848 42.8484 50.6848 40.9484 51.8848 37.8484C51.8848 37.7484 51.8848 37.6484 51.8848 37.6484C51.8848 37.1484 52.1848 36.7484 52.2848 36.2484C52.3848 35.8484 52.6848 35.5484 52.9848 35.2484C52.9848 34.9484 53.0847 34.5484 53.0847 34.2484C53.2847 32.6484 52.7848 31.1484 52.6848 29.6484C52.5848 29.0484 52.6847 28.5484 53.0847 28.1484C56.3847 27.9484 56.4848 28.1484 57.3848 31.3484C57.9848 33.4484 58.9848 35.4484 59.4848 37.5484C60.3848 41.1484 61.4848 44.8484 58.9848 48.3484C58.2848 49.3484 57.6848 49.1484 56.9848 48.8484C55.5848 48.1484 54.7848 46.8484 53.9848 45.5484C53.1848 44.0484 51.7848 43.7484 50.4848 43.9484C49.1848 44.1484 47.5848 43.6484 46.3848 44.8484C45.9848 44.8484 45.5848 44.6484 45.3848 44.3484Z" fill="#303F97"/>
<path d="M42.6848 42.0481C42.7848 41.7481 43.0848 41.5481 42.6848 41.2481C42.5848 40.9481 42.7848 40.7481 42.9848 40.5481C44.7848 39.6481 45.9848 38.048 47.5848 36.848C49.4848 35.948 50.1848 34.1481 51.2848 32.5481C51.8848 31.7481 52.2848 30.9481 53.1848 32.1481C53.2848 32.4481 53.2848 32.6481 53.0848 32.9481C51.0848 36.9481 47.7848 39.5481 44.0848 41.7481C43.5848 41.9481 43.1848 42.0481 42.6848 42.0481Z" fill="#B7BADD"/>
<path d="M51.8852 37.8482C50.1852 38.2482 49.2852 39.7483 47.9852 40.6483C47.2852 41.1483 46.5852 41.6482 45.7852 41.9482C45.9852 41.6482 45.9852 41.1482 46.2852 40.9482C48.1852 39.7482 49.4852 37.9482 51.4852 36.9482C51.8852 37.2482 52.0852 37.4482 51.8852 37.8482Z" fill="#B1B4DA"/>
<path d="M52.985 32.9482C52.985 32.6482 52.985 32.4483 52.985 32.1483C52.285 31.2483 52.185 30.3482 52.985 29.4482C53.585 31.0482 53.485 32.5483 52.985 34.1483C52.985 33.7483 52.985 33.3482 52.985 32.9482Z" fill="#B1B4DA"/>
<path d="M51.8844 37.8486C51.7844 37.5486 51.5844 37.3486 51.4844 37.0486C51.4844 36.7486 51.5844 36.4486 51.8844 36.2486C52.0844 36.0486 52.2844 36.0486 52.5844 36.2486C52.4844 36.9486 52.3844 37.4486 51.8844 37.8486Z" fill="#AAADD7"/>
<path d="M52.5847 36.348C52.3847 36.348 52.1848 36.348 51.8848 36.348C51.8848 35.648 52.2848 35.248 52.9848 35.248C52.7848 35.548 52.6847 35.948 52.5847 36.348Z" fill="#B1B4DA"/>
<path d="M47.6852 37.1478C46.4852 38.7478 45.0851 40.1478 43.0851 40.9478C42.5851 40.8478 42.1852 40.8478 41.9852 41.3478C41.6852 41.7478 41.2852 41.7478 40.7852 41.6478C39.4852 41.7478 38.2852 41.9478 36.9852 41.6478C36.5852 41.7478 36.0852 41.6478 35.7852 41.3478C35.9852 40.5478 36.7852 40.4478 37.3852 40.1478C39.3852 39.1478 41.3851 37.9478 43.0851 36.4478C44.3851 35.3478 45.2851 34.0478 46.0851 32.6478C46.4851 31.8478 47.1852 31.1478 48.1852 31.2478C49.2852 31.4478 49.2852 32.4478 49.2852 33.3478C49.2852 34.8478 49.0852 36.2478 47.6852 37.1478Z" fill="#2F3D96"/>
<path d="M36.9844 41.6484C38.2844 41.1484 39.4844 41.1484 40.7844 41.6484C40.6844 41.7484 40.5844 41.7484 40.4844 41.7484C39.4844 42.1484 38.3844 42.2484 37.3844 41.7484C37.2844 41.7484 37.1844 41.7484 36.9844 41.6484Z" fill="#243793"/>
<path d="M37.3848 41.748C38.3848 41.748 39.4848 41.748 40.4848 41.748C40.3848 41.848 40.1847 41.948 40.0847 42.048C39.1847 42.248 38.2848 42.348 37.4848 42.048C37.3848 41.948 37.3848 41.848 37.3848 41.748Z" fill="#7379B9"/>
<path d="M37.3848 42.0479C38.2848 42.0479 39.1848 42.0479 39.9848 42.0479C39.1848 42.7479 38.1848 42.2478 37.3848 42.4478C37.3848 42.3478 37.3848 42.1479 37.3848 42.0479Z" fill="#CCCFE9"/>
<path d="M41.984 41.3485C41.884 41.2485 41.684 41.1486 41.584 41.1486C42.084 40.7486 42.584 40.3485 43.184 40.9485C43.084 41.0485 42.884 41.2485 42.784 41.3485C42.484 41.2485 42.184 41.3485 41.984 41.3485Z" fill="#233793"/>
<path d="M48.8849 33.448C48.6849 32.848 49.0849 31.8481 48.1849 31.6481C47.4849 31.5481 46.6849 32.248 46.4849 32.848C44.4849 37.448 40.2849 39.2481 36.1849 41.1481C36.0849 41.2481 35.9849 41.248 35.8849 41.348C35.3849 41.248 34.8849 41.148 34.3849 40.948C34.3849 40.748 33.6849 41.0481 33.9849 40.5481C34.1849 39.6481 34.5849 38.9481 35.4849 38.7481C39.8849 37.7481 42.1849 34.4481 44.2849 31.0481C45.0849 29.7481 45.9849 28.448 47.4849 27.948C47.7849 27.848 48.0849 27.848 48.3849 27.948C48.4849 28.048 48.6849 28.248 48.7849 28.348C49.8849 29.548 49.6849 31.0481 49.6849 32.5481C49.6849 32.7481 49.5849 32.9481 49.4849 33.1481C49.2849 33.3481 49.0849 33.448 48.8849 33.448Z" fill="#324097"/>
<path d="M42.7842 18.0486C43.5842 18.3486 44.2842 18.5486 45.0842 18.8486C45.1842 18.9486 45.3842 19.1487 45.4842 19.2487C44.3842 19.9487 43.9842 21.4486 42.6842 22.0486C41.9842 22.3486 41.3842 22.0486 40.6842 22.0486C39.6842 21.9486 38.6842 22.1486 37.6842 21.9486C37.4842 21.9486 37.2842 21.8487 37.1842 21.7487C36.8842 20.3487 38.0842 20.6487 38.5842 20.7487C39.6842 20.8487 40.1842 20.4486 40.3842 19.3486C40.5842 18.3486 41.3842 17.9486 42.3842 17.8486C42.4842 17.8486 42.5842 17.9486 42.7842 18.0486Z" fill="#D4D8ED"/>
<path d="M42.584 21.9483C42.984 21.7483 43.084 21.3484 43.184 21.0484C43.484 19.9484 44.184 19.2483 45.384 19.3483C45.684 19.4483 45.884 19.5484 46.184 19.5484C46.584 19.8484 46.884 20.1483 47.284 20.4483C46.984 20.8483 46.084 20.7484 46.384 21.7484C46.584 22.4484 45.884 23.0484 45.284 23.5484C44.784 23.8484 44.484 23.5484 44.284 23.1484C43.884 22.7484 43.384 22.4483 42.784 22.3483C42.584 22.1483 42.584 22.0483 42.584 21.9483Z" fill="#D1D2EA"/>
<path d="M48.3841 27.9483C45.2841 28.8483 44.3841 31.8483 42.7841 34.1483C41.1841 36.4483 39.1841 38.0483 36.5841 38.8483C35.4841 39.2483 34.5841 39.6483 33.8841 40.4483C33.6841 40.3483 33.3841 40.1483 33.1841 40.0483C32.9841 39.5483 32.0841 39.2483 32.4841 38.4483C35.2841 37.5483 38.0841 36.6483 40.1841 34.2483C41.0841 33.1483 41.9841 31.9483 42.3841 30.5483C43.0841 28.8483 44.3841 27.5483 45.3841 26.0483C45.6841 25.5483 46.1841 25.0483 46.8841 25.2483C46.9841 25.2483 47.0841 25.3483 47.2841 25.3483C47.4841 26.3483 48.3841 26.9483 48.3841 27.9483Z" fill="#354299"/>
<path d="M49.1852 32.9483C49.0852 31.4483 48.8852 29.9483 48.7852 28.3483C49.0852 28.2483 49.5852 28.1483 49.3852 27.8483C48.8852 26.7483 49.6852 26.2483 50.2852 25.6483C50.8852 25.4483 51.1852 25.8483 51.4852 26.3483C51.7852 26.9483 51.4852 27.5483 51.2852 28.1483C50.7852 29.3483 50.2851 30.5483 50.0851 31.9483C49.9851 32.3483 49.9852 32.9483 49.1852 32.9483Z" fill="#C6C7E4"/>
<path d="M51.0848 26.4486C50.7848 26.1486 50.5849 25.9487 50.2849 25.6487C50.3849 24.8487 49.6849 24.1486 50.2849 23.3486C51.0849 23.9486 51.2849 24.8487 51.7849 25.6487C51.7849 25.7487 51.7849 25.8486 51.7849 26.0486C51.7849 26.4486 51.4848 26.6486 51.0848 26.4486Z" fill="#C4C8E2"/>
<path d="M46.8852 25.3482C45.1852 26.8482 44.0852 28.9483 42.6852 30.6483C42.2852 31.4483 41.7852 32.1482 41.1852 32.8482C40.6852 33.4482 40.0852 33.9482 39.2852 33.3482C39.2852 32.3482 40.4852 32.0482 40.3852 31.0482C42.1852 29.2482 43.0852 26.9483 44.1852 24.7483C44.5852 24.0483 43.6852 23.5482 44.1852 22.9482C44.4852 23.0482 44.8852 23.2482 45.1852 23.3482C45.7852 24.0482 46.3852 24.6482 46.8852 25.3482Z" fill="#39469B"/>
<path d="M45.084 74.9482C41.484 75.5482 37.884 75.1482 34.284 75.2482C34.184 75.0482 34.084 74.8482 34.084 74.6482C34.184 71.8482 34.084 68.9482 34.084 66.1482C34.084 64.9482 34.184 63.7482 34.984 62.7482C35.284 62.4482 35.684 62.1482 36.084 62.0482C36.784 61.8482 37.584 61.8482 38.284 61.6482C39.184 61.5482 40.184 61.5482 41.084 61.6482C42.284 62.1482 43.884 61.5482 44.584 63.2482C45.184 65.8482 44.784 68.5482 44.784 71.1482C44.784 72.3482 44.684 73.6482 45.084 74.9482Z" fill="#E8EAF5"/>
<path d="M24.8848 75.2483C26.4848 74.7483 27.2848 74.0483 26.8848 72.0483C26.4848 69.4483 26.7848 66.7483 26.3848 63.9483C25.8848 60.9483 28.8848 58.1483 32.6848 58.1483C36.2848 58.1483 39.8847 58.1483 43.5847 58.0483C44.3847 58.0483 45.9848 57.6483 46.6848 58.9483C47.7848 61.1483 49.2848 63.3483 48.2848 65.9483C47.9848 66.8483 47.9848 67.9483 47.3848 68.8483C46.9848 69.4483 47.0848 70.6483 45.8848 70.3483C45.3848 68.5483 45.8848 66.7483 45.8848 65.0483C46.4848 64.8483 46.4848 65.5483 46.9848 65.6483C47.6848 64.2483 47.5848 62.9483 46.4848 61.7483C45.3848 60.2483 43.8848 59.6483 41.9848 59.8483C39.1848 60.1483 36.2848 59.6483 33.4848 59.7483C30.4848 59.8483 28.6848 61.6483 28.3848 64.6483C28.1848 67.1483 28.5848 69.5483 28.6848 72.0483C28.7848 74.5483 27.5848 75.6483 24.8848 75.2483Z" fill="#293893"/>
<path d="M38.1844 61.9486C37.5844 62.2486 36.8844 62.3487 36.2844 62.2487C35.6844 62.3487 36.7844 61.2486 35.7844 61.5486C34.6844 61.9486 33.4844 61.8486 32.3844 62.3486C30.8844 63.1486 30.2844 64.3486 30.2844 66.0486C30.2844 68.3486 30.5844 70.6486 30.8844 72.9486C30.9844 73.6486 31.0844 74.3486 30.7844 74.9486C30.5844 75.2486 30.3844 75.3486 30.0844 75.5486C29.1844 75.5486 28.2844 75.5486 27.4844 75.5486C28.9844 73.7486 28.6844 71.5486 28.4844 69.4486C28.3844 67.9486 28.1844 66.5486 28.3844 65.0486C28.6844 61.6486 30.9844 59.3486 34.4844 59.3486C37.1844 59.3486 39.7844 59.4486 42.4844 59.4486C44.4844 59.4486 45.8844 60.6486 47.1844 62.0486C47.2844 62.2486 47.3844 62.5487 47.3844 62.7487C47.3844 63.2487 47.5844 63.9487 46.9844 64.2487C46.2844 64.6487 45.8844 63.9486 45.4844 63.5486C45.2844 63.1486 45.0844 62.8486 44.5844 62.8486C43.5844 62.0486 42.2844 62.0487 41.1844 61.7487C40.1844 61.4487 39.1844 61.5486 38.1844 61.9486Z" fill="#192D8D"/>
<path d="M46.8836 62.2483C44.6836 60.3483 42.1836 59.6482 39.3836 59.9482C37.7836 60.0482 36.2836 60.0482 34.6836 59.8482C32.2836 59.5482 29.2836 62.2483 28.9836 64.7483C28.6836 67.5483 29.2836 70.3483 29.0836 73.1483C28.9836 74.4483 28.8836 75.3483 27.4836 75.6483C26.8836 75.6483 26.1836 75.6483 25.5836 75.6483C24.9836 75.6483 24.2836 75.6483 23.6836 75.6483C23.9836 75.2483 24.3836 75.2483 24.7836 75.2483C27.6836 75.1483 28.7836 73.7482 28.0836 70.5482C27.4836 68.0482 27.8836 65.6483 27.8836 63.2483C27.8836 61.2483 30.5836 58.9482 32.6836 58.9482C35.8836 58.9482 39.0836 59.3482 42.1836 59.0482C44.0836 58.8482 45.7836 59.6482 46.7836 61.4482C47.0836 61.7482 47.1836 62.0483 46.8836 62.2483Z" fill="#273591"/>
<path d="M46.8852 62.2483C46.8852 61.9483 46.8852 61.7482 46.8852 61.4482C47.9852 62.2482 47.7852 63.4482 47.7852 64.4482C47.7852 65.1482 47.5852 66.3482 46.6852 66.4482C45.7852 66.5482 46.3852 65.2482 45.6852 64.8482C45.5852 64.4482 45.3852 64.0483 45.2852 63.7483C45.6852 63.9483 46.1852 64.0483 46.7852 64.2483C46.8852 63.5483 46.8852 62.9483 46.8852 62.2483Z" fill="#263692"/>
<path d="M45.7834 70.248C46.4834 69.948 46.7834 69.148 47.2834 68.748C47.4834 70.048 46.4834 71.048 46.3834 72.748C45.6834 71.748 45.4834 71.048 45.7834 70.248Z" fill="#2D3A94"/>
<path d="M48.084 55.748C49.884 56.048 50.484 57.148 50.384 58.748C49.284 58.048 48.984 56.748 48.084 55.748Z" fill="#334298"/>
<path d="M59.084 75.2484C59.484 74.8484 59.784 74.2484 60.284 74.1484C63.384 72.8484 63.884 70.1484 64.384 67.3484C64.484 66.9484 64.484 66.5484 64.384 66.0484C63.984 62.8484 64.184 59.7484 64.684 56.6484C64.684 56.2484 64.784 55.8484 64.984 55.4484C65.984 53.7484 66.384 53.6484 67.784 55.1484C67.784 55.4484 67.784 55.6484 67.784 55.9484C67.184 55.5484 66.784 55.6484 66.484 56.3484C65.084 58.7484 65.084 61.4484 65.084 64.0484C65.084 66.5484 65.284 68.9484 65.084 71.4484C64.984 73.1484 64.384 74.6484 62.184 74.7484C61.184 74.6484 60.184 75.3484 59.084 75.2484Z" fill="#313F97"/>
<path d="M85.8851 57.3486C87.9851 57.3486 88.3851 57.7487 88.3851 59.7487C88.3851 61.8487 86.8851 63.4486 84.9851 63.4486C83.6851 63.4486 82.3851 62.1486 82.3851 60.9486C82.2851 59.0486 83.9851 57.3486 85.8851 57.3486Z" fill="#575FA9"/>
<path d="M30.1836 75.5486C30.2836 75.4486 30.4836 75.3486 30.5836 75.1486C31.2836 74.6486 31.0836 73.9486 30.8836 73.3486C30.5836 72.3486 30.3836 71.3486 30.8836 70.2486C31.4836 69.8486 31.6836 70.3486 31.9836 70.7486C32.1836 72.2486 32.7836 71.0486 33.1836 70.9486C34.2836 71.7486 33.6836 73.1486 34.2836 74.1486C34.2836 74.9486 33.2836 74.6486 32.9836 75.2486C32.5836 75.8486 31.9836 75.6486 31.4836 75.6486C30.9836 75.6486 30.5836 75.5486 30.1836 75.5486Z" fill="#1C297F"/>
<path d="M32.885 75.2481C32.685 74.1481 33.485 74.548 33.985 74.448C34.085 74.348 34.285 74.348 34.385 74.448C34.485 74.648 34.485 74.748 34.285 74.848C34.285 74.948 34.285 75.0481 34.285 75.2481C33.885 75.2481 33.385 75.2481 32.885 75.2481Z" fill="#1F297C"/>
<path d="M21.2847 48.7479C22.0847 48.9479 22.8847 49.3479 22.8847 50.6479C22.8847 51.6479 20.5847 53.5479 19.4847 53.4479C18.3847 53.3479 18.5847 52.3479 18.4847 51.7479C18.3847 50.5479 20.0847 48.6479 21.2847 48.7479Z" fill="#4F58A5"/>
<path d="M19.0845 67.5479C19.0845 68.8479 19.0845 70.6479 17.7845 70.6479C16.4845 70.6479 16.6845 68.6478 16.4845 67.4478C16.3845 67.1478 16.4845 66.6478 16.6845 66.3478C17.1845 65.4478 16.8845 63.7478 18.1845 63.9478C19.0845 64.1478 19.0845 65.6479 19.0845 66.7479C19.1845 67.0479 19.0845 67.3479 19.0845 67.5479Z" fill="#5159A6"/>
<path d="M39.2844 33.3484C41.0844 33.3484 41.3844 31.2484 42.6844 30.6484C41.8844 34.2484 39.2844 36.2484 36.1844 37.8484C34.9844 38.4484 33.7844 38.8484 32.3844 38.6484C32.0844 38.9484 31.7844 38.8484 31.4844 38.7484C31.0844 38.4484 30.6844 38.0484 30.4844 37.5484C32.3844 36.7484 34.5844 36.7484 36.3844 35.5484C37.4844 34.8484 38.5844 34.3484 39.2844 33.3484Z" fill="#36449A"/>
<path d="M31.4844 38.6479C31.7844 38.6479 32.0844 38.6479 32.3844 38.5479C32.5844 39.0479 33.1844 39.3479 33.1844 40.0479C32.6844 39.7479 32.1844 39.3479 31.6844 39.0479C31.5844 38.9479 31.5844 38.8479 31.4844 38.6479Z" fill="#324097"/>
<path d="M28.584 29.8478C27.884 30.3478 28.684 31.9479 27.084 31.7479C26.084 31.6479 25.084 31.8478 24.684 30.4478C24.584 29.4478 23.984 28.3479 24.384 27.2479C24.584 26.8479 24.884 26.6479 25.284 26.5479C25.984 27.2479 26.784 27.5479 27.784 27.2479C28.284 27.0479 28.784 27.0478 29.184 27.3478C29.584 27.7478 29.384 28.2479 29.384 28.6479C29.384 29.3479 29.184 29.7478 28.584 29.8478Z" fill="#D8DAEE"/>
<path d="M28.584 29.8478C28.784 29.4478 28.884 29.1478 29.084 28.7478C30.284 29.1478 31.384 28.2478 32.584 28.5478C32.984 28.8478 33.584 29.1478 33.184 29.8478C31.784 30.7478 30.084 30.2478 28.684 30.9478C28.684 30.6478 28.684 30.2478 28.584 29.8478Z" fill="#5860AA"/>
<path d="M24.8851 27.3482C24.8851 28.4482 24.7851 29.5482 24.7851 30.5482C24.6851 30.6482 24.5851 30.6483 24.4851 30.7483C24.4851 30.3483 24.4851 29.9482 24.4851 29.5482C23.5851 28.0482 21.9851 26.9482 22.1851 24.9482C23.5851 25.0482 24.6851 25.7482 24.8851 27.3482Z" fill="#5961AB"/>
<path d="M42.5842 21.9484C42.5842 22.0484 42.6842 22.1484 42.6842 22.2484C42.0842 24.6484 41.8842 27.2484 39.9842 29.1484C39.6842 29.5484 39.4842 29.9484 39.0842 30.2484C37.9842 30.7484 36.8842 31.0484 36.0842 29.7484C35.9842 29.3484 36.0842 28.9484 36.2842 28.6484C36.4842 28.4484 36.6842 28.2484 36.9842 28.2484C37.9842 28.5484 38.7842 28.2484 39.0842 27.2484C39.6842 25.6484 40.8842 24.0484 40.1842 22.1484C40.1842 21.8484 40.3842 21.6484 40.6842 21.6484C41.3842 21.6484 41.9842 21.8484 42.5842 21.9484Z" fill="#4953A2"/>
<path d="M39.284 29.8478C39.584 29.5478 39.784 29.3479 40.084 29.0479C39.984 29.7479 39.684 30.4478 39.184 30.8478C36.984 32.5478 34.884 34.2478 31.984 34.4478C30.884 34.5478 29.884 34.3479 29.084 33.5479C29.084 33.1479 29.084 32.7478 29.084 32.3478C30.084 32.1478 31.184 32.5479 32.184 32.2479C34.684 31.9479 37.084 31.2478 39.284 29.8478Z" fill="#434EA0"/>
<path d="M36.6848 28.7484C36.5848 29.0484 36.4848 29.2484 36.3848 29.5484C36.3848 30.3484 35.6847 30.5484 35.0847 30.7484C34.5847 30.8484 33.9848 30.7484 33.6848 30.3484C33.5848 30.2484 33.3848 30.1484 33.2848 29.9484C33.0848 29.5484 32.7847 29.1484 32.5847 28.7484C32.4847 28.6484 32.3848 28.4484 32.3848 28.2484C32.4848 27.0484 32.9848 26.1484 34.1848 25.7484C34.9848 25.5484 35.6848 25.7484 36.2848 26.1484C36.9848 26.8484 37.2848 27.7484 36.6848 28.7484Z" fill="#969CCD"/>
<path d="M33.584 30.248C34.084 30.248 34.584 30.248 35.084 30.348C34.984 32.248 33.184 32.148 32.084 32.948C31.084 33.048 29.984 33.648 29.084 32.548C29.084 32.048 29.084 31.548 29.884 31.748C31.384 32.048 32.484 31.148 33.584 30.248Z" fill="#4A54A3"/>
<path d="M22.1839 24.9478C22.6839 26.6478 24.2839 27.7479 24.4839 29.5479C22.3839 28.5479 21.7839 26.3479 20.8839 24.5479C19.0839 21.0479 19.0839 17.5478 20.6839 13.9478C21.7839 13.7478 21.9839 12.3479 22.9839 12.0479C23.3839 12.4479 23.1839 12.9478 22.9839 13.3478C22.7839 13.6478 22.5839 13.9479 22.3839 14.2479C20.4839 16.5479 20.2839 19.0479 21.4839 21.7479C21.9839 22.7479 22.7839 23.6478 22.1839 24.9478Z" fill="#5960AA"/>
<path d="M27.084 9.64869C27.084 9.54869 27.084 9.3487 27.084 9.2487C28.184 9.0487 29.084 8.1487 30.084 7.7487C30.284 7.7487 30.484 7.64869 30.684 7.64869C31.584 7.54869 32.484 7.5487 33.384 7.7487C33.984 8.0487 34.684 8.3487 35.184 8.7487C36.384 9.4487 36.984 10.6487 36.684 11.9487C36.184 14.3487 35.284 16.6487 33.984 18.7487C33.684 19.1487 33.284 19.2487 32.784 19.1487C31.184 17.3487 31.384 15.4487 32.784 13.6487C33.084 13.2487 33.484 12.7487 33.684 12.2487C33.984 11.0487 33.484 10.2487 32.284 10.1487C31.084 10.0487 29.884 10.3487 28.684 10.2487C28.184 10.1487 27.584 10.2487 27.084 9.64869Z" fill="#6168AF"/>
<path d="M27.0844 9.64786C27.6844 9.64786 28.3844 9.64786 28.9844 9.64786C28.8844 10.7479 27.7844 10.8479 27.1844 11.2479C25.3844 12.5479 23.7844 13.8479 23.0844 16.1479C22.7844 17.3479 22.7844 18.2479 23.3844 19.1479C24.3844 20.9479 25.4844 22.6479 26.9844 24.2479C27.0844 25.3479 26.7844 26.1478 25.6844 26.4478C25.2844 26.3478 24.8844 26.3479 24.6844 26.0479C23.3844 24.0479 21.5844 22.3479 20.9844 20.0479C20.3844 17.7479 21.0844 15.7479 22.2844 13.7479C22.3844 13.4479 22.5844 13.2478 22.6844 12.9478C23.8844 11.5478 25.2844 10.4479 26.8844 9.54785C26.8844 9.64785 26.9844 9.64786 27.0844 9.64786Z" fill="#6169AF"/>
<path d="M26.784 9.64852C25.584 11.0485 24.284 12.2485 22.584 13.0485C22.684 12.6485 22.884 12.2485 22.984 11.9485C23.584 11.5485 24.084 11.0485 24.484 10.4485C25.284 10.4485 25.784 9.44852 26.784 9.64852Z" fill="#5B62AB"/>
<path d="M30.1836 8.14793C29.3836 9.04793 28.3836 9.44794 27.1836 9.24794C27.5836 8.84794 27.9836 8.44793 28.2836 8.14793C28.8836 7.94793 29.5836 7.74793 30.1836 8.14793Z" fill="#5B62AB"/>
<path d="M24.4844 10.4482C24.3844 11.3482 23.8844 11.8482 22.9844 11.9482C23.2844 11.3482 23.7844 10.8482 24.4844 10.4482Z" fill="#5960AA"/>
<path d="M42.7839 18.0486C42.6839 18.0486 42.4839 18.1487 42.3839 18.1487C40.5839 18.1487 38.7838 18.7486 37.0838 17.8486C36.8838 16.9486 37.5838 17.0486 38.0838 16.8486C38.7838 16.7486 39.4838 17.0486 40.0838 17.3486C40.5838 17.3486 41.0839 16.8486 40.9839 16.5486C40.0839 14.8486 41.0839 13.2486 41.1839 11.5486C41.2839 9.84864 40.3839 8.74863 39.6839 7.34863C41.4839 7.44863 41.8838 9.24863 42.0838 10.3486C42.6838 12.8486 42.5839 15.4486 42.7839 18.0486Z" fill="#4D56A4"/>
<path d="M40.0836 17.2478C39.4836 17.2478 38.7836 17.2478 38.1836 17.2478C37.3836 17.0478 37.0836 16.5478 37.0836 15.7478C37.0836 14.9478 37.1836 14.0478 37.5836 13.3478C38.2836 11.8478 38.0836 10.5478 36.9836 9.34781C36.8836 9.24781 36.6836 9.14782 36.5836 9.04782C34.6836 8.04782 32.6836 7.44782 30.4836 8.14782C30.3836 8.14782 30.1836 8.14782 30.0836 8.14782C29.4836 8.14782 28.7836 8.14782 28.1836 8.14782C30.7836 6.44782 33.7836 6.84782 36.5836 7.14782C39.0836 7.44782 40.5836 10.9478 39.6836 13.9478C39.4836 15.1478 39.1836 16.2478 40.0836 17.2478Z" fill="#575FA9"/>
<path d="M48.8852 33.4482C48.9852 33.3482 49.0852 33.3483 49.1852 33.2483C50.5852 32.0483 50.7852 30.2482 51.8852 28.9482C52.1852 28.6482 52.1852 28.1482 52.6852 27.9482C52.7852 27.9482 52.8852 28.0482 52.9852 28.0482C52.9852 28.5482 52.9852 29.0482 52.9852 29.5482C53.0852 30.4482 52.6852 31.3483 52.9852 32.2483C52.3852 31.9483 51.9852 31.9483 51.7852 32.7483C51.3852 34.3483 49.8852 35.1482 49.1852 36.5482C49.0852 36.8482 48.5852 37.8483 47.7852 37.2483C48.0852 35.8483 48.9852 34.8482 48.8852 33.4482Z" fill="#BCBFE0"/>
<path d="M52.6836 27.9484C52.2836 30.1484 50.7836 31.7484 49.5836 33.5484C49.5836 33.5484 49.2836 33.3484 49.1836 33.3484C49.1836 33.2484 49.1836 33.1484 49.1836 33.0484C49.7836 30.8484 50.4836 28.7484 51.0836 26.5484C51.3836 26.4484 51.5836 26.2484 51.8836 26.1484C52.4836 26.5484 52.5836 27.2484 52.6836 27.9484Z" fill="#C0C4E2"/>
<path d="M52.2845 74.4485C50.4845 71.0485 51.9845 67.9485 53.1845 64.8485C53.3845 64.2485 53.9845 63.7486 54.9845 64.6486C56.9845 66.4486 58.1845 69.3485 57.4845 71.8485C56.8845 74.0485 56.1845 74.4485 52.5845 74.4485C52.4845 74.4485 52.3845 74.4485 52.2845 74.4485Z" fill="#424EA0"/>
<path d="M36.9844 17.7483C38.7844 17.7483 40.5844 17.6483 42.2844 18.1483C41.8844 18.3483 40.9844 18.5483 40.9844 18.7483C40.9844 21.7483 38.4844 20.9483 36.9844 21.4483C36.8844 21.8483 36.5844 22.0483 36.2844 22.2483C33.6844 23.0483 31.6844 24.7483 30.2844 27.0483C30.0844 27.2483 29.8844 27.4483 29.6844 27.5483C29.5844 27.5483 29.4844 27.5483 29.3844 27.5483C28.6844 27.6483 27.8844 27.7483 27.1844 28.0483C25.8844 28.5483 25.4844 28.1483 25.5844 26.8483C25.4844 26.7483 25.4844 26.6483 25.4844 26.5483C25.4844 26.4483 25.5844 26.4483 25.5844 26.4483C25.9844 25.6483 26.3844 24.9483 26.8844 24.1483C26.7844 23.7483 26.9844 23.4483 27.1844 23.1483C28.1844 21.4483 29.8844 20.3483 31.4844 19.2483C31.8844 18.8483 32.4844 18.9483 32.9844 18.8483C33.3844 18.7483 33.6844 18.5483 34.0844 18.4483C34.6844 17.9483 35.3844 17.7483 36.0844 17.6483C36.3844 17.6483 36.6844 17.4483 36.9844 17.7483Z" fill="#DBDDF0"/>
<path d="M36.185 21.8482C36.485 21.7482 36.6851 21.5482 36.9851 21.4482C37.0851 21.4482 37.2851 21.5482 37.3851 21.5482C37.8851 21.8482 38.4851 21.5482 38.9851 21.8482C38.9851 24.0482 37.0851 25.0482 35.8851 26.4482C35.2851 26.1482 34.6851 26.0483 33.9851 26.1483C33.8851 26.2483 33.6851 26.2483 33.4851 26.1483C33.2851 25.0483 34.2851 24.5482 34.7851 23.8482C35.3851 23.1482 35.985 22.6482 36.185 21.8482Z" fill="#636AB0"/>
<path d="M38.8848 21.8481C38.3848 21.7481 37.7848 21.9481 37.3848 21.5481C38.4848 21.4481 39.6848 21.3481 40.7848 21.5481C40.6848 21.6481 40.5848 21.7481 40.3848 21.8481C40.2848 21.9481 40.0848 22.1481 39.8848 22.1481C39.5848 22.2481 39.1848 22.2481 38.8848 21.8481Z" fill="#404FA0"/>
<path d="M34.3851 74.8484C34.3851 74.7484 34.2851 74.5484 34.2851 74.4484C32.8851 72.2484 33.1851 69.7484 32.6851 67.3484C32.5851 66.7484 32.6851 66.0484 32.6851 65.4484C32.6851 64.7484 32.6851 64.1484 33.1851 63.5484C33.8851 62.9484 34.3851 61.8484 35.5851 62.6484C34.8851 63.4484 34.6851 64.4484 34.6851 65.4484C34.6851 67.9484 34.6851 70.3484 34.6851 72.8484C34.6851 73.5484 34.8851 74.2484 34.3851 74.8484Z" fill="#2B3390"/>
<path d="M35.584 62.6485C34.584 62.3485 34.384 63.5485 33.584 63.7485C33.084 63.1485 32.284 63.4485 31.684 63.0485C31.384 62.3485 32.084 62.1485 32.484 61.8485C33.484 61.3485 34.584 61.2485 35.684 61.0485C36.984 60.8485 36.484 61.5485 36.284 62.1485C35.984 62.3485 35.784 62.5485 35.584 62.6485Z" fill="#192A86"/>
<path d="M38.1836 61.9485C39.0836 61.1485 40.1836 61.5485 41.1836 61.6485C41.1836 61.6485 41.1836 61.7485 41.1836 61.8485C41.1836 61.9485 41.0836 61.9485 41.0836 62.0485C40.1836 61.9485 39.1836 61.9485 38.1836 61.9485Z" fill="#1A2984"/>
<path d="M32.4848 61.8486C32.1848 62.2486 31.9848 62.6486 31.6848 62.9486C31.3848 64.4486 30.4848 65.7486 30.6848 67.3486C30.7848 68.2486 31.2848 69.1487 30.8848 70.1487C30.8848 71.4487 30.7848 72.7486 31.4848 74.0486C31.9848 74.9486 31.2847 75.1487 30.5847 75.1487C30.4847 71.8487 29.5848 68.6486 29.7848 65.3486C29.8848 63.5486 30.6848 62.3486 32.4848 61.8486Z" fill="#1A2B8A"/>
<path d="M87.684 59.9485C87.684 61.6485 86.584 62.7485 85.084 62.6485C83.784 62.5485 83.184 61.8485 83.084 60.5485C83.084 59.1485 84.484 57.5485 85.784 57.7485C87.084 57.9485 87.884 58.6485 87.684 59.9485Z" fill="#6067AE"/>
<path d="M30.8849 70.2479C29.7849 67.6479 29.5849 65.2478 31.6849 63.0478C32.4849 62.9478 33.4849 62.2479 33.5849 63.7479C33.0849 64.1479 33.2849 64.7479 33.1849 65.2479C33.0849 65.3479 32.8849 65.3479 32.6849 65.2479C32.3849 65.0479 32.1849 63.9479 31.7849 65.1479C31.3849 66.1479 31.5849 67.2478 31.6849 68.3478C31.7849 69.1478 32.1849 69.9479 31.7849 70.7479C31.6849 70.8479 31.6849 70.8478 31.5849 70.9478C31.4849 70.7478 31.1849 70.5479 30.8849 70.2479Z" fill="#1D297C"/>
<path d="M32.7846 65.3486C32.8846 65.3486 32.9846 65.3486 33.1846 65.3486C33.3846 68.4486 33.1846 71.5486 34.2846 74.5486C34.1846 74.5486 34.0846 74.5486 33.9846 74.5486C32.7846 73.6486 33.5846 72.1487 32.8846 71.1487C32.7846 71.0487 32.7846 71.0486 32.6846 70.9486C32.5846 70.7486 32.4846 70.6486 32.4846 70.4486C32.3846 69.6486 32.4846 68.9487 32.3846 68.1487C32.3846 67.0487 31.8846 66.0486 32.7846 65.3486Z" fill="#1A2B8A"/>
<path d="M32.8852 71.0482C32.6852 71.6482 33.3852 72.7483 32.2852 72.7483C31.3852 72.7483 31.5852 71.7482 31.6852 71.0482C32.0852 70.7482 32.4852 70.7482 32.8852 71.0482Z" fill="#1D297C"/>
<path d="M25.5841 26.4482C25.5841 26.5482 25.5841 26.7482 25.5841 26.8482C25.3841 27.0482 25.0841 27.1482 24.8841 27.3482C24.1841 26.3482 23.0841 25.7482 22.1841 24.9482C21.7841 22.9482 20.2841 21.2483 20.1841 19.1483C20.0841 17.0483 20.5841 15.3482 22.1841 13.9482C21.5841 16.0482 20.7841 18.0482 21.2841 20.3482C21.6841 22.0482 23.4841 22.5483 23.7841 24.1483C23.9841 25.1483 24.7841 25.8482 25.5841 26.4482Z" fill="#5D64AC"/>
<path d="M32.484 28.3484C32.484 28.4484 32.484 28.5484 32.484 28.6484C31.384 28.5484 30.184 30.1484 29.084 28.6484C29.184 28.2484 29.284 27.8484 29.384 27.4484L29.484 27.5484C30.484 27.7484 31.884 26.7484 32.484 28.3484Z" fill="#6068AF"/>
<path d="M38.8852 21.8486C39.2852 21.8486 39.6852 21.8486 39.9852 21.8486C40.8852 23.0486 40.2852 24.0487 39.7852 25.1487C39.0852 26.4487 38.1852 27.4486 36.9852 28.3486C36.8852 28.4486 36.7851 28.6487 36.5851 28.7487C36.5851 27.8487 36.4852 27.0486 35.7852 26.4486C36.3852 24.5486 38.2852 23.6486 38.8852 21.8486Z" fill="#585FA9"/>
<path d="M36.9844 28.3482C37.1844 26.7482 38.8844 26.3482 39.3844 24.9482C39.7844 23.9482 40.0844 22.9482 39.9844 21.9482C40.0844 21.9482 40.2844 21.9482 40.3844 21.9482C41.3844 22.4482 41.6844 22.9482 40.9844 24.0482C40.1844 25.2482 40.3844 26.9483 39.3844 28.1483C38.5844 29.1483 37.8844 29.4482 36.9844 28.3482Z" fill="#4E56A4"/>
<path d="M32.084 32.9478C33.084 32.0478 34.084 31.2478 35.084 30.3478C35.484 30.0478 35.884 29.8479 36.284 29.5479C37.184 30.6479 38.284 29.9478 39.284 29.9478C37.484 32.3478 34.584 32.2478 32.084 32.9478Z" fill="#4750A1"/>
<path d="M32.4844 28.3479C31.6844 27.3479 30.2844 28.6479 29.4844 27.6479C29.5844 27.3479 29.6844 27.1479 29.7844 26.8479C31.0844 26.8479 32.0844 25.4479 33.5844 26.0479C33.6844 26.0479 33.8844 26.0479 33.9844 26.0479C32.9844 26.4479 32.9844 27.5479 32.4844 28.3479Z" fill="#656CB1"/>
<path d="M27.4852 23.3478C27.2852 23.6478 27.0852 23.8478 26.8852 24.1478C26.5852 24.1478 25.9852 24.6478 25.8852 24.2478C25.1852 22.2478 23.4852 20.9478 22.6852 19.0478C21.6852 16.8478 22.7852 15.1478 23.8852 13.6478C25.0852 11.7478 27.1852 10.7478 29.0852 9.74784C30.1852 9.74784 31.1852 9.64784 32.2852 9.64784C33.0852 9.64784 33.9852 9.54783 34.1852 10.4478C34.4852 11.2478 34.8852 12.2478 33.9852 13.0478C33.6852 13.3478 33.4852 13.8478 33.1852 14.1478C31.7852 15.7478 32.0852 17.3478 32.8852 18.9478C32.4852 19.1478 32.0852 19.4478 31.5852 19.6478C30.4852 20.1478 29.5852 19.9478 28.8852 19.0478C28.1852 18.0478 28.3852 16.9478 29.0852 16.0478C29.7852 15.0478 30.4852 14.1478 30.8852 12.9478C31.3852 11.6478 30.8852 11.0478 29.4852 11.0478C27.6852 11.1478 24.0852 14.2478 23.8852 15.9478C23.6852 17.2478 24.2852 18.1478 25.2852 18.9478C26.6852 20.0478 27.3852 21.6478 27.4852 23.3478Z" fill="#636AB0"/>
<path d="M36.284 18.2484C35.484 17.8484 34.784 18.4484 34.084 18.4484C34.484 16.1484 35.884 14.2484 36.384 12.1484C36.684 10.8484 36.184 9.74843 34.984 9.04843C34.484 8.74843 33.884 8.74844 33.584 8.14844C34.884 7.64844 35.984 8.14842 36.984 8.94842C37.984 10.4484 38.284 12.0484 37.284 13.7484C36.384 15.1484 37.284 16.9484 36.284 18.2484Z" fill="#5E65AD"/>
<path d="M36.984 8.9478C35.884 8.5478 34.784 8.14781 33.584 8.14781C32.584 8.14781 31.584 8.14781 30.584 8.14781C32.284 7.04781 35.684 7.4478 36.984 8.9478Z" fill="#5B62AB"/>
<path d="M36.2845 18.2483C35.9845 16.0483 36.4845 14.0482 37.3845 12.0482C37.7845 11.0482 37.0845 9.94824 37.0845 8.94824C38.5845 10.0482 38.9845 11.4483 38.2845 13.1483C37.6845 14.5483 37.1845 15.9482 38.2845 17.3482C37.8845 17.3482 37.3845 17.3483 37.1845 17.7483C36.7845 17.9483 36.4845 18.0483 36.2845 18.2483Z" fill="#5B62AB"/>
<path d="M56.7836 70.4481C56.8836 71.5481 56.2836 72.6481 55.5836 73.6481C55.0836 74.4481 54.1836 74.1481 53.4836 74.0481C52.4836 73.8481 52.1836 72.9481 52.1836 72.1481C52.1836 70.2481 52.6836 68.4481 53.8836 66.8481C54.3836 66.2481 54.6836 66.2481 55.2836 66.7481C56.4836 67.6481 56.7836 68.9481 56.7836 70.4481Z" fill="#4651A1"/>
<path d="M27.485 23.3482C26.485 21.6482 25.685 19.8482 24.185 18.4482C22.585 16.9482 22.785 15.3482 24.885 13.3482C26.385 11.9482 27.885 10.1482 30.285 10.4482C31.785 10.5482 32.285 11.3482 31.685 12.7482C31.185 13.6482 31.085 14.8482 30.185 15.5482C29.285 16.2482 28.685 17.2482 29.085 18.3482C29.485 19.4482 30.685 19.4482 31.685 19.5482C30.185 20.7482 28.685 21.9482 27.485 23.3482Z" fill="#666CB1"/>
<path d="M33.5851 26.0486C32.6851 26.3486 31.6852 26.6487 30.8852 27.1487C30.2852 27.4487 30.1852 27.0486 29.7852 26.8486C31.1852 24.2486 33.1852 22.4486 36.1852 21.8486C36.8852 22.6486 36.1852 23.0486 35.7852 23.5486C35.0852 24.4486 34.2851 25.2486 33.5851 26.0486Z" fill="#6970B4"/>
<path d="M85.2843 61.4478C84.5843 61.4478 83.7843 61.2478 83.9843 60.3478C84.1843 59.4478 84.2843 58.3478 85.5843 58.4478C86.6843 58.5478 86.8843 59.3478 86.8843 60.1478C86.8843 61.2478 86.1843 61.5478 85.2843 61.4478Z" fill="#656BB1"/>
<path d="M32.7837 71.0486C32.3837 71.0486 31.9837 71.0486 31.6837 71.0486C31.4837 69.1486 30.6837 67.2486 31.2837 65.2486C31.4837 64.5486 31.5837 63.5486 32.4837 63.6486C33.1837 63.7486 32.7837 64.7486 32.8837 65.2486C32.5837 66.1486 32.9837 67.0485 32.8837 67.9485C32.4837 68.8485 32.6837 69.7486 32.8837 70.6486C32.7837 70.7486 32.7837 70.8486 32.7837 71.0486Z" fill="#1E2978"/>
<path d="M32.7836 70.6483C32.3836 69.7483 31.7836 68.8482 32.7836 67.9482C32.7836 68.8482 32.7836 69.7483 32.7836 70.6483Z" fill="#1D297C"/>
<path d="M56.0847 71.0486C56.0847 71.1486 56.0848 71.7487 55.7848 72.1487C55.4848 72.6487 55.0848 73.3487 54.3848 73.1487C53.7848 72.9487 53.3848 72.3487 53.3848 71.6487C53.3848 71.2487 53.3848 70.8486 53.3848 70.5486C53.4848 69.4486 53.5848 67.8486 54.7848 67.8486C55.8848 67.8486 56.0847 69.4486 56.0847 71.0486Z" fill="#4C55A3"/>
</svg>
