<svg width="390" height="329" viewBox="0 0 390 329" fill="none" xmlns="http://www.w3.org/2000/svg">
<g filter="url(#filter0_d_561_691)">
<path d="M364.223 194.973C323.005 185.657 314.881 189.184 294.741 177.036C289.921 174.134 290.03 164.625 316.8 166.874C330.223 167.998 339.329 163.278 339.329 156.559C339.329 152.074 330.845 145.841 318.196 148.937C299.899 153.421 288.024 148.34 285.81 142.662C282.997 135.484 286.181 127.307 333.288 112.314C391.015 93.919 357.91 60.4474 312.569 91.9754C292.484 105.928 282.997 111.717 269.617 116.201C257.612 120.227 243.207 116.048 254.111 106.788C258.342 103.193 265.517 100.43 267.491 96.0154C270.304 89.7403 262.017 83.8956 254.82 83.8956C247.623 83.8956 238.627 86.5889 235.814 93.3082C231.583 105.65 220.81 105.025 215.728 101.471C205.991 94.6687 209.502 86.7416 211.17 74.4691C213.144 60.0586 226.534 26.7674 185.436 29.2247C165.612 30.4047 159.767 42.3163 166.168 63.5849C174.139 89.9902 162.079 108.427 149.19 112.147C133.706 116.631 125.844 114.938 92.8585 100.486C75.3244 92.7945 55.9692 99.5416 52.011 108.552C48.5216 116.493 58.3573 126.086 73.1435 129.182C95.9117 133.971 106.009 135.082 116.575 138.747C126.902 142.343 128.188 151.047 117.884 158.919C107.558 166.804 80.8965 160.279 41.4665 158.488C-26.6963 155.393 -11.3758 203.427 52.7197 189.295C89.3364 181.215 104.821 183.006 111.167 187.948C119.923 194.764 113.904 203.969 96.8386 210.522C42.3934 231.457 103.436 257.474 125.964 228.458C135.385 216.338 146.224 212.618 156.932 215.297C165.677 217.491 176.876 236.927 164.216 263.152C152.941 286.475 153.715 311.603 180.18 311.603C204.922 311.603 208.793 288.127 204.573 262.555C203.003 252.989 204.17 238.162 215.848 234.442C225.237 231.457 239.914 228.125 249.881 241.314C259.04 253.42 278.755 251.629 286.508 244.909C292.167 239.981 295.046 229.069 272.518 223.405C245.671 216.644 255.529 198.249 275.953 200.054C298.492 202.039 313.954 207.315 340.735 221.892C378.126 242.202 426.127 208.967 364.223 194.973Z" fill="#D8DAF1"/>
</g>
<g filter="url(#filter1_d_561_691)">
<path d="M358 131.008C358 138.2 363.234 144.017 369.657 144.017C376.101 144.017 381.335 138.2 381.335 131.008C381.335 123.831 376.101 118 369.657 118C363.223 118 358 123.831 358 131.008Z" fill="#B69BE3"/>
</g>
<g filter="url(#filter2_d_561_691)">
<path d="M367.121 248.782C361.963 248.782 357.787 253.447 357.787 259.194C357.787 264.942 361.963 269.593 367.121 269.593C372.279 269.593 376.444 264.942 376.444 259.194C376.455 253.447 372.279 248.782 367.121 248.782Z" fill="#6197FF"/>
</g>
<g filter="url(#filter3_d_561_691)">
<path d="M287.137 278C276.571 278 268 287.551 268 299.338C268 311.125 276.571 320.676 287.137 320.676C297.703 320.676 306.274 311.125 306.274 299.338C306.263 287.551 297.703 278 287.137 278Z" fill="#73E4DE"/>
</g>
<g filter="url(#filter4_d_561_691)">
<path d="M102.459 315.264C110.445 315.264 116.918 308.041 116.918 299.132C116.918 290.223 110.445 283 102.459 283C94.4736 283 88 290.223 88 299.132C88 308.041 94.4736 315.264 102.459 315.264Z" fill="#35CC7B"/>
</g>
<g filter="url(#filter5_d_561_691)">
<path d="M38.4585 249C34.3476 249 31 252.721 31 257.33C31 261.911 34.3476 265.646 38.4585 265.646C42.5804 265.646 45.9171 261.925 45.9171 257.33C45.9171 252.707 42.5804 249 38.4585 249Z" fill="#FFD057"/>
</g>
<g filter="url(#filter6_d_561_691)">
<path d="M91.7921 50.8517C97.2006 50.8517 101.584 45.951 101.584 39.9258C101.584 33.9007 97.2006 29 91.7921 29C86.3835 29 82 33.9007 82 39.9258C82 45.951 86.3835 50.8517 91.7921 50.8517Z" fill="#FF9E68"/>
</g>
<g filter="url(#filter7_d_561_691)">
<path d="M260.052 29.1263C267.26 29.1263 273.105 22.6014 273.105 14.5493C273.105 6.52496 267.26 0 260.052 0C252.845 0 247 6.52496 247 14.5493C247.011 22.6014 252.856 29.1263 260.052 29.1263Z" fill="#FF7171"/>
</g>
<circle cx="195" cy="162" r="50" fill="white"/>
<path d="M174.333 152.677C176.135 152.677 177.596 151.187 177.596 149.349C177.596 147.511 176.135 146.021 174.333 146.021C172.531 146.021 171.07 147.511 171.07 149.349C171.07 151.187 172.531 152.677 174.333 152.677Z" fill="#DBDDEF"/>
<path d="M174.334 151.766C175.591 151.766 176.609 150.684 176.609 149.35C176.609 148.015 175.591 146.934 174.334 146.934C173.077 146.934 172.059 148.015 172.059 149.35C172.059 150.684 173.077 151.766 174.334 151.766Z" fill="#646AB0"/>
<path d="M173.138 149.031C173.399 149.031 173.611 148.783 173.611 148.478C173.611 148.172 173.399 147.925 173.138 147.925C172.877 147.925 172.666 148.172 172.666 148.478C172.666 148.783 172.877 149.031 173.138 149.031Z" fill="#959BCD"/>
<path d="M168.245 152.677C170.047 152.677 171.508 151.187 171.508 149.349C171.508 147.511 170.047 146.021 168.245 146.021C166.443 146.021 164.982 147.511 164.982 149.349C164.982 151.187 166.443 152.677 168.245 152.677Z" fill="#DBDDEF"/>
<path d="M168.246 151.766C169.503 151.766 170.522 150.684 170.522 149.35C170.522 148.015 169.503 146.934 168.246 146.934C166.989 146.934 165.971 148.015 165.971 149.35C165.971 150.684 166.989 151.766 168.246 151.766Z" fill="#646AB0"/>
<path d="M167.048 149.031C167.309 149.031 167.521 148.783 167.521 148.478C167.521 148.172 167.309 147.925 167.048 147.925C166.788 147.925 166.576 148.172 166.576 148.478C166.576 148.783 166.788 149.031 167.048 149.031Z" fill="#959BCD"/>
<path d="M220.08 161.036C220.187 161.61 219.974 161.883 219.521 161.993C216.3 162.731 212.333 163.305 208.82 163.223C207.622 163.196 207.009 162.567 206.956 161.336L206.583 152.505C206.53 151.138 207.116 150.591 208.447 150.591L217.205 150.536C217.764 150.536 218.137 150.919 218.137 151.493V153.407C218.137 153.981 217.764 154.364 217.205 154.364L211.056 154.446L211.082 159.176C213.452 159.231 216.406 158.93 218.802 158.493C219.361 158.383 219.601 158.547 219.681 159.04L220.08 161.036ZM225.859 174.218C225.7 174.628 225.327 174.792 224.741 174.71C222.399 174.354 220.003 173.425 218.033 171.675C216.382 173.261 214.173 174.436 211.671 174.928C211.138 175.038 210.632 174.901 210.419 174.464L209.674 172.686C209.461 172.222 209.621 171.647 210.18 171.511C213.667 170.608 216.063 168.065 216.356 165.413C216.462 164.566 216.808 164.183 217.421 164.183H220.109C220.828 164.183 221.201 164.702 221.148 165.413C221.068 166.589 220.722 167.737 220.189 168.804C222.079 169.952 224.182 170.39 226.179 170.745C226.685 170.827 226.818 171.401 226.685 171.784L225.859 174.218ZM222.159 163.715C221.627 163.715 221.361 163.442 221.361 162.895L221.201 150.782C221.201 150.235 221.44 149.962 221.973 149.962H225.221C225.753 149.962 226.019 150.235 225.993 150.782L225.913 154.528H228.069C228.628 154.528 229.001 154.911 229.001 155.485V157.727C229.001 158.301 228.628 158.684 228.069 158.684H225.806L225.726 162.895C225.7 163.442 225.46 163.715 224.928 163.715H222.159Z" fill="url(#paint0_linear_561_691)"/>
<path d="M208.04 157.081C208.077 155.03 208.622 153.26 208.216 153.253C207.81 153.245 207.452 154.901 207.415 156.953C207.378 159.004 207.677 160.673 208.082 160.681C208.488 160.689 208.004 159.132 208.04 157.081Z" fill="#959BCD"/>
<path d="M214.939 169.618C213.562 170.995 211.997 171.855 212.291 172.119C212.585 172.384 213.939 171.482 215.316 170.105C216.693 168.728 217.57 167.397 217.276 167.133C216.982 166.869 216.315 168.241 214.939 169.618Z" fill="#959BCD"/>
<path d="M224.212 162.071C223.593 162.689 222.686 162.892 222.98 163.156C223.274 163.421 224.013 163.133 224.632 162.515C225.251 161.896 225.514 161.18 225.219 160.916C224.925 160.652 224.83 161.452 224.212 162.071Z" fill="#959BCD"/>
<path d="M213.344 152.182C215.467 152.182 217.188 150.444 217.188 148.3C217.188 146.155 215.467 144.417 213.344 144.417C211.221 144.417 209.5 146.155 209.5 148.3C209.5 150.444 211.221 152.182 213.344 152.182Z" fill="#DBDDEF"/>
<path d="M213.345 151.119C214.825 151.119 216.025 149.857 216.025 148.3C216.025 146.744 214.825 145.481 213.345 145.481C211.864 145.481 210.664 146.744 210.664 148.3C210.664 149.857 211.864 151.119 213.345 151.119Z" fill="#646AB0"/>
<path d="M211.933 147.928C212.241 147.928 212.49 147.639 212.49 147.283C212.49 146.927 212.241 146.638 211.933 146.638C211.626 146.638 211.377 146.927 211.377 147.283C211.377 147.639 211.626 147.928 211.933 147.928Z" fill="#959BCD"/>
<path d="M179.089 144.654C179.383 144.651 179.69 144.738 179.989 144.867C180.282 144.993 180.391 144.588 180.099 144.464C179.582 144.241 179.046 144.145 178.561 144.279C176.613 142.985 174.593 142.61 174.035 143.444C173.768 143.843 174.062 144.178 174.654 144.562L174.215 145.378L179.575 148.483L179.821 148.024C180.416 148.441 180.847 148.595 181.118 148.19C181.629 147.424 180.732 145.907 179.089 144.654Z" fill="#A48172"/>
<path d="M173.956 169.918L173.899 175.417C173.87 176.165 173.641 176.553 173.127 176.553H170.095C169.58 176.553 169.322 176.165 169.322 175.417L169.237 170.022L162.772 170.202C162.315 170.228 162 169.738 162 169.067V166.15C162 165.478 162.315 165.014 162.772 165.014L180.42 164.936C180.878 164.936 181.193 165.401 181.193 166.072V168.576C181.193 169.247 180.878 169.686 180.42 169.712L173.956 169.918ZM164.775 163.491C163.487 163.491 162.801 162.923 162.801 161.839L162.658 153.423C162.629 152.287 163.487 151.745 164.631 151.745L179.019 151.771C179.62 151.771 180.02 152.107 180.02 152.623V154.197C180.02 154.714 179.62 155.049 179.019 155.049H167.549V156.082L178.733 156.03C179.248 156.03 179.534 156.366 179.534 156.753V158.328C179.534 158.818 179.162 159.051 178.59 159.051L167.549 159.102V160.264L179.248 160.29C179.848 160.238 180.106 160.341 180.192 160.78V162.303C180.277 162.768 180.077 163.078 179.591 163.155L164.775 163.491Z" fill="url(#paint1_linear_561_691)"/>
<path d="M164.191 157.261C164.191 155.155 164.626 153.33 164.282 153.329C163.937 153.328 163.658 155.034 163.658 157.14C163.658 159.246 163.937 160.954 164.282 160.955C164.626 160.956 164.191 159.367 164.191 157.261Z" fill="#959BCD"/>
<path d="M163.406 167.697C163.406 166.778 163.841 165.983 163.497 165.982C163.152 165.981 162.873 166.725 162.873 167.643C162.873 168.561 163.152 169.306 163.497 169.307C163.841 169.309 163.406 168.615 163.406 167.697Z" fill="#959BCD"/>
<path d="M164.442 162.734C164.683 162.734 164.878 162.547 164.878 162.318C164.878 162.088 164.683 161.901 164.442 161.901C164.201 161.901 164.006 162.088 164.006 162.318C164.006 162.547 164.201 162.734 164.442 162.734Z" fill="#959BCD"/>
<path fill-rule="evenodd" clip-rule="evenodd" d="M198.401 173.154C199.007 172.263 200.098 171.996 201.397 172.413L201.443 172.43C202.701 173.008 203.404 173.798 203.533 174.771C203.856 177.196 200.347 179.683 199.947 179.959L199.31 180.4L199.33 179.549C199.33 179.535 199.355 178.087 198.329 176.254C197.787 175.284 197.816 174.009 198.401 173.154Z" fill="#434FA0"/>
<path fill-rule="evenodd" clip-rule="evenodd" d="M199.916 179.484C199.685 179.371 199.523 179.236 199.301 179.119C199.301 180.16 199.296 180.401 199.301 180.409L199.74 180.104C199.813 180.064 200.013 179.917 200.304 179.702C200.162 179.628 200.053 179.55 199.916 179.484Z" fill="#C1261C"/>
<path d="M197.532 168.196C197.622 168.763 194.812 169.352 194.366 169.441C191.121 170.128 189.852 170.285 186.041 170.196C184.85 170.166 184.195 169.539 184.195 168.315L183.987 154.139C183.957 153.602 184.225 153.333 184.761 153.333L187.976 153.363C188.512 153.363 188.72 153.631 188.75 154.169L188.929 165.838C191.31 165.928 193.9 165.719 196.312 165.391C196.878 165.331 197.116 165.45 197.175 165.928L197.532 168.196Z" fill="url(#paint2_linear_561_691)"/>
<path d="M186.724 154.329C188.526 154.329 189.987 152.839 189.987 151.002C189.987 149.164 188.526 147.674 186.724 147.674C184.922 147.674 183.461 149.164 183.461 151.002C183.461 152.839 184.922 154.329 186.724 154.329Z" fill="#DBDDEF"/>
<path d="M186.725 153.418C187.981 153.418 189 152.336 189 151.002C189 149.668 187.981 148.586 186.725 148.586C185.468 148.586 184.449 149.668 184.449 151.002C184.449 152.336 185.468 153.418 186.725 153.418Z" fill="#646AB0"/>
<path d="M185.527 150.683C185.788 150.683 185.999 150.436 185.999 150.13C185.999 149.825 185.788 149.577 185.527 149.577C185.266 149.577 185.055 149.825 185.055 150.13C185.055 150.436 185.266 150.683 185.527 150.683Z" fill="#959BCD"/>
<path d="M185.575 169.065C186.068 169.065 185.217 168.544 185.217 167.717C185.217 166.889 186.068 166.068 185.575 166.068C185.081 166.068 184.682 166.739 184.682 167.567C184.682 168.394 185.081 169.065 185.575 169.065Z" fill="#959BCD"/>
<path d="M200.151 171.501C199.661 171.495 199.409 171.194 199.424 170.65L199.553 151.599C199.544 151.058 199.784 150.79 200.253 150.826L203.225 150.942C203.715 150.948 203.968 151.249 203.926 151.768L203.258 170.818C203.267 171.359 203.002 171.629 202.509 171.596L200.151 171.501Z" fill="url(#paint3_linear_561_691)"/>
<defs>
<filter id="filter0_d_561_691" x="-7" y="29.0957" width="405" height="290.507" filterUnits="userSpaceOnUse" color-interpolation-filters="sRGB">
<feFlood flood-opacity="0" result="BackgroundImageFix"/>
<feColorMatrix in="SourceAlpha" type="matrix" values="0 0 0 0 0 0 0 0 0 0 0 0 0 0 0 0 0 0 127 0" result="hardAlpha"/>
<feOffset dy="4"/>
<feGaussianBlur stdDeviation="2"/>
<feComposite in2="hardAlpha" operator="out"/>
<feColorMatrix type="matrix" values="0 0 0 0 0 0 0 0 0 0 0 0 0 0 0 0 0 0 0.25 0"/>
<feBlend mode="normal" in2="BackgroundImageFix" result="effect1_dropShadow_561_691"/>
<feBlend mode="normal" in="SourceGraphic" in2="effect1_dropShadow_561_691" result="shape"/>
</filter>
<filter id="filter1_d_561_691" x="354" y="118" width="31.3359" height="34.0166" filterUnits="userSpaceOnUse" color-interpolation-filters="sRGB">
<feFlood flood-opacity="0" result="BackgroundImageFix"/>
<feColorMatrix in="SourceAlpha" type="matrix" values="0 0 0 0 0 0 0 0 0 0 0 0 0 0 0 0 0 0 127 0" result="hardAlpha"/>
<feOffset dy="4"/>
<feGaussianBlur stdDeviation="2"/>
<feComposite in2="hardAlpha" operator="out"/>
<feColorMatrix type="matrix" values="0 0 0 0 0 0 0 0 0 0 0 0 0 0 0 0 0 0 0.25 0"/>
<feBlend mode="normal" in2="BackgroundImageFix" result="effect1_dropShadow_561_691"/>
<feBlend mode="normal" in="SourceGraphic" in2="effect1_dropShadow_561_691" result="shape"/>
</filter>
<filter id="filter2_d_561_691" x="353.787" y="248.782" width="26.6582" height="28.8105" filterUnits="userSpaceOnUse" color-interpolation-filters="sRGB">
<feFlood flood-opacity="0" result="BackgroundImageFix"/>
<feColorMatrix in="SourceAlpha" type="matrix" values="0 0 0 0 0 0 0 0 0 0 0 0 0 0 0 0 0 0 127 0" result="hardAlpha"/>
<feOffset dy="4"/>
<feGaussianBlur stdDeviation="2"/>
<feComposite in2="hardAlpha" operator="out"/>
<feColorMatrix type="matrix" values="0 0 0 0 0 0 0 0 0 0 0 0 0 0 0 0 0 0 0.25 0"/>
<feBlend mode="normal" in2="BackgroundImageFix" result="effect1_dropShadow_561_691"/>
<feBlend mode="normal" in="SourceGraphic" in2="effect1_dropShadow_561_691" result="shape"/>
</filter>
<filter id="filter3_d_561_691" x="264" y="278" width="46.2734" height="50.6758" filterUnits="userSpaceOnUse" color-interpolation-filters="sRGB">
<feFlood flood-opacity="0" result="BackgroundImageFix"/>
<feColorMatrix in="SourceAlpha" type="matrix" values="0 0 0 0 0 0 0 0 0 0 0 0 0 0 0 0 0 0 127 0" result="hardAlpha"/>
<feOffset dy="4"/>
<feGaussianBlur stdDeviation="2"/>
<feComposite in2="hardAlpha" operator="out"/>
<feColorMatrix type="matrix" values="0 0 0 0 0 0 0 0 0 0 0 0 0 0 0 0 0 0 0.25 0"/>
<feBlend mode="normal" in2="BackgroundImageFix" result="effect1_dropShadow_561_691"/>
<feBlend mode="normal" in="SourceGraphic" in2="effect1_dropShadow_561_691" result="shape"/>
</filter>
<filter id="filter4_d_561_691" x="84" y="283" width="36.918" height="40.2637" filterUnits="userSpaceOnUse" color-interpolation-filters="sRGB">
<feFlood flood-opacity="0" result="BackgroundImageFix"/>
<feColorMatrix in="SourceAlpha" type="matrix" values="0 0 0 0 0 0 0 0 0 0 0 0 0 0 0 0 0 0 127 0" result="hardAlpha"/>
<feOffset dy="4"/>
<feGaussianBlur stdDeviation="2"/>
<feComposite in2="hardAlpha" operator="out"/>
<feColorMatrix type="matrix" values="0 0 0 0 0 0 0 0 0 0 0 0 0 0 0 0 0 0 0.25 0"/>
<feBlend mode="normal" in2="BackgroundImageFix" result="effect1_dropShadow_561_691"/>
<feBlend mode="normal" in="SourceGraphic" in2="effect1_dropShadow_561_691" result="shape"/>
</filter>
<filter id="filter5_d_561_691" x="27" y="249" width="22.918" height="24.6455" filterUnits="userSpaceOnUse" color-interpolation-filters="sRGB">
<feFlood flood-opacity="0" result="BackgroundImageFix"/>
<feColorMatrix in="SourceAlpha" type="matrix" values="0 0 0 0 0 0 0 0 0 0 0 0 0 0 0 0 0 0 127 0" result="hardAlpha"/>
<feOffset dy="4"/>
<feGaussianBlur stdDeviation="2"/>
<feComposite in2="hardAlpha" operator="out"/>
<feColorMatrix type="matrix" values="0 0 0 0 0 0 0 0 0 0 0 0 0 0 0 0 0 0 0.25 0"/>
<feBlend mode="normal" in2="BackgroundImageFix" result="effect1_dropShadow_561_691"/>
<feBlend mode="normal" in="SourceGraphic" in2="effect1_dropShadow_561_691" result="shape"/>
</filter>
<filter id="filter6_d_561_691" x="78" y="29" width="27.584" height="29.8516" filterUnits="userSpaceOnUse" color-interpolation-filters="sRGB">
<feFlood flood-opacity="0" result="BackgroundImageFix"/>
<feColorMatrix in="SourceAlpha" type="matrix" values="0 0 0 0 0 0 0 0 0 0 0 0 0 0 0 0 0 0 127 0" result="hardAlpha"/>
<feOffset dy="4"/>
<feGaussianBlur stdDeviation="2"/>
<feComposite in2="hardAlpha" operator="out"/>
<feColorMatrix type="matrix" values="0 0 0 0 0 0 0 0 0 0 0 0 0 0 0 0 0 0 0.25 0"/>
<feBlend mode="normal" in2="BackgroundImageFix" result="effect1_dropShadow_561_691"/>
<feBlend mode="normal" in="SourceGraphic" in2="effect1_dropShadow_561_691" result="shape"/>
</filter>
<filter id="filter7_d_561_691" x="243" y="0" width="34.1055" height="37.126" filterUnits="userSpaceOnUse" color-interpolation-filters="sRGB">
<feFlood flood-opacity="0" result="BackgroundImageFix"/>
<feColorMatrix in="SourceAlpha" type="matrix" values="0 0 0 0 0 0 0 0 0 0 0 0 0 0 0 0 0 0 127 0" result="hardAlpha"/>
<feOffset dy="4"/>
<feGaussianBlur stdDeviation="2"/>
<feComposite in2="hardAlpha" operator="out"/>
<feColorMatrix type="matrix" values="0 0 0 0 0 0 0 0 0 0 0 0 0 0 0 0 0 0 0.25 0"/>
<feBlend mode="normal" in2="BackgroundImageFix" result="effect1_dropShadow_561_691"/>
<feBlend mode="normal" in="SourceGraphic" in2="effect1_dropShadow_561_691" result="shape"/>
</filter>
<linearGradient id="paint0_linear_561_691" x1="225.384" y1="153.579" x2="211.955" y2="183.981" gradientUnits="userSpaceOnUse">
<stop stop-color="#434FA0"/>
<stop offset="0.242643" stop-color="#4E58AB"/>
<stop offset="0.440625" stop-color="#6E72CB"/>
<stop offset="1" stop-color="#434FA0" stop-opacity="0.916667"/>
</linearGradient>
<linearGradient id="paint1_linear_561_691" x1="179.679" y1="156.061" x2="158.793" y2="172.429" gradientUnits="userSpaceOnUse">
<stop stop-color="#434FA0"/>
<stop offset="0.440625" stop-color="#6E72CB"/>
<stop offset="1" stop-color="#434FA0" stop-opacity="0.916667"/>
</linearGradient>
<linearGradient id="paint2_linear_561_691" x1="196.466" y1="156.271" x2="182.134" y2="167.921" gradientUnits="userSpaceOnUse">
<stop stop-color="#434FA0"/>
<stop offset="0.440625" stop-color="#6E72CB"/>
<stop offset="1" stop-color="#434FA0" stop-opacity="0.916667"/>
</linearGradient>
<linearGradient id="paint3_linear_561_691" x1="203.684" y1="154.132" x2="193.692" y2="158.504" gradientUnits="userSpaceOnUse">
<stop stop-color="#434FA0"/>
<stop offset="0.440625" stop-color="#6E72CB"/>
<stop offset="1" stop-color="#434FA0" stop-opacity="0.916667"/>
</linearGradient>
</defs>
</svg>
